<?xml version="1.0" encoding="UTF-8"?><svg xmlns="http://www.w3.org/2000/svg" viewBox="0 0 2064.27 1373.6"><defs><style>.d{fill:#fabaae;stroke:#fabaae;}.d,.e,.f,.g{fill-rule:evenodd;}.d,.f,.g{stroke-miterlimit:10;}.e{fill:none;}.f{fill:#d6e2d5;stroke:#d6e2d5;}.g{fill:#9fb3e0;stroke:#9fb3e0;}</style></defs><g id="a"><path class="e" d="M794.05,561.92c2.74,3.06,5.35,7.55,5.69,8.38,1.85,4.47,4,7.72,5.76,12.22,2.5,6.42,5.33,11.45,7.55,17.97,2.02,5.92,3.85,13.02,5.4,20.49,.72,3.46,1.35,6.95,1.8,10.07,.68,4.68,.97,9.44,1.44,14.38,.55,5.8,1.33,12.2,2.16,16.18,1.27,6.05,2.94,11.67,5.04,16.9,1.44,3.6,4.41,9.32,7.19,14.38,3.26,5.94,6.9,12,9.71,15.46,3.25,4.01,6.99,7.76,11.15,11.14,9.69,7.88,21.86,12.63,26.98,14.38,5.18,1.77,13.8,5.03,20.86,7.55,7.2,2.58,14.88,5.44,20.5,7.91,7.87,3.45,15.2,7.18,20.86,10.78,6.95,4.43,13.68,9.69,20.14,15.82,5.91,5.6,10.99,11.31,14.39,16.18,3.71,5.3,6.83,10.95,9.35,16.9,.61,3.33,1.75,6.24,3.46,8.75,2.16,3.18,4.54,4.78,4.08,6.72-.58,2.44-5.19,3.41-8.4,3.84-11.87,1.59-26.84,2.57-33.12,1.2-6.37-1.39-37.76-3.3-54.48-4.32-8.26-.5-24.93-.45-37.92-.72-12.5-.26-29.15-.81-36.72-.72-9.95,.12-24.66-.36-26.88,0-5.43,.88-9.82,2.09-13.2-.48-7.34-5.59-.69-22.06,1.68-46.56,.59-6.06,.77-14.7,.72-22.8-.06-9.58-.97-17.35,0-26.88,.38-3.76,2.25-12.37,2.16-19.44-.12-9.33-2.85-15.15-3.12-24.48-.22-7.72,1.51-13.16,1.68-20.88,.16-6.99-.74-13.95-.96-19.92-.21-5.91,.45-10.66,0-16.56-.65-8.64-2.06-13.77,0-21.36,.79-2.91,1.71-5.17,2.16-8.16,.65-4.3,.25-7.18,0-11.52-.18-3.18-.14-7.77,0-12,.07-2.07,.18-3.78,0-5.76-.06-.7-1.55-7.23-.72-7.68,.66-.36,2.15,1.03,3.6,2.64Z"/><path class="f" d="M1329.37,93.86c6.59,8.92,17.24,19.17,19.26,20.74,6.24,4.84,18.09,18.11,28.15,29.64,11.66,13.34,19.1,24.35,32.6,35.56,10.24,8.5,22.57,16.34,38.53,23.71,17.72,8.18,55.71,17,94.83,20.74,14.46,1.38,27.43,2.02,40.01,1.48,25.43-1.1,48.97-6.73,60.75-11.85,15.55-6.76,24.39-16.02,38.53-23.71,24.87-13.51,53.69-21.33,81.5-19.26,11.73,.87,36.08,7.42,59.27,19.26,21.14,10.8,31.81,20.79,54.83,25.19,8.94,1.71,26.63,1.18,43.47,0,21.24-1.49,33.6-3.43,41-11.85,10.11-11.52,8.08-27.88,5.93-44.45-2.6-19.98-3.77-40.81-7.41-56.31-7.89-33.6-15.99-58.41-28.15-69.64-14.25-13.16-31.02-17.11-59.27-22.23-31.75-5.74-63.58-10.52-85.94-10.37-19.54,.13-40.99,2.49-53.34,4.45-41.34,6.53-87.43,12.09-121.51,13.34-42.32,1.55-77.19-5.56-121.51,0-44.2,5.54-72.09,21.47-115.58,31.12-18.88,4.19-50.85,10.9-53.34,26.67-.71,4.47,1.67,10.01,7.41,17.78Z"/></g><g id="b"><path class="d" d="M1998.68,891.71c-2.09-.89-9.26-3.56-14.83-4.94-9.4-2.34-16.87-2.14-26.69-2.97-11.26-.95-18.9-2.42-27.68,0-6.77,1.87-11.13,4.86-17.8,8.9-6.2,3.75-12.08,6.65-18.29,10.38-7.58,4.56-15.32,9.68-19.28,13.35-7.94,7.36-13.78,15.75-19.28,26.69-5.44,10.83-8.02,19.65-11.86,31.14-4.09,12.23-9.11,21.93-13.35,34.11-3.06,8.8-8.33,23.19-8.9,25.21-1.45,5.18-3.85,13.25-8.9,20.76-3.94,5.86-10.7,12.88-20.76,19.28-7.15,4.55-16.47,8.66-28.18,11.86-11.13,3.04-19.98,3.04-31.14,5.93-10.07,2.61-16.54,6.64-26.69,8.9-15.37,3.42-25.92,.85-41.52,2.97-13.22,1.8-23.71,4.88-32.62,8.9-7.42,3.34-14.44,7.77-18.78,10.87-8.87,6.34-20.32,14.58-25.7,18.78-14.76,11.54-29.24,21.1-43.5,28.67-13.88,7.37-26.33,11.08-40.53,17.8-9.22,4.36-26.88,14.21-42.02,20.27-11.41,4.57-21.92,7.95-32.62,10.38-10.62,2.41-20.42,3.88-29.66,4.45-14.55,.9-25.51-1.21-40.04,0-11.26,.94-21.57,2.94-31.14,5.93-10.76,3.36-20.68,7.86-29.66,13.35-14.98,9.15-24.97,16.74-25.21,20.76-2.8,46.3,575.88,225.06,744.44-5.93,96.64-132.44,21.64-348.99-17.8-365.79Z"/></g><g id="c"><path class="g" d="M44.03,168.25c11.3,12.49,22.05,30.87,23.47,34.27,7.64,18.25,16.5,31.54,23.74,49.95,10.32,26.25,21.98,46.8,31.16,73.46,8.34,24.2,15.89,53.23,22.26,83.75,2.95,14.16,5.57,28.42,7.42,41.14,2.79,19.14,3.99,38.57,5.94,58.77,2.28,23.7,5.47,49.88,8.9,66.12,5.23,24.74,12.15,47.68,20.77,69.06,5.93,14.7,18.2,38.08,29.68,58.77,13.47,24.28,28.48,49.03,40.06,63.18,13.42,16.39,28.83,31.71,46,45.55,39.95,32.19,90.16,51.62,111.29,58.77,21.35,7.23,56.94,20.54,86.06,30.85,29.72,10.53,61.38,22.25,84.58,32.32,32.47,14.11,62.7,29.34,86.06,44.08,28.68,18.1,56.41,39.59,83.09,64.65,24.39,22.9,45.32,46.23,59.35,66.12,15.3,21.67,28.17,44.76,38.58,69.05,2.5,13.6,7.23,25.49,14.27,35.75,8.91,12.98,18.73,19.55,16.83,27.46-2.4,9.97-21.4,13.94-34.65,15.69-48.98,6.49-110.7,10.51-136.62,4.9-26.28-5.68-155.74-13.49-224.72-17.66-34.06-2.06-102.83-1.83-156.42-2.94-51.56-1.07-120.24-3.32-151.47-2.94-41.03,.5-101.72-1.47-110.88,0-22.41,3.6-40.51,8.56-54.45-1.96-30.28-22.86-2.85-90.17,6.93-190.29,2.42-24.78,3.19-60.07,2.97-93.18-.26-39.14-4-70.92,0-109.86,1.58-15.37,9.3-50.55,8.91-79.45-.51-38.14-11.76-61.92-12.87-100.05-.92-31.56,6.22-53.77,6.93-85.34,.64-28.59-3.07-57.02-3.96-81.41-.88-24.15,1.84-43.58,0-67.68-2.7-35.3-8.48-56.28,0-87.3,3.26-11.91,7.05-21.15,8.91-33.35,2.68-17.57,1.03-29.34,0-47.08-.76-13-.59-31.75,0-49.04,.29-8.46,.74-15.44,0-23.54-.26-2.84-6.4-29.53-2.97-31.39,2.73-1.48,8.89,4.2,14.85,10.79Z"/></g></svg>