<?xml version="1.0" encoding="UTF-8"?><svg id="a" xmlns="http://www.w3.org/2000/svg" viewBox="0 0 291.16 199.8"><defs><style>.b{fill:#fff;}.c{fill:#f9bb57;stroke:#f9bb57;stroke-miterlimit:10;stroke-width:2px;}.d{fill:#fabaae;}.e{fill:#514425;}</style></defs><path class="b" d="M79.83,83.75l2.03,1.6c.95,1.02,2.08,1.75,3.38,2.17,1.25,.66,2.6,.96,4.05,.9,1.45,.05,2.79-.25,4.05-.9,1.3-.42,2.43-1.15,3.38-2.17l1.64-2.13c.95-1.64,1.43-3.4,1.43-5.3l-.38-2.79c-.5-1.78-1.4-3.32-2.7-4.63l-2.03-1.6c-.95-1.02-2.08-1.75-3.38-2.17-1.25-.66-2.6-.96-4.05-.9-1.45-.05-2.79,.25-4.05,.9-1.3,.42-2.43,1.15-3.38,2.17l-1.64,2.13c-.95,1.64-1.43,3.4-1.43,5.3l.38,2.79c.5,1.78,1.4,3.32,2.7,4.63h0Z"/><path class="b" d="M99.26,65.49c-.28-1.15-.83-2.24-1.34-3.3-.13-.26-.28-.51-.45-.74-.56-.75-1.36-1.96-2.18-2.72-.43-.39-.94-.75-1.38-1.09s-.92-.75-1.41-1.06c-.96-.61-2.31-1.06-3.22-1.43-.27-.11-.54-.2-.83-.26-1.19-.25-2.4-.45-3.62-.47-.14,0-.28,0-.42,.02-.96,.09-1.97,.25-2.93,.39-.09,.01-.18,.03-.28,.05-1.37,.32-2.56,.95-3.57,1.88-1.14,.74-2.04,1.72-2.7,2.95-.77,1.21-1.18,2.51-1.25,3.9-.31,1.4-.25,2.79,.19,4.19l1.06,2.51c.93,1.58,2.19,2.83,3.77,3.77l2.51,1.06c1.86,.5,3.72,.5,5.58,0,.09-.02,.18-.03,.28-.05l-2.79,.38c.35-.04,.69-.04,1.04,0l-2.79-.38c.42,.06,.82,.17,1.2,.33l-2.51-1.06c.36,.16,.71,.36,1.02,.6l-2.13-1.64c.31,.24,.59,.52,.84,.83l-1.64-2.13c.23,.3,.41,.61,.56,.96l-1.06-2.51c.08,.19,.14,.39,.19,.6,.32,1.37,.95,2.56,1.88,3.57,.74,1.14,1.72,2.04,2.95,2.7,1.21,.77,2.51,1.18,3.9,1.25,1.4,.31,2.79,.25,4.19-.19l2.51-1.06c1.58-.93,2.83-2.19,3.77-3.77l1.06-2.51c.5-1.86,.5-3.72,0-5.58h0Z"/><path class="b" d="M118.13,183.73c1.15,1.85,2.53,3.69,4.22,5.08,2.42,1.99,4.33,3.08,7.31,4.19,2,.75,4.29,.98,6.39,1.12,1.79,.13,3.55-.09,5.32-.33,7.08-.95,13.49-3.71,19.98-6.6l-2.51,1.06c8.27-2.78,16.34-6.53,23.37-11.75,7.77-5.76,14.31-12.5,19.55-20.68,1.37-2.15,1.84-5.67,1.06-8.09-.72-2.21-1.91-4.03-3.76-5.45s-4.06-2.36-6.36-2.25c-2.58,.12-5.76,.94-7.42,3.08-2.32,2.98-5.24,5.89-6.46,9.55-.55,1.65-.46,3.93,0,5.58,.61,2.21,1.97,4.07,3.76,5.45,3.32,2.56,7.98,2.95,11.66,.82,2.14-1.24,3.29-3.1,4.77-5.02,.93-1.21,1.85-2.44,2.76-3.67,1.45-1.98,1.79-5.82,1.06-8.09s-1.91-4.03-3.76-5.45-4.06-2.36-6.36-2.25c-2.61,.12-5.7,.95-7.42,3.08-7.28,8.97-15.29,17.36-24.42,24.46l2.13-1.64c-6.84,5.28-14.25,9.76-22.22,13.14l2.51-1.06c-1.13,.22-2.26,.44-3.4,.59l2.79-.38c-1.45,.18-2.89,.26-4.34,.09l2.79,.38c-.79-.11-1.55-.3-2.29-.59l2.51,1.06c-.65-.28-1.24-.62-1.8-1.06l2.13,1.64c-.5-.42-.93-.88-1.33-1.39l1.64,2.13c-.28-.39-.53-.79-.76-1.22l-6.28,15.42c2.36-.82,4.78-1.68,7.26-2.05l-2.79,.38c.42-.06,.84-.1,1.26-.06l-2.79-.38c.1,.02,.19,.03,.29,.07l-2.51-1.06c.05,.02,.09,.05,.14,.08l-2.13-1.64s.04,.04,.06,.07l-1.64-2.13,.02,.04-1.06-2.51s.02,.05,.02,.08l-.38-2.79s0,.06,0,.09l.38-2.79s-.01,.06-.03,.09l1.06-2.51c-.03,.07-.07,.14-.12,.21l1.64-2.13c-.16,.21-.35,.38-.56,.54l2.13-1.64c-.65,.49-1.38,.87-2.12,1.2l2.51-1.06c-.87,.37-1.78,.65-2.72,.79l2.79-.38c-.5,.07-1,.09-1.51,.04l2.79,.38c-.33-.04-.64-.12-.95-.25l2.51,1.06c-.18-.08-.34-.18-.5-.3l2.13,1.64c-.15-.13-.29-.26-.41-.42l1.64,2.13c-.05-.07-.09-.13-.13-.2l-6.28,15.42c11.15-3.81,21-10.05,29.59-18.09,7.84-7.35,14.42-16.04,20.43-24.92,3.19-4.72,6.21-9.56,9.19-14.42s1.17-11.76-3.77-14.37c-2.44-1.29-5.39-1.93-8.09-1.06s-4.66,2.47-6.28,4.83c-2.1,3.06-4.45,5.86-4.47,9.84-.02,4.2,2.66,7.99,6.45,9.6,1.79,.75,3.52,.97,5.44,.72,2.46-.33,4.09-1.33,6.03-2.89,.8-.65,1.79-2.29,2.49-3.33,.75-1.1,1.47-2.21,2.19-3.33,1.37-2.15,1.84-5.66,1.06-8.09-.72-2.21-1.91-4.03-3.76-5.45s-4.06-2.36-6.36-2.25c-2.62,.12-5.69,.96-7.42,3.08-4.96,6.06-9.49,12.45-14.28,18.65l1.64-2.13c-5.13,6.63-10.66,12.94-17.3,18.11l2.13-1.64c-.68,.53-1.37,1.04-2.07,1.54l5.3-1.43h-3l5.3,1.43c-.23-.15-.44-.31-.66-.48l2.13,1.64c-.49-.41-.93-.84-1.33-1.33l1.64,2.13c-.35-.48-.64-.96-.89-1.5l1.06,2.51c-.21-.53-.35-1.05-.44-1.62l.38,2.79c-.06-.57-.06-1.12,0-1.69l-.38,2.79c.07-.47,.18-.92,.32-1.38l-1.06,2.51c.9-1.73,2.1-3.27,3-5l-1.64,2.13c12.21-13.73,24.7-27.2,37.23-40.63,3.47-3.72,6.94-7.43,10.4-11.15l-16.49-12.72c-.66,.9-1.33,1.78-2.01,2.67l1.64-2.13c-6.66,8.58-14.38,16.27-22.96,22.92l2.13-1.64c-5.84,4.5-12.05,8.49-18.58,11.92l15.42,11.86c.17-.43,.34-.86,.52-1.29l-1.06,2.51c1.34-3.09,3.08-5.95,5.13-8.63l-1.64,2.13c3.59-4.63,7.95-8.56,12.56-12.14l-2.13,1.64c7.43-5.73,15.53-10.49,23.22-15.85,2.28-1.59,4.07-3.52,4.83-6.28,.69-2.51,.38-5.86-1.06-8.09-3.16-4.9-9.2-6.57-14.37-3.77-12.16,6.6-24.58,12.69-37.24,18.27l10.6,18.13c6.22-2.77,11.94-6.77,16.89-11.41,4.89-4.58,9.2-10.17,12.11-16.23,3.32-6.9,5.34-14.23,5.41-21.93s-2.01-16.08-5.71-23.22c-2.02-3.9-4.76-7.59-7.88-10.68-2.85-2.82-6.25-4.9-9.43-7.3l2.13,1.64c-.7-.55-1.35-1.13-1.9-1.83l1.64,2.13c-.31-.42-.56-.85-.77-1.33l1.06,2.51c-.21-.53-.34-1.06-.43-1.62l.38,2.79c-.11-.93-.07-1.84,.04-2.77l-.38,2.79c.36-2.37,.83-4.8,.6-7.21-.33-3.34-.96-6-2.53-9-2.44-4.66-6.99-8.09-11.75-10.09-9.07-3.83-18.75-1.58-27.03,3.17-4.02,2.31-7.69,5.22-11.3,8.1l16.49,2.13c-2.98-4.83-6.76-8.58-11.31-11.89-1.56-1.13-3.23-2.11-4.97-2.92-1.63-.76-3.3-1.47-5-2.08-1.79-.64-3.58-.83-5.47-1.06l2.79,.38c-1.99-.3-3.91-.9-5.87-1.32-3.58-.77-6.84-.95-10.43-.16s-6.5,2.75-8.86,5.35-4.2,5.23-5.2,8.53c-1.24,4.08-.47,8.51,1.88,12.03,1.38,2.07,2.97,4.1,4.79,5.81,3.07,2.88,6.64,5.26,10.41,7.12,4.33,2.14,8.88,3.84,13.33,5.71l-2.51-1.06c1.95,.83,3.79,1.87,5.71,2.75,2.71,1.24,5.48,2.42,8.33,3.3,4.96,1.53,10.44,2.4,15.63,1.96,3.05-.25,6.18-.68,9.09-1.67,2.59-.88,5.13-2.05,7.55-3.32,3.48-1.83,6.77-3.99,10.08-6.1,3.81-2.43,7.67-4.79,11.84-6.55l-2.51,1.06c2.69-1.11,5.46-1.93,8.34-2.35l-2.79,.38c2.54-.34,5.07-.15,7.6,.18l-2.79-.38c4.82,.67,9.46,2.09,13.94,3.97l-2.51-1.06c2.54,1.09,4.94,2.41,7.4,3.64,3.47,1.73,7.23,2.72,11.05,3.17,1.95,.23,3.89,0,5.82-.38,2.8-.55,5.11-1.98,7.28-3.75s3.62-4.29,5.31-6.49l-1.64,2.13c.47-.59,.96-1.12,1.54-1.59l-2.13,1.64c.34-.24,.68-.44,1.06-.62l-2.51,1.06,.29-.11-2.79,.38c.77,0,1.53,.07,2.3,.17l-2.79-.38c1.94,.29,3.83,.82,5.73,1.32,2.66,.71,5.36,1.22,8.11,1.43,6.55,.51,13.19-2.61,17.35-7.62,1.74-2.1,3.2-4.56,3.08-7.42-.11-2.37-.8-4.47-2.25-6.36-1.34-1.74-3.26-3.26-5.45-3.76-2.87-.65-5.44-.24-8.09,1.06-9.05,4.43-11.84,16.52-6.16,24.69,2.63,3.79,6.33,6.99,10.97,7.96,5.92,1.25,11.58-.57,15.91-4.77,3.22-3.11,4.12-8.88,1.64-12.72s-7.2-6.03-11.86-4.83c-6.61,1.7-12.79,4.87-16.73,10.6-2.69,3.91-3.1,8.81-2.21,13.35,.76,3.89,3.18,7.51,4.73,11.15l-1.06-2.51c2.36,5.61,4.2,11.43,5.64,17.34,.71,2.91,1.32,5.84,1.87,8.78,.28,1.51,.54,3.02,.79,4.53,.11,.68,.19,1.37,.32,2.04,.34,1.71,1.48,3.6,2.74,4.86,1.42,1.42,3.13,2.08,4.96,2.84l-2.51-1.06c1.16,.51,2.23,1.12,3.24,1.88l-2.13-1.64c.95,.75,1.78,1.59,2.52,2.54l-1.64-2.13c.72,.98,1.31,2.03,1.79,3.16l-1.06-2.51c.48,1.21,.82,2.44,1.05,3.72l1.06,2.51,1.64,2.13c1.64,1.64,3.75,2.58,6.03,2.89,3.97,.53,8.52-1.3,10.46-5.01,1.48-2.82,2.26-5.51,2.37-8.7s-.87-5.89-2.16-8.75l-1.64-2.13c-.95-1.02-2.08-1.75-3.38-2.17-2.09-.88-4.62-1.25-6.84-.53-1.73,.56-3.29,1.47-4.63,2.7-1.71,1.57-3.37,5.05-3.08,7.42,.26,2.11,.25,4.21-.02,6.32l.38-2.79c-.31,2.11-.86,4.13-1.68,6.1l1.06-2.51c-.39,.91-.83,1.78-1.32,2.64-2.23,3.91-1.79,9.57,1.64,12.72s8.47,3.93,12.72,1.64l4.51-2.43-14.37-14.37c-2.2,3.53-4.56,6.95-7.09,10.25l1.64-2.13c-1.6,2.07-3.26,4.09-4.99,6.07-1.85,2.12-3.08,4.54-3.08,7.42,0,2.58,1.14,5.65,3.08,7.42,4.29,3.94,10.58,4.03,14.85,0l8.11-7.66-14.85-14.85c-8.88,10.66-17.99,21.32-29,29.86l2.13-1.64c-5.09,3.92-10.55,7.33-16.46,9.86l2.51-1.06c-4.61,1.94-9.42,3.31-14.37,4l2.79-.38c-4.4,.58-8.85,.66-13.25,.1l2.79,.38c-3.61-.49-7.12-1.4-10.49-2.78l2.51,1.06c-1.75-.74-3.43-1.6-5.05-2.58l-2.51,19.19c14.3-2.69,28.23-8.73,39.92-17.38,2.27-1.68,4.05-3.44,4.83-6.28,.69-2.51,.38-5.86-1.06-8.09s-3.6-4.22-6.28-4.83-5.86-.59-8.09,1.06c-5.82,4.3-12.11,7.89-18.77,10.72l2.51-1.06c-6,2.52-12.24,4.4-18.64,5.6l-2.51,1.06-2.13,1.64c-1.64,1.64-2.58,3.75-2.89,6.03-.56,4.17,1.38,8.26,5.01,10.46,8.14,4.93,17.8,7.25,27.28,7.18,7.61-.06,15.38-1.45,22.47-4.24s13.46-6.24,19.45-10.75,11.71-9.55,16.98-15.02,10.27-11.38,15.17-17.26c1.82-2.19,3.08-4.48,3.08-7.42,0-2.58-1.14-5.65-3.08-7.42-4.29-3.94-10.58-4.03-14.85,0l-8.11,7.66,14.85,14.85c5.04-5.77,9.68-11.94,13.72-18.45,2.36-3.8,1.7-9.66-1.64-12.72-3.53-3.24-8.47-3.93-12.72-1.64l-4.51,2.43,14.37,14.37c3.45-6.04,5.32-13.41,4.45-20.37l-19.57,5.3,.16,.36-1.06-2.51c.24,.63,.41,1.24,.51,1.91l-.38-2.79c.07,.67,.06,1.3,0,1.97l.38-2.79c-.11,.66-.27,1.28-.52,1.9l1.06-2.51c-.1,.24-.22,.48-.35,.71l19.19,2.51c-.79-4.37-2.87-8.22-5.64-11.64s-6.58-5.46-10.62-7.13l7.33,7.33c-1.07-6.9-2.4-13.77-4.31-20.49-.95-3.33-2.04-6.63-3.3-9.86-1.54-3.94-3.42-7.67-5.12-11.53l1.06,2.51c-.33-.81-.58-1.63-.71-2.49l.38,2.79c-.08-.65-.09-1.28-.01-1.93l-.38,2.79c.09-.6,.25-1.16,.48-1.72l-1.06,2.51c.25-.54,.54-1.03,.89-1.51l-1.64,2.13c.54-.69,1.16-1.29,1.84-1.83l-2.13,1.64c1.25-.96,2.64-1.69,4.09-2.31l-2.51,1.06c1.42-.58,2.88-1.05,4.37-1.43l-10.22-17.55c-.28,.27-.56,.52-.87,.76l2.13-1.64c-.49,.36-.99,.67-1.55,.92l2.51-1.06c-.51,.2-1.01,.35-1.55,.43l2.79-.38c-.51,.06-1.01,.05-1.52,0l2.79,.38c-.57-.09-1.11-.25-1.65-.47l2.51,1.06c-.53-.24-1.02-.53-1.5-.88l2.13,1.64c-.59-.46-1.1-.97-1.57-1.55l1.64,2.13c-.45-.6-.83-1.23-1.13-1.91l1.06,2.51c-.28-.68-.48-1.37-.58-2.1l.38,2.79c-.06-.58-.06-1.14,0-1.72l-.38,2.79c.08-.51,.21-.98,.4-1.45l-1.06,2.51c.22-.49,.48-.93,.8-1.35l-1.64,2.13c.32-.38,.66-.72,1.04-1.04l-2.13,1.64c.52-.4,1.07-.73,1.66-1.02l-12.72-16.49c-.73,.88-1.52,1.69-2.42,2.41l2.13-1.64c-.77,.58-1.58,1.06-2.46,1.44l2.51-1.06c-.82,.32-1.64,.53-2.5,.65l2.79-.38c-1.17,.13-2.33,.09-3.5-.06l2.79,.38c-1.76-.25-3.47-.71-5.18-1.17-2.56-.69-5.06-1.15-7.7-1.48-1.74-.22-3.32-.27-5.09,.2-2.38,.63-4.42,2.01-6.23,3.62-1.91,1.7-3.23,3.99-4.78,6l1.64-2.13c-.59,.74-1.22,1.41-1.97,2l2.13-1.64c-.22,.18-.47,.32-.74,.41l2.51-1.06c-.73,.29-1.44,.48-2.21,.59l2.79-.38c-.87,.08-1.72,.05-2.59-.06l2.79,.38c-2-.33-3.85-1.09-5.75-1.74l2.51,1.06c-5.27-2.91-10.87-5.44-16.66-7.13-2.82-.82-5.67-1.34-8.58-1.73-2.7-.36-5.5-.77-8.23-.47-2.97,.33-5.89,.76-8.74,1.66s-5.34,1.99-7.89,3.22c-3.8,1.82-7.35,4.1-10.89,6.37-3.96,2.53-7.95,5.07-12.28,6.94l2.51-1.06c-2.11,.89-4.33,1.45-6.6,1.76l2.79-.38c-2.69,.33-5.37,.27-8.06-.08l2.79,.38c-3.55-.52-6.99-1.54-10.3-2.92l2.51,1.06c-2.48-1.05-4.81-2.4-7.29-3.45-2.91-1.23-5.84-2.41-8.76-3.64l2.51,1.06c-3.91-1.66-7.78-3.49-11.16-6.09l2.13,1.64c-1.54-1.22-2.94-2.58-4.14-4.14l1.64,2.13c-.57-.76-1.08-1.54-1.54-2.36l1.06,2.51c-.08-.23-.13-.46-.16-.69l.38,2.79c-.03-.36-.03-.67,0-1.03l-.38,2.79c.07-.47,.19-.9,.36-1.35l-1.06,2.51c.35-.81,.81-1.53,1.34-2.23l-1.64,2.13c.76-.96,1.6-1.83,2.47-2.69l-2.13,1.64c.39-.23,.78-.43,1.2-.62l-2.51,1.06c.75-.3,1.5-.51,2.31-.63l-2.79,.38c.88-.09,1.73-.07,2.61,.03l-2.79-.38c1.4,.2,2.77,.57,4.14,.92,2.26,.57,4.55,.91,6.86,1.14l-2.79-.38c1.11,.33,2.2,.71,3.26,1.15l-2.51-1.06c2.37,1.01,4.59,2.3,6.64,3.85l-2.13-1.64c1.93,1.5,3.66,3.21,5.18,5.13l-1.64-2.13c.63,.82,1.21,1.66,1.75,2.54,1.75,2.84,4.39,4.57,7.67,5.01,1.4,.31,2.79,.25,4.19-.19,1.78-.5,3.32-1.4,4.63-2.7,.58-.46,1.16-.92,1.74-1.37l-2.13,1.64c3.52-2.71,7.2-5.25,11.29-7.02l-2.51,1.06c1.87-.78,3.79-1.38,5.8-1.68l-2.79,.38c1.47-.19,2.92-.21,4.39-.03l-2.79-.38c1.25,.19,2.45,.52,3.63,1l-2.51-1.06c1.27,.56,2.44,1.27,3.54,2.1l-2.13-1.64c.79,.63,1.51,1.32,2.15,2.1l-1.64-2.13c.56,.73,1.02,1.5,1.39,2.35l-1.06-2.51c.34,.84,.56,1.7,.7,2.6l-.38-2.79c.16,1.33,.12,2.64-.06,3.97l.38-2.79c-.54,3.53-.85,6.2-.06,9.72,.62,2.78,2.15,5.08,3.96,7.2,2.25,2.63,5.5,4.29,8.23,6.35l-2.13-1.64c2.18,1.69,4.11,3.64,5.81,5.81l-1.64-2.13c1.84,2.41,3.35,5.02,4.56,7.8l-1.06-2.51c1.38,3.28,2.31,6.71,2.79,10.24l-.38-2.79c.41,3.29,.4,6.6-.04,9.88l.38-2.79c-.49,3.44-1.42,6.77-2.75,9.97l1.06-2.51c-1.55,3.64-3.58,7.04-5.99,10.17l1.64-2.13c-2.69,3.44-5.79,6.5-9.24,9.18l2.13-1.64c-3.37,2.58-7.01,4.75-10.89,6.47-2.25,1-4.2,4.01-4.83,6.28-.69,2.51-.38,5.86,1.06,8.09s3.6,4.22,6.28,4.83l2.79,.38c1.9,0,3.66-.48,5.3-1.43,12.66-5.58,25.08-11.67,37.24-18.27l-10.6-18.13c-6.19,4.31-12.65,8.22-18.81,12.59-6.85,4.86-13.66,10.12-18.88,16.77-1.74,2.21-3.45,4.43-4.87,6.86s-2.64,5.24-3.69,7.97l-.38,2.79,.38,2.79c.61,2.21,1.97,4.07,3.76,5.45,3.42,2.64,7.86,2.82,11.66,.82,14.14-7.44,27.12-17.54,37.79-29.44,3.38-3.77,6.52-7.76,9.52-11.84,1.45-1.98,1.79-5.82,1.06-8.09s-1.91-4.03-3.76-5.45c-3.99-3.08-10.2-3.03-13.79,.82-13.29,14.25-26.63,28.46-39.69,42.91-1.66,1.84-3.31,3.68-4.96,5.52-.83,.93-1.66,1.85-2.48,2.78-1.28,1.44-2.19,2.95-3.21,4.53-.54,.84-1.12,1.66-1.61,2.54-1.37,2.48-1.81,4.53-2.07,7.29-.31,3.19,.68,7,2.45,9.67,.9,1.35,1.9,2.7,3.13,3.77,.91,.79,1.91,1.58,2.93,2.25,1.92,1.26,4.32,1.43,6.55,1.43,2.73,0,5.48-.27,7.75-1.94,1.47-1.08,2.91-2.2,4.34-3.34,3.3-2.64,6.35-5.59,9.2-8.71,6.67-7.32,12.28-15.51,18.31-23.34l-1.64,2.13c1.06-1.36,2.12-2.72,3.22-4.05l-16.49-12.72c-.96,1.51-1.9,3.05-2.99,4.48l1.64-2.13s-.03,.04-.05,.06l17.92,7.42h0l-1.43,5.29c.75-1.6,2.05-3.09,3.04-4.53l-18.13-10.6c-5.02,8.17-10.14,16.28-16,23.88l1.64-2.13c-5.26,6.78-11.1,13.11-17.89,18.38l2.13-1.64c-4.55,3.49-9.46,6.45-14.74,8.71l2.51-1.06c-1.41,.59-2.85,1.14-4.3,1.63-3.17,1.08-5.49,2.97-6.8,6.08s-1.23,6.5,.53,9.34c2.52,4.08,6.93,6.46,11.72,6.41,3.34-.04,6.21-1.04,9.19-2.44,2.47-1.16,4.77-3.06,6.17-5.43,2.47-4.19,1.82-9.67-1.59-13.15-2.13-2.17-5.18-3.3-8.2-3.31-3.73,0-7.54,1.29-11.02,2.5-3.17,1.1-5.49,2.96-6.8,6.08s-1.11,6.36,.53,9.34c3.68,6.7,11.15,10.16,18.65,9.47,1.88-.17,3.75-.44,5.61-.78,1.97-.36,3.74-1.21,5.57-2.01,2.52-1.12,4.99-2.35,7.4-3.68,10.15-5.62,19.41-13.04,27.6-21.23,4.33-4.32,8.37-8.91,12.23-13.66l-16.49-12.72c-.91,1.23-1.82,2.46-2.76,3.67l1.64-2.13c-.32,.41-.62,.88-.99,1.25l2.13-1.64h0l15.42,11.86h0l-1.06,2.5c.6-1.02,1.45-1.94,2.18-2.88l-1.64,2.13c.53-.68,1.05-1.36,1.58-2.04l-16.49-12.72c-1.06,1.65-2.18,3.25-3.38,4.81l1.64-2.13c-3.3,4.23-7.11,8.01-11.34,11.3l2.13-1.64c-4.95,3.8-10.38,6.89-16.12,9.31l2.51-1.06c-1.73,.72-3.47,1.39-5.24,1.99-2.17,.74-4.27,1.8-6.39,2.7l2.51-1.06c-4.09,1.73-8.32,3.3-12.75,3.9l2.79-.38c-1.6,.2-3.19,.25-4.79,.06l2.79,.38c-1.12-.16-2.2-.43-3.25-.87l2.51,1.06c-.77-.35-1.48-.77-2.16-1.28l2.13,1.64c-.7-.56-1.31-1.19-1.86-1.9l1.64,2.13c-.25-.34-.49-.7-.72-1.06-1.42-2.28-3.66-4.11-6.28-4.83s-5.86-.38-8.09,1.06c-4.67,3.01-6.87,9.37-3.77,14.37h0Z"/><path class="b" d="M145.98,154.54c.5-.83,1.04-1.64,1.63-2.4l-1.64,2.13c.75-.96,1.58-1.84,2.54-2.59l-2.13,1.64c.66-.5,1.37-.93,2.13-1.25l-2.51,1.06c.67-.28,1.37-.47,2.09-.58l-2.79,.38,.13-.02-9.07-15.8-4.66,7.73c-.77,1.21-1.18,2.51-1.25,3.9-.31,1.4-.25,2.79,.19,4.19,.32,1.37,.95,2.56,1.88,3.57,.74,1.14,1.72,2.04,2.95,2.7l2.51,1.06c1.86,.5,3.72,.5,5.58,0l2.51-1.06c1.58-.93,2.83-2.19,3.77-3.77l4.66-7.73c1.93-3.2,1.88-7.39,0-10.6-.93-1.58-2.19-2.83-3.77-3.77-1.64-.95-3.4-1.43-5.3-1.43-1.34,.18-2.84,.27-4.18,.67s-2.53,.96-3.73,1.54c-.43,.21-.84,.44-1.23,.71-1.11,.76-2.19,1.59-3.2,2.48-.73,.64-1.37,1.36-1.97,2.12-1.16,1.48-2.3,2.93-3.28,4.53-.77,1.21-1.18,2.51-1.25,3.9-.31,1.4-.25,2.79,.19,4.19,.32,1.37,.95,2.56,1.88,3.57,.74,1.14,1.72,2.04,2.95,2.7l2.51,1.06c1.86,.5,3.72,.5,5.58,0l2.51-1.06c1.58-.93,2.83-2.19,3.77-3.77h0Z"/><path class="b" d="M101.04,58.35c-1.24-2.73-3.78-5.19-6.36-6.67-2.91-1.66-5.79-2.23-9.08-2.53-2.36-.22-4.82,.18-7.12,.59-3.29,.58-6.27,2.76-8.45,5.25-2.32,2.64-4.49,5.86-5.17,9.38-.88,4.55-.37,8.57,1.81,12.68,3.02,5.7,9.75,10.01,16.28,9.77,6.64-.25,12.88-3.79,16.36-9.49s3.07-13.31,.2-19.22-9.46-9.48-16.03-9.63c-5.83-.14-11.82,2.36-15.9,6.51-2.5,2.54-4.37,5.72-5.37,9.15-1.35,4.63-.25,9.13,1.8,13.34,.94,1.94,2.34,3.6,3.58,5.35,1.49,2.12,2.96,3.85,5.43,4.9,1.41,.6,2.81,.88,4.36,.9,.56,0,1.13,0,1.69,0,3.54,0,7.4-1.96,9.07-5.2,.6-1.17,1.33-2.25,2.13-3.29l-1.64,2.13c3.19-4.1,7.25-7.75,9.5-12.5s3.91-10.89,.57-15.58c-2.43-3.41-4.91-6.06-8.32-8.5-6.68-4.78-16.12-5.02-22.86-.23-2.15,1.53-3.99,3.05-5.22,5.45s-2.01,5.06-1.87,7.79c.29,5.39,3.29,10.38,8.21,12.8,4.11,2.02,8.75,2.62,13.2,1.3,3.21-.95,6.55-2.8,8.72-5.39,1.73-2.06,2.73-3.79,3.6-6.36,.46-1.38,.87-2.78,1.22-4.19,.85-3.41,1.35-6.9,1.73-10.38,.7-6.4,.22-12.86-.96-19.18-.53-2.84-1.3-5.63-2.32-8.34-.68-1.81-1.31-3.67-2.44-5.25-1.67-2.33-3.19-3.85-5.52-5.51-5.48-3.92-13.51-4.02-19.59-1.56-3.79,1.54-6.84,3.29-9.79,6.21-2.23,2.22-4.51,4.39-6.99,6.33l2.13-1.64c-1.72,1.32-3.53,2.51-5.52,3.39l2.51-1.06c-1.81,.75-3.77,1.23-5.62,1.89-2.6,.93-5.14,1.99-7.67,3.08-3.62,1.56-7.13,3.39-10.36,5.65-3.72,2.61-7.27,5.5-10.09,9.08-1.66,2.11-3.29,4.22-4.55,6.6-1.88,3.54-2.76,7.21-3.01,11.2-.38,6.07,1.71,11.91,3.61,17.56l1.06-8.09c-1.04,1.42-1.73,2.92-2.42,4.54-.65,1.53-1.24,3.01-1.54,4.65-.81,4.36-.76,8.16,.04,12.52,.6,3.24,1.93,6.47,3.53,9.33s3.86,5.78,6.42,8.01v-14.85l-.34,.26,2.13-1.64c-.65,.49-1.31,.99-2.05,1.33l2.51-1.06c-.11,.04-.22,.08-.34,.1l2.79-.38h-.08l2.79,.38h-.06l2.51,1.05-.05-.02,2.13,1.64-.03-.03,1.64,2.13-.02-.04,1.43,5.3s0-.08,0-.11l-.38,2.79c.01-.05,.03-.1,.05-.14l-1.06,2.51c.06-.13,.14-.24,.23-.35l-1.64,2.13c.18-.21,.37-.4,.58-.58l-2.13,1.64c.24-.18,.49-.33,.77-.46l-2.51,1.06c.14-.05,.27-.09,.41-.12l-2.79,.38c.14-.02,.27-.02,.41-.01l-2.79-.38c.09,.01,.18,.03,.26,.06l-2.51-1.06c.09,.03,.17,.07,.25,.13l-2.13-16.49c-6.5,5.93-10.57,13.68-13.91,21.68-2.8,6.72-5.47,14.11-3.34,21.44,.92,3.16,2.61,5.76,5.21,7.77,1.43,1.1,2.96,1.95,4.75,2.37,2.55,.6,4.58,.4,7.12-.04l-2.79,.38c2.99-.06,6.23-.75,8.76-2.44s4.39-3.65,6.13-6.29c1.58-2.39,2.48-5.16,4.18-7.47l-1.64,2.13c.23-.22,.46-.43,.71-.63l-2.13,1.64c.38-.28,.76-.52,1.18-.72l-2.51,1.06c.38-.16,.76-.27,1.17-.35l-2.79,.38c.39-.05,.77-.05,1.16,0l-2.79-.38c.48,.07,.92,.2,1.37,.39l-2.51-1.06c.63,.29,1.21,.65,1.77,1.07l-2.13-1.64c1.16,.92,2.15,2.02,3.07,3.19l-1.64-2.13c1.49,1.94,2.77,4.02,4.01,6.12,2.15,3.61,5.3,6.93,9.17,8.71s8.04,2.67,12.37,2.46c3.65-.17,7.27-.87,10.88-1.39l-2.79,.38c.45,0,.89,.04,1.33,.09l-2.79-.38c.7,.11,1.36,.29,2.01,.56l-2.51-1.06c.5,.23,.96,.5,1.4,.83l-2.13-1.64c.41,.33,.77,.69,1.1,1.1l-1.64-2.13c.37,.49,.66,.99,.9,1.55l-1.06-2.51c.26,.65,.43,1.32,.53,2.01l-.38-2.79c.08,.72,.08,1.43,0,2.15l.38-2.79c-.12,.84-.33,1.64-.64,2.43l1.06-2.51c-.76,1.78-1.98,3.39-3.05,5-1.16,1.76-2.33,3.52-3.43,5.33-2.52,4.17-4.76,8.78-5.73,13.57-.57,2.78-1.05,5.83-.82,8.7,.32,4.09,1.53,7.54,4.23,10.67,3.31,3.84,8.9,5.52,13.84,5.2,2.48-.16,5.01-.55,7.41-1.21,3.14-.87,6.08-2.4,9.08-3.66l-2.51,1.06c12.42-5.24,25.22-9.79,38.62-11.65l-2.79,.38c1.83-.25,3.67-.44,5.51-.59,2.82-.23,5.37-1.02,7.42-3.08,1.82-1.82,3.19-4.81,3.08-7.42s-1.01-5.53-3.08-7.42-4.67-3.29-7.42-3.08c-9.39,.75-18.63,2.59-27.61,5.39-9.09,2.84-17.9,6.54-26.63,10.35l2.51-1.06c-1.72,.57-3.48,1.02-5.28,1.27l2.79-.38c-1.16,.14-2.32,.19-3.48,.06l2.79,.38c-.72-.1-1.41-.27-2.09-.55l2.51,1.06c-.42-.19-.8-.42-1.16-.7l2.13,1.64c-.3-.25-.55-.51-.8-.82l1.64,2.13c-.24-.33-.44-.67-.61-1.05l1.06,2.51c-.25-.61-.41-1.23-.5-1.89l.38,2.79c-.17-1.54-.05-3.11,.14-4.64l-.38,2.79c.34-2.35,1-4.6,1.9-6.79l-1.06,2.51c1.64-3.86,3.95-7.36,6.25-10.85,1.09-1.65,2.32-3.28,3.16-5.07,1.37-2.94,2.2-5.64,2.25-8.94,.09-6.22-3.07-11.86-8.24-15.23-2.69-1.76-6.1-2.49-9.27-2.6-1.63-.06-3.47,.41-5.13,.67-.9,.14-1.8,.27-2.7,.4l2.79-.38c-2.34,.3-4.68,.49-7.03,.21l2.79,.38c-1.19-.17-2.32-.45-3.43-.91l2.51,1.06c-.82-.36-1.57-.8-2.29-1.33l2.13,1.64c-.87-.69-1.63-1.46-2.31-2.34l1.64,2.13c-1.74-2.37-3.02-5.04-4.81-7.39-3.12-4.09-6.63-7.88-11.79-9.32-6.77-1.89-13.5,1.35-17.23,7.06-1.57,2.4-2.48,5.17-4.19,7.48l1.64-2.13c-.44,.57-.91,1.08-1.47,1.54l2.13-1.64c-.42,.32-.86,.59-1.35,.81l2.51-1.06c-.53,.21-1.05,.36-1.61,.44l2.79-.38c-1.33,.14-2.67,.25-4,.48l2.79-.38c-.35,.04-.68,.05-1.02,.03l2.79,.38c-.3-.04-.58-.11-.86-.22l2.51,1.06c-.19-.09-.37-.19-.54-.31l2.13,1.64c-.22-.18-.42-.36-.6-.58l1.64,2.13c-.23-.3-.4-.61-.56-.95l1.06,2.51c-.29-.7-.45-1.42-.55-2.17l.38,2.79c-.14-1.28-.1-2.56,.05-3.84l-.38,2.79c.5-3.71,2.2-7.4,3.64-10.82l-1.06,2.51c1.83-4.3,4-8.45,6.84-12.18l-1.64,2.13c1.3-1.68,2.72-3.25,4.29-4.68,5.01-4.58,3.52-13.23-2.13-16.49-6.54-3.78-14.97-.38-17.81,6.35-1.32,3.13-1.27,6.61,.49,9.63,1.88,3.23,5.52,5.29,9.26,5.28,4.15,0,7.11-2.37,10.19-4.77,1.89-1.47,3.18-5.13,3.08-7.42-.12-2.67-.99-5.6-3.08-7.42-1.05-.91-1.99-1.91-2.86-2.99l1.64,2.13c-1.21-1.57-2.21-3.27-3-5.08l1.06,2.51c-.76-1.82-1.29-3.7-1.56-5.65l.38,2.79c-.21-1.7-.23-3.39-.01-5.09l-.38,2.79c.21-1.46,.59-2.86,1.15-4.23l-1.06,2.51c.46-1.07,1.05-2.03,1.68-3,1.67-2.57,1.99-5.86,1.13-8.77-.2-.68-.46-1.34-.69-2-.96-2.8-1.85-5.62-2.27-8.56l.38,2.79c-.2-1.65-.23-3.29-.04-4.95l-.38,2.79c.21-1.42,.58-2.77,1.12-4.1l-1.06,2.51c.89-1.76,1.94-3.42,3.14-4.99l-1.64,2.13c1.87-2.4,4.05-4.51,6.45-6.38l-2.13,1.64c3.88-2.97,8.2-5.25,12.68-7.15l-2.51,1.06c4.99-2.08,10.56-3.21,15.19-6.04,2.81-1.71,5.4-3.84,7.85-6.02,1.88-1.68,3.55-3.73,5.53-5.28l-2.13,1.64c1.18-.89,2.44-1.61,3.79-2.2l-2.51,1.06c1.3-.54,2.64-.93,4.04-1.14l-2.79,.38c1.07-.14,2.14-.16,3.21-.04l-2.79-.38c.86,.12,1.68,.34,2.48,.66l-2.51-1.06c.63,.28,1.2,.61,1.76,1.01l-2.13-1.64c.66,.51,1.23,1.09,1.75,1.74l-1.64-2.13c.27,.37,.51,.74,.74,1.13l-1.06-2.51c1.65,4.02,2.76,8.22,3.37,12.52l-.38-2.79c.67,5.02,.66,10.08,.02,15.1l.38-2.79c-.51,3.7-1.21,7.63-2.64,11.1l1.06-2.51c-.19,.4-.42,.77-.68,1.13l1.64-2.13c-.36,.44-.75,.83-1.19,1.19l2.13-1.64c-.64,.49-1.31,.88-2.04,1.2l2.51-1.06c-.67,.26-1.34,.45-2.05,.57l2.79-.38c-.72,.09-1.41,.1-2.14,.01l2.79,.38c-.51-.09-1-.21-1.49-.39l2.51,1.06c-.6-.26-1.14-.57-1.66-.97l2.13,1.64c-.27-.23-.52-.47-.76-.73l1.64,2.13c-.22-.29-.39-.56-.56-.89l1.06,2.51c-.13-.32-.21-.61-.28-.94l.38,2.79c-.06-.43-.06-.83-.03-1.26l-.38,2.79c.07-.5,.19-.96,.37-1.42l-1.06,2.51c.14-.31,.29-.6,.49-.88l-1.64,2.13c.29-.37,.65-.63,1.02-.92l-2.13,1.64c.71-.51,1.44-.95,2.24-1.33l-2.51,1.06c.84-.35,1.67-.59,2.58-.72l-2.79,.38c.72-.07,1.43-.07,2.15,0l-2.79-.38c.95,.14,1.85,.4,2.74,.78l-2.51-1.06c1.02,.47,1.96,1.04,2.85,1.72l-2.13-1.64c1.43,1.13,2.67,2.44,3.79,3.88l-1.64-2.13c.31,.42,.61,.84,.9,1.27l-1.43-5.3c0,.43-.04,.86-.09,1.29l.38-2.79c-.15,.95-.42,1.86-.79,2.75l1.06-2.51c-.68,1.54-1.6,2.92-2.62,4.25l1.64-2.13c-3.05,3.9-6.85,7.39-9.14,11.83l9.07-5.2h-2l9.07,5.2c-1.48-2.19-3.24-4.2-4.3-6.64l1.06,2.51c-.28-.71-.49-1.43-.62-2.19l.38,2.79c-.05-.39-.08-.77-.09-1.17l-.38,2.79c.15-.81,.37-1.58,.68-2.35l-1.06,2.51c.37-.84,.82-1.61,1.37-2.35l-1.64,2.13c.64-.8,1.35-1.5,2.16-2.13l-2.13,1.64c.74-.54,1.51-.99,2.34-1.36l-2.51,1.06c.96-.4,1.93-.68,2.96-.84l-2.79,.38c1.05-.14,2.09-.14,3.14-.02l-2.79-.38c.69,.1,1.33,.29,1.98,.56l-2.51-1.06c.58,.27,1.11,.59,1.63,.98l-2.13-1.64c.48,.4,.89,.84,1.28,1.33l-1.64-2.13c.36,.51,.67,1.04,.92,1.61l-1.06-2.51c.33,.8,.55,1.62,.69,2.48l-.38-2.79c.15,1.14,.13,2.26-.02,3.4l.38-2.79c-.09,.56-.22,1.07-.42,1.6l1.06-2.51c-.26,.6-.58,1.14-.97,1.67l1.64-2.13c-.49,.61-1.02,1.15-1.64,1.64l2.13-1.64c-.72,.54-1.49,.98-2.32,1.34l2.51-1.06c-.73,.28-1.46,.48-2.23,.59l2.79-.38c-.65,.07-1.27,.07-1.92-.01l2.79,.38c-.46-.08-.86-.2-1.3-.37l2.51,1.06c-.84-.36-1.62-.79-2.34-1.35l2.13,1.64c-.51-.42-.96-.87-1.38-1.38l1.64,2.13c-.56-.73-.99-1.5-1.35-2.34l1.06,2.51c-.19-.49-.32-.95-.4-1.47l.38,2.79c-.05-.54-.05-1.05,0-1.58l-.38,2.79c.11-.8,.32-1.54,.62-2.29l-1.06,2.51c.39-.87,.86-1.66,1.43-2.42l-1.64,2.13c.74-.93,1.57-1.75,2.5-2.48l-2.13,1.64c.2-.15,.39-.29,.6-.43l-2.51,1.06c.64-.16,1.29-.28,1.94-.37l-2.79,.38c1.4-.18,2.8-.22,4.21-.03l-2.79-.38c.78,.12,1.54,.31,2.28,.59l-2.51-1.06c.62,.27,1.19,.58,1.73,.99l-2.13-1.64c.37,.31,.7,.65,1.01,1.02l-1.64-2.13c.3,.42,.55,.85,.76,1.32,1.03,2.25,3.99,4.19,6.28,4.83,2.51,.69,5.86,.38,8.09-1.06s4.22-3.6,4.83-6.28l.38-2.79c0-1.9-.48-3.66-1.43-5.3h0Z"/><path class="b" d="M67.16,25.28c-.13,.44-.28,.87-.45,1.29l1.06-2.51c-.41,.92-.92,1.77-1.53,2.57l1.64-2.13c-.86,1.07-1.84,1.99-2.91,2.84l2.13-1.64c-2.36,1.82-4.98,3.21-7.57,4.66-2.97,1.66-5.72,3.56-8.41,5.63-5.64,4.36-10.3,9.4-14.48,15.17-7.88,10.9-12.26,24.1-13.34,37.43-.6,7.43,.17,15.1,2.08,22.3l20.25-5.58c-1.74-5.15-2.98-10.45-3.71-15.84l.38,2.79c-.98-7.5-.98-15.08,0-22.57l-.38,2.79c.86-6.28,2.3-12.59,4.73-18.46l-1.06,2.51c.95-2.23,2.08-4.37,3.54-6.32l-1.64,2.13c1-1.29,2.12-2.46,3.4-3.47l-2.13,1.64c.4-.3,.82-.59,1.24-.87l-15.42-11.86c-3.41,12.19-4.75,25.18-3.67,37.8s3.71,25.02,9.72,36c3.47,6.34,8.26,11.64,14.19,15.75l-3.77-14.37c-1.05,2.03-2.28,3.95-3.68,5.76l1.64-2.13c-.62,.78-1.27,1.54-1.94,2.28l16.49,2.13c-2.09-4.46-6-7.7-8.99-11.51l1.64,2.13c-.8-1.05-1.5-2.15-2.02-3.37l1.06,2.51c-.28-.73-.48-1.45-.61-2.22l.38,2.79c-.11-.93-.11-1.83-.01-2.76l-.38,2.79c.43-3.16,1.66-6.22,2.69-9.23s2.12-6.1,3.24-9.14c2.23-6.07,4.6-12.08,7.11-18.03l-1.06,2.51c3.8-9,7.92-17.87,12.35-26.59,1.28-2.52,1.83-5.3,1.06-8.09-.67-2.44-2.55-5.08-4.83-6.28-5.08-2.68-11.35-1.27-14.37,3.77-5.62,9.37-11.35,19.14-13.79,29.91s-2.08,22.06,1.26,32.5c1.84,5.74,4.44,11.35,7.93,16.29,1.35,1.92,2.82,3.37,5.02,4.3,2.09,.88,4.62,1.25,6.84,.53,4.42-1.43,7.69-5.36,7.71-10.12l.06-19.67c.02-6.21,.03-12.42,.83-18.59l-.38,2.79c.44-3.25,1.11-6.45,2.1-9.58l-20.25-5.58c-1.5,9.51-2.74,19.08-3.66,28.66-.82,8.47-1.66,17.07-1.64,25.58,.01,5.79,1.01,11.61,3.94,16.67,1.15,1.98,2.94,3.42,5.02,4.3,2.32,.98,4.34,.95,6.84,.53,3.82-.65,7.44-3.83,9.18-7.2,1.26-2.46,1.93-4.83,2.46-7.5,1.1-5.59,1.93-11.22,2.61-16.88,1.18-9.85,1.58-19.77,1.21-29.68-.19-5.25-3.85-9.61-9.1-10.31s-9.87,2.5-11.52,7.52c-3.4,10.3-5.38,21.04-6.21,31.85-.38,4.94-.54,9.96-.23,14.91,.29,4.51,1.36,8.71,4.5,12.12,2.88,3.12,6.84,4.53,10.98,4.83,7.4,.54,13.57-4.44,17.35-10.3,2.83-4.39,4.87-9.46,6.78-14.29,3.66-9.25,5.68-19,6.6-28.89,1.03-11.06,.09-22.36-2.45-33.17-1.8-7.65-12.21-10.22-17.55-4.63-6.03,6.3-8.63,14.54-10.47,22.86-1.95,8.82-3.33,17.78-4.28,26.76-.44,4.11-.76,8.23-.96,12.35-.23,4.62-.53,9.28,.23,13.86,1.3,7.79,9.51,12.93,17.07,10.81,5.26-1.47,9.32-5.99,11.41-10.88,6.51-15.23,11.48-30.97,14.33-47.31,.81-4.65,1.46-9.34,2.01-14.03,.46-3.92,1.18-8.19-.3-11.99-.86-2.2-1.66-3.78-3.31-5.53-1.5-1.59-3.72-2.76-5.81-3.32-4.47-1.21-9.34,.33-12.58,3.55-3.61,3.6-4.93,8.84-6.35,13.58-2.52,8.46-4.16,17.07-5.31,25.81-.53,3.97-.91,7.96-1.12,11.96s-.38,7.91,.03,11.84c.6,5.82,1.74,11.97,5.89,16.42,5.08,5.45,13.84,5.22,19.66,1.15,6.95-4.87,12.04-11.78,15.57-19.44s6.36-15.73,8.39-23.94c.95-3.86,1.73-7.77,2.33-11.7,.4-2.61,.97-5.31,1-7.96,.04-3.74-1.35-7.76-4.22-10.26-2.38-2.08-5.18-3.34-8.37-3.42-2.4-.06-4.47,.62-6.59,1.65-2.75,1.33-4.78,3.7-6.51,6.14-1.04,1.47-1.79,3.18-2.57,4.8-1.13,2.35-2.15,4.76-3.16,7.17-2.91,6.97-5.04,14.26-6.33,21.7-1.43,8.22-2.14,16.57-1.71,24.92,.23,4.52,.77,9.53,3.46,13.36,2.35,3.33,5.17,5.56,9.05,6.87,2.95,1,6.37,.8,9.36,.13,5.61-1.26,10.1-5.48,13.02-10.24,2.31-3.76,3.86-8.12,5.51-12.18,2.97-7.34,5.45-14.87,7.41-22.54,2.16-8.44,3.62-17.01,4.66-25.65,.48-3.96-.65-8.06-3.51-10.95-3.36-3.39-8.37-4.36-12.91-3.24-5.41,1.33-9.58,5.71-12.46,10.25-1.95,3.08-3.5,6.46-4.92,9.8-1.8,4.21-3.46,8.46-4.74,12.86-2.33,8.05-3.64,16.51-3.97,24.88s.13,18.08,6.56,24.39c2.19,2.15,4.83,3.66,7.75,4.59,3.13,1,6.29,.79,9.46,.27,4.81-.79,9-3.62,12.7-6.62,3.17-2.56,5.7-5.83,8.16-9.04,2-2.61,3.78-5.38,5.32-8.29,3.46-6.54,6.03-13.62,7.57-20.86s2.34-14.89,2.26-22.38c-.02-2.36-.11-4.86-.81-7.12-1.14-3.67-3.55-7.05-6.99-8.88s-7.27-2.14-11.2-1.49c-3.15,.53-5.81,2.37-8.18,4.38-1.82,1.54-3.24,3.62-4.54,5.6-1.01,1.54-1.94,3.14-2.82,4.76-2.12,3.88-3.89,7.97-5.47,12.1-2.9,7.62-4.48,15.62-5.22,23.73-.33,3.65-.41,7.32-.22,10.98s.53,7.75,1.86,11.33c1.8,4.83,4.51,9.22,9.09,11.88,2.69,1.56,5.72,2.33,8.81,2.45,3.32,.13,6.33-.91,9.28-2.27,4.53-2.09,7.95-5.99,10.88-9.9,2.13-2.85,3.95-5.95,5.49-9.16,1.88-3.9,3.54-7.97,4.74-12.14s1.9-8.54,2.38-12.9c.4-3.56,.48-7.15,.23-10.72-.38-5.47-1.39-11.03-5.46-15.06-2.82-2.79-6.43-4.19-10.34-4.46-3.05-.22-6.32,.89-8.97,2.33-4.4,2.39-7.46,6.42-10.23,10.45-4.67,6.77-8.28,14.17-11.2,21.85-1.32,3.48-2.44,7.04-3.33,10.65-1.12,4.56-2.06,9.33-2.05,14.04,.02,4.97,1.14,9.88,3.53,14.25,2.11,3.87,5.68,7.65,9.76,9.44,1.64,.95,3.4,1.43,5.3,1.43,1.45,.05,2.79-.25,4.05-.9,3.1-1.31,5-3.63,6.08-6.8,3.57-10.51,.13-23.52-8.25-30.83-2.58-2.26-5.38-3.35-8.82-2.89s-5.71,2.23-7.67,5.01c-1.75,2.49-2.96,5.18-4.11,8-.85,2.08-1.47,4.23-1.83,6.45-.46,2.89-.92,5.92-.66,8.86,.32,3.61,1.03,6.46,2.62,9.73,3.21,6.62,11.28,10.58,18.41,8.23,4.28-1.41,7.16-4.2,9.79-7.72,1.34-1.79,2.42-3.78,3.57-5.69,5.43-9.06,10.8-18.15,16.11-27.28,3.13-5.38,5.92-11.19,5.52-17.6s-3.01-12.38-5.79-18.31c-4.75-10.1-9.57-20.19-15.69-29.55l-14.37,14.37c6.66,3.11,12.99,6.91,18.84,11.37l-2.13-1.64c2.15,1.66,4.18,3.44,5.88,5.57l-1.64-2.13c1.02,1.33,1.87,2.74,2.54,4.28l-1.06-2.51c.73,1.77,1.2,3.6,1.47,5.5l-.38-2.79c.28,2.34,.24,4.67-.07,7.01l.38-2.79c-.41,2.82-1.22,5.52-2.3,8.15l1.06-2.51c-2.11,5-5.11,9.53-8.21,13.97l19.19,8.09c.23-.67,.48-1.33,.76-1.99l-1.06,2.51c1.97-4.58,4.9-8.65,7.07-13.14,2.65-5.49,4.28-11.16,4.27-17.31s-1.52-11.51-3.95-16.91c-.89-1.99-2.02-3.84-3.34-5.57-1.73-2.27-3.45-4.45-5.67-6.26-4.35-3.55-9.29-6.14-13.75-9.52l2.13,1.64c-1.47-1.14-2.83-2.38-3.99-3.84l1.64,2.13c-.64-.84-1.19-1.71-1.67-2.65l1.43,5.3c-.02-.32-.01-.61,.02-.93l-.38,2.79c.07-.4,.18-.77,.33-1.14l-1.06,2.51c.18-.36,.38-.69,.63-1.02l-1.64,2.13c.34-.4,.7-.75,1.12-1.07l-2.13,1.64c.54-.38,1.09-.68,1.69-.94l-2.51,1.06c.62-.23,1.25-.4,1.9-.5l-2.79,.38c.69-.08,1.34-.07,2.03,0l-2.79-.38c1.39,.21,2.7,.63,4,1.16l-2.51-1.06c3.07,1.31,6.02,2.9,9.2,3.96s6.56,1.47,9.89,1.89c5.61,.71,11.28,1.08,16.92,1.45,11.53,.75,23.09,1.09,34.64,.99,3.3-.03,6.6-.09,9.9-.18,2.59-.07,5.18-.13,7.75,.18l-2.79-.38c1.48,.2,2.92,.53,4.31,1.07l-2.51-1.06c1.01,.43,1.94,.96,2.81,1.63l-2.13-1.64c.66,.55,1.24,1.15,1.78,1.83l-1.64-2.13c.56,.77,1.02,1.58,1.41,2.45l-1.06-2.51c.9,2.16,1.3,4.46,1.62,6.77l-.38-2.79c.67,5.08,1.18,10.05,2.98,14.88,1.9,5.08,4.39,9.91,6.5,14.9l-1.06-2.51c1.97,4.74,3.34,9.68,4.06,14.77l-.38-2.79c.51,3.87,.79,7.88,.31,11.78l.38-2.79c-.18,1.27-.47,2.49-.93,3.69l1.06-2.51c-.43,1-.95,1.9-1.6,2.77l1.64-2.13c-1.07,1.36-2.33,2.51-3.69,3.57l2.13-1.64c-3.31,2.5-6.98,4.43-10.79,6.05l2.51-1.06c-5.81,2.43-11.88,4.14-17.82,6.19-3.65,1.26-7.24,2.69-10.75,4.28-3.11,1.41-6.14,3-9.29,4.34l2.51-1.06c-2.63,1.09-5.34,2-8.17,2.39l2.79-.38c-1.73,.2-3.45,.2-5.17-.03l2.79,.38c-1.47-.22-2.89-.59-4.27-1.16l2.51,1.06c-1.02-.45-1.97-.99-2.87-1.65l2.13,1.64c-.78-.61-1.48-1.3-2.09-2.08l1.64,2.13c-.33-.45-.63-.91-.91-1.4l-16.49,12.72c3.56,3.04,7.24,6.24,11.53,8.2,3.52,1.61,6.44,2.44,10.33,2.79,2.47,.22,5.08-.17,7.48-.71,8.03-1.81,14.17-7.56,21.58-10.74l-2.51,1.06c3.99-1.65,8.29-2.24,12.41-3.47,6.28-1.88,11.69-5.14,15.29-10.75l-19.57-5.3c-.03,.46-.08,.92-.14,1.38l.38-2.79c-.25,1.6-.69,3.13-1.32,4.62l1.06-2.51c-.7,1.59-1.59,3.05-2.64,4.43l1.64-2.13c-1.16,1.46-2.47,2.75-3.94,3.89l2.13-1.64c-1.48,1.12-3.07,2.05-4.78,2.78l2.51-1.06c-1.6,.66-3.25,1.12-4.96,1.37l2.79-.38c-1.61,.2-3.21,.21-4.82,0l2.79,20.62c5.42-1.36,10.69-3.42,15.68-5.91,2.07-1.04,4.13-2.16,6.03-3.49,3.17-2.23,5.57-4.45,7.81-7.6,3.26-4.58,4.28-10.36,4.64-15.84,.28-4.22,.01-8.45,.53-12.65l-.38,2.79,.05-.38,.38-2.79c.05-1.45-.25-2.79-.9-4.05-.85-2.02-2.31-3.97-4.3-5.02-1.65-.87-3.44-1.35-5.3-1.43-2.29-.1-5.96,1.18-7.42,3.08-3.16,4.09-6.84,7.71-10.91,10.88l2.13-1.64c-6.13,4.73-12.97,8.39-20.08,11.4l2.51-1.06c-10.03,4.22-20.52,7.18-31,10.01l11.86,15.42c.49-.89,1.05-1.74,1.67-2.55l-1.64,2.13c1.39-1.77,3.03-3.3,4.8-4.69l-2.13,1.64c6.01-4.64,13.05-7.9,18.41-13.4,6.27-6.42,8.69-15.16,14.06-22.19l-1.64,2.13c2.52-3.25,5.42-6.16,8.66-8.7l-2.13,1.64c3.36-2.59,7.01-4.75,10.91-6.41l-2.51,1.06c1.42-.59,2.87-1.12,4.34-1.58l-8.09-1.06c.59,.26,1.13,.58,1.66,.96l-2.13-1.64c.59,.46,1.1,.97,1.57,1.54l-1.64-2.13c.52,.69,.94,1.41,1.3,2.19l-1.06-2.51c.42,1.02,.71,2.06,.87,3.15l-.38-2.79c.13,1.1,.14,2.19,.01,3.3l.38-2.79c-.17,1.2-.51,2.33-.96,3.45l1.06-2.51c-.68,1.57-1.56,3-2.6,4.35l1.64-2.13c-2.01,2.53-4.45,4.66-6.99,6.65l2.13-1.64c-5.03,3.88-10.52,7.09-16.37,9.57l2.51-1.06c-1.86,.78-3.75,1.48-5.67,2.11l10.22,17.55c5.37-4.93,10.51-10.11,15.38-15.52,2.83-3.14,5.59-6.33,8.13-9.71,3.02-4.01,4.62-8.6,5.04-13.59,.36-4.32-.62-8.75-1.66-12.93-.87-3.52-1.88-7-3.02-10.44-1.36-4.11-2.86-8.23-4.68-12.15-.97-2.1-2.36-4.05-3.96-5.71-2.21-2.29-4.76-3.63-7.67-4.76-4.59-1.79-9.71-1.44-14.44-.59-3.8,.68-7.41,2.13-11.24,2.7l2.79-.38c-2,.26-3.96,.2-5.95-.05l2.79,.38c-6.1-.83-12.03-2.27-18.13-.5-6.72,1.95-12.4,7.45-13.53,14.53-.55,3.45-.53,6.35-.07,9.77,.36,2.68,.83,5.33,1.38,7.97,1.01,4.88,2.26,9.72,3.75,14.48,1.9,6.08,4.24,11.99,6.77,17.84,.94,2.15,4.06,4.32,6.28,4.83,2.84,.65,5.49,.29,8.09-1.06l17.58-9.12,8.79-4.56c2.34-1.21,4.74-2.36,6.91-3.86,3.15-2.17,6.18-4.74,8.04-8.17,2.52-4.68,2.86-9.73,1.7-14.87-1.6-7.04-6.31-12.72-12.03-16.85-2.51-1.81-5.55-3.13-8.51-3.96-3.3-.91-6.94-1.33-10.36-.99-4.48,.45-8.2,1.45-12.29,3.3-3.7,1.67-7.33,4.23-9.53,7.69-2.34,3.69-2.63,8.39-2.49,12.66,.12,3.65,.64,7.37,1.58,10.9s2.33,7.05,4.12,10.21c2.83,4.99,7.99,8.43,13.85,8.18s9.92-3.3,14.12-6.7c2.72-2.2,5.38-4.89,6.88-8.09,1.27-2.71,2.08-5.12,2.11-8.17s-.78-5.4-1.94-8.01c-.96-2.15-2.55-3.9-4.4-5.33-2.68-2.07-5.38-2.88-8.73-3.19l5.3,19.57,4.18-2.71c4.42-2.86,6.38-8.18,4.3-13.11-.85-2.02-2.31-3.97-4.3-5.02l-2.51-1.06c-1.86-.5-3.72-.5-5.58,0-6.83,.98-13.86,5.07-18.12,10.5-1.79,2.29-3.08,4.39-3.08,7.42,0,2.58,1.14,5.65,3.08,7.42s4.63,3.2,7.42,3.08c2.59-.12,5.75-.94,7.42-3.08,1.05-1.34,2.23-2.52,3.56-3.58l-2.13,1.64c1.45-1.12,3.01-2.03,4.68-2.77l-2.51,1.06c1.69-.7,3.43-1.19,5.24-1.45l-8.09-19.19-4.18,2.71c-3.78,2.45-6.29,7.32-4.83,11.86,.56,1.73,1.47,3.29,2.7,4.63,1.93,2.11,4.71,2.83,7.42,3.08l.3,.03-2.79-.38c.39,.06,.74,.16,1.11,.31l-2.51-1.06c.35,.17,.66,.36,.96,.59l-2.13-1.64c.3,.25,.56,.52,.81,.82l-1.64-2.13c.36,.49,.65,1,.88,1.56l-1.06-2.51c.22,.59,.37,1.17,.46,1.79l-.38-2.79c.06,.62,.06,1.22-.02,1.85l.38-2.79c-.1,.56-.25,1.08-.45,1.6l1.06-2.51c-.4,.93-.91,1.77-1.52,2.58l1.64-2.13c-1.46,1.81-3.26,3.28-5.09,4.7l2.13-1.64c-1.12,.85-2.28,1.61-3.57,2.16l2.51-1.06c-.63,.24-1.24,.41-1.9,.5l2.79-.38c-.39,.02-.74,.02-1.13-.02l2.79,.38c-.39-.07-.72-.17-1.09-.31l2.51,1.06c-.35-.18-.65-.36-.96-.6l2.13,1.64c-.28-.25-.53-.51-.77-.79l1.64,2.13c-.99-1.31-1.67-2.83-2.31-4.33l1.06,2.51c-1.19-2.89-2.01-5.88-2.46-8.97l.38,2.79c-.39-2.92-.49-5.91-.12-8.84l-.38,2.79c.07-.44,.17-.84,.3-1.26l-1.06,2.51c.16-.38,.32-.68,.55-1.02l-1.64,2.13c.39-.49,.82-.9,1.31-1.3l-2.13,1.64c1.49-1.13,3.12-2.04,4.83-2.79l-2.51,1.06c1.88-.78,3.81-1.31,5.82-1.61l-2.79,.38c1.87-.24,3.73-.26,5.61-.04l-2.79-.38c1.67,.23,3.27,.64,4.84,1.27l-2.51-1.06c1.56,.66,3,1.49,4.35,2.51l-2.13-1.64c1.33,1.04,2.51,2.21,3.56,3.53l-1.64-2.13c.94,1.24,1.72,2.57,2.34,4l-1.06-2.51c.53,1.29,.89,2.61,1.11,3.99l-.38-2.79c.11,.93,.14,1.84,.03,2.77l.38-2.79c-.12,.74-.32,1.43-.6,2.12l1.06-2.51c-.29,.63-.64,1.21-1.04,1.77l1.64-2.13c-.73,.94-1.57,1.75-2.5,2.49l2.13-1.64c-2.18,1.68-4.63,2.9-7.06,4.16l-9.01,4.68-18.24,9.46,14.37,3.77c-.25-.57-.49-1.14-.74-1.72l1.06,2.51c-4.63-11.04-8.22-22.79-9.91-34.66l.38,2.79c-.24-1.8-.35-3.59-.15-5.4l-.38,2.79c.14-.99,.38-1.93,.77-2.85l-1.06,2.51c.27-.56,.57-1.08,.94-1.59l-1.64,2.13c.39-.49,.81-.91,1.28-1.31l-2.13,1.64c.69-.52,1.4-.93,2.19-1.27l-2.51,1.06c.93-.36,1.88-.6,2.87-.75l-2.79,.38c1.89-.24,3.74-.14,5.62,.11l-2.79-.38c2.94,.41,5.86,.96,8.81,1.27s5.64-.06,8.48-.54c3.96-.66,7.71-2.22,11.7-2.77l-2.79,.38c1.52-.18,3.02-.22,4.54-.06l-2.79-.38c1.1,.15,2.16,.41,3.2,.82l-2.51-1.06c.79,.35,1.5,.76,2.19,1.29l-2.13-1.64c.62,.51,1.15,1.07,1.64,1.71l-1.64-2.13c.8,1.12,1.41,2.34,1.95,3.6l-1.06-2.51c1.64,3.94,3.04,7.99,4.28,12.08s2.47,8.32,3.08,12.58l-.38-2.79c.22,1.7,.29,3.38,.1,5.08l.38-2.79c-.17,1.2-.47,2.33-.92,3.45l1.06-2.51c-.75,1.71-1.76,3.24-2.9,4.72l1.64-2.13c-6.47,8.19-13.94,15.72-21.61,22.77-3.28,3.02-4.07,8.95-1.64,12.72,.98,1.52,2.25,2.79,3.77,3.77,2.13,1.37,5.68,1.85,8.09,1.06,8.37-2.75,16.44-6.67,23.51-11.96,3.63-2.72,7.3-5.51,10.15-9.07,1.99-2.5,3.54-4.8,4.77-7.73,1.16-2.75,1.76-5.3,1.95-8.32,.32-5.07-1.44-10.21-4.51-14.18-1.63-2.11-3.58-3.97-6.02-5.14-2.61-1.25-5.35-1.94-8.24-1.12-.37,.1-.73,.23-1.1,.35-.91,.31-1.81,.64-2.7,1-8.14,3.31-15.56,7.94-21.62,14.37-3.27,3.47-6.24,7.39-8.56,11.56s-3.93,8.36-6.71,12.08l1.64-2.13c-1.52,1.96-3.31,3.64-5.26,5.16l2.13-1.64c-3.51,2.69-7.39,4.84-11,7.38-4.82,3.38-9.27,7.21-12.17,12.43-2.07,3.73-1.79,8.28,.82,11.66s6.93,4.87,11.04,3.76c19.14-5.17,38.74-11,54.65-23.29,4.46-3.44,8.52-7.24,11.98-11.7l-17.55-10.22c-.47,3.45-.76,6.81-.8,10.28-.03,2.62-.05,5.25-.37,7.86l.38-2.79c-.25,1.88-.67,3.69-1.4,5.45l1.06-2.51c-.46,1.04-1.02,2.02-1.7,2.94l1.64-2.13c-.86,1.1-1.84,2.06-2.92,2.93l2.13-1.64c-3.23,2.5-7,4.35-10.74,5.95l2.51-1.06c-3.07,1.29-6.23,2.33-9.46,3.15-5.08,1.27-8.19,6.51-7.52,11.52,.3,2.2,1.2,4.48,2.89,6.03l2.13,1.64c1.64,.95,3.4,1.43,5.3,1.43,8.24,1.06,16.3-2.55,22.53-7.66s9.98-13.18,10.57-21.32l-.38-2.79c-.32-1.37-.95-2.56-1.88-3.57-1.34-1.74-3.26-3.26-5.45-3.76-4.69-1.07-9.25,.76-11.86,4.83-.18,.28-.36,.55-.56,.82l1.64-2.13c-.59,.76-1.26,1.43-2.01,2.04l2.13-1.64c-1.11,.85-2.32,1.51-3.61,2.06l2.51-1.06c-2.49,1.02-5.11,1.63-7.72,2.24-3.49,.82-6.74,1.85-10.04,3.29-5.47,2.38-10.15,6.23-15.64,8.56l2.51-1.06c-1.57,.64-3.16,1.12-4.84,1.37l2.79-.38c-1.37,.17-2.72,.17-4.08-.01l2.79,.38c-1.33-.21-2.6-.59-3.85-1.1l2.51,1.06c-2.27-.98-4.31-2.33-6.27-3.83l2.13,1.64c-1.2-.93-2.36-1.9-3.51-2.89-2.06-1.76-4.6-3.2-7.42-3.08-2.37,.11-4.47,.8-6.36,2.25-4.15,3.2-5.29,8.93-2.7,13.55,1.1,1.96,2.55,3.83,4.26,5.3,2.55,2.19,4.79,3.42,7.89,4.66,1.39,.56,2.79,.94,4.27,1.16,2.3,.35,4.61,.68,6.94,.51,5.38-.4,10-1.98,14.91-4.1,3.66-1.58,7.17-3.47,10.85-5.02l-2.51,1.06c11.35-4.72,23.81-6.97,34.35-13.57,6.65-4.16,12.68-9.9,14.04-17.98,1.29-7.7,.51-15.74-1.28-23.31-1.82-7.7-5.57-14.65-8.63-21.89l1.06,2.51c-1.48-3.55-2.56-7.15-3.08-10.97l.38,2.79c-.45-3.4-.7-6.87-1.53-10.2-.99-3.98-2.9-7.65-5.7-10.65-5.35-5.74-13.51-7.11-20.99-7.01-13.77,.18-27.48,.32-41.25-.41-7.68-.41-15.42-.84-23.05-1.85l2.79,.38c-2.85-.4-5.65-1-8.32-2.08l2.51,1.06c-1.69-.71-3.33-1.56-5.02-2.28-3.27-1.4-5.94-2.28-9.51-2.62-1.11-.1-2.11,.06-3.22,.21-1.16,.16-2.2,.29-3.3,.69-2.77,1-5.5,2.43-7.45,4.7-2.45,2.86-4.04,6.21-4.07,10.04s1.76,6.67,3.94,9.48c2.57,3.32,5.77,5.86,9.26,8.19,2.91,1.94,5.97,3.65,8.74,5.78l-2.13-1.64c1.71,1.35,3.24,2.86,4.59,4.58l-1.64-2.13c1.47,1.92,2.68,4.01,3.63,6.24l-1.06-2.51c.97,2.36,1.63,4.8,1.99,7.33l-.38-2.79c.3,2.4,.31,4.81,.01,7.22l.38-2.79c-.33,2.37-.97,4.64-1.9,6.85l1.06-2.51c-1.28,2.94-2.93,5.68-4.54,8.45-1.99,3.43-3.75,6.97-5.05,10.73-.82,2.37-.29,6,1.06,8.09,1.26,1.95,2.87,3.39,5.02,4.3s4.62,1.25,6.84,.53c2.72-.88,4.63-2.48,6.28-4.83,6.48-9.27,12.15-19.51,12.21-31.13,.03-6.06-1.55-12.7-5.13-17.68-1.83-2.55-3.8-4.87-6.2-6.89s-5.08-4.02-7.74-5.86c-4.77-3.3-9.81-6.17-15.06-8.63-2.2-1.03-4.23-1.58-6.7-1.25-2.2,.3-4.48,1.2-6.03,2.89-1.23,1.34-2.14,2.9-2.7,4.63-.78,2.4-.33,5.97,1.06,8.09,3.5,5.36,6.6,10.96,9.48,16.68s5.71,11.45,8.23,17.31l-1.06-2.51c1.01,2.41,1.86,4.86,2.23,7.46l-.38-2.79c.16,1.35,.17,2.69,0,4.04l.38-2.79c-.23,1.47-.66,2.86-1.24,4.24l1.06-2.51c-1.46,3.28-3.43,6.33-5.23,9.42-1.96,3.35-3.92,6.69-5.89,10.03s-3.87,6.53-5.82,9.79c-1.8,3.02-3.46,6.23-5.59,9.03l1.64-2.13c-.54,.67-1.1,1.27-1.76,1.82l2.13-1.64c-.47,.35-.94,.64-1.48,.87l2.51-1.06c-.44,.16-.86,.27-1.33,.33l2.79-.38c-.33,.02-.64,.02-.97,0l2.79,.38c-.39-.06-.76-.15-1.14-.28l2.51,1.06c-.45-.19-.85-.43-1.24-.72l2.13,1.64c-.39-.32-.73-.67-1.04-1.06l1.64,2.13c-.52-.69-.92-1.42-1.26-2.2l1.06,2.51c-.41-1.03-.69-2.09-.85-3.19l.38,2.79c-.24-1.95-.14-3.94,.1-5.89l-.38,2.79c.34-2.51,.99-4.93,1.95-7.28l-1.06,2.51c.83-1.94,1.84-3.77,3.05-5.49l-16.49,2.13c.92,.8,1.75,1.68,2.51,2.64l-1.64-2.13c1.03,1.37,1.87,2.83,2.54,4.41l-1.06-2.51c.64,1.59,1.08,3.23,1.33,4.93l-.38-2.79c.21,1.7,.22,3.39,.02,5.09l.38-2.79c-.17,1.21-.45,2.39-.84,3.54l15.42-6.28c-.9-.39-1.72-.88-2.5-1.47l2.13,1.64c-.86-.69-1.61-1.47-2.29-2.34l1.64,2.13c-.74-1-1.35-2.06-1.85-3.19l1.06,2.51c-.62-1.48-1.01-2.99-1.25-4.57l.38,2.79c-.32-2.52-.21-5.02,.12-7.53l-.38,2.79c1-7.02,3.16-13.93,5.9-20.46l-1.06,2.51c2.79-6.55,6.29-12.84,10.54-18.56l-1.64,2.13c.96-1.25,2.03-2.38,3.27-3.36l-2.13,1.64c.71-.54,1.44-1,2.24-1.38l-2.51,1.06c.65-.27,1.3-.47,2.01-.56l-2.79,.38c.46-.03,.89-.02,1.34,.04l-2.79-.38c.35,.07,.66,.16,.99,.28l-2.51-1.06c.44,.2,.83,.43,1.22,.72l-2.13-1.64c.35,.3,.65,.62,.93,.99l-1.64-2.13c.33,.48,.6,.98,.83,1.52l-1.06-2.51c.39,1.02,.62,2.07,.78,3.15l-.38-2.79c.61,4.8,.44,9.73-.19,14.51l.38-2.79c-.74,5.3-2.15,10.46-4.2,15.4l1.06-2.51c-1.85,4.36-4.15,8.59-7.04,12.35l1.64-2.13c-1.19,1.51-2.5,2.88-4.01,4.08l2.13-1.64c-.95,.72-1.94,1.33-3.03,1.82l2.51-1.06c-.82,.33-1.64,.57-2.51,.7l2.79-.38c-.62,.07-1.22,.07-1.85,.02l2.79,.38c-.73-.1-1.42-.28-2.1-.55l2.51,1.06c-.58-.26-1.11-.57-1.63-.94l2.13,1.64c-.58-.46-1.08-.96-1.55-1.53l1.64,2.13c-.66-.86-1.19-1.79-1.63-2.78l1.06,2.51c-.75-1.79-1.19-3.67-1.47-5.59l.38,2.79c-.78-5.9-.5-12.03,.26-17.92l-.38,2.79c.95-6.99,2.8-13.82,5.52-20.33l-1.06,2.51c1.97-4.63,4.28-9.36,7.34-13.37l-1.64,2.13c.66-.83,1.37-1.57,2.21-2.22l-2.13,1.64c.51-.36,1.03-.67,1.6-.92l-2.51,1.06c.55-.2,1.08-.34,1.66-.42l-2.79,.38c.46-.04,.9-.04,1.36,0l-2.79-.38c.45,.07,.86,.17,1.29,.32l-2.51-1.06c.41,.18,.77,.39,1.12,.66l-2.13-1.64c.17,.14,.33,.3,.47,.47l-1.64-2.13c.31,.4,.54,.8,.74,1.26l-1.06-2.51c.21,.59,.34,1.19,.43,1.81l-.38-2.79c.56,5.25,.02,10.82-.66,16.04l.38-2.79c-.91,6.75-2.58,13.38-5.2,19.68l1.06-2.51c-2.02,4.76-4.57,9.27-7.72,13.37l1.64-2.13c-2.06,2.65-4.33,5.21-6.98,7.28l2.13-1.64c-1.37,1.03-2.81,1.92-4.38,2.61l2.51-1.06c-1.05,.43-2.11,.75-3.22,.93l2.79-.38c-.84,.11-1.65,.12-2.49,.03l2.79,.38c-.72-.11-1.39-.29-2.06-.56l2.51,1.06c-.65-.3-1.25-.65-1.82-1.09l2.13,1.64c-.51-.43-.96-.89-1.38-1.41l1.64,2.13c-.53-.72-.96-1.48-1.33-2.29l1.06,2.51c-.62-1.51-.98-3.09-1.2-4.71l.38,2.79c-.71-5.86-.21-11.99,.57-17.82l-.38,2.79c1.13-8.16,3.31-16.14,6.51-23.73l-1.06,2.51c1.69-3.95,3.51-8.11,6.14-11.54l-1.64,2.13c.72-.89,1.51-1.7,2.41-2.41l-2.13,1.64c.51-.36,1.02-.69,1.58-.96l-2.51,1.06c.43-.18,.85-.3,1.3-.39l-2.79,.38c.34-.04,.65-.05,.99-.03l-2.79-.38c.21,.02,.41,.07,.61,.14l-2.51-1.06c.19,.07,.37,.17,.53,.29l-2.13-1.64c.17,.13,.31,.28,.43,.45l-1.64-2.13,.18,.33-1.06-2.51c.1,.23,.16,.47,.19,.72l-.38-2.79c.11,1.57-.25,3.21-.45,4.77l.38-2.79c-2.11,15.54-6.27,30.76-12.35,45.22l1.06-2.51c-1.3,3.08-2.56,6.27-4.61,8.95l1.64-2.13c-.67,.83-1.39,1.57-2.23,2.22l2.13-1.64c-.62,.44-1.26,.8-1.95,1.1l2.51-1.06c-.71,.27-1.41,.47-2.16,.58l2.79-.38c-.61,.07-1.21,.07-1.82,.02l2.79,.38c-.61-.09-1.16-.24-1.73-.47l2.51,1.06c-.44-.21-.83-.46-1.22-.75l2.13,1.64c-.35-.3-.66-.61-.95-.97l1.64,2.13c-.41-.55-.74-1.13-1.01-1.76l1.06,2.51c-.44-1.11-.7-2.25-.87-3.42l.38,2.79c-.89-6.96-.42-14.25,.48-21.18l-.38,2.79c1.19-8.82,3.51-17.44,6.94-25.66l-1.06,2.51c1.35-3.21,2.71-6.77,4.77-9.6l-1.64,2.13c.45-.57,.94-1.08,1.5-1.55l-2.13,1.64c.36-.27,.72-.49,1.13-.68l-2.51,1.06c.3-.11,.55-.18,.86-.22l-2.79,.38c.19-.02,.38,0,.57,.02l-2.79-.38c.19,.03,.37,.09,.55,.18l-2.51-1.06,.26,.15-2.13-1.64c.18,.12,.35,.27,.49,.44l-1.64-2.13c.14,.17,.25,.36,.34,.56l-1.06-2.51c.13,.33,.2,.62,.26,.97l-.38-2.79c.13,1.32-.11,2.65-.29,3.96l.38-2.79c-1.54,11.18-4.46,22.18-8.81,32.6l1.06-2.51c-1.85,4.38-4.02,8.64-6.94,12.41l1.64-2.13c-1.59,2.01-3.36,3.83-5.38,5.41l2.13-1.64c-.84,.64-1.71,1.19-2.67,1.61l2.51-1.06c-.48,.18-.95,.33-1.46,.43l2.79-.38c-.49,.06-.94,.07-1.44,.02l2.79,.38c-.23-.04-.46-.1-.69-.18l2.51,1.06c-.35-.16-.63-.32-.94-.54l2.13,1.64c-.27-.24-.49-.48-.72-.77l1.64,2.13c-.34-.5-.61-1.02-.84-1.58l1.06,2.51c-.77-1.97-1.24-4.01-1.53-6.1l.38,2.79c-.5-4.07-.36-8.19-.16-12.28s.6-8.31,1.15-12.43l-.38,2.79c.69-5.06,1.62-10.09,2.8-15.05s2.42-9.79,4.24-14.44l-1.06,2.51c.32-.76,.7-1.46,1.21-2.11l-1.64,2.13c.22-.25,.44-.47,.69-.69l-2.13,1.64c.26-.19,.5-.32,.79-.44l-2.51,1.06c.19-.07,.38-.11,.58-.13l-2.79,.38c.21-.02,.42,0,.63,.04l-2.79-.38c.18,.04,.36,.09,.53,.17l-2.51-1.06c.16,.07,.31,.17,.45,.28l-2.13-1.64c.14,.11,.26,.23,.37,.37l-1.64-2.13c.17,.23,.3,.44,.43,.7l-1.06-2.51c.24,.56,.37,1.13,.45,1.73l-.38-2.79c.17,1.64-.08,3.3-.25,4.93-.21,2-.45,3.99-.71,5.99l.38-2.79c-2.4,17.78-7.15,35.2-14.11,51.74l1.06-2.51c-.68,1.61-1.35,3.15-2.42,4.54l1.64-2.13c-.46,.56-.95,1.07-1.52,1.54l2.13-1.64c-.36,.26-.72,.49-1.12,.68l2.51-1.06c-.29,.12-.56,.2-.87,.26l2.79-.38c-.31,.03-.57,.04-.88,0l2.79,.38c-.2-.03-.4-.08-.59-.16l2.51,1.06c-.32-.14-.57-.29-.85-.5l2.13,1.64c-.17-.14-.32-.29-.45-.46l1.64,2.13c-.2-.27-.35-.53-.5-.83l1.06,2.51c-.21-.54-.35-1.07-.44-1.64l.38,2.79c-.28-2.28-.09-4.65-.02-6.95,.07-2.43,.19-4.86,.34-7.28,.32-5.01,.82-10.01,1.47-14.99l-.38,2.79c.71-5.3,1.61-10.57,2.7-15.8,.96-4.59,1.94-9.24,3.76-13.58l-1.06,2.51c.85-1.96,1.88-3.82,3.19-5.51l-1.64,2.13c.42-.52,.86-1.02,1.32-1.51l-17.55-4.63c.69,2.94,1.24,5.9,1.65,8.89l-.38-2.79c1.11,8.41,1.1,16.93-.01,25.34l.38-2.79c-1.13,8.26-3.31,16.34-6.51,24.04l1.06-2.51c-1.65,3.9-3.41,8.06-6.02,11.44l1.64-2.13c-.58,.72-1.2,1.36-1.92,1.95l2.13-1.64c-.59,.45-1.19,.83-1.86,1.13l2.51-1.06c-.64,.25-1.28,.43-1.96,.53l2.79-.38c-.57,.06-1.11,.07-1.68,.02l2.79,.38c-.55-.08-1.06-.21-1.58-.41l2.51,1.06c-.4-.18-.76-.39-1.11-.65l2.13,1.64c-.26-.22-.48-.43-.7-.69l1.64,2.13c-.31-.41-.55-.83-.77-1.3l1.06,2.51c-.28-.73-.44-1.46-.55-2.23l.38,2.79c-.43-3.74-.29-7.61-.15-11.37s.5-7.84,1.02-11.74l-.38,2.79c1.03-7.48,2.73-14.85,5.09-22.02l-20.62-2.79c.39,10.8-.13,21.61-1.55,32.32l.38-2.79c-.39,2.88-.84,5.74-1.36,8.6-.44,2.41-.76,4.96-1.67,7.25l1.06-2.51c-.26,.59-.55,1.13-.94,1.64l1.64-2.13c-.2,.23-.39,.43-.62,.63l2.13-1.64c-.24,.18-.47,.32-.74,.45l2.51-1.06c-.29,.11-.56,.18-.87,.23l11.86,4.83c-.35-.6-.65-1.2-.93-1.83l1.06,2.51c-.68-1.66-1.09-3.38-1.33-5.15l.38,2.79c-.41-3.43-.22-6.89-.05-10.33,.2-4.01,.46-8.03,.78-12.03,.62-7.93,1.47-15.85,2.53-23.73l-.38,2.79c.44-3.25,.91-6.5,1.42-9.74,.45-2.88,.47-5.47-1.06-8.09-1.27-2.18-3.77-4.26-6.28-4.83-5.73-1.31-11.13,1.73-12.92,7.33-2.63,8.26-3.18,17.13-3.28,25.74s-.06,16.59-.09,24.88l19.57-5.3c-2.12-3-3.89-6.2-5.32-9.58l1.06,2.51c-1.77-4.27-2.97-8.74-3.59-13.32l.38,2.79c-.57-4.45-.58-8.94,0-13.39l-.38,2.79c.66-4.85,2.06-9.5,3.95-14.01l-1.06,2.51c2.65-6.21,6.1-12.01,9.57-17.79l-18.13-10.6c-5.83,11.49-11.11,23.26-15.93,35.21-2.3,5.7-4.47,11.45-6.51,17.25-.99,2.82-1.97,5.65-2.89,8.5-1.4,4.32-1.95,8.71-1.05,13.2,1.35,6.71,6.67,11.01,10.67,16.12l-1.64-2.13c.76,.99,1.42,2.03,1.95,3.16,1.36,2.91,4.67,4.61,7.67,5.01,3.16,.43,6.59-.45,8.82-2.89,2.81-3.06,5.35-6.47,7.26-10.17,1.24-2.39,1.92-5.44,1.06-8.09s-2.48-4.65-4.83-6.28c-.43-.3-.84-.6-1.26-.91l2.13,1.64c-2.13-1.66-4.01-3.58-5.68-5.71l1.64,2.13c-2.38-3.11-4.25-6.54-5.77-10.13l1.06,2.51c-2.82-6.79-4.5-14.04-5.49-21.3l.38,2.79c-1.13-8.62-1.13-17.35-.02-25.97l-.38,2.79c.62-4.61,1.55-9.17,2.81-13.66,1.14-4.08-.47-8.49-3.76-11.04s-8.12-3.11-11.66-.82c-9.73,6.29-14.04,17.39-16.47,28.26s-3.05,21.39-1.7,32.04c.82,6.51,2.04,12.86,4.15,19.08,.88,2.6,2.41,4.86,4.83,6.28,2.25,1.32,5.57,1.88,8.09,1.06,5.45-1.76,8.85-7.23,7.33-12.92-.6-2.27-1.06-4.57-1.39-6.9l.38,2.79c-.69-5.23-.67-10.52,.02-15.75l-.38,2.79c.76-5.6,2.26-11.05,4.43-16.26l-1.06,2.51c2.15-5.09,4.93-9.89,8.29-14.27l-1.64,2.13c3.09-3.98,6.64-7.58,10.62-10.68l-2.13,1.64c3.68-2.83,7.75-4.89,11.7-7.29,5.91-3.59,10.93-8.36,12.93-15.16,1.55-5.27-1.87-11.67-7.33-12.92s-11.25,1.69-12.92,7.33h0Z"/><path class="b" d="M104.53,19.71l3.3-4.73c.77-1.1,1.63-3.02,2.86-3.66,1-.51,2.85-.24,4.09-.19,1.97,.07,3.94,.21,5.9,.39,2.93,.28,6.86,.35,8.94,2.36,1.81,1.75,2.81,4.41,3.69,6.84l2.89-3.8c-4.99-.27-9.49-3.31-14.27-4.61s-11.69-1.18-13.16,4.61c-.39,1.52,.49,3.32,2.1,3.69,5.43,1.27,10.91,1.4,16.41,.52,2.44-.39,3.02-4.49,.72-5.48-2.75-1.19-5.5-2.39-8.26-3.57s-5.8-2.34-8.98-1.79c-2.42,.42-4.63,2.11-5.67,4.33-.61,1.3-.85,2.72-.54,4.14,.4,1.85,1.52,2.83,3.35,3.18,5.92,1.11,12.01,1.44,18,.74,1.46-.17,2.86-.44,3.95-1.53s1.53-2.81,1.21-4.36c-.61-3.01-3.43-4.3-6.09-5.09-2.86-.84-5.85-1.17-8.8-1.44-2.29-.21-4.73-.48-6.95,.29-2.62,.91-4.55,3.13-4.53,6s2,5.45,4.52,6.66,5.38,1.67,8.13,2.11c2.96,.47,5.95,.81,8.95,1.03s5.8,.33,8.7,.41,6.31,.59,9.02-.77c1.47-.74,2.66-2.09,3.13-3.68,.26-.88,.2-1.76,.05-2.65,0,.02-.1-.71-.15-.73,.07,.6-.13,1.06-.6,1.38l.27-.17c.93-.22,1.91-.7,2.82-.75,1.29-.07,2.34,.07,3.57,.45,4.81,1.49,7.42,6.27,8.36,10.92,.32,1.59,2.21,2.5,3.69,2.1,1.65-.45,2.42-2.1,2.1-3.69-1.41-6.96-6.12-13.55-13.3-15.32-3.4-.84-7.5-.66-10.54,1.27-2.03,1.29-2.69,3.49-2.08,5.76-.11-.42,.4-.29-.18-.16-.75,.17-1.52,.14-2.29,.13-8.14-.17-16.41-.35-24.37-2.18-1.2-.28-2.88-.58-3.58-1.62-.11-.17-.12-.28-.18-.44-.17-.43-.02,.3-.03-.14,0-.25-.1,.05,.03-.05-.02,.01,.31-.16,.1-.09,1.18-.4,2.44-.32,3.96-.19,1.9,.16,3.8,.32,5.67,.66,1.06,.2,2.12,.44,3.15,.75,.38,.11,.92,.28,1.19,.4,.17,.08,.55,.25,.51,.28,0,0-.09-.15-.09-.16,.14-.28,.14-.87,.39-1.17l.24-.15c.3-.15,.33-.19,.08-.11-.03-.03-.12,.03-.26,.06-1.1,.16-2.24,.21-3.35,.26-4.62,.23-9.23-.09-13.76-1l1.79,1.38c.19,.4-.08,.26,.06,0-.27,.5,.24-.38,0,0,.27-.44,.52-.75,.7-.87,.92-.61,2.3-.37,3.58,.02,3.52,1.08,6.91,2.86,10.28,4.32l.72-5.48c-4.38,.7-8.9,.48-13.22-.52l2.1,3.69c.08-.3,.17-.26,0-.13,.11-.09,.28-.32,.04-.1,.17-.15,.34-.3,.53-.38,.57-.26,1.12-.34,1.81-.34,2.06-.01,4.13,.69,6.06,1.41,4.37,1.63,8.45,3.7,13.2,3.95,1.84,.1,3.54-2.01,2.89-3.8-1.26-3.47-2.68-7.19-5.49-9.73-3.43-3.1-8.04-3.39-12.44-3.83-2.29-.23-4.59-.38-6.89-.46-2.14-.07-4.32-.08-6.29,.86-2.07,.99-3.26,2.98-4.53,4.79l-4.13,5.91c-.93,1.33-.24,3.33,1.08,4.1,1.49,.87,3.17,.26,4.1-1.08h0Z"/><path class="b" d="M133.4,160.78l.8,6.5,.21,1.75c.02,.16,.03,1.21,.11,1.26-.02-.01,.15-.14,.13-.14,.29-.06,.38-.06,.64-.02-.13-.08-.16-.1-.09-.04,.07,.07,.04,.04-.08-.07-.08-.07-.15-.15-.22-.24,.05,.06,.05,.05,0-.04-.18-.28-.21-.35-.27-.62-.1-.48-.08-1-.07-1.49,.02-.94,.18-1.85,.41-2.76,.51-1.95,1.35-3.79,2.21-5.61l-2.74-.36c1.12,2.85,2.05,5.76,2.76,8.74,.45,1.88,3.35,1.08,2.89-.8-.72-2.97-1.64-5.89-2.76-8.74-.22-.56-.61-1-1.25-1.07-.55-.07-1.24,.17-1.49,.72-1.74,3.7-3.63,7.81-2.88,12,.28,1.56,1.66,3.37,3.39,3.29,1.1-.06,2-.85,2.3-1.89,.28-.96,.03-2.02-.09-2.99l-.9-7.37c-.1-.8-.62-1.5-1.5-1.5-.73,0-1.6,.69-1.5,1.5h0Z"/><path class="d" d="M116.09,110.22c-3.88,.16-7.41,2.84-8.38,6.65-.44,1.74,.89,3.99,2.89,3.8,3.02-.28,5.94-1.28,8.38-3.12,2.63-1.98,4.54-4.46,5.74-7.53,.48-1.23-.33-2.76-1.38-3.39-2.95-1.76-6.18-.35-8.82,1.26-1.09,.66-2.15,1.37-3.19,2.11-1.13,.82-2.41,1.63-3.33,2.69-1.39,1.6-2.1,3.63-1.11,5.64,.77,1.56,2.4,2.36,4.08,2.43,1.42,.05,2.7-.45,3.98-1.01,1.01-.44,1.97-.99,2.87-1.63,2.32-1.67,4.28-3.77,5.64-6.3,.46-.86,.53-1.77,.15-2.67-.32-.77-1.06-1.61-1.94-1.74-1.56-.22-2.98-.24-4.53,.12-1.26,.29-2.52,.85-3.58,1.6-1.28,.91-2.01,2.66-1.08,4.1,.82,1.27,2.74,2.05,4.1,1.08,.39-.28,.8-.51,1.23-.73,.6-.31-.61,.19,.04,0,.23-.07,.45-.15,.68-.21,.07-.02,.68-.19,.7-.15l-.39,.05c.14-.02,.27-.03,.41-.04,.2-.01,.41-.02,.61-.01s1.14,.1,.22-.02l-1.79-4.41c-.19,.36-.4,.72-.62,1.06-.12,.19-.24,.37-.37,.55-.05,.08-.11,.15-.17,.23-.27,.37-.13,.09,.07-.08-.3,.26-.53,.64-.81,.93-.3,.32-.62,.63-.95,.92-.16,.15-.33,.29-.5,.43-.4,.34,.53-.38-.07,.05-.36,.26-.72,.51-1.1,.74-.35,.21-.71,.41-1.07,.6-.2,.1-.4,.19-.6,.28-.29,.14,.28-.12,.28-.12-.11-.01-.34,.13-.44,.17-.32,.12-.68,.15-.99,.27,.04-.01,.65,0,.41-.06-.06-.01-.17,0-.23,0-.52,.06,.41,.03,.35,.07-.01,.01-.28-.06-.28-.07,0-.06,.73,.4,.34,.13,.22,.15,.37,.3,.54,.5,.29,.33,.14,.19,.07,.07,.15,.27,.25,.54,.26,.86,0-.03-.12,.7-.04,.38,.07-.29-.13,.31-.14,.31,.04-.03,.12-.19,.14-.24,.15-.3-.43,.46-.06,.08,.3-.31,.62-.59,.96-.86,.07-.06,.18-.18,.26-.21-.42,.16-.28,.21-.07,.06,.24-.18,.48-.36,.72-.54,.82-.6,1.65-1.17,2.51-1.71,.51-.32,1.02-.63,1.54-.94,.21-.12,.43-.25,.64-.36s.56-.2,.73-.36c-.02,.01-.55,.2-.24,.11,.16-.05,.32-.12,.48-.16,.1-.03,.19-.05,.29-.08,.06-.02,.13-.03,.19-.04,.23-.04,.13-.03-.31,.04,.1,.03,.89,.02,.36-.03-.47-.04-.07,.02,.06,.05,.32,.06-.64-.33-.11-.02l-1.38-3.39c-.23,.58,.22-.47,.06-.14-.06,.13-.12,.27-.19,.4-.13,.27-.27,.53-.42,.78-.13,.23-.27,.46-.42,.68-.08,.12-.17,.25-.25,.37-.06,.09-.39,.52-.09,.12s-.06,.06-.1,.11c-.08,.09-.15,.18-.23,.27-.2,.22-.4,.44-.61,.65s-.43,.41-.65,.61c-.11,.1-.23,.19-.34,.29-.27,.24,.62-.45,.12-.09-.46,.33-.93,.64-1.42,.92-.26,.15-.52,.28-.79,.41-.13,.06-.28,.11-.4,.19,.1-.06,.61-.24,.22-.1-.55,.21-1.11,.4-1.69,.54-.26,.06-.52,.12-.78,.17-.14,.03-.3,.03-.44,.07l.44-.06c-.12,.01-.24,.03-.35,.04l2.89,3.8c.04-.14,.07-.28,.12-.41,.16-.49,.05,.02-.09,.16,.17-.17,.28-.54,.41-.75,.06-.1,.14-.18,.2-.28-.36,.63-.25,.33-.09,.14,.2-.22,.41-.4,.62-.6,.25-.23-.63,.42-.13,.11,.1-.06,.19-.13,.29-.19,.12-.07,.25-.14,.38-.21,.47-.24,.01,.06-.17,.06,.23,0,.58-.2,.82-.25,.11-.02,.23-.04,.34-.06-.78,.2-.4,.06-.11,.05,1.57-.06,3.07-1.33,3-3-.07-1.57-1.32-3.07-3-3h0Z"/><path class="d" d="M59.15,128.35c-2.81-.62-5.71-.61-8.5,.13-1.37,.36-2.71,.91-3.95,1.58-1.42,.78-2.89,1.78-3.54,3.32-.76,1.8-.32,3.8,1.14,5.11,1.13,1.02,2.6,1.53,4.07,1.81,3.1,.6,6.32,.39,9.15-1.12,2.64-1.42,4.88-4.16,5.3-7.18,.29-2.06-.77-3.58-2.89-3.8-5.33-.54-10.89,1.64-14.54,5.54-1.07,1.15-1.22,3.12,0,4.24s3.1,1.22,4.24,0c.4-.43,.83-.84,1.28-1.23,.13-.11,.58-.6,.09-.08,.19-.2,.5-.36,.73-.51,.43-.28,.88-.54,1.34-.78,.24-.12,.53-.32,.8-.38-.74,.17,.02,0,.21-.07,.52-.19,1.05-.35,1.59-.49,.22-.05,.43-.1,.65-.15,.17-.03,1.15-.27,.3-.07,1.03-.25,2.27-.14,3.32-.03l-2.89-3.8c-.06,.41-.16,.8-.27,1.2-.15,.53,.25-.45,0,.04-.11,.21-.22,.43-.34,.63-.06,.1-.38,.66-.17,.29,.2-.35-.13,.15-.23,.25-.14,.15-.29,.3-.44,.44-.08,.07-.16,.14-.23,.21-.31,.29-.01-.07,.12-.08-.13,.01-.4,.28-.52,.35-.18,.11-.36,.21-.54,.31-.09,.05-.19,.09-.28,.14-.29,.16,.21-.09,.2-.08-.1,.14-.65,.22-.82,.27-.24,.07-.47,.12-.72,.17-.08,.02-.29,.09-.36,.07,0,0,.56-.05,.19-.03-.54,.03-1.06,.07-1.6,.04-.17,0-.6,.04-.74-.06,.01,0,.54,.09,.18,.03-.12-.02-.25-.04-.37-.06-.52-.1-1.03-.23-1.53-.38-.67-.2,.36,.24-.07-.02-.08-.05-.16-.11-.25-.14-.27-.12,.22,.18,.23,.19-.38-.36,.27,.51,.03,.07,.24,.44,.34,.96,.15,1.44-.03,.07-.19,.47-.29,.47,.02,0,.2-.19,.22-.22,.19-.24-.15,.14-.21,.14,.06,0,.22-.15,.26-.18,.42-.28,.85-.54,1.3-.77,.21-.11,.42-.21,.62-.31,.52-.25-.4,.14,.14-.06,.47-.17,.95-.34,1.43-.47,.53-.14,1.06-.24,1.59-.34,.36-.07-.22,.04-.22,.03,0-.03,.42-.04,.46-.05,.27-.02,.54-.04,.81-.05,.54-.02,1.08,0,1.62,.05,.03,0,.34,.02,.35,.03,0-.02-.62-.1-.11-.01,.31,.05,.61,.11,.91,.18,1.53,.34,3.32-.46,3.69-2.1,.35-1.52-.46-3.33-2.1-3.69h0Z"/><path class="d" d="M165.69,99.72c-1.85-2.12-3.86-4.09-6.03-5.87-2.04-1.68-4.26-3.52-6.68-4.63-2.62-1.21-5.92-1.7-8.18,.54s-2,6.14,.11,8.49c1.95,2.17,5.06,2.97,7.83,3.46,3,.53,6.04,.69,9.09,.69,2.77,0,6.77,.46,8.49-2.3,1.93-3.1-.72-6.23-3.28-7.86-2.03-1.29-4.46-1.9-6.81-2.28-2.9-.46-5.83-.79-8.74-1.18-1.78-.24-3.66-.09-4.71,1.63-.78,1.27-.8,2.85-.3,4.23,.93,2.61,3.29,4.1,5.81,4.96s5.14,1.14,7.65,1.16c2.83,.03,6.14-.57,8.31-2.54,1.42-1.28,1.9-3.2,1.13-4.98-.67-1.54-2.07-2.62-3.47-3.47-2.23-1.36-4.79-2.07-7.35-2.43-1.62-.23-3.25-.38-4.89-.46s-3.23-.19-4.8,.21c-3.95,1.02-6.25,5.61-3.47,9,.92,1.13,2.22,1.84,3.51,2.46,1.59,.76,3.23,1.42,4.92,1.94,3.12,.95,6.43,1.41,9.69,1.42,1.62,0,3-1.38,3-3s-1.37-3-3-3c-3.62,0-7.21-.68-10.55-2.07-.78-.33-1.56-.7-2.3-1.12-.18-.1-.36-.2-.53-.32,.11,.08,.3,.33-.11-.1-.23-.24-.07-.25-.07-.09,0,.17,.04,.7,.11,.86l-.09,.15,.16-.27c-.03,.11-.12,.12-.19,.18,.27-.2,.28-.2,.72-.28,.6-.11,1.71-.02,2.51,.02,1.64,.08,3.54,.21,4.81,.43,1.69,.3,3.22,.72,4.48,1.42,.34,.19,.66,.39,.98,.61,.16,.11,.38,.35,.44,.3,.06-.05,.3-1.91,.42-1.88,.13,.03-.29,.17-.4,.23-.47,.27-.41,.25-1.01,.43-.38,.12-.77,.21-1.16,.28-.35,.06-.13,.02-.05,.01-.23,.03-.46,.04-.69,.06-.94,.05-1.88,.01-2.82-.08-.77-.07-1.46-.17-2.4-.36-.78-.15-1.54-.36-2.28-.64,.47,.18,.04,.02-.05-.02-.2-.1-.4-.21-.6-.32-.07-.04-.54-.34-.24-.13s-.28-.26-.28-.26c-.12-.1-.31-.43,0,.04-.09-.14-.17-.28-.25-.42,.36,.72,.04,0,.05,.02l.03,.29c0-.53-.05-.34-.18,.58l-1.08,1.08c-.64,.49-1.05,.03-.48,.13,.22,.04,.46,.06,.69,.08,.53,.07,1.07,.14,1.6,.21l3.61,.48c1.57,.21,3.33,.42,5.09,.9,.4,.11,.78,.24,1.18,.37,.06,.02,.54,.21,.13,.03,.18,.08,.37,.17,.54,.26,.35,.18,.69,.39,1.02,.61,.07,.05,.42,.36,.1,.07,.19,.16,.37,.33,.54,.52l.1,.11c.23,.24,.27,.3,.13,.16l.08-.78c-.11-.62,.12-1.08,.68-1.38-.34,.28-.1-.12,.03,0,0,0-.74,.14,.02,.04-1.01,.13-2.08,.06-3.1,.07-2.18,.02-4.37,0-6.55-.21-1.93-.18-4.11-.49-5.94-1.29,.29,.13-.21-.12-.21-.12-.19-.11-.4-.21-.58-.35,.23,.18-.63-.74-.28-.29-.33-.42-.16-.23-.07-.1-.32-.47-.12-.17-.06-.07-.05-.07-.08-.48-.04-.06-.05-.53,.19-.09-.08,.1-.17,.11-.22,.13-.42,.22,.44-.19,.18-.07-.02-.05,.18-.02,.37,0,.56,0-.51-.03-.06,0,.06,.03,.09,.03,1.13,.37,.72,.2,.46,.2,.9,.46,1.32,.72,3.82,2.38,7.18,5.41,10.17,8.85,1.07,1.22,3.15,1.09,4.24,0,1.21-1.21,1.07-3.02,0-4.24h0Z"/><path class="d" d="M26.06,134.91l1.22-1c1.15-.95,1.07-2.86,.23-3.94-.96-1.24-2.5-1.43-3.87-.77-5.1,2.45-9.4,6.46-12.3,11.31-1.55,2.6,1.53,5.59,4.1,4.1,5.66-3.27,9.84-9.19,10.76-15.69,.25-1.77-.43-3-2.1-3.69-2.65-1.1-5.92-.57-8.32,.92-2.52,1.57-4.22,4.13-5.08,6.94-.91,2.97-1.2,6.88,1.79,8.78,2.52,1.61,5.74,.54,7.92-1.13s4.01-4.01,5.53-6.41,3.54-5.19,3.13-8.25c-.22-1.62-1.14-3.16-2.58-3.98-1.79-1.02-3.73-.61-5.5,.2-2.29,1.04-4.41,2.57-6.21,4.33-3.81,3.74-9.16,11.97-3.34,16.27,1.27,.94,3.4,.25,4.1-1.08,.83-1.57,.28-3.11-1.08-4.1,.16,.12,.55,.76,.36,.3l.06,.17c.09,.24,.09,.22,0-.03l-.05-.21c.04,.4,.05,.48,.04,.25,.04-.16,0-.41,0-.57,0-.54,0-.01-.02,.1,.05-.23,.1-.46,.16-.69,.06-.2,.45-1.17,.21-.65,.37-.81,.78-1.6,1.25-2.36,.24-.38,.48-.75,.74-1.11,.1-.14,.21-.29,.32-.43-.37,.48,.12-.13,.2-.23,.58-.68,1.2-1.32,1.86-1.92,.33-.3,.67-.59,1.02-.86-.42,.33-.05,.04,.03-.02,.26-.18,.51-.36,.77-.53,.71-.47,1.45-.86,2.21-1.26s-.3,.07,.19-.09l.14-.05c.36-.09,.37-.1,.04-.05-.19-.07-.37-.11-.56-.19-.31-.27-.34-.3-.11-.07-.22-.3-.27-.35-.15-.16,.2,.32-.11-.64-.02,0-.09-.7-.02-.29-.03-.13-.01,.62,.21-.44-.07,.3-.02,.06-.2,.53-.02,.12-.4,.94-1.02,1.83-1.54,2.7-.48,.79-.97,1.57-1.49,2.33-.27,.4-.55,.8-.85,1.18,.29-.37-.02,.02-.07,.07-.22,.25-.43,.51-.66,.76-.29,.32-.59,.63-.9,.92-.21,.2-.43,.38-.64,.57-.06,.05-.45,.34-.07,.07-.32,.23-.66,.39-.99,.59,.47-.29,.25-.08,.06-.03-.11,.03-.96,.18-.49,.15,.53-.04-.25,0-.26-.02-.03-.05,.65,.16,.18,0l.34,.14c-.27-.17-.23-.14,.12,.09,.15,.14,.18,.28,.28,.46-.29-.55-.07,.19-.03-.11,.03-.21,.01-.46,.02-.67,.01-.82-.09,.35,0-.14,.06-.31,.11-.63,.18-.94,.11-.45,.25-.88,.39-1.31,.25-.81-.27,.46,.11-.29,.12-.24,.24-.49,.38-.72,.09-.16,.18-.31,.28-.46,.1-.15,.2-.3,.31-.44-.17,.22-.18,.24-.04,.08,.16-.15,.3-.34,.46-.49,.05-.05,.71-.58,.2-.22,.18-.13,.36-.25,.55-.36,.11-.07,.95-.47,.35-.22,.41-.17,.83-.27,1.26-.37,.75-.18-.53-.06,.24-.01,.26,.02,.52,.01,.78,.02-.58-.02-.19-.04-.03,.01,.33,.11,.66,.19,.99,.33l-2.1-3.69c-.2,1.39-.54,2.75-1.04,4.07-.06,.16-.13,.33-.19,.49,.13-.31,.13-.31-.01,0-.16,.31-.3,.63-.47,.94-.31,.58-.64,1.15-1.01,1.7-.17,.26-.35,.5-.53,.75-.21,.27-.21,.28-.01,.02-.11,.14-.22,.27-.33,.41-.45,.54-.93,1.05-1.44,1.53-.25,.24-.52,.48-.78,.7-.13,.11-.27,.22-.41,.33,.26-.2,.26-.2-.02,.01-.57,.41-1.16,.79-1.76,1.14l4.1,4.1c.34-.56,.69-1.11,1.06-1.65,.16-.23,.33-.46,.49-.68-.34,.45,.15-.19,.22-.27,.8-.97,1.67-1.89,2.6-2.74,.45-.41,.91-.8,1.39-1.18-.45,.36,.26-.19,.29-.21,.26-.19,.53-.38,.8-.56,1.05-.7,2.15-1.32,3.29-1.86l-3.64-4.71-1.22,1c-1.22,1-1.11,3.22,0,4.24,1.29,1.19,2.94,1.07,4.24,0h0Z"/><path class="d" d="M19.76,130.61c-.24,.07-.48,.15-.71,.24-.46,.19-.93,.37-1.37,.62-.22,.12-.43,.26-.63,.41-.4,.29-.8,.6-1.17,.94-.29,.27-.5,.59-.62,.97-.19,.36-.27,.74-.26,1.16-.02,.41,.07,.8,.26,1.16,.12,.37,.33,.69,.62,.97l.61,.47c.47,.27,.97,.41,1.51,.41l.8-.11c.51-.14,.95-.4,1.32-.77,.15-.14,.3-.27,.46-.39l-.61,.47c.42-.32,.88-.59,1.37-.79l-.72,.3c.24-.1,.48-.18,.73-.25,.39-.09,.73-.27,1.02-.54,.33-.21,.58-.49,.77-.84,.22-.34,.34-.72,.36-1.12,.09-.4,.07-.8-.05-1.2l-.3-.72c-.27-.45-.63-.81-1.08-1.08l-.72-.3c-.53-.14-1.06-.14-1.6,0h0Z"/><path class="e" d="M7.79,95.33c.83,1.16,1.84,2.49,2.32,3.75-.04-.12,.34,.95,.2,.61-.11-.26,0,.64,.05,.06l.1-.15c-.16,.26-.32,.52-.48,.78-.32,.52-.63,1.05-.94,1.57-1.83,3.13-3.45,6.38-4.86,9.73-2.49,5.95-4.77,12.72-3.8,19.22,.71,4.74,2.86,9.74,6.61,12.86,2.25,1.87,4.84,2.98,7.76,3.28s5.77-.77,8.1-2.26c5.1-3.25,8.05-8.76,10.45-14.13l-5.59-1.51c-.05,.86-.08,2.11-.54,2.67l5.12,2.12c.02-1.17,.5-2.23,1.01-3.28l-5.59-1.51c-.53,6.82,.86,14.54,6.12,19.36,5.69,5.21,13.53,5.11,20.72,4.28,1.61-.18,3-1.25,3-3,0-1.48-1.38-3.19-3-3-5.45,.62-12.15,1.44-16.48-2.53-4.12-3.78-4.79-9.69-4.36-15.12,.23-2.92-4.31-4.15-5.59-1.51-.98,2.03-1.79,4.02-1.83,6.31-.04,2.43,3.43,4.18,5.12,2.12s2.15-4.32,2.29-6.91c.16-2.86-4.37-4.25-5.59-1.51-1.9,4.25-3.88,8.4-7.35,11.3-.51,.42-1.71,1.2-2.66,1.6,.13-.06,.37-.14-.2,.07-.32,.11-.64,.21-.96,.3-.68,.18-1.17,.23-1.56,.21-.53-.04-1.8-.3-2.41-.56s-1.82-1.07-2.18-1.4c-.76-.69-1.28-1.3-1.63-1.8-.67-.97-1.26-2.02-1.72-3.11,.19,.45-.05-.14-.09-.25-.08-.23-.17-.47-.25-.7-.16-.47-.3-.94-.43-1.42-.15-.56-.28-1.13-.38-1.71-.03-.19-.06-.38-.1-.56-.05-.36-.06-.37,0-.04-.02-.18-.04-.37-.06-.55-.26-2.71,.44-5.42,1.14-8.03,.82-3.04,1.9-6,3.21-8.86,.8-1.74,1.67-3.45,2.59-5.13,.85-1.55,1.91-3.03,2.67-4.63,1.68-3.51-.79-7.28-2.79-10.06-.94-1.31-2.61-1.95-4.1-1.08-1.3,.76-2.03,2.78-1.08,4.1h0Z"/><path class="e" d="M73.64,2.2c-12.82,0-25.46,7.76-30.8,19.5l2.59-1.49c-15.06-.75-28.16,9.72-34.91,22.52-1.93,3.66-3.43,7.57-4.36,11.6-.37,1.58,.49,3.25,2.1,3.69,1.52,.42,3.32-.51,3.69-2.1,1.45-6.24,4.27-12.2,8.28-17.11s9.04-9,14.75-11.04c3.57-1.28,6.72-1.74,10.46-1.56,.96,.05,2.18-.59,2.59-1.49,2.3-5.06,5.95-9.19,10.59-12.1s9.76-4.43,15.03-4.43c3.86,0,3.87-6,0-6h0Z"/><path class="e" d="M184.88,56.93c.23,1.08,.43,2.16,.6,3.24,.02,.11,.12,.83,.07,.48s.06,.51,.08,.61c.07,.6,.13,1.2,.19,1.81,.21,2.37,.28,4.75,.23,7.13-.03,1.24-.1,2.48-.2,3.71-.05,.55-.1,1.1-.16,1.65-.04,.32-.07,.64-.12,.96-.05,.36,0-.06,.02-.11-.03,.18-.05,.36-.08,.55-.37,2.42-.89,4.83-1.62,7.17-.34,1.1-.73,2.18-1.15,3.25-.19,.48,.13-.26-.16,.36-.11,.24-.21,.47-.32,.71-.26,.54-.53,1.08-.81,1.6-.54,1-1.14,1.96-1.79,2.88-.14,.2-.29,.4-.44,.6,.34-.46-.09,.1-.22,.26-.36,.44-.74,.87-1.14,1.28-.34,.35-.69,.69-1.05,1.02-.21,.19-.42,.37-.64,.56-.09,.08-.19,.15-.28,.23-.34,.28,.39-.28,.03-.02-.89,.65-1.81,1.24-2.79,1.74-.22,.11-.44,.22-.67,.33-.15,.07-.3,.14-.45,.2,.04-.02,.46-.19,.14-.06-.56,.21-1.11,.41-1.69,.58s-1.1,.3-1.65,.41c-.26,.05-.53,.1-.79,.15-.13,.02-.27,.04-.4,.06-.47,.07,.46-.05-.02,0-7.53,.7-14.62-2-20.25-6.98-1.21-1.07-3.05-1.2-4.24,0-1.09,1.09-1.22,3.17,0,4.24,6.07,5.36,13.72,8.92,21.93,8.88,5.55-.03,10.79-1.8,15.11-5.29,8.27-6.69,11.17-18.31,11.81-28.45,.37-5.79-.05-11.67-1.26-17.34-.34-1.58-2.19-2.51-3.69-2.1-1.64,.45-2.44,2.1-2.1,3.69h0Z"/><path class="e" d="M154.22,105.91c.14,.23,.26,.47,.38,.71,.24,.45-.18-.54-.08-.2,.04,.13,.1,.25,.14,.38,.17,.51,.24,1.04,.37,1.55-.02-.08-.07-.74-.05-.32,0,.13,.02,.27,.03,.4,.01,.27,.01,.54,0,.8,0,.13-.01,.27-.02,.4s-.08,.63,0,.08,0,0-.02,.08c-.02,.13-.05,.26-.08,.4-.11,.5-.27,.98-.44,1.46-.19,.54,.25-.49,.08-.2-.07,.12-.11,.24-.18,.36-.12,.24-.25,.47-.4,.7-.07,.11-.15,.22-.22,.33-.13,.2-.41,.4,.14-.16-.19,.19-.34,.41-.52,.6-.17,.17-.34,.34-.52,.5-.1,.09-.22,.16-.31,.26,.21-.22,.51-.38,.09-.09-1.29,.88-2,2.68-1.08,4.1,.83,1.29,2.72,2.02,4.1,1.08,2.53-1.73,4.38-4.34,5.04-7.36s.31-6.22-1.29-8.9c-.8-1.35-2.73-1.96-4.1-1.08s-1.94,2.66-1.08,4.1h0Z"/><path class="e" d="M162.68,21.57c5.75,3.24,9.82,9.5,10.35,15.99,.19,2.29,.34,4.22,1.86,6.06,1.19,1.45,2.67,2.68,3.92,4.08,2.66,2.99,4.85,6.36,6.65,9.93,.73,1.45,2.77,1.86,4.1,1.08,1.47-.86,1.81-2.65,1.08-4.1-1.97-3.9-4.44-7.53-7.31-10.82-.65-.74-1.32-1.47-2.01-2.17-.63-.64-1.41-1.22-1.95-1.95-.31-.42-.27-.98-.32-1.73-.07-1.02-.2-2.05-.37-3.06-1.28-7.66-6.22-14.7-12.98-18.5-3.37-1.89-6.4,3.29-3.03,5.18h0Z"/><path class="e" d="M93.53,14.26c-.44,1.01-.89,2.02-1.35,3.02l5.48,2.31c.09-.58,.17-1.15,.17-1.74,0-.33,0-.66,.01-1,.02-.41-.07-.8-.26-1.16-.12-.37-.33-.69-.62-.97-.27-.29-.59-.5-.97-.62-.36-.19-.74-.27-1.16-.26l-.8,.11c-.51,.14-.95,.4-1.32,.77l-.47,.61c-.27,.47-.41,.97-.41,1.51-.04,.61,.01,1.22-.06,1.82l.11-.8s-.01,.08-.02,.12c-.13,.4-.14,.8-.05,1.2,.02,.4,.14,.77,.36,1.12l.47,.61c.27,.29,.59,.5,.97,.62,.23,.14,.49,.2,.76,.2,.4,.09,.8,.07,1.2-.05l.72-.3c.45-.27,.81-.63,1.08-1.08,.46-1,.92-2.01,1.35-3.02,.22-.34,.34-.72,.36-1.12,.09-.4,.07-.8-.05-1.2-.09-.39-.27-.73-.54-1.02-.21-.33-.49-.58-.84-.77l-.72-.3c-.53-.14-1.06-.14-1.6,0l-.72,.3c-.45,.27-.81,.63-1.08,1.08h0Z"/><path class="e" d="M93.67,13.97c-.49,1.11-.99,2.21-1.5,3.31l5.48,2.31c.18-.8,.43-1.59,.75-2.35,.13-.4,.14-.8,.05-1.2-.02-.4-.14-.77-.36-1.12-.19-.35-.45-.63-.77-.84-.29-.27-.63-.44-1.02-.54l-.8-.11c-.54,0-1.05,.14-1.51,.41l-.61,.47c-.37,.37-.63,.82-.77,1.32-.32,.76-.57,1.55-.75,2.35-.13,.4-.14,.8-.05,1.2,.02,.4,.14,.77,.36,1.12l.47,.61c.27,.29,.59,.5,.97,.62,.23,.14,.49,.2,.76,.2,.4,.09,.8,.07,1.2-.05l.72-.3c.45-.27,.81-.63,1.08-1.08,.5-1.1,1-2.2,1.5-3.31,.22-.34,.34-.72,.36-1.12,.09-.4,.07-.8-.05-1.2-.09-.39-.27-.73-.54-1.02-.21-.33-.49-.58-.84-.77-.7-.37-1.54-.55-2.31-.3l-.72,.3c-.45,.27-.81,.63-1.08,1.08h0Z"/><path class="e" d="M93.06,14.57c-.4,.62-.7,1.32-.92,2.01s-.32,1.47-.37,2.21c-.02,.41,.07,.8,.26,1.16,.12,.37,.33,.69,.62,.97l.61,.47c.34,.22,.72,.34,1.12,.36,.27,.07,.53,.07,.8,0,.4-.02,.77-.14,1.12-.36l.61-.47c.37-.37,.63-.82,.77-1.32,.16-.53,.36-1.05,.58-1.56l-.3,.72c.24-.57,.5-1.13,.76-1.69,.22-.34,.34-.72,.36-1.12,.09-.4,.07-.8-.05-1.2-.09-.39-.27-.73-.54-1.02-.21-.33-.49-.58-.84-.77-.7-.37-1.54-.55-2.31-.3l-.72,.3c-.45,.27-.81,.63-1.08,1.08-.6,1.29-1.22,2.6-1.64,3.97l5.89,.8c0-.15,.02-.3,.04-.44l-.11,.8c.07-.48,.19-.94,.37-1.39l-.3,.72c.13-.31,.29-.6,.47-.88,.22-.34,.34-.72,.36-1.12,.09-.4,.07-.8-.05-1.2-.09-.39-.27-.73-.54-1.02-.21-.33-.49-.58-.84-.77-.7-.37-1.54-.55-2.31-.3l-.72,.3c-.45,.27-.81,.63-1.08,1.08h0Z"/><path class="e" d="M6.47,52.63c-.75,4.3-.24,8.52,1.64,12.48,.24,.5,.5,.99,.79,1.47,.07,.11,.54,1.08,.67,1.1-.86-.11,.91-2.43-.68-.3-.24,.32-.47,.65-.69,.99-1.12,1.72-1.96,3.67-2.54,5.64-2.44,8.27-.05,16.89,3.88,24.27,1.82,3.41,7,.38,5.18-3.03-3.39-6.36-5.44-13.77-2.9-20.8,.52-1.45,1.32-2.8,2.25-4.04,.7-.93,1.29-1.84,1.35-3.04,.06-1.3-.46-2.4-1.11-3.48-1.76-2.92-2.63-6.27-2.04-9.68,.28-1.59-.43-3.23-2.1-3.69-1.45-.4-3.41,.49-3.69,2.1h0Z"/><path class="e" d="M73.42,8.19c3.89-.98,8.24-.67,11.84,1.25s5.85,6.23,7.4,9.82c.64,1.49,2.83,1.82,4.1,1.08,1.54-.9,1.72-2.61,1.08-4.1-1.03-2.4-2.34-4.65-3.93-6.72s-3.46-4.17-5.94-5.42c-4.99-2.5-10.74-3.06-16.14-1.69-1.57,.4-2.52,2.15-2.1,3.69s2.11,2.49,3.69,2.1h0Z"/><path class="e" d="M53.26,153.37c3.86,0,3.87-6,0-6s-3.87,6,0,6h0Z"/><path class="e" d="M53.26,153.35l9.74-.27c1.48-.04,2.77-1.11,2.95-2.6,.16-1.32-.65-3.08-2.15-3.29-6.6-.93-11.85,3.24-14.84,8.83-1.44,2.68-2.54,5.58-3.55,8.44s-1.92,5.82-2.48,8.82c-1.04,5.62-.75,11.72,3.44,16.06,3.97,4.11,10.45,6.13,16.01,6.53,3.37,.24,6.83-.36,9.83-1.95s5.29-4.28,7.32-6.99c.97-1.3,.21-3.35-1.08-4.1-1.53-.9-3.13-.23-4.1,1.08-2.62,3.51-5.79,5.97-10.32,6.03-4.14,.05-8.93-1.29-12.28-3.8s-3.7-6.3-3.24-10.06c.6-4.87,2.4-9.86,4.34-14.34,.97-2.24,2.09-4.54,3.81-6.3,1.38-1.41,3.54-2.73,5.53-2.45l.8-5.89-9.74,.27c-3.85,.11-3.87,6.11,0,6h0Z"/><path class="e" d="M99.13,19.64c1.57-5.98,6.42-10.97,12.29-12.83s12.35-.36,17.03,3.82c2.75,2.46,4.66,5.41,5.6,8.9,.77,2.86,5.01,2.85,5.79,0,1.08-3.98,5.31-6.56,9.43-6.56,4.8,0,9.33,3.23,12.08,7.15,.93,1.32,2.62,1.94,4.1,1.08,1.31-.77,2.01-2.77,1.08-4.1-4-5.68-10.38-10.3-17.61-10.11-6.62,.17-13.08,4.41-14.87,10.96h5.79c-2.16-8.04-8.67-14.48-16.57-16.94s-16.69-.09-22.84,5.47c-3.4,3.07-5.92,7.15-7.08,11.58-.98,3.74,4.81,5.33,5.79,1.6h0Z"/><circle class="c" cx="97.05" cy="157.13" r="33"/><path class="b" d="M134.16,150.31c-2.47,1.15-4.55,2.98-6.53,4.82s-4.08,3.88-5.6,6.28c-1.42,2.24-2.35,4.78-2.82,7.38-.5,2.74-1.38,5.23-2.22,7.88s-1.33,5.73-.38,8.43c.63,1.77,2.17,3.08,4.15,2.63,1.44-.33,2.5-1.54,3.13-2.83,1.08-2.21,.86-4.65,1.51-6.82,.06-.2,.13-.4,.21-.59-.16,.38,.07-.09,.09-.13,.22-.41,.47-.81,.75-1.19,.03-.04,.25-.31,.53-.63,.36-.4,.73-.79,1.11-1.18,1.59-1.62,3.28-3.19,4.48-5.15,.62-1.02,1.12-2.18,1.34-3.35,.29-1.51,.14-3.07,.47-4.56,.34-1.58-.47-3.24-2.1-3.69-1.71-.47-3.09,.58-3.69,2.1-.74,1.86-2.27,3.66-3.51,5.32-1.42,1.92-2.66,3.93-3.31,6.25-1.05,3.72,4.74,5.31,5.79,1.6,.55-1.97,1.89-3.73,3.16-5.43,1.46-1.95,2.75-3.87,3.66-6.15l-5.79-1.6c-.34,1.56-.2,3.16-.48,4.71-.17,.96-.34,1.12-.9,2.03-.28,.46-.16,.28-.57,.76-.35,.41-.71,.8-1.08,1.18-.75,.78-1.54,1.52-2.28,2.31-1.58,1.68-2.99,3.55-3.66,5.78-.4,1.33-.45,2.73-.65,4.1-.11,.74-.32,1.64-.83,2.06l1.32-.77-.31,.07,2.31,.3-.21-.1,1.08,1.08c-.42-.55-.28-2.1-.1-2.99,.3-1.47,.84-2.88,1.34-4.3,1.01-2.86,1.23-5.9,2.24-8.74,.91-2.54,2.65-4.56,4.56-6.4,2.09-2.01,4.16-4.05,6.81-5.29,1.47-.68,1.84-2.8,1.08-4.1-.88-1.51-2.63-1.76-4.1-1.08h0Z"/><path class="e" d="M134.17,142.95c-8.85,6.57-16.95,15.75-20.14,26.51-2.94,9.95-.2,21.99,9.62,27,5.06,2.58,10.98,3.38,16.6,3.34s11.44-1.07,16.84-2.89c10.67-3.59,20.1-10.07,28.26-17.73,4.32-4.05,8.6-8.56,11.08-14.01,2.71-5.98,3.28-12.79,.24-18.77-1.24-2.43-4.72-1.59-5.48,.72l-.59,1.78c-.51,1.54,.59,3.28,2.1,3.69,1.63,.45,3.18-.55,3.69-2.1l.59-1.78-5.48,.72c4.4,8.63-2.5,17.76-8.37,23.57-6.93,6.86-14.9,12.95-23.94,16.74-8.88,3.73-19.3,5.45-28.73,2.92-4.2-1.13-7.7-3.38-9.73-7.22-1.82-3.44-2.3-7.58-1.59-11.49,.96-5.27,3.55-10.02,6.66-14.31s7.08-8.29,11.41-11.51c1.3-.96,1.96-2.6,1.08-4.1-.75-1.28-2.8-2.05-4.1-1.08h0Z"/><path class="e" d="M261.6,150.91c-8.27,6.03-16.57,12.08-25.55,17.01-8.71,4.78-18.36,8.67-28.35,8.95-5.67,.16-11.3-.85-16.52-3.16-1.48-.66-3.22-.43-4.1,1.08-.75,1.28-.41,3.45,1.08,4.1,10.39,4.6,21.62,4.98,32.52,1.96,10.65-2.94,20.45-8.51,29.59-14.6,4.88-3.25,9.62-6.71,14.36-10.17,1.31-.95,1.95-2.61,1.08-4.1-.75-1.29-2.79-2.04-4.1-1.08h0Z"/><path class="e" d="M256.3,57.79c1.35,.19,2.43,.61,3.52,1.45,1.16,.9,1.83,2.25,2.93,3.24,1.15,1.04,2.55,1.89,3.42,3.19s1.64,2.62,2.34,3.99c2.74,5.42,3.93,11.68,2.65,17.66-.36,1.71,.5,3.08,2.1,3.69,3.23,1.24,6.32,3.6,8.24,6.3,2.05,2.89,3.44,6.37,3.61,9.7,.4,7.73-1.68,15.35-5.97,21.87-2.34,3.56-5.47,6.74-9.05,9.09-1.35,.89-1.93,2.65-1.08,4.1,.79,1.34,2.75,1.97,4.1,1.08,7.86-5.18,13.5-13.1,16.23-22.08s2.85-18.49-2.28-26.23c-2.98-4.49-7.21-7.71-12.22-9.63l2.1,3.69c1.63-7.63,.25-15.37-3.26-22.29-.79-1.56-1.69-3.07-2.69-4.51-1.13-1.64-2.71-2.68-4.15-4.02-.62-.58-.93-1.14-1.44-1.8-.68-.89-1.69-1.64-2.61-2.28-1.45-1.02-3.14-1.77-4.9-2.02-1.6-.23-3.22,.39-3.69,2.1-.39,1.41,.48,3.46,2.1,3.69h0Z"/><path class="e" d="M258.7,56.02c6.7,3.39,15.16-.19,16.7-7.76,.73-3.62-.06-7.26-2.47-10.1-2.21-2.61-5.76-4.18-9.18-3.9l2.12,5.12c2.67-3.4,3.7-7.92,2.27-12.09-1.35-3.92-4.62-6.99-8.74-7.8s-8.3,.35-11.06,3.53-3.88,7.63-2.77,11.75l5.01-2.92c-.31-.24-.26-.06-.5-.63,.18,.4-.15-.59-.14-.55-.27-.92-.52-1.82-.95-2.68-.81-1.65-2.14-2.95-3.66-3.95-3.07-2.03-7.22-2.7-10.83-2.3-3.93,.43-7.66,2.1-10.14,5.26s-3.46,6.97-2.61,10.85l5.48-2.31c-3.95-6.15-10.86-9.05-17.77-10.46-4.29-.88-8.66-1.4-13.01-1.86-3.83-.4-7.69-.88-11.56-.78-4.34,.11-8.71,1.01-12.37,3.42-1.35,.89-1.93,2.65-1.08,4.1,.8,1.37,2.73,1.94,4.1,1.08l.59-.37c3.26-2.05,.25-7.25-3.03-5.18l-.59,.37,3.03,5.18c3.48-2.29,7.52-2.71,11.6-2.6,4.64,.13,9.31,.72,13.91,1.31,7.3,.93,16.77,2.25,20.99,8.82,1.85,2.89,6.21,1.03,5.48-2.31-.42-1.93,.3-4.26,1.77-5.86,1.71-1.86,4.23-2.73,6.83-2.76,2.35-.03,5.1,.52,6.68,2,.8,.75,.97,1.38,1.28,2.47,.42,1.47,1,3,2.23,3.99,1.06,.85,2.39,1.2,3.64,.47,1.15-.67,1.72-2.11,1.38-3.39-.54-1.99-.1-4.29,1.22-5.91s3.45-2.33,5.22-1.99c2.13,.41,3.84,1.64,4.55,3.6s.55,4.63-.72,6.25c-.76,.97-1.15,2.07-.62,3.28,.45,1.02,1.55,1.94,2.74,1.84,3.62-.29,6.55,2.9,5.86,6.41-.74,3.75-4.58,5.84-7.88,4.17-1.44-.73-3.25-.38-4.1,1.08-.78,1.34-.37,3.37,1.08,4.1h0Z"/><path class="e" d="M62.21,146.77c-6.29,.48-11.23,4.57-14.44,9.79-1.64,2.67-2.83,5.59-4,8.48s-2.41,6.04-2.89,9.26c-.86,5.87,.98,11.53,5.19,15.74,3.96,3.96,9.48,6.14,15.07,5.9,6.54-.28,12.77-3.37,17.22-8.13,2.64-2.82-1.6-7.07-4.24-4.24-3.06,3.27-7.04,5.57-11.49,6.24-3.9,.59-7.95-.44-11.02-2.85s-5.1-6.13-4.99-10.04c.07-2.66,.98-5.26,1.91-7.73s1.84-4.72,2.97-6.98c2.13-4.28,5.63-9.07,10.7-9.45,1.62-.12,3-1.29,3-3,0-1.53-1.38-3.12-3-3h0Z"/><path class="e" d="M270.36,138.66c-2.58,3.77-5.48,7.23-8.52,10.63-.68,.77-1.36,1.59-1.79,2.53-.46,1.01-.82,2.51-.21,3.55,.55,.94,2.05,1.04,3.02,.93,1.2-.13,2.31-.62,3.27-1.34,1.78-1.33,3.44-2.99,4.9-4.67s2.69-3.54,3.34-5.67c.55-1.81,1.07-4.94-.83-6.15-.88-.57-2.07-.52-2.99-.05-1.02,.53-1.6,1.54-2.16,2.49-2.45,4.13-5.57,7.79-9.21,10.92l2.12,2.12c1.8-2.1,3.81-4.03,6.04-5.67,2.1-1.54,4.89-2.71,5.19-5.61,.15-1.44-2.22-2.11-2.8-.76-.86,2-2.05,3.79-3.63,5.29s-3.51,2.52-4.73,4.37c-.84,1.27,.8,2.81,2.05,2.05,3.32-2,6.06-4.88,7.85-8.31,.34-.66,.23-1.48-.39-1.94-.56-.42-1.48-.46-1.97,.12-2.5,2.95-5.33,5.61-8.47,7.86l2.05,2.05c.85-1.18,1.92-2.23,3.11-3.07,.66-.47,.97-1.31,.54-2.05-.38-.65-1.39-1.01-2.05-.54-1.64,1.16-3.01,2.52-4.18,4.15-.87,1.2,.86,2.91,2.05,2.05,3.36-2.4,6.41-5.17,9.08-8.33l-2.36-1.82c-1.56,3-3.87,5.49-6.77,7.24l2.05,2.05c.51-.77,1.25-1.35,1.98-1.9,.92-.69,1.82-1.39,2.63-2.21,1.58-1.6,2.86-3.49,3.75-5.55l-2.8-.76c-.07,.7-1.14,1.28-1.65,1.61-1.1,.72-2.17,1.48-3.21,2.29-2,1.57-3.84,3.33-5.49,5.26-1.26,1.47,.65,3.39,2.12,2.12,3.72-3.2,6.93-6.99,9.48-11.19,.27-.45,.51-.96,.84-1.37,.07-.09,.43-.43,.43-.33,0,0-.33-.18-.28-.22,.03-.02,0,.33,.03,.18-.04,.28,.03,.63,.02,.91-.02,.56-.12,1.11-.27,1.65-.65,2.32-2.19,4.21-3.85,5.9-.96,.97-1.94,1.96-2.99,2.82-.91,.75-2.01,1.3-3.18,.88l1.05,1.05c-.23-1.08,.8-2.16,1.46-2.9,1.06-1.17,2.12-2.34,3.14-3.55,2.05-2.44,3.97-4.98,5.77-7.6,1.09-1.6-1.51-3.1-2.59-1.51h0Z"/><path class="e" d="M45.84,112.18c-.71,2.84-.03,7.11,3.15,8.17,2.18,.72,4.12-.98,4.73-2.94,.37-1.2,.44-2.61,.4-3.86-.11-2.88-.96-6.03-3.97-7.09-1.56-.55-3.35-.2-4.58,.9s-1.48,2.68-1.57,4.21c-.13,2.23,.49,4.57,1.61,6.5,.55,.95,1.26,1.89,2.08,2.63,.92,.82,1.97,1.3,3.22,1.13s2.21-.94,2.82-2c1.18-2.06,1.36-4.53,1.02-6.83-.32-2.09-1.32-4.05-2.74-5.6s-3.41-2.36-5.34-1.24c-1.7,.98-1.99,2.96-2.06,4.73-.05,1.33-.03,2.67,.11,3.99,.17,1.66,.73,3.59,2.43,4.32,.77,.33,1.47,.54,2.31,.3,.7-.19,1.45-.73,1.79-1.38,.37-.7,.55-1.54,.3-2.31-.22-.69-.68-1.49-1.38-1.79-.32-.14-.32-.31,.19,.2,.31,.44,.41,.56,.28,.36-.03-.05-.06-.11-.09-.17,.05-.02,.29,.86,.13,.21-.03-.13-.05-.27-.07-.4l.11,.8c-.2-1.68-.27-3.51-.06-5.2l-.11,.8c.03-.18,.1-.35,.13-.52-.12,.71-.82,1.23-1.46,1.43l-.8,.11c.09-.02,.18-.02,.27,0l-.8-.11c-.45-.23-.57-.28-.37-.16,.13,.08,.09,.05-.12-.1-.41-.31-.06-.02,.03,.06,.17,.17,.33,.35,.5,.53,.27,.3-.18-.21-.2-.27,.03,.09,.15,.21,.21,.29,.14,.2,.26,.41,.38,.62,.1,.19,.19,.39,.29,.58-.45-.88-.08-.18,0,.1,.15,.46,.25,.93,.32,1.41l-.11-.8c.09,.72,.1,1.44,0,2.17l.11-.8c-.06,.45-.16,.9-.3,1.34-.03,.09-.06,.18-.1,.27-.19,.51,.03-.2,.11-.25-.04,.02-.11,.22-.13,.26-.12,.19-.1,.17,.06-.06,.25-.38,.62-.64,1.11-.76l.8-.11h-.14l.8,.11c.22,.07,.42,.18,.59,.33,.19,.15,.23,.18,.12,.08-.08-.1-.19-.18-.28-.28-.07-.08-.53-.48-.52-.59,0,.03,.43,.59,.18,.23-.07-.11-.15-.22-.22-.33-.14-.22-.28-.45-.4-.68-.11-.21-.2-.43-.31-.64,.43,.88,.05,.09-.03-.17-.16-.5-.27-1.01-.34-1.54l.11,.8c-.1-.79-.1-1.57,0-2.35l-.11,.8c.03-.17,.06-.33,.09-.49,.07-.23,.06-.22-.04,.04-.07,.22-.2,.41-.39,.56,.33-.34-.65,.4-.21,.17-.19,.1-.74,.24-.23,.16l-.8,.11c.18-.01,.34,0,.52,.01l-.8-.11c.12,.02,.26,.08,.38,.1-.3-.04-.58-.19-.76-.44,.06,.09,.4,.45,.08,.02s0,.02,.06,.13c.28,.52-.12-.21-.08-.23,0,0,.13,.42,.14,.44,.08,.31,.14,.63,.19,.95l-.11-.8c.15,1.1,.15,2.2,.02,3.3l.11-.8c-.05,.35-.11,.68-.19,1.02-.11,.47,.37-.64,.08-.23l.31-.41c1.11-.48,1.42-.67,.92-.57l.8-.11h-.12l.8,.1c.32,.11,.61,.28,.86,.5,.31,.43,.39,.52,.23,.26l-.08-.15c-.14-.29-.11-.21,.09,.24-.1-.4-.24-.77-.31-1.18l.11,.8c-.06-.47-.06-.93-.01-1.39l-.11,.8c.03-.23,.08-.46,.13-.69,.38-1.52-.49-3.32-2.1-3.69s-3.28,.47-3.69,2.1h0Z"/><path class="e" d="M101.04,93.61c-.56,1.94-.81,3.94-.47,5.94,.43,2.53,2.85,5.65,5.76,4.77,1.72-.52,2.52-2.06,2.95-3.68,.29-1.1,.43-2.29,.33-3.43-.22-2.47-1.13-5.2-3.44-6.47-2.64-1.46-6.43-.21-6.98,2.98-.34,2.01-.13,4.29,.27,6.28,.2,.97,.55,1.92,.99,2.8,.53,1.06,1.38,2.21,2.41,2.82,1.59,.95,3.66,.71,4.88-.73,.86-1.03,1.29-2.3,1.48-3.61s.24-2.51,.09-3.8-.29-2.65-.81-3.87c-.7-1.65-2.18-2.89-4.05-2.82-1,.04-2,.43-2.72,1.13s-1.24,1.76-1.12,2.75c.1,.82,.27,1.51,.88,2.12,.52,.52,1.37,.91,2.12,.88s1.58-.29,2.12-.88c.5-.54,.97-1.35,.88-2.12-.01-.07-.02-.14,0-.21l-.11,.8c0-.07,.03-.13,.06-.19l-.3,.72c-.2,.33-.47,.59-.81,.78,.06-.04,.12-.07,.19-.1l-.72,.3c.11-.04,.21-.06,.32-.08l-.8,.11c.07,0,.15-.01,.22,0l-.8-.11c.12,.02,.21,.04,.32,.08l-.72-.3c.24,.13,.14,.05-.29-.25,.15,.16,.13,.13-.06-.1-.35-.44-.02,.04,.04,.17l-.3-.72c.29,.75,.39,1.57,.5,2.36l-.11-.8c.15,1.12,.2,2.23,.06,3.35l.11-.8c-.09,.62-.23,1.24-.45,1.82l.3-.72c-.06,.13-.38,.6-.02,.16,.19-.23,.21-.26,.07-.11,.46-.32,.57-.4,.31-.27l.72-.3c-.07,.03-.15,.05-.23,.05l.8-.11h-.12l.8,.1-.15-.03,.72,.3c-.41-.18,.22,.21,.2,.22-.02,0-.24-.23-.27-.27-.07-.07-.13-.15-.19-.22-.22-.23,.45,.65,.16,.2-.24-.37-.45-.74-.62-1.14l.3,.72c-.32-.78-.51-1.6-.63-2.43l.11,.8c-.17-1.27-.29-2.66-.15-3.94l-.11,.8c.03-.2,.08-.39,.16-.57l-.3,.72c.25-.47-.51,.49-.17,.19l-.42,.32c.07-.04,.14-.08,.21-.12l-.72,.3c.16-.06,.31-.11,.47-.14l-.8,.11c.21-.02,.42-.02,.63,0l-.8-.11c.17,.03,.32,.08,.48,.14l-.72-.3c.08,.04,.16,.08,.24,.13,.25,.17,.17,.1-.26-.21,.05,.08,.52,.59,.16,.12s.03,.08,.09,.18c.1,.17,.18,.35,.26,.53l-.3-.72c.23,.57,.38,1.16,.47,1.77l-.11-.8c.08,.68,.08,1.36,0,2.05l.11-.8c-.09,.63-.25,1.23-.48,1.81l.3-.72c-.29,.68-.46,.37,.65-.43l.72-.3c-.08,.04-.17,.07-.26,.07l.8-.11h-.13l.8,.1-.13-.04,.72,.3c-.09-.03-.18-.08-.26-.13,.4,.33,.5,.4,.28,.2-.17-.2-.36-.55,.12,.2-.17-.26-.33-.52-.45-.81l.3,.72c-.15-.38-.24-.76-.3-1.16l.11,.8c-.09-.71-.06-1.41,.03-2.11l-.11,.8c.1-.71,.26-1.41,.46-2.1,.44-1.51-.53-3.33-2.1-3.69s-3.22,.48-3.69,2.1h0Z"/><path class="e" d="M77.41,120.98c.39-.23,.78-.44,1.2-.62l-.72,.3c.8-.33,1.62-.56,2.48-.67l-.8,.11c.77-.09,1.55-.1,2.32,0l-.8-.11c.08,.01,.16,.02,.24,.03l-2.2-2.89c0,.11-.02,.22-.03,.33l.11-.8c-.06,.37-.15,.72-.29,1.06l.3-.72c-.18,.41-.4,.79-.67,1.15l.47-.61c-.28,.35-.6,.67-.95,.95l.61-.47c-.35,.27-.72,.49-1.13,.67l.72-.3c-.33,.14-.67,.23-1.02,.29l.8-.11c-.28,.03-.54,.04-.82,0l.8,.11c-.25-.04-.48-.09-.72-.19l.72,.3c-.22-.1-.42-.22-.62-.37l.61,.47c-.16-.13-.3-.27-.43-.43l.47,.61c-.15-.19-.26-.38-.36-.6l.3,.72c-.06-.16-.1-.31-.13-.48l.11,.8c-.02-.17-.02-.33,0-.5l-.11,.8c.03-.17,.07-.33,.13-.49l-.3,.72c.08-.19,.18-.36,.3-.53l-.47,.61c.15-.19,.32-.36,.51-.51l-.61,.47c.23-.17,.47-.31,.73-.42l-.72,.3c.34-.14,.69-.22,1.06-.27l-.8,.11c.92-.11,1.88-.05,2.81,.07l-.8-.11c.27,.04,.53,.1,.78,.2l-.72-.3c.13,.06,.25,.13,.37,.22l-.61-.47c.08,.07,.15,.14,.22,.22l-.47-.61c.08,.11,.15,.22,.21,.35l-.3-.72c.03,.1,.06,.19,.07,.29l-.11-.8c0,.07,0,.13,0,.2l.11-.8c0,.07-.02,.13-.04,.19l.3-.72c-.05,.11-.1,.2-.17,.3l.47-.61c-.6,.72-1.41,1.34-2.15,1.92l.61-.47c-.42,.32-.86,.62-1.35,.83l.72-.3c-.22,.09-.44,.15-.68,.19l.8-.11c-.23,.03-.45,.04-.68,0l.8,.11c-.12-.02-.23-.05-.35-.1l.72,.3c-.14-.06-.27-.14-.4-.22l.61,.47c-.15-.11-.27-.24-.39-.38l.47,.61c-.09-.12-.16-.25-.23-.38l.3,.72c-.05-.13-.09-.27-.11-.41l.11,.8c0-.08,0-.16,0-.25l-.11,.8c.02-.11,.04-.21,.08-.32l-.3,.72c.04-.08,.08-.15,.13-.22l-.47,.61c.07-.09,.15-.16,.23-.23l-.61,.47c.15-.11,.31-.19,.48-.27l-.72,.3c.68-.27,1.41-.43,2.14-.53l-.8,.11c.6-.07,1.23-.13,1.83-.05l-.8-.11c.18,.03,.35,.08,.53,.15l-.72-.3c.08,.04,.15,.08,.22,.13l-.61-.47c.07,.05,.12,.1,.18,.17l-.47-.61s.06,.09,.08,.14l-.3-.72c.03,.09,.05,.16,.06,.25l-.11-.8c0,.06,0,.11,0,.17l.11-.8c0,.06-.03,.11-.05,.16l.3-.72c-.04,.08-.08,.15-.13,.22l.47-.61c-.08,.1-.17,.18-.27,.25l.61-.47c-.19,.14-.39,.24-.6,.34l.72-.3c-.73,.3-1.49,.55-2.23,.83l.8-.11h-.07l.8,.12-.07-.02,.72,.3-.06-.04,.61,.47-.04-.06,.77,1.32-.02-.07v1.53l-.76,1.32,.04-.04-1.32,.77,.06-.02-.8,.11h.06l-1.51-.4,.06,.03-.61-.47,.04,.04-.77-1.32,.02,.05v-1.6l-.02,.05c-.45,1.5,.54,3.34,2.1,3.69s3.21-.48,3.69-2.1c.58-1.97-.98-3.94-2.99-3.97s-3.59,1.94-3.06,3.92c.44,1.67,2.28,2.78,3.96,2.27,.48-.14,.94-.35,1.41-.52,1.37-.51,2.74-1.03,3.53-2.35,1.09-1.81,.44-4.16-1.37-5.21-1.08-.63-2.37-.72-3.59-.61-1.42,.12-2.76,.39-4.05,.98-1.47,.67-2.51,2.24-2.42,3.87s.99,3.04,2.37,3.87c1.22,.73,2.81,.83,4.15,.36s2.33-1.25,3.38-2.13,2.15-1.79,2.52-3.15c.5-1.86-.53-3.92-2.23-4.76-1.2-.59-2.54-.69-3.86-.73s-2.68,.18-3.91,.77c-1.04,.5-2.04,1.44-2.52,2.5-.35,.77-.6,1.54-.55,2.41s.26,1.61,.68,2.36c.71,1.27,2.04,2.29,3.46,2.64,1.65,.41,3.32,.08,4.81-.69,1.22-.63,2.18-1.62,2.96-2.73s1.18-2.5,1.28-3.87l-.11-.8c-.09-.39-.27-.73-.54-1.02-.36-.47-.95-.98-1.56-1.08-.79-.12-1.58-.23-2.39-.21s-1.6,.13-2.38,.28c-1.32,.26-2.64,.8-3.79,1.5-.65,.4-1.17,1.05-1.38,1.79s-.11,1.67,.3,2.31c.87,1.34,2.67,1.95,4.1,1.08h0Z"/></svg>