<?xml version="1.0" encoding="UTF-8"?><svg id="a" xmlns="http://www.w3.org/2000/svg" viewBox="0 0 197.45 152.55"><defs><style>.b{fill:#3a2eff;}.c{fill:#fff;}.d{fill:#17ff51;}.e{fill:#f7f5f4;}.f{fill:#fabaae;}.g{fill:#514425;}</style></defs><path class="e" d="M69.26,140.86c1.13,.4,2.4,.56,3.59,.51,1.13-.05,2.38-.17,3.46-.58,.81-.3,1.66-.62,2.41-1.05s1.43-1.02,2.09-1.56c.23-.19,.43-.39,.62-.61,.57-.66,1.16-1.37,1.59-2.14h-12.95c.19,.38,.44,.63,.72,.99,.25,.32,.48,.66,.76,.96,.55,.58,1.24,1.1,1.97,1.46,.55,.27,1.32,.63,1.92,.8s1.55,.26,2.19,.31c.27,.02,.55,0,.82,.03l-1.99-.27,.14,.04-1.79-.76c.08,.03,.15,.08,.22,.14l-1.52-1.17c.07,.06,.12,.12,.17,.19l-1.17-1.52c.29,.42,.49,.89,.69,1.36l-.76-1.79c.41,1,.68,2.03,.83,3.1l-.27-1.99c.13,1.07,.13,2.14-.01,3.21-.04,1.03,.18,2,.65,2.89,.3,.93,.82,1.73,1.55,2.41,.68,.73,1.48,1.25,2.41,1.55,.89,.47,1.86,.68,2.89,.65,1.94-.09,3.95-.72,5.3-2.2l1.17-1.52c.68-1.17,1.02-2.43,1.02-3.79,.12-.88,.14-1.76,.07-2.65-.13-1.5-.31-3.07-.75-4.52-.21-.7-.5-1.36-.78-2.03s-.55-1.39-.92-2.03c-.04-.08-.09-.15-.14-.22-.33-.5-.83-1.19-1.26-1.62s-1.11-.93-1.61-1.26c-.07-.05-.14-.09-.22-.14l-1.79-.76c-.37-.12-.75-.18-1.14-.18-.35-.05-.82-.14-1.22-.15-.22,0-.44,.01-.66-.01l1.99,.27c-.09-.02-.17-.04-.26-.07l1.79,.76c-.13-.06-.23-.12-.35-.2l1.52,1.17c-.11-.09-.19-.18-.28-.29l1.17,1.52c-.05-.07-.1-.15-.13-.23-.67-1.13-1.56-2.02-2.69-2.69-1.17-.68-2.43-1.02-3.79-1.02-2.62,0-5.18,1.42-6.48,3.71-.1,.18-.22,.36-.34,.52l1.17-1.52c-.24,.3-.5,.55-.8,.79l1.52-1.17c-.31,.22-.63,.41-.98,.56l1.79-.76c-.39,.16-.79,.27-1.21,.33l1.99-.27c-.38,.04-.75,.04-1.12,0l1.99,.27c-.29-.04-.57-.11-.85-.21-1-.31-1.99-.36-2.99-.13-1,.05-1.93,.34-2.79,.89-.87,.47-1.58,1.12-2.1,1.93-.66,.72-1.11,1.57-1.34,2.55-.44,1.92-.34,4.07,.76,5.78l1.17,1.52c.94,.93,2.04,1.57,3.31,1.93h0Z"/><path class="e" d="M140,115.12l-.92,4.36c-.19,.92-.37,1.82-.5,2.76-.31,2.33,.12,4.54,1.59,6.44,1.12,1.45,2.61,2.63,4.44,3.08s3.18,.32,4.98,.04c1.36-.22,2.72-.47,4.08-.71l-7.3-12.54c-2.76,2.64-5.44,5.36-8.03,8.16-1.57,1.7-3.48,3.47-4.69,5.44-2.24,3.64-1.23,8.55,2.51,10.79,3.1,1.86,6.86,1.22,9.41-1.21,1.83-1.75,2.77-4.86,1.93-7.3l-.03-.1c-.64-1.86-1.71-3.47-3.45-4.48-1.61-.94-3.98-1.34-5.78-.76s-3.57,1.71-4.48,3.45-1.41,3.87-.76,5.78l.03,.1,1.93-7.3-.09,.08,3.31-1.93-.13,.03,5.78,.76-.11-.07,3.71,6.48v-.27l-1.02,3.79,.17-.25-1.17,1.52c3.67-4.2,7.52-8.23,11.55-12.09,2.31-2.21,2.93-6.36,1.17-9.09-.7-1.08-1.61-1.99-2.69-2.69-1.74-1.12-3.84-1.1-5.78-.76-1.36,.24-2.72,.5-4.08,.71l1.99-.27c-.26,.03-.49,.03-.75,.01l1.99,.27c-.16-.02-.31-.06-.45-.14l1.79,.76-.18-.13,1.52,1.17-.15-.18,1.93,3.31-.11-.28,.27,1.99c-.04-.21-.04-.41,0-.62l-.27,1.99c.38-2.05,.85-4.08,1.28-6.12s.29-4-.76-5.78c-.91-1.56-2.69-3.04-4.48-3.45-1.92-.44-4.07-.34-5.78,.76-1.59,1.02-3.05,2.58-3.45,4.48h0Z"/><path class="c" d="M57.88,85.75c-2.49-1.03-5.44-1.42-8.11-1.09l7.23,9.49c.59-1.55,.78-3.3,.64-4.95s-.38-3.2-1.21-4.62-2.08-2.35-3.5-3.14l-3.22-1.81-.81-.45c-.65-.34-.37-.1,.84,.75-.77-.74,1.08,1.9,.47,.47l.76,1.79c-.09-.26-.14-.5-.19-.77l.27,1.99c-.04-.37-.03-.73,0-1.1l-.27,1.99c.08-.48,.2-.92,.39-1.37l-.76,1.79c.08-.17,.18-.33,.27-.51,.48-.96-1.15,1.28-.56,.74,.5-.45-1.5,.92-.72,.55,.29-.14,.57-.32,.85-.46l-1.79,.76c.99-.41,2-.64,3.05-.79l-1.99,.27c3.67-.46,7.35-.7,10.98-1.51,3.28-.73,6.47-1.78,9.57-3.06,3.51-1.45,6.94-3.04,10.23-4.93,2.97-1.7,5.82-3.6,8.97-4.95l-1.79,.76c1.51-.62,3.05-1.09,4.67-1.35l-1.99,.27c1.31-.17,2.6-.2,3.91-.04l-1.99-.27c.87,.14,1.69,.35,2.51,.66,1.72,.65,4.25,.14,5.78-.76s3.04-2.69,3.45-4.48c.44-1.92,.34-4.07-.76-5.78s-2.56-2.72-4.48-3.45c-6.57-2.48-13.84-.31-19.74,2.87-4.8,2.58-9.3,5.52-14.34,7.65l1.79-.76c-4.42,1.83-9,3.18-13.73,3.86l1.99-.27c-2.97,.4-6.09,.35-8.98,1.19-4.22,1.23-7.42,4-8.92,8.14-1.24,3.42-.66,7.45,1.55,10.31,1.98,2.56,5.18,3.89,7.95,5.45l-3.45-4.48c.09,.27,.15,.55,.19,.84l-.27-1.99c.06,.59,.06,1.13-.02,1.72l.27-1.99c-.09,.44-.2,.82-.36,1.24-.82,2.19,0,4.79,1.34,6.54s3.63,3.24,5.89,2.96c1.05-.13,2.06-.14,3.12-.02l-1.99-.27c1.05,.16,2.02,.43,3,.84,1.67,.69,4.3,.11,5.78-.76s3.04-2.69,3.45-4.48c.44-1.92,.34-4.07-.76-5.78s-2.57-2.66-4.48-3.45h0Z"/><path class="c" d="M49.5,94.16c-.08,2.09,.2,4.18,.58,6.24l13.71-5.78-.67-1.06c-1.62-2.57-4.44-3.99-7.47-3.58-2.68,.36-5.76,2.49-6.24,5.37-.57,3.46-.87,7.14-2.24,10.4l.76-1.79c-.35,.75-.76,1.45-1.21,2.14-.69,1.06,.9-1.07,.32-.38-.22,.26-.43,.53-.65,.78-1.02,1.19-2.13,2.31-3.13,3.52-2.99,3.64-5.24,7.6-5.29,12.45-.04,3.92,3.48,7.68,7.5,7.5s7.46-3.29,7.5-7.5c0-.41,.03-.8,.08-1.21l-.27,1.99c.14-.8,.37-1.55,.68-2.31l-.76,1.79c.47-1.01,1.18-1.85,1.69-2.82-.82,1.57-.63,.81-.14,.24,.36-.41,.72-.82,1.09-1.22,1.66-1.83,3.33-3.69,4.66-5.78,2.63-4.15,3.1-9.09,3.88-13.82l-13.71,1.79,.67,1.06c2,3.18,5.88,4.54,9.37,3.07s5.03-5.11,4.34-8.85c-.06-.31-.11-.62-.16-.93l.27,1.99c-.14-1.11-.19-2.19-.15-3.31,.14-3.92-3.55-7.68-7.5-7.5-4.19,.19-7.35,3.29-7.5,7.5h0Z"/><path class="d" d="M45.95,127.81c3.92,0,7.68-3.45,7.5-7.5s-3.3-7.5-7.5-7.5c-3.92,0-7.68,3.45-7.5,7.5s3.3,7.5,7.5,7.5h0Z"/><path class="c" d="M51.98,115.04l-.11-.08,1.93,7.3,.04-.11-3.45,4.48,.13-.1-1.79,.76,.17-.05h-3.99l.16,.02-4.48-3.45,.09,.13-1.02-3.79-.02,.28,1.02-3.79c2.24-1.97,2.81-2.6,1.73-1.89-.61,.43-1.21,.89-1.79,1.37-.35,.29-.67,.59-.97,.93-1.19,1.35-1.91,2.55-2.58,4.15-1.22,2.89-1.48,6.15-.55,9.17,1.14,3.75,5.3,6.51,9.23,5.24s6.23-5.14,5.24-9.23c-.13-.52-.22-1.04-.3-1.57l.27,1.99c-.11-1.07-.11-2.12,.01-3.19l-.27,1.99c.17-1.2,.48-2.34,.94-3.46l-.76,1.79c.44-.98,.97-1.89,1.61-2.75l-12.95-7.57c-1.64,2.36-2.88,5.2-3.4,8.04-.6,3.2-.33,6.37-.73,9.56l.27-1.99c-.16,.97-.41,1.9-.77,2.82l.76-1.79c-.26,.62-.55,1.22-.9,1.8-.15,.25-.38,.5-.5,.77,.61-1.38,.88-1.07,.26-.37-.4,.45-.94,.81-1.31,1.27,1-1.21,1.11-.8,.34-.3-.31,.2-.62,.38-.95,.55-2.79,1.52-4.44,5.4-3.45,8.47s3.83,5.54,7.23,5.51c6.65-.07,12.17-3.32,17.17-7.38,1-.81,1.98-1.66,2.95-2.51,.46-.4,.92-.8,1.38-1.19,.23-.2,.46-.39,.7-.59,.2-.16,1.5-1.19,.48-.41-.91,.7-.08,.06,.15-.11,.25-.18,.5-.36,.75-.54,.5-.35,1.01-.7,1.52-1.04,1.15-.76,2.32-1.5,3.49-2.24,4.84-3.08,9.4-6.57,13.78-10.28,3.93-3.33,7.88-6.71,11.56-10.32,2.2-2.15,4.18-4.49,5.96-6.99,.7-.99,1.32-2.02,1.96-3.05,.32-.51,.64-1.03,.98-1.53,.17-.25,.34-.5,.51-.75,.42-.59,1.15-1.03-.23,.28,.74-.7,1.34-1.56,2.07-2.28,.82-.81,1.68-1.58,2.58-2.31,.08-.07,.57-.5,.6-.48,0,0-1.58,1.19-.6,.46,.42-.31,.83-.62,1.25-.92,.96-.68,1.93-1.34,2.91-1.98,8.77-5.74,21.97-12.44,19.18-25.11-1.53-6.95-8.28-11.6-14.99-12.58s-13.31-.34-19.91-.2c-3.92,.09-7.68,3.39-7.5,7.5s3.3,7.59,7.5,7.5l9.15-.2c2.92-.06,5.86-.21,8.77,.13l-1.99-.27c1.47,.2,2.89,.54,4.26,1.12l-1.79-.76c.5,.23,.98,.48,1.44,.77,.24,.15,.98,.71-.01-.06-1.08-.84-.1-.05,.08,.12s.34,.35,.51,.52c.75,.74-.46-.67-.49-.68,.34,.13,.72,1.21,.87,1.54l-.76-1.79c.22,.55,.38,1.1,.48,1.68l-.27-1.99c.07,.61,.08,1.2,.01,1.81l.27-1.99c-.1,.61-.25,1.19-.47,1.77l.76-1.79c-.29,.68-.8,1.28-1.08,1.95l.71-.91c-.16,.2-.33,.39-.5,.58-.26,.29-.53,.56-.81,.83-.46,.45-.96,.86-1.45,1.28-1.11,.95,1.5-1.1,.3-.23-.42,.31-.84,.62-1.26,.92-2.46,1.75-5.03,3.33-7.57,4.96-5.94,3.83-11.49,8.05-15.46,14-1.01,1.51-1.89,3.1-2.93,4.58-.17,.24-.36,.47-.52,.71,1.17-1.78,.41-.54,.08-.14-.66,.79-1.36,1.55-2.07,2.29-2.39,2.47-5.01,4.72-7.57,6.99s-5.34,4.7-8.12,6.93c-.36,.29-.73,.58-1.09,.86-1.3,1.03,1.39-1.03,.05-.04-.62,.46-1.24,.93-1.86,1.38-1.5,1.08-3.04,2.1-4.6,3.1-3.79,2.41-7.43,4.9-10.84,7.83-.81,.69-1.61,1.4-2.42,2.09-.35,.3-.69,.59-1.05,.88-.23,.19-.47,.38-.71,.57,.86-.66,1.07-.81,.62-.48-1.57,1.14-3.16,2.16-4.93,2.95l1.79-.76c-1.3,.54-2.62,.94-4.01,1.14l1.99-.27c-.56,.06-1.11,.1-1.67,.1l3.79,13.98c3.56-1.94,6.72-5.19,8.37-8.92,1.14-2.59,1.74-4.87,1.96-7.71,.16-2.01,0-4.02,.26-6.02l-.27,1.99c.22-1.38,.59-2.69,1.13-3.97l-.76,1.79c.45-1.02,.99-1.97,1.62-2.88,1.06-1.53,1.23-4.04,.76-5.78s-1.82-3.63-3.45-4.48c-1.74-.92-3.85-1.38-5.78-.76s-3.24,1.8-4.48,3.45c-3.53,4.71-4.38,11.12-3.02,16.74l14.46-3.99c-.1-.33-.18-.64-.24-.98l.27,1.99c-.07-.57-.07-1.11-.01-1.68l-.27,1.99c.09-.57,.23-1.09,.43-1.63l-.76,1.79c.11-.25,.65-.96,.63-1.19,.02,.22-1.35,1.54-.43,.61,.21-.22,.88-.75-.12,.04s-.32,.29-.07,.12c.58-.39,1.27-.87,1.77-1.36,1.49-1.45,2.49-3.55,2.48-5.65-.02-3.51-2.21-6.8-5.73-7.67-4.26-1.05-8.19,1.45-9.56,5.5-.77,2.28-.02,5.76,1.93,7.3l.11,.08c1.62,1.28,3.15,2.2,5.3,2.2,1.84,0,4.04-.82,5.3-2.2s2.29-3.31,2.2-5.3c-.08-1.85-.67-4.1-2.2-5.3h0Z"/><path class="c" d="M64.94,119.28c.32-.46,.65-.93,.99-1.38,.13-.17,.26-.34,.38-.51,.56-.76-.99,1.24-.39,.51,.72-.87,1.43-1.75,2.18-2.59,1.46-1.64,3-3.2,4.6-4.7s3.27-2.95,4.97-4.35c.83-.68,1.66-1.35,2.5-2.01,.22-.18,.45-.36,.67-.53,.06-.05-1.32,1.01-.67,.52,.51-.39,1.02-.78,1.53-1.17,3.75-2.82,7.57-5.56,11.37-8.31,4.29-3.12,8.99-6.04,12.86-9.68,1.97-1.85,3.49-4.14,4.97-6.39,.3-.45,.6-.91,.91-1.35,.18-.26,.71-.95-.06,.04-.85,1.09-.08,.12,.08-.06,.31-.35,.64-.67,.98-.98,.85-.8-.7,.61-.7,.54,0-.13,.82-.48,.91-.53,3.32-1.71,4.44-6.11,3.07-9.37-1.48-3.51-5.16-5.18-8.85-4.34-7.97,1.82-15.25,5.74-22.73,8.91l1.79-.76c-2.79,1.17-5.62,2.24-8.55,3.01-1.5,.4-3.05,.64-4.51,1.15-2.44,.85-4.38,1.99-6.34,3.66-2.5,2.13-4.55,5.05-6.14,7.9-1.73,3.09-3.07,6.49-3.83,9.95l14.73,1.99c-.14-4.46-.91-8.94-2.49-13.12l-7.23,9.49c5.76-.08,11.58-.84,17.16-2.29s10.72-3.9,16.01-6.14l-1.79,.76c1.92-.79,3.86-1.46,5.91-1.78l-1.99,.27c.88-.11,1.74-.16,2.63-.13,3.93,.11,7.68-3.53,7.5-7.5s-3.29-7.38-7.5-7.5c-6.4-.19-11.96,2.85-17.66,5.3l1.79-.76c-5.22,2.2-10.68,3.69-16.29,4.47l1.99-.27c-2.58,.34-5.16,.53-7.76,.56-2.39,.03-4.44,1.09-5.89,2.96-1.35,1.74-2.17,4.35-1.34,6.54,.92,2.43,1.56,4.92,1.93,7.49l-.27-1.99c.16,1.21,.25,2.42,.29,3.64,.12,3.75,2.76,6.86,6.5,7.37,3.51,.47,7.42-1.71,8.23-5.37,.4-1.81,.96-3.57,1.67-5.28l-.76,1.79c.91-2.11,2.05-4.05,3.37-5.92,.47-.62,.34-.46-.39,.5,.17-.21,.34-.41,.52-.62,.35-.41,.72-.8,1.11-1.17,.19-.18,.39-.36,.6-.54-1,.75-1.19,.9-.56,.45,.48-.27,.94-.55,1.45-.78l-1.79,.76c2.05-.81,4.27-1.11,6.38-1.73s4.23-1.41,6.3-2.25c4.55-1.86,8.98-3.98,13.51-5.9l-1.79,.76c3.32-1.39,6.7-2.62,10.22-3.43l-5.78-13.71c-2.66,1.37-4.56,3.57-6.29,5.94-.53,.73-1.03,1.49-1.52,2.25-.26,.41-.53,.81-.8,1.21-.1,.15-.2,.3-.31,.45-.1,.15-.21,.29-.32,.44-.35,.47-.14,.2,.62-.81-.39,.27-.7,.8-1.04,1.15-.42,.42-.85,.82-1.3,1.2-.22,.19-.46,.37-.68,.57-.62,.53,.69-.53,.64-.49-.56,.48-1.19,.89-1.79,1.32-2.06,1.49-4.11,2.99-6.17,4.48-7.97,5.79-16.18,11.4-23.47,18.04-4.14,3.77-7.83,7.97-11.05,12.57-1.06,1.52-1.23,4.05-.76,5.78s1.82,3.63,3.45,4.48c3.84,2.03,7.86,.75,10.26-2.69h0Z"/><path class="c" d="M101.91,81.05c5.41-1.05,10.6-2.89,15.58-5.26,2.11-1,4.27-2.08,6.17-3.45,3.29-2.37,6.45-5.91,6-10.31l-3.71,6.48c2.43-1.79,5.03-3.27,7.8-4.47l-1.79,.76c3.18-1.33,6.49-2.24,9.9-2.71l-1.99,.27c2.59-.33,5.2-.44,7.8-.11l-1.99-.27c1.57,.22,3.08,.59,4.55,1.19l-1.79-.76c.49,.21,.96,.44,1.43,.71,.32,.18,1.64,1.14,.55,.29s.27,.33,.54,.6c.76,.74-.49-.65-.46-.65,.1,0,.48,.71,.56,.83,1.23,1.98,2.03,4.19,3.45,6.07,1.51,1.99,3.15,3.61,5.01,5.26,.74,.66,1.47,1.33,2.13,2.06,.03,.04,.41,.49,.41,.48-.08,.05-1.11-1.62-.61-.77,.26,.45,.52,.87,.73,1.35l-.76-1.79c.19,.49,.33,.98,.42,1.5l-.27-1.99c.13,1.03,0,2.05,.03,3.09,.06,2.13,.55,4.09,1.59,5.96,.66,1.19,1.61,2.23,2.5,3.26,.12,.14,.24,.28,.36,.42,.49,.59,.32,.37-.5-.65,.08,.43,.6,1.04,.79,1.46l-.76-1.79c1.67,4.05,2.85,8.37,4.24,12.53l4.31,12.92c1.24,3.71,5.23,6.53,9.23,5.24s6.44-5.2,5.24-9.23c-.87-2.9-1.51-5.85-1.91-8.85l.27,1.99c-.24-1.89-.39-3.79-.46-5.7-.13-3.92-3.36-7.69-7.5-7.5s-7.17,3.3-7.5,7.5c-.74,9.45,2.81,18.48,4.11,27.71l-.27-1.99c.38,2.86,.51,5.72,.19,8.58-.13,1.17,.44,2.79,1.02,3.79,.83,1.41,2.1,2.44,3.59,3.07,2.9,1.22,5.86,.47,8.19-1.55,2-1.74,3.72-3.98,4.82-6.39l-13.71-5.78c-.1,.47-.24,.9-.42,1.34l.76-1.79c-.15,.32-.34,.62-.5,.93-.61,1.13,1.32-1.41,.16-.3s1.06-.64,.41-.31c-.37,.19-.71,.39-1.1,.56l1.79-.76c-.45,.16-.89,.28-1.36,.36l1.99-.27c-.6,.07-1.16,.07-1.76,0l1.99,.27c-.59-.1-1.14-.25-1.7-.47l1.79,.76c-.32-.15-.62-.33-.94-.48-1.15-.56,1.41,1.32,.27,.19-1.08-1.07,.62,1.07,.29,.42-.21-.4-.42-.78-.6-1.19l.76,1.79c-1.13-2.87-2.16-5.14-4.19-7.47-1.15-1.32-2.56-2.39-3.93-3.47-.65-.51-1.3-1.03-1.92-1.58-.35-.31-.69-.63-1.02-.97-.51-.52-1.21-1.81,.06,.22-.87-1.38-1.65-2.74-2.29-4.25l.76,1.79c-2.3-5.54-4.12-11.32-9.59-14.59-3.91-2.34-8.33-2.38-12.68-1.61-3.1,.55-6.05,1.66-9.18,2.1l1.99-.27c-2.77,.36-5.55,.36-8.32,.01l1.99,.27c-5.14-.72-10.18-2.77-15.45-2.32s-9.65,3-14.74,3.72l1.99-.27c-2.43,.3-4.86,.3-7.3,0l1.99,.27c-2.43-.34-4.77-.97-7.04-1.9l1.79,.76c-.53-.23-1.05-.47-1.56-.72l-1.79,13.71c13.65-4.22,24.66-13.55,37.63-19.18l-7.57-12.95c-7.64,4.25-15.3,8.49-23.36,11.91l1.79-.76c-2.3,.96-4.63,1.86-6.99,2.67l5.78,13.71c3.45-1.59,6.93-3.13,10.43-4.61l-1.79,.76c10.81-4.55,21.84-8.55,33.05-11.99,3.75-1.15,6.51-5.3,5.24-9.23s-5.15-6.28-9.23-5.24c-2.62,.67-5.26,1.18-7.93,1.55l1.99-.27c-2.31,.3-4.68,.63-7.01,.38l1.99,.27c-.7-.1-1.36-.26-2.02-.51l1.79,.76c-.14-.06-.76-.48-.89-.48,.43,0,1.49,1.37,.52,.25l1.17,9.09c.32-.51,.66-1.01,1-1.51,.68-1-.98,1.19-.4,.52,.2-.23,.38-.46,.58-.69,.8-.9,1.66-1.74,2.59-2.51,.18-.15,.38-.3,.56-.45-1.8,1.51-.81,.63-.36,.31s.9-.6,1.37-.88c1.09-.65,2.22-1.22,3.39-1.71l-1.79,.76c2.02-.82,4.11-1.39,6.27-1.69l-1.99,.27c2.04-.25,4.08-.26,6.12,0l-1.99-.27c.36,.05,.72,.11,1.07,.17l1.99-14.73c-.72,.04-1.42,.03-2.14-.04l1.99,.27c-1.01-.14-1.94-.4-2.88-.78v14.46c5.38-1.49,10.83-2.67,16.35-3.53l-8.47-3.45c.2,.35,.38,.7,.54,1.07l-.76-1.79c.29,.75,.47,1.49,.58,2.28l-.27-1.99c.11,1.08,.07,2.14-.06,3.22l.27-1.99c-.41,2.68-1.43,5.14-2.4,7.66-1.18,3.07-2.01,6.25-2.01,9.57h15c-.46-5.67-.62-11.35-.47-17.04,.1-3.74-3.53-7.93-7.5-7.5-5.46,.59-10.64,2.08-15.37,4.96s-8.64,6.71-11.65,11.29c-1.89,2.88-3.25,6.05-3.58,9.5-.36,3.74,1.17,7.63,3.91,10.21,5.46,5.14,13.04,4.84,19.77,2.76,5.77-1.79,10.92-4.64,15.64-8.36,.92-.72,1.83-1.44,2.58-2.33,2.53-2.99,3.29-6.9,1.41-10.45s-6.03-5.18-9.68-6.12c-6.43-1.65-13.18-1.04-19.22,1.67-5.59,2.51-10.68,8.38-10.09,14.85,.27,2.92,1.54,5.18,4.08,6.69,.61,.36,1.26,.65,1.9,.94,1.69,.75,3.4,1.45,5.19,1.93,3.16,.85,6.52,1.24,9.79,1.26,6.76,.04,13.47-1.56,19.99-3.18,2.88-.71,4.99-3.39,5.37-6.24,.42-3.12-1.05-5.72-3.58-7.47-2.76-1.92-6.53-2.94-9.89-2.73-4.69,.29-10.75,2.24-12,7.39-1.43,5.91,2.88,10.5,8.1,12.29,2.29,.79,4.71,1.07,6.97,1.96l-1.79-.76c.42,.18,.84,.37,1.24,.61,.2,.12,.39,.24,.57,.37-1-.81-1.29-1.02-.85-.63,1.08,1.19-.77-1.49-.1-.23,.25,.48,.51,.93,.73,1.43l-.76-1.79c.83,2.01,1.5,4.08,2.47,6.03s2.21,3.59,3.55,5.24c2.31,2.86,5.36,5.28,8.65,6.93,3.5,1.76,8.29,1.04,10.26-2.69,1.8-3.41,1.05-8.38-2.69-10.26-1.04-.52-2.01-1.12-2.96-1.78-1.15-.8,1.07,.91,.45,.35-.24-.22-.49-.41-.73-.63-.43-.39-.84-.79-1.24-1.21-.11-.11-1.18-1.26-1.13-1.31,.03-.03,1.09,1.53,.48,.6-.18-.27-.36-.53-.54-.8-.66-1.03-1.22-2.11-1.7-3.23l.76,1.79c-.84-2.07-1.42-4.34-2.64-6.23-1.36-2.12-3.19-3.98-5.45-5.14-1.8-.92-3.71-1.58-5.66-2.06-1.53-.37-3.09-.68-4.55-1.27l1.79,.76c-.69-.34-1.09-.9,.27,.38-.91-.87,.9,1.56,.34,.43l.76,1.79-.1-.3,.27,1.99c-.05-.21-.05-.42-.01-.63l-.27,1.99,.1-.32-3.45,4.48c.52-.34,1.05-.63,1.62-.87l-1.79,.76c.82-.32,1.63-.52,2.49-.64l-1.99,.27c.87-.09,1.71-.07,2.58,.04l-1.99-.27c.86,.14,1.67,.37,2.48,.71l-1.79-.76c.56,.26,1.09,.56,1.6,.92l1.79-13.71c-4,.99-8,1.96-12.09,2.51l1.99-.27c-3.38,.43-6.77,.54-10.16,.11l1.99,.27c-2.25-.32-4.44-.87-6.55-1.72l1.79,.76c-.91-.39-1.79-.82-2.66-1.31l3.71,6.48c-.04-.48-.04-.94,0-1.42l-.27,1.99c.09-.58,.24-1.12,.47-1.67l-.76,1.79c.12-.27,.25-.53,.4-.78,.64-1.08-.37,.22-.46,.49,.16-.46,.93-.99,1.29-1.32,.79-.73-.56,.53-.63,.47,.01,0,.7-.47,.79-.52,.59-.36,1.2-.67,1.83-.95l-1.79,.76c1.71-.7,3.49-1.16,5.33-1.42l-1.99,.27c1.86-.22,3.72-.22,5.58,0l-1.99-.27c1.86,.26,3.65,.74,5.39,1.44l-1.79-.76c.38,.16,.74,.34,1.11,.51l.32,.19c-.71-.43-1.3-.98-1.77-1.67l-.76-1.79,.07,.34-.27-1.99-.02,.36,.27-1.99-.11,.34,.76-1.79c.86-.98,1.02-1.18,.49-.61-.2,.18-.4,.36-.6,.54-.42,.37-.91,.69-1.31,1.08,1.63-1.57,.32-.26-.18,.09-.4,.28-.82,.56-1.23,.83-1.84,1.19-3.78,2.21-5.79,3.08l1.79-.76c-2.68,1.13-5.47,2.02-8.34,2.47l1.99-.27c-1.26,.16-2.48,.2-3.74,.04l1.99,.27c-.67-.12-1.3-.28-1.93-.52l1.79,.76c-.33-.14-.65-.29-.96-.48-.15-.09-.3-.19-.45-.29-.48-.33-.2-.12,.82,.63l-.26-.24c-.51-.56-.35-.32,.49,.72-.13-.31-.37-.6-.52-.9l.76,1.79c-.19-.47-.32-.91-.41-1.41l.27,1.99c-.05-.57-.04-1.11,.02-1.68l-.27,1.99c.15-.86,.41-1.66,.75-2.46l-.76,1.79c.7-1.53,1.58-2.95,2.55-4.33,.8-1.13-1.1,1.32-.26,.33,.28-.33,.56-.67,.85-.99,.54-.6,1.11-1.18,1.7-1.74,.54-.51,1.16-.95,1.69-1.47-1.62,1.57-.71,.54-.17,.16,.36-.25,.72-.5,1.08-.73,1.36-.88,2.8-1.63,4.29-2.27l-1.79,.76c2.31-.97,4.7-1.63,7.18-1.97l-1.99,.27c.25-.03,.5-.06,.74-.09l-7.5-7.5c-.15,5.69,.01,11.37,.47,17.04,.16,2.02,.73,3.83,2.2,5.3,1.3,1.3,3.44,2.28,5.3,2.2,4.06-.18,7.5-3.3,7.5-7.5,0-.58,.03-1.15,.09-1.73l-.27,1.99c.52-3.83,2.43-7.2,3.48-10.88,1.42-4.99,1.38-10.39-1.25-14.97-.81-1.41-2.11-2.44-3.59-3.07-1.67-.7-3.09-.66-4.88-.38-5.51,.86-10.97,2.04-16.35,3.53-3.06,.85-5.65,3.96-5.51,7.23,.06,1.33,.4,2.61,1.02,3.79,.96,1.82,2.68,2.71,4.48,3.45,2.18,.89,4.68,1.24,7.02,1.09,3.75-.23,6.85-2.68,7.37-6.5,.46-3.39-1.69-7.58-5.37-8.23-3.07-.54-6.09-.81-9.18-.43-3.78,.46-7.06,1.39-10.55,2.93-5.62,2.47-10.4,6.9-13.61,12.09-1.85,2.99-.98,6.59,1.17,9.09,3.08,3.57,8.19,4.47,12.67,4.11s9.06-1.08,13.47-2.2l-3.99-14.46c-15.47,4.74-30.59,10.58-45.28,17.36-1.54,.71-3.08,2.86-3.45,4.48s-.29,3.29,.38,4.88c1.37,3.25,5.29,5.56,8.85,4.34,11.28-3.87,21.76-9.56,32.15-15.33,3.43-1.91,4.85-6.91,2.69-10.26-1.03-1.6-2.57-3.01-4.48-3.45-2.1-.48-3.82-.09-5.78,.76-10.69,4.64-19.95,11.98-30.67,16.54l1.79-.76c-1.69,.71-3.41,1.34-5.17,1.88-2.88,.89-4.97,3.23-5.37,6.24-.37,2.78,.91,6.16,3.58,7.47,5.44,2.67,11.45,4.18,17.54,3.85,2.94-.16,5.94-.61,8.75-1.5,2.56-.81,5-1.97,7.68-2.37l-1.99,.27c1.51-.17,2.99-.11,4.49,.09l-1.99-.27c2.41,.37,4.76,1.04,7.15,1.53,2.91,.59,5.91,.97,8.89,.92s5.99-.45,8.88-1.15c2.28-.55,4.51-1.3,6.85-1.63l-1.99,.27c.99-.12,1.95-.15,2.94-.05l-1.99-.27c.7,.1,1.36,.26,2.02,.51l-1.79-.76c.42,.18,.82,.37,1.21,.61,.66,.41,.76,1.04-.55-.46,.19,.22,.44,.4,.64,.62,1.1,1.16-.63-.98-.32-.48,.74,1.22,1.41,2.4,1.97,3.71l-.76-1.79c1.89,4.52,3.35,9.06,6.8,12.69,1.38,1.46,3.04,2.62,4.59,3.88,.76,.62,1.51,1.27,2.18,2,.13,.14,.29,.43,.45,.52-.12-.06-1.07-1.53-.56-.7,.32,.51,.6,1.02,.84,1.57l-.76-1.79c1.16,2.9,2.18,5.62,4.66,7.68,2.66,2.21,5.73,3.51,9.23,3.61,6.35,.18,12.44-4.67,13.8-10.85,.81-3.68-.81-7.36-4.34-8.85-3.15-1.33-7.81-.33-9.37,3.07-.39,.84-1.09,1.64-1.42,2.48,.73-.91,.91-1.15,.54-.71-.13,.16-.27,.31-.41,.46-.37,.4-.77,.77-1.19,1.13l12.8,5.3c1.08-9.71-2.68-19.06-4.01-28.54l.27,1.99c-.34-2.58-.48-5.15-.28-7.75h-15c.18,5.58,1.04,11.19,2.64,16.54l14.46-3.99-5.64-16.91c-.88-2.65-1.68-5.35-2.68-7.96-.87-2.26-1.76-3.91-3.27-5.79-.35-.43-.71-.85-1.08-1.27-.7-.79,.52,.57,.5,.66,0-.02-.5-.89-.53-.94l.76,1.79c-.15-.42-.24-.79-.3-1.23l.27,1.99c-.09-1.53,.02-3.01-.19-4.54-.24-1.78-.77-3.37-1.64-4.97-1.12-2.05-2.82-3.81-4.56-5.36-.71-.64-1.44-1.26-2.14-1.92-.33-.31-.65-.62-.95-.94-.15-.16-.29-.33-.45-.49-.88-.9,1.09,1.69,.32,.43-1.2-1.94-2.05-4.11-3.34-5.99-3.57-5.18-8.87-7.92-15.01-8.74-5.41-.73-11.01-.11-16.25,1.38-3.08,.88-6.11,2.13-8.95,3.61-1.27,.66-2.5,1.39-3.68,2.19-.93,.63-2.2,1.39-2.92,2.17-1.6,1.74-2.1,3.7-2.17,5.98l.27-1.99c-.06,.35-.13,.62-.27,.95l.76-1.79c-.1,.21-.21,.4-.34,.59,.84-1.03,1-1.27,.47-.71-.95,.97,1.45-.93,.37-.25-.88,.56-1.78,1.11-2.69,1.62-1.86,1.04-3.78,1.96-5.74,2.8l1.79-.76c-3.67,1.52-7.47,2.67-11.37,3.42s-6.42,5.58-5.24,9.23c1.33,4.11,5.09,6.04,9.23,5.24h0Z"/><path class="c" d="M170.6,54.05c.47-2.27,.78-4.6,.82-6.92s-.26-4.65-.65-6.94l-14.46,3.99c.31,1.78,.67,3.56,1.09,5.32,.31,1.33,.72,2.6,1.37,3.81,.41,.77,1.05,1.56,1.67,2.15,1.19,1.14,2.37,1.77,3.92,2.29,1.98,.67,4.37,.72,6.45,.47,1.42-.17,2.87-.33,4.26-.73s2.75-1,4.07-1.6l1.52-1.17c.73-.68,1.25-1.48,1.55-2.41,.63-1.49,.89-3.3,.38-4.88-.4-1.24-1.05-2.35-1.93-3.31-1.19-1.29-3.54-2.32-5.3-2.2-1.12,.08-2.25,.21-3.35,.46s-2.09,.73-3.1,1.17-1.77,.99-2.52,1.76c-1.42,1.46-2.24,3.39-2.26,5.44-.02,1.4,.22,2.07,.7,3.2,.79,1.87,2.12,3.1,3.83,4.14,.46,.28,.93,.52,1.42,.74,1.55,.69,3.07,1.35,4.73,1.68,2,.4,3.98,.3,5.78-.76,1.56-.91,3.04-2.69,3.45-4.48,.44-1.92,.34-4.07-.76-5.78-1.01-1.57-2.58-3.07-4.48-3.45-.9-.18-1.77-.44-2.62-.79l1.79,.76c-.82-.35-1.64-.76-2.36-1.3l1.52,1.17-.13-.13,1.93,3.31-.07-.16,.27,1.99v-.15l-1.01,3.79,.07-.13-1.17,1.52,.11-.12-1.52,1.17c.27-.2,.59-.34,.9-.47l-1.79,.76c.64-.26,1.3-.43,1.98-.54l-1.99,.27c.23-.03,.45-.05,.68-.07l-3.79-13.98c-.15,.07-.3,.13-.44,.2l1.79-.76c-1.28,.54-2.6,.9-3.98,1.1l1.99-.27c-1.19,.15-2.38,.19-3.57,.06l1.99,.27c-.35-.05-.68-.12-1.01-.24l1.79,.76c-.19-.09-.35-.18-.53-.3l1.52,1.17c-.11-.08-.21-.18-.29-.28l1.17,1.52c-.17-.22-.3-.44-.41-.7l.76,1.79c-.41-1.08-.61-2.26-.85-3.38-.26-1.22-.5-2.45-.72-3.68-.31-1.75-1.97-3.62-3.45-4.48-1.61-.94-3.98-1.34-5.78-.76s-3.57,1.71-4.48,3.45l-.76,1.79c-.36,1.33-.36,2.66,0,3.99,.06,.33,.11,.67,.16,1.01l-.27-1.99c.3,2.28,.3,4.58,.01,6.86l.27-1.99c-.09,.67-.2,1.34-.34,2.01-.41,1.98-.29,3.99,.76,5.78,.91,1.56,2.69,3.04,4.48,3.45,1.92,.44,4.07,.34,5.78-.76,1.58-1.02,3.05-2.58,3.45-4.48h0Z"/><path class="g" d="M55.52,84.02c-7.51,2.83-12.74,9.72-13.48,17.71-.08,.84-.08,1.68-.03,2.52,.01,.24,.07,.87,.06,.87,.08,.12-.23-1.38,.32-.31,.01,.02-.62,.37-.67,.4-1.69,.97-3.28,2.07-4.67,3.44-2.7,2.66-4.69,6.11-5.68,9.76-.5,1.86-.77,3.83-.74,5.76,.02,.99,.13,1.97,.28,2.94,.11,.75,.41,1.66,.13,2.39-.26,.67-.99,1.43-1.44,2.06-.61,.86-1.15,1.76-1.63,2.7-.99,1.98-1.76,4.1-2.15,6.28-.41,2.3-.67,4.72,.83,6.7,1.35,1.78,3.65,2.7,5.72,3.35,4.01,1.26,8.59,1.21,12.55-.2,4.91-1.74,8.54-5.36,12.14-8.97l11.8-11.81-2.12,.88c5.32,.49,10.56-1.98,14.32-5.63s6.29-8.86,8.22-13.91l-4.41,1.79c8.53,4.28,18.6,4.61,27.37,.84,1.92-.83,3.67-2.09,5.63-2.81s3.45,.18,5.25,1.03c4.7,2.2,9.85,3.62,15.06,2.93s9.78-3.34,12.5-7.76c2.02-3.3-3.16-6.32-5.18-3.03-1.73,2.81-4.97,4.47-8.09,4.88-4.34,.57-8.59-.93-12.44-2.78-2.31-1.11-4.54-1.88-7.12-1.45-2.18,.36-4.12,1.51-6.03,2.55-3.41,1.84-7.21,2.9-11.08,3.07-4.43,.19-8.86-.66-12.83-2.65-1.86-.93-3.69-.09-4.41,1.79-1.6,4.2-3.63,8.44-6.97,11.54-1.44,1.34-3.18,2.46-5.06,3.08-.9,.29-1.8,.52-2.73,.57-.54,.03-1.07,0-1.6-.01-1.22-.01-1.99,.36-2.87,1.19-3.98,3.75-7.75,7.76-11.62,11.63-3.24,3.24-6.45,6.67-11.07,7.76-1.89,.45-3.94,.52-5.85,.14-.93-.19-1.88-.43-2.75-.79-.47-.19-.95-.42-1.37-.7-.67-.44-.16-.2-.13-.06-.19-.81,.21-2.03,.4-2.8,.25-1.04,.57-2.07,1.01-3.04,.93-2.06,2.54-3.67,3.5-5.68,1.22-2.56,.39-5.06,.27-7.46-.1-2.01,.11-3.49,.71-5.39,1.06-3.38,3.37-6.52,6.42-8.38,1.21-.74,2.45-1.33,3.28-2.53s1.01-2.68,.94-4.16c-.11-2.21,.12-3.95,.93-6.09,1.36-3.63,4.55-6.99,8.18-8.36,1.52-.57,2.55-2.03,2.1-3.69-.4-1.45-2.17-2.67-3.69-2.1h0Z"/><path class="g" d="M147.04,107.13c-.86,9.43,6.52,18.95,15.9,20.38l-2.1-3.69c-2.45,7.47,3.56,14.31,9.46,18,3.27,2.04,7.06,3.75,11,3.62,3.63-.12,6.93-1.59,9.72-3.86,5.99-4.86,7.49-13.12,5.76-20.33-.46-1.93-1.19-3.8-2.05-5.58-.81-1.68-1.83-3.28-2.52-5.01-1.4-3.49-.54-7.15-.63-10.79-.21-7.82-4.72-15.23-11.56-19.03l1.38,3.39c2.07-7.42-.37-15.94-6.14-21.08-1.52-1.35-3.31-2.17-4.89-3.4-1.32-1.02-1.86-2.92-2.52-4.43-1.69-3.86-4.94-6.63-8.71-8.4-7.8-3.66-16.64-4.55-25.1-3.2-4.22,.67-8.31,2.02-12.14,3.89-1.85,.9-3.55,2.01-5.31,3.07s-3.04,1.49-5.03,.8c-2.27-.79-4.37-1.81-6.74-2.3s-4.77-.71-7.17-.59c-4.87,.25-9.65,1.69-13.78,4.32-1.37,.87-1.92,2.67-1.08,4.1,.8,1.36,2.73,1.95,4.1,1.08,6.34-4.04,14.07-4.54,20.97-1.67,2.02,.84,4.07,1.64,6.3,1.42s4.24-1.23,6.14-2.42c3.21-2.02,6.5-3.68,10.15-4.75,7.27-2.14,15.08-2.12,22.31,.17,3.08,.98,6.5,2.39,8.52,5.01,1.08,1.41,1.59,3.18,2.36,4.78,.94,1.96,2.34,3.47,4.18,4.63,1.69,1.07,2.96,1.8,4.29,3.23,1.11,1.19,2.07,2.69,2.79,4.33,1.32,3.03,1.59,6.58,.69,9.81-.35,1.26,.23,2.75,1.38,3.39,4.55,2.53,7.68,7.02,8.47,12.21,.45,2.96-.31,6.55,0,9.74,.34,3.51,1.91,6.49,3.5,9.57,2.64,5.09,3.8,11.58,.61,16.71-2.73,4.39-7.67,6.3-12.6,4.33-3.05-1.22-5.94-3.28-8.12-5.73-2-2.24-3.07-4.81-2.21-7.45,.46-1.41-.54-3.45-2.1-3.69-7.07-1.07-12.14-7.59-11.5-14.59,.15-1.62-1.48-3-3-3-1.74,0-2.85,1.38-3,3h0Z"/><path class="g" d="M159.39,45.68c.2-1.39,.24-2.72,.23-4.11,0-.99,.02-2.09,.37-2.91,.56-1.36,1.85-2.6,3.3-2.88,1.57-.31,2.16,1.58,2.64,2.86,.83,2.23,1.17,4.49,1.09,6.86-.1,2.95,4.19,4.12,5.59,1.51,.6-1.11,1.46-1.85,2.55-2.2s2.03-.44,3.04,.13c.42,.24,.84,.64,.99,.94,.13,.27,.23,.43-.02,.61,.44-.32-.58,.49-.34,.31-.05,.04-.63,.36-.85,.46-.27,.13-1.35,.47-1.91,.62-3.19,.9-2.65,6.02,.8,5.89,1.78-.07,3.51,.4,4.89,1.59,.44,.39,1.16,1.12,1.11,1.65,.02-.17,.41-.29-.14,.12,.23-.18-.81,.4-.51,.29-.95,.36-2.07,.24-3.06,.21-1.29-.03-2.57-.07-3.86-.11l-7.72-.22c-3.86-.11-3.86,5.89,0,6l10.61,.3c3.32,.09,6.96,.05,9.24-2.76,2.51-3.1,1.33-7.22-1.42-9.72-2.48-2.26-5.77-3.48-9.13-3.35l.8,5.89c2.65-.74,5.46-1.89,6.85-4.44,1.62-2.97,.46-6.55-2.06-8.61-4.75-3.87-12.2-1.94-15.03,3.34l5.59,1.51c.2-5.76-2.08-16.34-9.7-15.76-3.31,.25-6.21,2.24-7.99,4.98-.79,1.23-1.3,2.64-1.51,4.08-.26,1.76,.05,3.54-.2,5.29-.23,1.6,.4,3.22,2.1,3.69,1.41,.39,3.46-.48,3.69-2.1h0Z"/><path class="g" d="M31.08,76.57c-.32,3.56-1.09,7.64,.96,10.85s5.81,4.66,9.48,3.9l-3.69-3.69c-.96,2.66-1.82,5.69-.78,8.47s3.32,4.78,6.34,4.92c1.62,.08,3-1.43,3-3,0-1.69-1.38-2.92-3-3,.31,.07,.3,.07-.05-.01,.27,.14,.25,.13-.06-.04,.41,.31-.24-.22-.28-.27,.31,.33-.22-.37-.28-.5-.09-.19-.09-.18,.02,.02-.06-.19-.11-.38-.15-.58,.06,.38,0-.56,0-.66,.02-.39,.08-.7,.18-1.13,.22-.9,.53-1.77,.85-2.63,.83-2.31-1.63-4.11-3.69-3.69-.71,.14,.33,.1-.39,.03-.07,0-.82-.09-.49-.02-.18-.03-.73-.24-.85-.32-.62-.41-1.04-.77-1.23-1.27-.75-1.99-.1-5.05,.11-7.38,.14-1.62-1.48-3-3-3-1.74,0-2.86,1.38-3,3h0Z"/><path class="g" d="M58.96,134.18c1.33,4.11,3.7,8.51,8.56,8.71,.48,.02,.97-.04,1.44-.02-.53-.02-.55-.44-.18,.31,.53,1.08,1.04,2.15,1.72,3.15,1.38,2.01,3.15,3.87,5.37,4.97,4.44,2.2,9.78,1.6,13.07-2.29,3.12-3.69,3.82-8.52,2.81-13.15-.63-2.88-1.9-5.61-3.21-8.24-1.37-2.76-2.78-5.51-4.17-8.26-.73-1.45-2.77-1.86-4.1-1.08-1.47,.86-1.81,2.65-1.08,4.1,1.97,3.9,4.25,7.78,5.8,11.87,.69,1.81,1.23,3.7,1.23,5.66,0,1.35-.33,2.77-.97,3.93-.68,1.23-1.35,2.05-2.66,2.58-.86,.35-2.53,.25-3.71-.3-1.57-.72-2.76-2.04-3.65-3.49-1.08-1.75-1.61-3.82-3.45-4.98-1.18-.74-2.51-.76-3.86-.74-.06,0-.91,0-.53,0,.27,0-.36-.18-.13-.04-.07-.04-.44-.29-.42-.27-.58-.53-.78-.88-1.23-1.75-.38-.73-.57-1.3-.88-2.25-.5-1.54-2.08-2.54-3.69-2.1-1.51,.42-2.6,2.14-2.1,3.69h0Z"/><path class="g" d="M141.51,113.12l.09-.14-2.59,1.49h.21l-2.12-.87,.14,.15-.77-2.92-.06,.31,.77-1.32c-1.05,1.33-2.11,2.56-2.81,4.12-.79,1.76-1.23,3.53-1.41,5.45-.3,3.37,.62,6.96,2.58,9.73l.47-3.64c-2.83,3.22-4.94,7-6.04,11.16-.54,2.05-1.18,4.6-.55,6.69,.66,2.2,2.72,3.55,4.91,3.9,4.83,.78,9.25-1.53,13.26-3.96,3.34-2.02,6.64-4.13,9.64-6.64,3.46-2.89,6.19-6.39,7.86-10.59,.6-1.51-.66-3.29-2.1-3.69-1.71-.47-3.09,.58-3.69,2.1-2.73,6.85-10.44,11.25-16.65,14.76-1.67,.94-3.47,1.89-5.39,2.15-.76,.1-1.9-.12-2.26-.09-.43-.29-.39-.21,.1,.22,.02,.04,.04,.09,.06,.13,0,0,.09-1.06,.11-1.18,.59-3.94,2.34-7.72,4.96-10.71,.82-.93,1.26-2.51,.47-3.64-1.91-2.7-2.29-5.76-1.25-8.85,.22-.66,.48-1.16,.9-1.83,.53-.84,1.48-1.55,1.82-2.67,1.11-3.65-3.8-5.86-5.86-2.64-.88,1.36-.28,3.31,1.08,4.1,1.45,.85,3.23,.29,4.1-1.08h0Z"/><path class="b" d="M65.85,30.25v-2.16c.04-1.03-.18-2-.65-2.89-.3-.93-.82-1.73-1.55-2.41-.68-.73-1.48-1.25-2.41-1.55-.89-.47-1.86-.68-2.89-.65l-1.99,.27c-1.27,.36-2.37,1-3.31,1.93l-1.17,1.52c-.68,1.17-1.02,2.43-1.02,3.79v2.16c-.04,1.03,.18,2,.65,2.89,.3,.93,.82,1.73,1.55,2.41,.68,.73,1.48,1.25,2.41,1.55,.89,.47,1.86,.68,2.89,.65l1.99-.27c1.27-.36,2.37-1,3.31-1.93l1.17-1.52c.68-1.17,1.02-2.43,1.02-3.79h0Z"/><path class="c" d="M69,28.05c-.86-4.18-4.8-7.55-8.92-8.24-4.84-.81-9.37,.84-12.74,4.42-2.96,3.14-5.55,7.05-5.88,11.44-.38,5.05,3.28,9.52,8,10.89,7.47,2.16,15.53-2.52,19.07-9.09,1.07-1.99,2.03-4.35,1.99-6.65-.06-3.43-1.78-6.79-4.84-8.51-3.78-2.12-8.5-2.31-12.52-.76-3.62,1.39-7,3.62-9.63,6.5-3.46,3.79-5.29,9.48-2.33,14.17,5.33,8.42,17.42,4.45,23.09-1.4,2.86-2.95,5.22-6.98,5.19-11.19-.04-5.26-4.53-9.57-9.49-10.53-8.37-1.63-15.74,2.94-20.85,9.22-1.66,2.04-3.46,4.06-4.13,6.68-.85,3.36,.13,6.99,2.67,9.36,3.51,3.27,8.69,3.43,13.01,1.92,7.17-2.5,13.4-7.48,16.99-14.23,1.56-2.94,1.26-6.69-1.17-9.09-3.21-3.16-7.6-3.49-11.54-1.57-2.07,1.01-3.29,3.31-3.58,5.48-.34,2.5,.49,4.4,2.06,6.3,3.03,3.66,9.06,3.27,12.2,.07,1.3-1.32,2.28-3.42,2.2-5.3-.09-2.09-.86-3.7-2.2-5.3l-5.84-7c-1.91-2.29-3.78-4.83-6.58-6.09-2.57-1.16-5.03-1.52-7.82-.97-2.11,.42-3.85,1.57-5.49,2.89-1.27,1.03-2.38,2.41-3.15,3.85-.84,1.57-1.2,3.15-1.75,4.8l.76-1.79c-.35,.7-.15,.5,.6-.6,1.14-.79,1.39-1,.74-.64l1.79-.76c-.52,.22-1.04,.33-1.59,.41l1.99-.27c-2.95,.33-5.9,.52-8.71,1.56-3.38,1.25-6.35,2.88-9.08,5.25-2.92,2.54-4.72,6.18-4.89,10.04-.14,3.27,1.58,5.9,2.06,9.01l-.27-1.99c.11,.91,.11,1.81,.01,2.72l.27-1.99c-.14,1.03-.4,2.01-.78,2.97l.76-1.79c-.23,.53-.47,1.04-.77,1.53-.15,.24-.32,.47-.47,.72-.4,.64,1.32-1.51,.43-.58-.35,.37-.72,.72-1.09,1.08-.63,.59,1.58-1.04,.57-.45-.3,.17-.58,.36-.88,.52-2.79,1.53-4.44,5.4-3.45,8.47,.4,1.24,1.05,2.35,1.93,3.31,1.13,1.23,3.6,2.4,5.3,2.2,1.41-.16,2.7-.29,4.01-.78,1.95-.74,3.2-1.48,4.81-2.81,2-1.65,3.35-3.9,4.22-6.32,1.82-5.06,.06-11.33-3.87-14.92-2.26-2.06-5.32-2.76-8.19-1.55s-4.46,3.81-4.61,6.85c-.03,.66-.09,1.32-.17,1.98l.27-1.99c-.31,2.25-.9,4.42-1.78,6.51l.76-1.79c-.72,1.65-1.58,3.22-2.63,4.68s1.02-1.15,.08-.1c-.27,.3-.52,.61-.79,.9-.61,.66-1.29,1.24-1.91,1.89-3.71,3.96-3.55,10.45,1.32,13.46,1.95,1.21,4.27,1.59,6.5,.94,3.21-.92,5.81-4.1,5.7-7.52-.18-5.83-6.43-10.22-11.8-7.08-4.35,2.54-4.75,8.25-2.35,12.28,1.61,2.69,4.36,4.56,7.3,5.5,1.87,.6,3.87,.59,5.72,1.29l-1.79-.76,.39,.17,1.79-13.71-5.29,.77c-1.66,.24-3.73,2.02-4.48,3.45-.8,1.51-1.12,3.08-.89,4.78,.47,3.51,3.62,6.7,7.37,6.5,1.72-.09,3.41,0,5.12,.21l-1.99-.27c4.69,.67,9.34,2.21,13.73,3.96l-1.79-.76c.4,.17,.94,.6,1.35,.69-.99-.83-1.21-.98-.66-.46-.76-1.1-.97-1.34-.63-.72l-.76-1.79c.12,.3,.19,.56,.25,.87l-.27-1.99c.03,.2,.03,.4,.01,.6l.27-1.99c-.04,.31-.1,.55-.22,.84l.76-1.79c.5-.77,1.14-1.4,1.92-1.88-2.56,1.65-3.99,4.41-3.58,7.47,.37,2.75,2.48,5.67,5.37,6.24,3.29,.65,6.12-.05,8.63-2.25,.33-.29,.63-.6,.94-.92,.23-.25,1.02-.9-.03-.11s-.18,.19,.12,.05l-1.79,.76c.35-.12,.67-.19,1.03-.24l-1.99,.27c.49-.03,.96-.01,1.45,.05l-1.99-.27c.79,.14,1.52,.4,2.26,.69l-1.79-.76c2.63,1.11,4.79,2.06,7.64,2.37,1.9,.21,3.94-.04,5.75-.66,2.35-.8,4.45-2,6.24-3.73,.82-.8,1.53-1.77,2.17-2.71,.22-.32,.44-.66,.61-1,.31-.49,.11-.25-.59,.71-1.07,.71-1.28,.89-.63,.53l-1.79,.76c.21-.09,.43-.16,.66-.2l-1.99,.27c.37-.04,.69-.05,1.06-.02l-1.99-.27c.5,.08,.96,.21,1.43,.38l-1.79-.76c1.31,.58,2.36,1.54,3.57,2.29,1.96,1.21,4.26,1.94,6.57,1.99,4.86,.12,8.99-2.66,11.74-6.45,2.29-3.14,2.99-7.42,2.93-11.22-.05-3.32-.72-6.6-.31-9.93l-.27,1.99c.36-2.32,1.27-4.46,2.12-6.63,1.02-2.61,1.77-5.35,1.78-8.18,0-3.31-1.06-6.29-2.29-9.3l-3.13-7.65c-1.33-3.25-2.51-6.26-4.78-8.98-2.07-2.48-4.99-3.96-7.97-5.07-2.08-.77-4.3-1.19-6.47-1.63-2.85-.57-5.76-1.05-8.66-1.22-6.44-.38-12.45,1.46-17.37,5.66-2.2,1.88-3.97,4.31-5.64,6.65-1.49,2.08-2.82,4.26-4.06,6.5-2.49,4.49-4.71,9.18-6.78,13.88-2.57,5.84-5.15,12.73-3.41,19.2,.83,3.09,3.27,5.65,6.35,6.57,2.72,.81,5.29,.27,7.8-.87,2.79-1.26,5.26-4.07,6.65-6.77,3.04-5.92,3.2-13.21-.36-18.96-1.79-2.9-5.17-4.26-8.47-3.45-7.45,1.83-8.79,9.83-9.56,16.26s.5,12.11,4.6,16.88c2.28,2.64,6.23,2.56,9.09,1.17,4.67-2.27,8.46-5.92,11.44-10.12s4.55-9.31,5.16-14.49c.27-2.27-1.27-4.58-2.96-5.89-1.8-1.39-4.29-2.09-6.54-1.34-6.9,2.28-11.18,8.03-13.29,14.78-.4,1.29-.71,2.6-.99,3.92-.37,1.73-.84,3.56-.75,5.32,.16,3.04,1.64,5.43,3.88,7.38l3.53,3.08c2.69,2.34,5.91,2.74,9.09,1.17,5.89-2.91,10.16-8.25,12.39-14.34,1.27-3.45,1.65-7.76,.29-11.24-1.58-4.06-4.77-7.76-9.26-8.62-2.42-.46-5.63-.23-7.3,1.93-1.91,2.47-3.24,4.64-4.37,7.57-.84,2.18-1.19,4.46-1.42,6.78-.47,4.72,.74,9.54,2.9,13.71,.74,1.42,2.16,2.47,3.59,3.07,1.68,.71,3.07,.64,4.88,.38,7.83-1.12,16.54-3.79,20.38-11.44,1.98-3.94,2.61-8.52,1.19-12.77s-4.1-7.83-7.99-9.97c-2.24-1.23-5.36-1.51-7.57,0-3.98,2.72-7.74,5.66-10.41,9.73-1.41,2.15-2.21,4.57-2.55,7.1-.4,2.98,.35,5.77,.82,8.69l-.27-1.99c.07,.58,.11,1.14,.09,1.72-.11,3.99,3.53,7.59,7.5,7.5l9.04-.21c1.74-.04,3.57,0,5.27-.43,2.24-.56,4.33-1.89,5.82-3.65,1.16-1.37,2.2-2.87,3.27-4.31,1.14-1.52,2.12-2.89,2.65-4.77,1.25-4.43-1.57-8.17-3.75-11.72-1.15-1.88-2.38-3.67-4.29-4.86-2.48-1.53-5.63-1.59-8.35-.78-3.3,.99-6.71,2.44-9.17,4.92-3.13,3.14-4.67,7.76-3.49,12.1,.92,3.38,3.48,6.23,6.59,7.78,1.51,.75,3.14,1.39,4.8,1.72,2.21,.45,4.69,.88,6.92,.25,4.59-1.29,6.91-5.79,8.93-9.74,1.24-2.42,1.41-5.16,0-7.57-1.24-2.12-3.91-3.95-6.48-3.71-1.69,.16-3.3,.42-4.78,1.34-1.31,.82-2.42,1.94-3.24,3.24-1.49,2.36-1.88,5.37-1.26,8.06,1.12,4.83,5.5,7.63,9.98,8.88l-5.51-7.23c0,2.61,.68,5.18,2.05,7.41,1.25,2.03,3.14,3.27,5.48,3.58,2.16,.29,4.84-.26,6.3-2.06,3.36-4.13,5.42-8.89,5.48-14.29,.02-2.41-.41-4.88-1.18-7.16-.64-1.91-1.41-3.76-1.73-5.77l.27,1.99c-.5-4.21,.69-8.43-.81-12.56-.91-2.5-2.29-4.54-4.15-6.44-.55-.56-1.13-1.1-1.66-1.68-.61-.68-.33-.94,.36,.52-.17-.37-.43-.69-.59-1.07l.76,1.79c-.11-.3-.18-.57-.24-.88l.27,1.99c-.03-.21-.05-.42-.04-.63-.11-3.92-3.37-7.68-7.5-7.5s-7.62,3.3-7.5,7.5c.1,3.52,1.56,6.33,3.89,8.88,.61,.67,1.27,1.27,1.9,1.92,.16,.16,.31,.33,.46,.49,.49,.57,.31,.32-.54-.75,.24,.43,.52,.81,.74,1.25l-.76-1.79c.31,.74,.5,1.48,.63,2.28l-.27-1.99c.17,1.5,.09,3,.02,4.51-.11,2.09-.02,4.06,.32,6.14,.51,3.09,2.07,5.89,2.52,8.99l-.27-1.99c.15,1.3,.14,2.59-.04,3.89l.27-1.99c-.19,1.16-.49,2.28-.92,3.38l.76-1.79c-.25,.6-.53,1.19-.86,1.75s-1.69,2.27-.17,.4l11.78,1.52c-.23-.37-.41-.73-.59-1.13l.76,1.79c-.2-.54-.33-1.07-.41-1.65l.27,1.99c-.03-.28-.04-.57-.03-.85,0-3.3-2.33-6.35-5.51-7.23-.58-.16-1.15-.34-1.72-.56l1.79,.76c-.22-.1-.44-.19-.65-.3-.3-.15-1.18-.8-.13,.02,1.24,.97-.35-.64,.59,.63,.78,1.05,.18,.21,.05-.06l.76,1.79c-.1-.28-.17-.53-.21-.82l.27,1.99c-.02-.3-.01-.56,.02-.85l-.27,1.99c.06-.29,.13-.54,.24-.81l-.76,1.79c.35-.65,.1-.37-.74,.84,.52-.51,.22-.28-.91,.7l-1.79,.76c.16-.08,.32-.13,.5-.16l-1.99,.27,.27-.03-6.48-11.29c-.54,1.05-1.1,2.08-1.7,3.1-.28,.47-.57,.94-.86,1.4-.15,.23-.3,.46-.45,.69,.41-.72,.97-1.29,1.67-1.73l1.79-.76-.41,.13,1.99-.27c-.56,.06-1.07,.03-1.63-.04l1.99,.27c-1.33-.18-2.62-.48-3.86-.98l1.79,.76c-.3-.13-.59-.26-.88-.42s-1.47-1.01-.28-.1c1.49,1.14-.66-1.01,.49,.51,.89,1.17,.12,.09-.03-.23l.76,1.79c-.15-.39-.25-.76-.32-1.17l.27,1.99c-.03-.4-.02-.75,.03-1.15l-.27,1.99c.08-.39,.18-.73,.32-1.11l-.76,1.79c.14-.3,.5-.71,.57-1.03-.79,.98-.93,1.18-.41,.61,.43-.39,.38-.37-.15,.06-1.07,.81,.19-.08,.44-.23,.43-.24,.87-.45,1.32-.65l-1.79,.76c1.24-.52,2.55-1.06,3.88-1.27l-1.99,.27c.25-.03,.5-.02,.75,.02l-1.99-.27,.35,.1-1.79-.76-.89-.77-.69-.92c.08,0,.51,.82,.58,.93l1.12,1.82c.69,1.12,1.49,2.23,2.02,3.44l-.76-1.79,.1,.36-.27-1.99c.05,.24,.05,.49,0,.73l.27-1.99-.1,.34,.76-1.79c-.56,1.25-1.56,2.33-2.38,3.42l-.59,.79c-1,1.34,.31-.11,.25-.3,.03,.08-.46,.52-.52,.59-.43,.39-.37,.36,.17-.09,.57-.41,.6-.47,.1-.18l1.79-.76c-.38,.14-.72,.22-1.13,.29l1.99-.27c-3.94,.36-7.98,.22-11.93,.32l7.5,7.5c.07-2.42-.64-4.77-1.01-7.14l.27,1.99c-.09-.77-.11-1.51-.04-2.28l-.27,1.99c.11-.81,.31-1.56,.6-2.32l-.76,1.79c.37-.87,.83-1.65,1.35-2.43,.57-.85-.41,.64-.52,.67,.12-.03,.39-.45,.47-.55,.37-.41,.76-.81,1.16-1.19,.36-.34,.73-.68,1.11-1,.27-.23,1.63-1.3,.56-.48s.31-.21,.59-.42c.45-.32,.9-.63,1.36-.94h-7.57c.2,.11,.39,.23,.59,.34,.84,.46-.6-.46-.69-.58,.26,.38,.79,.7,1.1,1.05,.99,1.11-.94-1.42-.16-.16,.27,.43,.5,.89,.71,1.35l-.76-1.79c.35,.85,.59,1.7,.73,2.61l-.27-1.99c.09,.79,.1,1.56,.02,2.36l.27-1.99c-.12,.81-.33,1.57-.64,2.33l.76-1.79c-.31,.68-.7,1.26-1.08,1.89,1.03-1.71,.73-.91,.24-.4-.25,.27-.52,.51-.79,.77-.93,.88,1.51-1,.36-.26-.31,.2-.61,.42-.93,.61-.66,.4-1.34,.73-2.05,1.04l1.79-.76c-2.94,1.2-6.06,1.7-9.19,2.15l8.47,3.45c-.23-.45-.45-.91-.65-1.37l.76,1.79c-.57-1.42-.96-2.87-1.17-4.38l.27,1.99c-.2-1.65-.18-3.28,.03-4.92l-.27,1.99c.23-1.51,.63-2.96,1.2-4.38l-.76,1.79c.28-.64,.57-1.26,.92-1.87,.33-.57,1.74-2.51,.2-.52l-7.3,1.93c.34,.07,.65,.15,.98,.27l-1.79-.76c.11,.05,.79,.48,.9,.47-.1,0-1.68-1.24-.61-.4,.48,.37-.95-1.6-.43-.57,.16,.31,.34,.6,.48,.92l-.76-1.79c.25,.63,.4,1.26,.5,1.94l-.27-1.99c.07,.74,.06,1.46-.02,2.2l.27-1.99c-.19,1.39-.58,2.7-1.12,3.99l.76-1.79c-.4,.91-.86,1.79-1.41,2.63-.14,.21-.28,.41-.42,.62-.45,.62-.29,.41,.5-.62-.35,.34-.65,.77-.99,1.12s-.7,.71-1.08,1.04c-1.45,1.29,1.11-.71,.06,0-.84,.56-1.67,1.08-2.57,1.52l9.09,1.17-2.6-2.27c-.37-.32-.74-.65-1.11-.97-.23-.2-.45-.39-.67-.59-.54-.56-.39-.37,.45,.57l.76,1.79-.1-.37,.27,1.99c-.04-.26-.04-.52-.01-.78l-.27,1.99c.41-2.89,1.14-5.86,2.24-8.57l-.76,1.79c.33-.76,.68-1.5,1.11-2.21,.19-.32,.44-.63,.62-.95-.94,1.66-.71,.88-.23,.33,.25-.28,.52-.55,.79-.81l.28-.25c.59-.49,.38-.33-.64,.48,.67-.27,1.28-.79,1.96-1.08l-1.79,.76c.23-.09,.47-.18,.71-.25l-9.49-7.23-.04,.37,.27-1.99c-.28,2.08-.84,4.08-1.65,6.02l.76-1.79c-.55,1.24-1.18,2.43-1.92,3.57-.17,.26-.34,.51-.52,.76-.75,1.06,.13-.36,.4-.49-.45,.21-.98,1.16-1.33,1.53-.42,.45-.86,.88-1.32,1.29-.23,.21-.47,.4-.69,.6-1.05,.94,1.52-1.06,.36-.27s-2.25,1.48-3.47,2.07l9.09,1.17c-.5-.58-.33-.37,.49,.65-.14-.2-.27-.4-.39-.61-.24-.41-.44-.84-.63-1.28l.76,1.79c-.4-1.02-.64-2.06-.79-3.15l.27,1.99c-.23-2.02-.11-4.04,.14-6.06l-.27,1.99c.27-1.99,.54-4.05,1.27-5.94l-.76,1.79c.17-.4,1.06-1.75,.19-.63-.98,1.26,.57-.28-.72,.69-1.08,.81-.31,.26,0,.11l-1.79,.76c.19-.08,.39-.14,.59-.18l-8.47-3.45c.3,.49,.56,.98,.79,1.5l-.76-1.79c.39,.95,.64,1.92,.79,2.94l-.27-1.99c.11,1.02,.11,2.04-.01,3.06l.27-1.99c-.15,1.02-.41,2-.78,2.96l.76-1.79c-.2,.47-.42,.93-.67,1.37-.11,.2-.23,.39-.36,.58-.36,.55-.93,.84,.47-.56-.32,.32-.61,.67-.94,.99-.83,.82,1.34-.82,.57-.45-.26,.12-.5,.27-.77,.39l1.79-.76c-.33,.11-.62,.19-.97,.25l1.99-.27c-.21,.02-.42,.02-.62,0l1.99,.27c-.2-.03-.39-.09-.57-.18l1.79,.76c1.84,2.29,2.46,2.87,1.83,1.74l.76,1.79c-.12-.34-.19-.65-.25-1.01l.27,1.99c-.13-1.33-.09-2.65,.07-3.98l-.27,1.99c.39-2.75,1.28-5.35,2.35-7.9l-.76,1.79c2.29-5.34,4.81-10.67,7.7-15.72,.71-1.24,1.45-2.46,2.24-3.65,.37-.57,.75-1.12,1.14-1.68,.22-.31,.44-.61,.66-.91,.78-1.1-.83,1.02-.26,.32,.85-1.03,1.71-2.04,2.71-2.93,.22-.19,1.22-.99,.21-.21s.1-.03,.26-.14c.58-.37,1.19-.68,1.81-.96l-1.79,.76c1.38-.58,2.79-.94,4.27-1.14l-1.99,.27c2.35-.27,4.69-.15,7.03,.16l-1.99-.27c3.65,.51,7.52,1.15,10.96,2.52l-1.79-.76c.64,.27,1.26,.57,1.84,.93,1.22,.76-.49-.26-.46-.41,0,.01,.78,.74,.82,.77,.89,.89-.72-1.14-.29-.39,.17,.3,.37,.58,.53,.88,.4,.72,.74,1.48,1.06,2.25l-.76-1.79c1.07,2.57,2.12,5.16,3.17,7.74s2.25,5.06,2.67,7.78l-.27-1.99c.09,.85,.1,1.67,.01,2.52l.27-1.99c-.54,3.99-2.86,7.44-3.52,11.4-.48,2.83-.49,5.5-.24,8.35,.19,2.2,.37,4.38,.11,6.58l.27-1.99c-.15,.99-.38,1.92-.73,2.85l.76-1.79c-.21,.48-.46,.92-.72,1.38-.61,1.08,1.24-1.3,.27-.4-.12,.13-.25,.25-.39,.37-.44,.38-.16,.18,.82-.62-.42,.17-.82,.49-1.24,.68l1.79-.76c-.44,.17-.87,.3-1.33,.39l1.99-.27c-.46,.06-.9,.07-1.37,.03l1.99,.27c-.5-.08-.95-.21-1.41-.39l1.79,.76c-1.42-.67-2.55-1.77-3.92-2.51-2.73-1.48-6.05-2.27-9.11-1.4s-5.15,3-6.86,5.73c-.82,1.31,.85-.88,.33-.38-.23,.23-1.23,1.07-.12,.24s.03-.05-.24,.11c-.35,.21-.72,.38-1.09,.53l1.79-.76c-.66,.25-1.31,.42-2.01,.53l1.99-.27c-.7,.07-1.37,.07-2.07-.01l1.99,.27c-.94-.16-1.8-.47-2.68-.84l1.79,.76c-1.48-.64-2.95-1.4-4.51-1.8-2.11-.55-4.04-.58-6.15-.2-1.98,.36-3.77,1.36-5.25,2.7-.33,.3-.62,.62-.93,.94-1.24,1.29,1.25-.67,.31-.21l1.79-.76-.27,.07,1.99-.27h-.28l1.99,.28-.29-.06,1.79,13.71c4.53-2.92,6.02-8.78,3.35-13.51-2.07-3.66-5.84-5.07-9.57-6.4-5.9-2.09-12.11-3.89-18.44-3.55l1.99,14.73,5.29-.77c1.13-.16,2.52-1.14,3.31-1.93,1.17-1.17,1.84-2.68,2.06-4.31,.36-2.7-.89-6.27-3.58-7.47-1.62-.73-3.1-1.31-4.84-1.59-1.15-.19-2.3-.34-3.39-.75l1.79,.76c-.22-.1-.44-.19-.65-.31-.28-.15-1.2-.82-.13-.02,1.25,.94-.36-.66,.61,.6,.78,1.02,.21,.2,.07-.1l.76,1.79c-.08-.21-.14-.42-.17-.64l.27,1.99c-.03-.23-.03-.45,0-.68l-2.2,5.3,.14-.11-5.3,2.2h.15l-3.79-1.02-2.35-2.28-1.02-3.79,.02,.19,.27-1.99-.05,.17,1.93-3.31-.14,.12,3.31-1.93-.26,.05h3.99l-.25-.07,1.79,.76-.22-.17,2.69,2.69-.17-.23,.76,1.79-.1-.27,.27,1.99v-.29l-.28,1.99,.09-.32-.76,1.79c-.89,1.02-1.08,1.26-.55,.71,.18-.17,.36-.34,.55-.51,.29-.28,.57-.56,.85-.84,.99-1.04,1.86-2.18,2.73-3.33,1.04-1.38,1.97-2.83,2.73-4.39,2.06-4.27,3.22-8.63,3.46-13.37l-12.8,5.3c.18,.16,.36,.33,.52,.51,.5,.58,.33,.36-.5-.66,.11,.41,.5,.88,.67,1.29l-.76-1.79c.21,.58,.36,1.15,.45,1.76l-.27-1.99c.06,.61,.06,1.2-.01,1.81l.27-1.99c-.1,.6-.26,1.15-.49,1.71l.76-1.79c-.15,.32-.33,.61-.5,.91-.61,1.13,1.32-1.43,.18-.31s1.08-.66,.43-.3c-.36,.2-.7,.41-1.07,.58l1.79-.76c-.55,.22-1.09,.37-1.67,.47l1.99-.27-.35,.04,3.79,13.98c4.33-2.37,7.58-6.69,8.84-11.45,.73-2.77,.74-5.42,.28-8.22-.34-2.06-1.37-3.9-1.74-5.94l.27,1.99c-.07-.57-.07-1.1,0-1.67l-.27,1.99c.08-.38,.18-.72,.31-1.09l-.76,1.79c.16-.36,.33-.67,.52-1.01,.6-1.06-.97,1.04-.35,.44,.24-.23,.45-.48,.69-.7,.14-.13,.29-.26,.44-.39,.44-.37,.19-.18-.75,.57,.61-.26,1.19-.82,1.78-1.15,.74-.42,1.5-.79,2.28-1.13l-1.79,.76c1.58-.64,3.21-1.09,4.89-1.35l-1.99,.27c2.87-.38,5.69-.32,8.27-1.84,1.59-.93,2.92-2.36,3.76-4,.73-1.43,.92-2.87,1.51-4.31l-.76,1.79c.16-.34,.33-.64,.51-.97,.32-.46,.27-.41-.16,.17-.45,.56-.49,.62-.12,.2l.26-.25c.58-.5,.35-.33-.68,.51,.3-.08,.63-.36,.92-.48l-1.79,.76c.33-.12,.63-.21,.98-.27l-1.99,.27c.35-.04,.66-.05,1.01-.03l-1.99-.27c.37,.05,.68,.13,1.03,.25l-1.79-.76c.22,.1,.43,.21,.65,.31,.47,.31,.42,.25-.16-.17-.51-.41-.62-.49-.33-.24,.34,.36,.71,.69,1.04,1.06,.91,1.03,1.77,2.11,2.65,3.17l5.52,6.62v-10.61l1.1-.86,1.79-.76-.26,.05,1.99-.27h-.27l1.99,.26-.26-.08,1.79,.76,1.13,.83-1.52,11.78,.3-.15-1.79,.76,.32-.09-1.99,.27c.22-.04,.45-.04,.67,0l-1.99-.27,.33,.08-1.79-.76c.68,.32,.45,.12-.69-.62l-1.17-9.09c-.29,.55-.6,1.1-.94,1.63-.36,.57-1.73,2.16-.13,.32-.78,.9-1.54,1.8-2.43,2.61-.42,.38-.86,.73-1.29,1.1,1.85-1.6,.25-.22-.32,.14-1.06,.68-2.17,1.26-3.31,1.76l1.79-.76c-1.19,.5-2.43,.97-3.72,1.16l1.99-.27c-.62,.07-1.22,.07-1.84-.01l1.99,.27c-.29-.06-.56-.12-.84-.22l1.79,.76c-.35-.15-1.01-.64,.06,.19,.41,.25,.74,.58,.98,.99,.44,.65,.55,.76,.31,.33l.76,1.79c-.07-.17-.12-.35-.14-.53l.27,1.99c-.03-.25-.02-.5,.03-.74l-.27,1.99,.1-.36-.76,1.79c.2-.47,.58-.88,.77-1.34-.76,.98-.89,1.15-.4,.52,.18-.23,.36-.46,.55-.68,.69-.85,1.4-1.68,2.16-2.46,.35-.37,.72-.72,1.09-1.06,.21-.2,.43-.39,.65-.57,.61-.49,.45-.37-.49,.37,.44-.11,1.01-.68,1.42-.91,.49-.28,.99-.51,1.51-.73l-1.79,.76c.92-.36,1.83-.62,2.81-.77l-1.99,.27c.83-.1,1.64-.11,2.47-.03l-1.99-.27c.63,.09,1.22,.23,1.82,.45l-1.79-.76c.76,.34,1.56,1.23-.03-.27,.53,.54,.36,.28-.52-.76,.12,.19,.22,.38,.29,.59l-.76-1.79c.08,.21,.13,.43,.15,.65l-.27-1.99c.02,.26,.02,.52-.03,.78l.27-1.99c-.08,.4-.19,.75-.33,1.13l.76-1.79c-.32,.74-.69,1.45-1.14,2.12-.93,1.39,1.11-1.18,.17-.21-.25,.26-.49,.54-.75,.8s-.56,.48-.82,.74c1.52-1.51,.88-.66,.34-.3-.72,.48-1.47,.87-2.26,1.21l1.79-.76c-1.03,.41-2.08,.71-3.17,.87l1.99-.27c-.65,.08-1.26,.11-1.91,.03l1.99,.27c-.25-.04-.49-.11-.73-.22l1.79,.76c.54,.34,.98,.78,1.32,1.31,.42,.62,.5,.7,.23,.25l.76,1.79c-.13-.31-.21-.59-.27-.92l.27,1.99c-.03-.34-.03-.64,0-.98l-.27,1.99c.06-.36,.15-.66,.28-1l-.76,1.79c.16-.35,.4-.66,.57-1-.76,.94-.94,1.19-.56,.76,.13-.15,.26-.29,.4-.43,.52-.53,1.07-1.03,1.64-1.51,.97-.82-.13-.11-.36,.26,.14-.22,.83-.57,1.05-.71,.71-.44,1.44-.82,2.21-1.15l-1.79,.76c.75-.3,1.51-.52,2.31-.66l-1.99,.27c.79-.11,1.55-.12,2.35-.02l-1.99-.27c.51,.09,1,.21,1.48,.39l-1.79-.76c.21,.08,.41,.18,.6,.3-.74-.44-1.33-1.03-1.79-1.76l-.76-1.79c.11,.23,.18,.47,.21,.72l-.27-1.99c.02,.25,.02,.51-.02,.76l.27-1.99c-.1,.51-.26,.99-.45,1.47l.76-1.79c-.3,.69-.66,1.33-1.06,1.97-.64,1.04,.98-1.12,.39-.47-.25,.28-.49,.56-.76,.83-.21,.21-.51,.4-.69,.63,.99-.74,1.25-.94,.78-.6-.15,.11-.3,.22-.46,.32-.63,.41-1.29,.75-1.98,1.04l1.79-.76c-.58,.22-1.15,.36-1.76,.46l1.99-.27c-.62,.07-1.22,.07-1.84,0l1.99,.27c-.49-.07-.95-.19-1.41-.37l1.79,.76c-.77-.35-1.31-1.12,.36,.44-.77-.72,1.06,1.88,.42,.39l.76,1.79c-.08-.22-.14-.44-.18-.67l.27,1.99c-.04-.42-.03-.76,.02-1.18l-.27,1.99c.09-.41,.2-.77,.35-1.16l-.76,1.79c.32-.7,.7-1.35,1.14-1.99,.18-.27,.38-.54,.57-.81,.82-1.21-1.19,1.36-.21,.27,.44-.49,.89-.95,1.34-1.42,.44-.37,.39-.34-.16,.1-.56,.42-.61,.47-.14,.14,.34-.17,.67-.37,1.02-.53l-1.79,.76c.42-.16,.82-.27,1.26-.35l-1.99,.27c.42-.04,.83-.04,1.25,0l-1.99-.27c.52,.07,1.01,.2,1.5,.4l-1.79-.76c.73,.35,1.43,1.2-.27-.35,.5,.54,.29,.26-.63-.84,.1,.17,.18,.34,.25,.52l-.76-1.79c.07,.19,.12,.38,.15,.58,.79,3.85,5.55,6.43,9.23,5.24,4.07-1.32,6.09-5.1,5.24-9.23h0Z"/><path class="c" d="M33.73,30.67l.57-.88,.29-.44c.05-.07,.09-.14,.14-.21,.36-.55,.62-1.16,.78-1.82,.31-1,.36-1.99,.13-2.99-.07-.5-.03-.72-.16-1.07,.11,.3-.46-1.39-.83-1.92l-1.17-1.52s-.02-.03-.03-.04c-.02-.02-.03-.04-.05-.05-1.24-1.14-1.97-1.54-3.56-2.08-.05-.02-.09-.03-.14-.04-.68-.13-1.42-.31-2.14-.28-1.63,.07-2.63,.32-4.06,1.1-.87,.47-1.58,1.12-2.1,1.93-.66,.72-1.11,1.57-1.34,2.55-.31,1-.36,1.99-.13,2.99,.05,1,.34,1.93,.89,2.79l1.17,1.52c.94,.93,2.04,1.57,3.31,1.93l1.99,.27c1.35,0,2.62-.35,3.79-1.02,.02-.01,.04-.02,.07-.03l-1.79,.76c.05-.02,.11-.03,.16-.04l-1.99,.27c.06,0,.11,0,.17,0l-1.99-.27c.06,0,.13,.03,.19,.05l-1.79-.76c.06,.03,.12,.06,.17,.1l-1.52-1.17c.05,.04,.1,.08,.14,.14l-1.17-1.52s.05,.08,.07,.12l-.76-1.79s.02,.05,.02,.07l.76-5.78-1.01,1.56c-.55,.86-.84,1.79-.89,2.79-.22,1-.18,1.99,.13,2.99,.23,.98,.68,1.83,1.34,2.55,.53,.82,1.23,1.46,2.1,1.93l1.79,.76c1.33,.36,2.66,.36,3.99,0l1.79-.76c1.13-.67,2.02-1.56,2.69-2.69h0Z"/><path class="f" d="M34.47,48.66l-4.68,1.02c-.63,.14-1.18,.58-1.56,1.08s-.67,1.16-.64,1.82c.06,1.31,.89,2.56,2.2,2.89,2.06,.53,4.3,.99,6.4,.35s4.05-2.26,4.57-4.49c.16-.67,.12-1.32-.15-1.95-.23-.55-.66-1.17-1.23-1.43-1.05-.49-1.95-.73-3.1-.85-.84-.09-1.73,.03-2.55,.22s-1.6,.52-2.3,.94-1.43,1-1.95,1.67-.88,1.25-.88,2.12c0,.74,.33,1.61,.88,2.12s1.32,.91,2.12,.88c.74-.03,1.65-.27,2.12-.88,.25-.32,.53-.6,.85-.85l-.61,.47c.37-.29,.78-.52,1.21-.71l-.72,.3c.44-.18,.89-.3,1.36-.37l-.8,.11c.47-.06,.93-.06,1.4,0l-.8-.11c.43,.06,.85,.17,1.26,.34l-.72-.3c.06,.03,.12,.05,.18,.08l-1.38-3.39c-.04,.17-.09,.33-.15,.49l.3-.72c-.1,.22-.22,.42-.36,.61l.47-.61c-.19,.24-.41,.45-.66,.64l.61-.47c-.28,.21-.59,.38-.91,.52l.72-.3c-.37,.15-.75,.25-1.14,.3l.8-.11c-.59,.07-1.18,.05-1.77-.02l.8,.11c-.77-.11-1.53-.29-2.29-.48v5.79l4.68-1.02c.71-.16,1.43-.76,1.79-1.38s.54-1.59,.3-2.31c-.52-1.62-2.05-2.45-3.69-2.1h0Z"/><path class="f" d="M56.71,45.2c-.29,2.6-.52,5.35,.36,7.87,.46,1.33,1.1,2.47,2,3.55s2.12,1.8,3.43,2.35c.67,.28,1.72,.04,2.31-.3s1.22-1.08,1.38-1.79c.17-.77,.14-1.63-.3-2.31s-1.03-1.06-1.79-1.38c.91,.38,.21,.07,.01-.04-.09-.05-.18-.11-.26-.17-.25-.18-.17-.12,.23,.19-.12-.16-.32-.28-.46-.43-.07-.08-.14-.15-.21-.23-.2-.24-.14-.16,.17,.24-.2-.37-.47-.7-.66-1.09-.36-.72,.15,.47-.01-.02-.07-.2-.14-.4-.2-.61-.06-.22-.11-.44-.16-.66-.03-.13-.05-.27-.07-.4,.06,.46,.07,.52,.03,.19-.04-.55-.07-1.09-.06-1.64,.02-1.1,.14-2.2,.26-3.29,.08-.71-.39-1.63-.88-2.12-.52-.52-1.37-.91-2.12-.88s-1.58,.29-2.12,.88c-.57,.62-.79,1.29-.88,2.12h0Z"/><path class="g" d="M52.75,30.91c-1.31,4.75-2.88,12.05,2.68,14.8l-1.38-3.39c-1.7,4.19-2.83,9.01-1.02,13.36,1.58,3.79,5.22,6.84,9.49,6.63,1.62-.08,3-1.32,3-3,0-1.56-1.37-3.08-3-3-1.88,.09-3.56-1.39-4.15-3.43-.87-2.99,.35-6.21,1.47-8.96,.46-1.14-.3-2.85-1.38-3.39-.35-.17-.6-.31-.74-.59-.36-.7-.29-1.6-.23-2.35,.14-1.71,.6-3.43,1.05-5.08,1.03-3.73-4.76-5.32-5.79-1.6h0Z"/><path class="g" d="M61.45,62.53c3.88,.01,7.8-1.53,10.48-4.37,1.39-1.48,2.4-3.19,3.1-5.09,.38-1.02,.58-2.07,.71-3.15,.05-.4,.09-.8,.11-1.21,0-.27,0-.54,0-.81,.02-.55-.04-.54-.19,.04l-1.08,1.08c.23-.17,.64-.34,1.25-.64,.47-.23,.88-.52,1.3-.83,1.07-.81,1.95-1.73,2.7-2.85,1.33-1.97,2.03-4.54,1.76-6.91-.6-5.32-4.81-9.16-10.04-9.76-1.61-.18-3,1.51-3,3,0,1.77,1.38,2.82,3,3-.28-.03,.59,.16,.72,.2,.33,.1,.41,.15,.55,.22,.69,.36,.99,.59,1.46,1.07,.44,.45,.63,.71,.95,1.34,.22,.43,.09,.12,.22,.55-.01-.04,.23,.98,.17,.55,.2,1.36-.08,2.29-.78,3.42-.56,.91-1.6,1.63-2.42,2-1.1,.5-2.03,1.28-2.41,2.48-.3,.94-.12,1.89-.15,2.85-.05,1.44-.52,2.82-1.28,4.05-1.53,2.48-4.34,3.79-7.12,3.78-3.86-.01-3.87,5.99,0,6h0Z"/><path class="g" d="M30.77,12.32c-3.58,.14-7.21,.88-10.38,2.59-1.65,.89-3.12,2.07-4.16,3.64s-1.84,3.33-2.47,5.11c-2.43,6.82-1.85,14.77,.9,21.4l2.1-3.69c.31-.08,.61-.07,.91,.01,.46,.23,.56,.26,.29,.11,.41,.21,.32,.12,.54,.53-.15-.28-.18-.54,.05,.21-.09-.31-.07-.16,.03,.45,0-.77-.26-.18-.77,1.77l-1.32,.77c-.96,.23-1.75,.05-2.36-.54,.11,.09,.2,.2,.3,.3,.14,.23,.24,.32,.54,.78l1.08-4.1c.43-.19-.44,.1-.44,.1-.07,.02-.82,.17-.51,.12s-.46,.05-.53,.05c-.31,.03-.62,.04-.94,.06-1.22,.08-2.47,.14-3.65,.46-2.96,.78-4.72,3.03-5.69,5.82-1.76,5.07-.51,11.43,3.27,15.27,2.71,2.76,6.96-1.49,4.24-4.24-1.19-1.21-1.82-2.68-2.16-4.59-.27-1.55-.16-3.45,.54-5.15-.11,.28,.06-.11,.09-.18,.1-.2,.2-.41,.33-.59-.16,.23,.19-.2,.25-.26,.38-.32-.31,.19,.1-.06,.35-.22,1.14-.37,1.59-.4,2.28-.18,4.41-.31,6.54-1.23,1.44-.63,1.88-2.87,1.08-4.1-.86-1.32-1.9-2.89-3.53-3.32-2.07-.54-4.02,1.07-4.04,3.17-.03,3.05,2.92,5.15,5.77,4.56,1.45-.3,2.69-2.26,2.1-3.69-2.26-5.46-2.94-11.49-1.25-17.13,.41-1.36,.91-2.54,1.63-3.79s1.33-1.77,2.6-2.45c2.28-1.23,4.96-1.68,7.35-1.77,1.62-.07,3-1.33,3-3,0-1.57-1.37-3.07-3-3h0Z"/><path class="g" d="M8.24,62.37c.29,5.17,3.47,8.96,8.36,10.52,4.09,1.3,8.84,1.07,12.91-.16l-3.69-2.1c1.17,5.21,7.06,6.97,11.77,6.77,1.62-.07,3-1.33,3-3,0-1.57-1.37-3.07-3-3-.74,.03-1.47,0-2.21-.06-.21-.02-.4-.07-.08,0-.2-.03-.39-.07-.59-.11-.44-.09-.87-.22-1.29-.36-.05-.02-.57-.23-.32-.12s-.25-.14-.29-.16c-.16-.1-.33-.19-.48-.3-.39-.26,.28,.27-.05-.04-.13-.13-.27-.25-.39-.39-.3-.34,.21,.34-.02-.06-.03-.05-.26-.53-.16-.28,.11,.29-.11-.5-.1-.48-.35-1.56-2.19-2.55-3.69-2.1-.75,.23-1.51,.41-2.27,.55-.21,.04-.43,.07-.64,.11,.44-.07,.16-.02-.12,0-.4,.04-.8,.08-1.21,.1-.91,.05-1.82,.04-2.73-.04-.18-.01-.36-.03-.54-.05-.86-.08,.34,.07-.14-.02-.44-.08-.88-.16-1.31-.27-.38-.1-.76-.21-1.13-.34-.07-.03-.73-.29-.36-.13s-.34-.17-.33-.17c-.33-.17-.65-.37-.97-.57-.24-.16-.39-.32-.08-.05-.15-.14-.31-.27-.45-.41-.18-.17-.74-.92-.41-.42-.23-.36-.45-.71-.63-1.09,.19,.39,.04,.1-.03-.14-.07-.22-.13-.44-.19-.66-.04-.18-.08-.37-.11-.56,.1,.59-.01-.36-.02-.4-.09-1.62-1.31-3-3-3-1.55,0-3.09,1.37-3,3h0Z"/><path class="g" d="M86.91,28.2c.09,.17,.18,.35,.27,.52,.03,.06,.24,.54,.1,.19-.17-.39,.1,.26,.12,.33,.06,.16,.11,.32,.17,.48,.26,.8,.44,1.62,.59,2.44,.02,.12,.09,.75,.03,.15,.02,.18,.04,.36,.05,.55,.03,.41,.05,.83,.06,1.24s0,.83-.03,1.24c-.01,.23-.03,.46-.05,.68-.04,.49,.14-.69-.02,.15-.15,.79-.35,1.55-.6,2.32-.09,.27-.11,.26,0,0-.09,.19-.18,.38-.28,.57-.18,.33-.38,.65-.59,.96,.34-.49,.03-.03-.08,.07-.14,.15-.28,.3-.43,.45-.12,.12-.25,.22-.37,.33,.33-.27,.12-.09-.11,.04-.18,.1-1.1,.53-.56,.33-.44,.16-.88,.28-1.34,.37-2.56,.52-2.88,4.27-.72,5.48,2.33,1.31,6.31,1.42,7.2-1.78,.49-1.75-.58-3.57-2.31-4.07-1.38-.4-2.84-.08-4.17,.36-2.43,.81-2.99,4.09-.72,5.48s3.16,3.99,2.8,6.68c-.22,1.61,1.53,3,3,3,1.8,0,2.78-1.39,3-3,.63-4.69-1.78-9.42-5.77-11.86l-.72,5.48c.3-.1,.6-.19,.9-.27,.21-.06,.47-.24,.3-.08-.22,.03-.2,.03,.06,.01l-.46-.08c1.16,1.09-2.25-3.54-.83-4.57,.13-.1,.7-.37,.61-.35-.33,.09,.76-.05,.21-.04l.39,.06-.22-.05c-.27-.09-.3-.1-.11-.02,.21,.09,.16,.06-.13-.09l-.72,5.48c9.77-2,10.52-14.98,6.65-22.25-.76-1.43-2.75-1.87-4.1-1.08-1.45,.85-1.84,2.67-1.08,4.1h0Z"/><path class="g" d="M34.54,15.81c.76-2.16,2.54-3.84,4.29-5.25,1.9-1.53,4.09-2.89,6.4-3.7,4.31-1.5,9.14-1.21,12.3,2.25,1.13,1.24,3.09,1.05,4.24,0,1.77-1.6,5.16-1.29,7.64-1.09,3.01,.25,6.09,.98,8.76,2.44,4.91,2.68,8.1,8.1,6.36,13.31-.51,1.54,.59,3.28,2.1,3.69,1.64,.45,3.17-.55,3.69-2.1,2.64-7.89-2.18-16.3-9.11-20.08-3.69-2.02-7.82-2.96-11.99-3.27s-8.47-.05-11.68,2.86h4.24C57.24-.1,49.78-1.07,43.64,1.07s-12.64,6.8-14.88,13.14c-.54,1.53,.61,3.28,2.1,3.69,1.66,.46,3.15-.56,3.69-2.1h0Z"/><path class="g" d="M27.51,36.68c-.86,1.12-1.14,2.94-.24,4.1,.62,.8,1.82,1.13,2.71,.58,.63-.39,1.01-1.05,1.14-1.76,.12-.66,.19-1.33,.17-2-.01-.38-.06-.75-.11-1.12-.06-.46-.17-.93-.53-1.26-.98-.9-2.27-.38-2.93,.59-.38,.56-.48,1.23-.56,1.89-.08,.69-.04,1.36,.07,2.04s.27,1.34,.75,1.84c.77,.81,1.96,.78,2.78,.05,.51-.45,.82-1.1,.99-1.74,.35-1.32,.35-2.69,.12-4.02-.14-.83-.55-1.55-1.35-1.89-.73-.31-1.6-.23-2.26,.23-1.31,.93-1.64,2.7-1.72,4.2-.04,.69-.04,1.42,.19,2.07,.31,.88,.95,1.67,1.9,1.9,.76,.18,1.66-.24,1.85-1.05,.17-.77-.23-1.65-1.05-1.85-.23-.05,.11,.06,.13,.07-.2-.1,.08,.07,.1,.1,0,0-.11-.11-.12-.12,.04,0,.19,.31,.09,.1-.02-.04-.06-.12-.08-.15,.03,.03,.1,.34,.05,.1-.01-.06-.03-.12-.05-.18-.01-.06-.07-.33-.02-.07s0-.1,0-.17c0-.12,0-.25,0-.37,0-.28,.02-.56,.05-.84,.04-.39-.05,.28,.01-.1,.02-.13,.05-.26,.08-.39s.07-.26,.11-.38c.02-.05,.03-.09,.05-.14,.02-.05,.03-.09,.05-.14,.04-.11,.02-.06-.06,.14,.06-.04,.12-.23,.16-.3,.09-.16,.05,.06-.08,.1,.01,0,.12-.12,.12-.12,0,.01-.26,.17-.14,.11,.06-.03,.23-.11,0,0-.31,.14,.18,0-.16,.05-.15,.02-.17,.02-.05,.02l-.25-.04c.22,.04-.14-.07-.16-.08-.15-.08-.23-.2-.32-.33,.14,.2-.06-.1-.05-.13,0,.01,.04,.16,.04,.16,.03,.13,.05,.26,.07,.39,.03,.21,.05-.02-.01-.09,.04,.04,.02,.21,.03,.26,.02,.26,.03,.52,.03,.78,0,.14,0,.28-.02,.42,0,.07-.01,.14-.02,.21,0,.05-.06,.35-.01,.11,.04-.23,0,0-.01,.06-.01,.07-.02,.14-.04,.21-.02,.12-.05,.25-.08,.37-.03,.1-.06,.2-.09,.29-.08,.23,.03-.1,.05-.12-.02,.02-.12,.2-.13,.22,0-.04,.25-.26,.08-.1-.11,.1-.11,.05,.11-.07s.55-.18,.8-.09c-.05-.02,.61,.39,.48,.27s.21,.29,.11,.14c-.04-.05-.1-.22,0,.02s.03,.08,.02,.01c-.02-.08-.04-.15-.06-.23-.01-.07-.03-.13-.04-.2,0-.03-.05-.36-.02-.1,.03,.23,0,0,0-.06,0-.09-.02-.17-.02-.26-.02-.31-.01-.62,.02-.92,0-.01,0-.18,.02-.2-.03,.21-.04,.26-.02,.14,0-.04,.01-.08,.02-.13,.02-.12,.06-.23,.09-.34,.05-.18-.15,.3-.06,.14,0-.02,.09-.17,.09-.16,.02,.03-.27,.28-.09,.14l-.19,.14c.23-.13,.07-.09-.47,.12l-.76-.2,.05,.03-.54-.54s-.09-.36-.07-.17c0,.07,.02,.14,.04,.2,.04,.21-.02-.01-.01-.09,0,.08,.02,.18,.03,.26,.02,.28,.03,.55,.02,.83,0,.16-.01,.31-.03,.47,0,.06-.03,.14-.02,.21,0-.08,.05-.3,.01-.09-.02,.12-.04,.23-.07,.35-.01,.05-.03,.1-.04,.15-.07,.24,.14-.26,.05-.12s.23-.25,.11-.13c-.05,.05-.03,.04,.07-.05,.06-.06,.13-.1,.21-.12,.29-.13,.64-.11,.89,.09,.07,.04,.12,.09,.15,.16,.07,.1,.08,.12,.04,.05-.08-.14,.06,.27,.05,.11-.01-.04-.02-.09-.03-.13l.03,.22s0-.13,0-.18c0-.06,.02-.12,.01-.18,0,.06-.06,.33-.01,.13,.03-.12,.06-.23,.1-.35,.08-.25-.12,.22-.03,.07,.03-.05,.05-.11,.08-.16,.07-.12,.14-.23,.23-.34,.22-.29,.24-.83,.15-1.16-.1-.35-.36-.73-.69-.9-.35-.18-.77-.28-1.16-.15s-.65,.36-.9,.69h0Z"/><path class="g" d="M11.09,50.02c1.93,0,1.93-3,0-3s-1.93,3,0,3h0Z"/><path class="g" d="M10.18,49.76l.31,.27,1.46-2.51c-1.22-.21-2.85-.12-3.41,1.2s.59,2.41,1.67,2.96,2.52,.8,3.47-.07,.76-2.22,.05-3.17c-1.25-1.67-3.39-2.51-5.18-3.45-1.97-1.03-4.29-1.69-6.14-.03-.83,.75-1.24,1.93-.98,3.02,.23,.94,.93,1.69,1.76,2.15s1.81,.72,2.73,1c1.01,.31,2.02,.67,3.08,.75,1.15,.08,2.49-.36,3.08-1.41,.69-1.21-.06-2.42-.92-3.29-1.34-1.33-3.13-2.32-5-2.63-1.77-.3-5.27-.38-5.26,2.23,0,1.97,1.84,3.66,3.52,4.39,2.07,.91,4.31,.8,6.49,.4,1.2-.22,2.35-.85,2.44-2.2,.07-1.05-.57-2.06-1.27-2.79-1.51-1.59-3.7-2.08-5.8-2.28-1.08-.1-2.25-.22-3.33-.01-1.23,.23-2.1,1.21-2.19,2.46-.14,2.03,1.56,3.72,3.27,4.53,1.89,.89,4.11,1.1,6.17,.9,.97-.09,1.98-.36,2.63-1.14,.8-.95,.79-2.27,.08-3.27-1.15-1.64-3.48-2.66-5.39-3.03-1.04-.2-2.14-.26-3.15,.09-1.19,.41-2.39,1.44-2.04,2.84,.27,1.07,1.33,1.79,2.27,2.24s1.94,.72,3,.79c.93,.06,1.89-.07,2.78-.36,1.04-.34,1.51-1.69,.66-2.51-1.19-1.14-2.7-1.97-4.33-2.25-.77-.14-1.72-.29-2.49-.05-1.2,.37-1.49,1.62-1.14,2.7,.54,1.69,1.99,2.83,3.62,3.39,.81,.28,1.68,.39,2.53,.46s1.75,.02,2.5-.42c1.81-1.06,1.64-3.47,.38-4.87-1.14-1.27-2.88-1.96-4.42-2.6s-3.36-1.45-5.09-.9S-.39,45.51,.11,47.38c.47,1.77,2.17,3.36,3.66,4.32,1.65,1.07,3.76,1.5,5.65,.89,.77-.25,1.27-1.04,1.05-1.85-.21-.76-1.07-1.3-1.85-1.05-1.51,.49-3.04-.19-4.18-1.24-.52-.48-1.22-1.13-1.42-1.78,0-.03-.03-.29-.04-.16,0-.06,.11-.24,.02-.05,.04-.08,.12-.1,.05-.09,.06-.01,0,0,.14-.1,.02-.02,.25-.13,.06-.05,.09-.04,.2-.06,.29-.09,.05-.01,.29-.04,.05-.02,.1,0,.2,0,.31,0,.18,0,.33,.03,.51,.07,.5,.11,.99,.3,1.46,.49,.84,.33,1.67,.67,2.47,1.09,.4,.21,.8,.44,1.17,.7,.17,.12,.49,.43,.54,.53-.02-.04,.05,.42,.05,.2,0-.14,.12-.07-.01,.07,.02-.02,.01-.09,.05-.11,.12-.04,.22-.11,0-.06-.04,0-.28,.03-.07,.01-.11,0-.22,0-.32,0-.87-.01-1.82-.13-2.61-.53-.44-.22-.63-.36-.94-.74-.11-.14-.03-.05-.02-.03-.08-.11-.15-.23-.2-.36-.08-.17-.01-.05,0-.02-.03-.08-.05-.16-.07-.24-.06-.31-.09-.1-.09,.61l-.54,.54c-.48,.09-.55,.12-.23,.1,.12,0,.24,0,.36,0,.18,0,.36,.02,.54,.04,.22,.03,.77,.18,1.1,.3,.66,.23,1.34,.68,1.86,1.18l.66-2.51c-1.04,.34-1.91,.37-2.94,.06-.49-.14-.8-.29-1.28-.61-.03-.02-.32-.21-.18-.13l-.06-.06c-.31-.33-.32,.02-.03,1.05-.13,.01,.2-.08,.1-.05,.06-.02,.34-.11,.48-.13,.26-.04,.79,0,1.14,.07,.55,.11,1.14,.28,1.63,.49,.57,.25,1.15,.57,1.64,.95,.04,.03,.32,.29,.36,.34h-.01c.1,.15,.12,.18,.05,.08-.05-.14-.03-.26,.04-.36,.03-.06,.06-.1,.12-.14-.22,.28,.12-.04-.06,.05-.2,.11,.31-.05-.1,.04-.1,.02-.19,.05-.29,.07-.45,.11,.15,0-.12,.01-.69,.05-1.38,.05-2.07,.01-1.15-.06-2.23-.32-3.15-.9-.3-.19-.72-.55-.9-.83-.05-.08-.11-.17-.15-.26,.1,.21-.02-.08-.03-.14-.06-.21-.05,.27-.02-.11,.03-.33,0,.03-.04,.1-.1,.19-.27,.15,.02,.15,.31,0,.63,0,.94,0,.74,.02,1.48,.05,2.21,.16,.51,.07,1.05,.2,1.54,.37,.23,.08,.44,.17,.65,.29s.51,.32,.59,.39c.19,.16,.38,.34,.52,.54-.11-.15,.08,.14,.1,.18l.04,.07c.09,.17,.1,.2,.05,.1-.07,0,.39-.74,.39-.76l.09-.02c-.1,.03-.19,.06-.29,.08-.31,.08-.64,.13-.96,.17-1.18,.18-2.42,.21-3.56-.17-.77-.25-1.56-.79-1.97-1.48-.04-.07-.12-.32-.19-.36,.01,0,.04,.09,.01,.1,.38-.13-.3,.67-.39,.64,.03,.01,.27-.06,.28-.06-.18,.03,.09-.01,.11-.01,.17-.02,.34-.03,.51-.03,.28,0,.57,0,.85,.03-.2-.02,.15,.02,.19,.03,.14,.03,.28,.05,.42,.09,.28,.07,.55,.15,.82,.24,.41,.15,.87,.38,1.33,.68,.41,.26,.65,.46,1.03,.84,.08,.08,.25,.34,.35,.37-.01,0-.02-.06-.01-.05l.16-.73s.03-.05,.05-.06c0,0-.27,.05-.31,.05-.46,.02-.96-.16-1.45-.31-.68-.21-1.35-.42-2.02-.63-.3-.09-.62-.18-.91-.31,.07,.03,.18,.1-.06-.04-.13-.07-.26-.14-.38-.22,.23,.16-.11-.11-.13-.13,.19,.22-.15-.18,.04,.07-.12-.16-.02-.17-.02-.05,0,.3,.06-.19-.01,.04,.09-.3,.51-.42,.7-.41,.59,0,1.17,.25,1.74,.54,1.28,.65,2.62,1.28,3.81,2.08,.21,.14,.34,.24,.56,.48,.15,.16,.15,.16,.1,.09,.06,.09,.12,.18,.17,.27-.15-.22-.04-.43,.34-.63l.38-.56c-.19,0-.23,0-.12,0-.03,0-.37-.12-.3-.09-.1-.05-.21-.11-.31-.18-.16-.1-.2-.13-.12-.09-.21-.21-.19-.14,.04,.19v.8l-.61,.64c.08-.07,.15-.08,.21-.05,.06,.02,.16,0,.22,0,.67,.11,1.34-.08,1.69-.69,.32-.54,.27-1.39-.23-1.82l-.31-.27c-.61-.53-1.52-.6-2.12,0-.54,.54-.62,1.59,0,2.12h0Z"/><path class="g" d="M8.47,48.2s-.06,0-.1,0l.4,.05s-.06-.01-.09-.03l.36,.15s-.06-.03-.09-.06l.3,.23s-.09-.08-.13-.13l.23,.3c-.07-.09-.12-.18-.17-.28-.03-.05-.06-.1-.09-.15-.09-.12-.18-.24-.28-.36-.02-.02-.04-.05-.07-.07-.02-.02-.04-.04-.06-.06-.11-.09-.23-.19-.36-.27-.02-.01-.05-.03-.07-.04-.11-.05-.26-.12-.38-.16-.01,0-.03,0-.04-.01h-.03c-.07-.02-.14-.03-.22-.04-.07-.01-.14-.02-.21-.03-.02,0-.05,0-.07,0-.13,.01-.32,.02-.46,.07-.11,.04-.27,.1-.37,.16-.02,0-.03,.02-.04,.03-.17,.09-.32,.22-.42,.39-.13,.14-.22,.31-.27,.51-.06,.2-.07,.4-.03,.6,0,.2,.07,.39,.18,.56l.23,.3c.19,.19,.41,.31,.66,.39l.4,.05c.27,0,.52-.07,.76-.2,.02-.01,.04-.02,.06-.03l-.36,.15s.04-.01,.06-.02l-.4,.05s.05,0,.08,0l-.4-.05s.06,.01,.09,.03l-.36-.15s.09,.05,.14,.08l-.3-.23c.05,.04,.1,.09,.15,.15l-.23-.3c.06,.08,.1,.16,.15,.25,.11,.19,.24,.36,.38,.53s.31,.3,.49,.4c.14,.08,.3,.15,.46,.19,.14,.03,.34,.08,.51,.06,.21,0,.4-.04,.58-.13,.19-.06,.35-.16,.48-.31,.15-.14,.25-.3,.31-.48,.09-.18,.14-.37,.13-.58l-.05-.4c-.07-.25-.2-.47-.39-.66l-.3-.23c-.23-.14-.49-.2-.76-.2h0Z"/><path class="g" d="M6.57,47.08c-.53-.07-1.13,.33-1.39,.77-.29,.5-.28,1.14,0,1.65,.22,.38,.6,.73,.93,1.02,.65,.58,1.37,1.12,2.1,1.61,.76,.52,1.62,.89,2.56,.94s1.97-.31,2.57-1.04c.26-.32,.44-.64,.44-1.06,0-.37-.16-.81-.44-1.06-.55-.51-1.59-.65-2.12,0-.03,.04-.07,.08-.11,.12-.12,.15,.06-.05,.12-.08-.04,.02-.1,.06-.14,.09-.22,.15,.24-.07,.1-.03-.11,.03-.21,.06-.32,.08-.17,.04,.32-.01,.15-.02-.05,0-.11,0-.17,0s-.11,0-.17,0c-.18,0,.36,.08,.11,.01-.12-.03-.24-.07-.36-.11-.2-.06,.04,0,.09,.04-.04-.04-.12-.06-.17-.09-.13-.07-.26-.14-.38-.22-.46-.29-.89-.65-1.33-.96,.07,.05,.21,.17,.06,.05-.05-.04-.11-.08-.16-.13-.1-.09-.21-.17-.31-.26-.11-.1-.22-.21-.33-.31-.05-.05-.09-.1-.14-.15-.21-.23,0-.16,.14,.33v.8l.02-.05-.69,.9,.04-.03-.76,.2h.05c.35,.05,.82-.19,1.06-.43,.26-.26,.46-.69,.44-1.06s-.14-.79-.44-1.06c-.31-.29-.64-.39-1.06-.44h0Z"/><path class="g" d="M6.29,54.62c.7,2.82,1.99,5.66,4.27,7.55,.6,.5,1.54,.64,2.12,0,.51-.55,.65-1.59,0-2.12-.5-.41-.93-.88-1.35-1.37-.12-.14,.16,.23,0,0-.04-.06-.09-.12-.13-.18-.1-.13-.19-.27-.28-.41-.18-.28-.35-.56-.5-.86-.15-.28-.28-.56-.41-.85-.02-.04-.15-.33-.06-.13,.09,.19-.01-.04-.03-.08-.06-.15-.12-.31-.18-.47-.22-.62-.41-1.25-.57-1.89-.19-.76-1.09-1.29-1.85-1.05s-1.25,1.03-1.05,1.85h0Z"/><path class="g" d="M12.07,62.25c.34-.11,.07,0,0-.02,.16,.05,.32,.1,.48,.16,.32,.12,.63,.25,.96,.36,.62,.21,1.26,.37,1.91,.48,1.41,.25,2.99,.45,4.36-.09s2.33-1.55,2.77-2.92c.49-1.52,.02-3.08-.93-4.3-.48-.62-1.62-.55-2.12,0-.61,.66-.52,1.46,0,2.12-.14-.18,.21,.5,.13,.26,.04,.12,.07,.24,.1,.37,.05,.24,0-.31,.01,.13,0,.1,0,.2,0,.3,0-.23-.01,.06-.03,.12-.03,.11-.06,.22-.1,.33,.08-.2,0-.02-.05,.07s-.12,.2-.18,.29c.09-.12,.05-.07-.03,.01-.02,.02-.34,.31-.11,.13-.07,.06-.15,.1-.23,.15-.35,.21-.69,.26-1.09,.27-1.08,.03-1.88-.12-2.96-.42-1.19-.33-2.41-1.12-3.68-.7-.74,.25-1.31,1.05-1.05,1.85,.24,.74,1.05,1.31,1.85,1.05h0Z"/></svg>