<?xml version="1.0" encoding="UTF-8"?><svg id="a" xmlns="http://www.w3.org/2000/svg" viewBox="0 0 207.35 157.98"><defs><style>.b{fill:#3a2eff;}.c{fill:#fff;}.d{fill:#ff2ed2;}.e{fill:#4fff45;}.f{fill:#f7f5f4;}.g{fill:#fabaae;}.h{fill:#514425;}</style></defs><path class="f" d="M37.29,107.8c-2.18,2.89-3.77,6.4-4.48,9.95-.45,2.26-.66,4.48-.36,6.76,.25,1.87,.81,3.61,1.34,5.41,.33,1.13,.11-1.18,.03,.07-.07,1.11,.32-.78,.06-.16-.52,1.26,.41-.55,.05-.08-.05,.07-.53,.71-.5,.77,.56-.72,.64-.83,.24-.33l-.25,.29c-.25,.29-.51,.57-.77,.85-.77,.86-1.51,1.76-2.17,2.7-2.23,3.18-3.35,7.38-3.03,11.24,.28,3.43,2.53,5.73,6,6,3.74,.3,7.21-2.41,8.83-5.62,.66-1.32,1.14-2.77,1.63-4.17,.23-.68-.58,1.02-.17,.45,.55-.77,.06-.14-.26,.19,.65-.65-.35,.26-.41,.22-.01,0,1.37-.69,.28-.21-.84,.37-.02,.04,.17-.02,.24-.08,.48-.15,.73-.23,.58-.18,1.14-.38,1.71-.6,1.48-.58,2.97-1.22,4.35-2,2.42-1.38,4.69-3.16,6.62-5.16,2.65-2.74,2.2-7.48-1.21-9.42-.35-.2-.69-.4-1.03-.63-1.19-.81,.81,.79,0,0-.49-.48-.99-.95-1.45-1.46-.79-.88,.69,1.06,.1,.13-.22-.34-.45-.67-.65-1.01s-.38-.71-.57-1.06c-.53-.97,.46,1.29,.06,.17-.23-.65-.45-1.3-.6-1.98-.05-.22-.28-1.71-.14-.56s-.01-.35-.02-.57c-.03-.69,.06-1.37,.07-2.05-.02,1.74-.11,.76,0,.24,.1-.45,.22-.89,.36-1.33,.94-3-1.11-6.68-4.19-7.38-3.27-.74-6.37,.98-7.38,4.19-2.78,8.85,1.37,19.11,9.4,23.67l-1.21-9.42c-.72,.75-1.75,1.39-2.39,2.19,.2-.25,.89-.65,.24-.21-.22,.15-.44,.31-.67,.46-.45,.3-.91,.58-1.38,.85s-.95,.52-1.44,.75c-.23,.11-.52,.19-.74,.34,.27-.18,1.05-.41,.31-.15-1.23,.43-2.47,.79-3.67,1.3-3.3,1.39-5.12,3.88-6.39,7.14-.18,.46-.33,.92-.49,1.38-.08,.23-.17,.46-.25,.69-.22,.64,.59-.97,.15-.43-.11,.14-.62,.88-.04,.17s-.02-.06-.14,.08c-.24,.21-.17,.17,.19-.15,.2-.22,.44-.36,.72-.44,.28-.12,1.82-.26,.98-.32l6,6c-.06-.77-.03-1.51,0-2.27,.05-.47,.02-.28-.08,.57,.04-.2,.08-.41,.13-.61,.08-.34,.17-.67,.28-1,.06-.2,.13-.39,.21-.58,.16-.42,.1-.26-.2,.48-.06-.13,.43-.8,.49-.91,.08-.14,.39-.83,.57-.87-.5,.63-.61,.78-.33,.44,.12-.15,.25-.29,.37-.43,2.68-3.05,5.22-6.19,4.91-10.53-.15-2.04-.76-3.82-1.3-5.76-.1-.35-.16-.71-.26-1.05-.2-.68,.02,1.2,.03,.07,0-.44,0-.88,.02-1.32,.03-1.25-.28,1.17,0-.16,.15-.7,.29-1.4,.49-2.09,.12-.41,.25-.82,.4-1.22,.07-.19,.59-1.29,.17-.48s.15-.28,.24-.45c.19-.38,.4-.76,.62-1.13,.44-.74,.92-1.45,1.44-2.13,.87-1.16,.97-3.29,.6-4.62s-1.46-2.9-2.76-3.59c-1.39-.74-3.08-1.1-4.62-.6s-2.59,1.44-3.59,2.76h0Z"/><path class="f" d="M172.91,98.24c.48,.92,.94,1.84,1.38,2.79,.48,1.05-.28-.87,.08,.22,.18,.56,.39,1.11,.54,1.68,.07,.28,.13,.56,.2,.84,.04,.16,.15,.9,.03,.05s-.02-.12-.02,.05c0,.28,0,.56,.01,.84,.03,1.07,.33-.96,0,.06-.03,.1-.24,.81-.24,.82-.11-.14,.6-1.08,.1-.29-.25,.41-.52,.81-.77,1.22-.35,.57,.31-.39,.31-.39-.11,.21-.38,.47-.52,.65-.86,1.05-1.71,2.1-2.51,3.2-1.42,1.94-2.56,4.11-3.4,6.36-1.2,3.22-.31,6.95,2.2,9.29,2,1.87,4.37,2.49,6.96,3.01,.27,.06,.54,.13,.81,.19,.17,.04,.81,.31,.05-.03s-.14-.05,0,.04c.49,.31,.3,.45-.25-.26,.54,.71,1.38,1.31,2,1.97,1.56,1.66,3.26,3.1,5.09,4.46,3.74,2.78,8.24,4.72,12.8,5.62,2.15,.42,4.24,.06,5.84-1.54,1.48-1.48,2.17-3.81,1.54-5.84-1.08-3.48-3.11-6.46-5.68-9.03-2.04-2.04-4.38-3.76-6.43-5.79-.47-.46-.93-.94-1.36-1.44-.17-.2-.34-.4-.51-.6l.46,.6c-.14-.31-.47-.66-.66-.95-.15-.23-.71-1.62-.91-1.67,.33,.8,.41,.98,.26,.56-.06-.18-.12-.36-.17-.54-.07-.22-.11-1.01-.25-1.11,.21,.15,.25,1.79-.02-.22-.12-.89-.34-1.68-.78-2.47-.96-1.77-2.73-2.92-4.69-3.18-2.48-.33-4.78,.75-6.14,2.89-.88,1.39-1.26,3.49-.69,5.05,.96,2.62,2.96,4.26,5.79,4.4h.13c3.14,.16,6.14-2.87,6-5.99-.15-3.39-2.64-5.83-6-6h-.13l5.79,4.4-.05-.12v3.19l-.48,1.13-3.59,2.76,.16-.03-4.62-.6,.19,.12-2.15-2.15-.61-2.34,.04,.38c-.03,.48,.18,1.52,.3,2.16,.09,.5,.22,.98,.39,1.46,.5,1.43,1.13,2.87,1.97,4.15,1.47,2.24,3.29,4.23,5.28,6.01,1.66,1.48,3.41,2.86,4.99,4.44,.41,.41,.81,.84,1.2,1.28,.12,.14,.67,.86,.14,.14-.57-.78,.1,.15,.21,.32,.28,.42,.55,.86,.78,1.3,.1,.19,.61,1.21,.17,.32s.03,.22,.08,.37l7.38-7.38c-.86-.17-1.71-.37-2.55-.61-.39-.11-.77-.24-1.16-.37-.26-.09-.51-.18-.76-.27-.17-.06-1.03-.43-.22-.07s-.38-.18-.58-.27c-.43-.2-.85-.42-1.26-.64-.83-.45-1.64-.94-2.42-1.47-.3-.21-.65-.57-.99-.7,.01,0,.91,.75,.42,.32-.2-.18-.42-.34-.62-.52-.72-.61-1.4-1.27-2.05-1.95-1.49-1.56-3-3.21-4.94-4.21-1.06-.55-2.21-.98-3.38-1.22-.48-.1-.96-.17-1.43-.26-.39-.08-.96-.36-1.35-.34,.18,0,1.26,.69,.47,.15-.03-.02,.95,.86,.52,.41s.43,.61,.41,.56c.37,.63,.35,1.06,.34,1.81,0,1.82-.06,1,.11,.56-.49,1.23-.23,.48-.09,.2,.22-.46,.45-.91,.69-1.36,.45-.83,.95-1.63,1.49-2.4,.13-.18,.26-.35,.38-.53,.39-.55-.26,.36-.28,.37,.32-.13,.82-1,1.06-1.29,1.68-2.08,3.2-4.14,3.88-6.77,1.46-5.62-.81-11.07-3.37-15.97-1.46-2.79-5.57-3.85-8.21-2.15-2.84,1.83-3.71,5.23-2.15,8.21h0Z"/><path class="e" d="M48.45,86.8c.95,.71,2.09,1.21,3.22,1.55,.57,.17,1.14,.24,1.73,.32s1.21,.16,1.82,.15c2.42-.05,4.75-.74,6.87-1.89,.97-.53,1.78-1.63,2.07-2.69s.16-2.51-.45-3.47c-1.36-2.1-3.94-2.82-6.16-1.61-.32,.17-.65,.33-.99,.48l1.07-.45c-.85,.35-1.74,.6-2.65,.72l1.2-.16c-.73,.09-1.45,.09-2.18,0l1.2,.16c-.63-.09-1.24-.25-1.83-.49l1.07,.45c-.52-.22-.99-.5-1.44-.84-.87-.65-2.47-.73-3.47-.45s-2.18,1.09-2.69,2.07c-.55,1.04-.83,2.31-.45,3.47l.45,1.07c.4,.68,.94,1.21,1.61,1.61h0Z"/><path class="c" d="M42.83,81.64c-.23-.43-.46-.86-.69-1.29l-7.77,4.54c1.09,1.88,2.29,3.67,4.12,4.92,1.06,.72,2.52,1.17,3.81,1.09,1.14-.07,1.97-.32,2.99-.81,.36-.17,.63-.39,.96-.64,.64-.49,1.07-1.06,1.39-1.8,.11-.27,.21-.5,.31-.76l-.45,1.07c.07-.16,.15-.31,.25-.46l-.7,.91c.1-.12,.2-.23,.32-.32l-.91,.7c.12-.09,.25-.16,.38-.22l-1.07,.45c.72-.3,1.52-.3,2.25-.56,1.89-.67,3.59-1.89,4.45-3.77,.51-1.13,.8-2.22,.45-3.47-.29-1.04-1.09-2.18-2.07-2.69-1.04-.55-2.31-.83-3.47-.45-1.05,.34-2.21,1.02-2.69,2.07-.12,.26-.25,.51-.42,.74l.7-.91c-.15,.19-.31,.36-.5,.51l.91-.7c-.2,.15-.41,.27-.64,.38l1.07-.45c-.72,.29-1.51,.31-2.24,.56-1.02,.35-1.94,.79-2.72,1.58-.82,.84-1.32,1.77-1.68,2.88l2.07-2.69c-.16,.11-.33,.2-.5,.29l1.07-.45c-.2,.08-.39,.14-.6,.18l1.2-.16c-.19,.02-.37,.02-.57,0l1.2,.16c-.19-.03-.36-.08-.53-.15l1.07,.45c-.21-.1-.41-.21-.6-.35l.91,.7c-.41-.32-.75-.7-1.07-1.1l.7,.91c-.52-.68-.95-1.42-1.38-2.17-.57-.98-1.6-1.77-2.69-2.07s-2.51-.16-3.47,.45c-2.11,1.36-2.8,3.93-1.61,6.16,.23,.43,.46,.86,.69,1.29,.53,.97,1.63,1.78,2.69,2.07s2.51,.16,3.47-.45c2.1-1.35,2.82-3.94,1.61-6.16h0Z"/><path class="e" d="M92.91,71.85c2.8-4.74,4.42-9.96,4.97-15.42,.11-1.08-.58-2.44-1.32-3.18-.78-.78-2.06-1.37-3.18-1.32s-2.37,.43-3.18,1.32c-.85,.93-1.19,1.93-1.32,3.18-.04,.38-.08,.77-.13,1.15l.16-1.2c-.39,2.78-1.14,5.48-2.23,8.06l.45-1.07c-.58,1.36-1.24,2.67-1.99,3.94-1.2,2.03-.53,5.03,1.61,6.16s4.88,.55,6.16-1.61h0Z"/><path class="e" d="M72.81,84.23c1.6,.07,3.22-.12,4.79-.42,.59-.14,1.1-.41,1.53-.81,.49-.32,.88-.74,1.16-1.26,.33-.52,.51-1.07,.53-1.67,.13-.6,.11-1.2-.08-1.79l-.45-1.07c-.4-.68-.94-1.21-1.61-1.61l-1.07-.45c-.8-.21-1.6-.21-2.39,0-.27,.05-.55,.1-.82,.13l1.2-.16c-.92,.12-1.84,.16-2.77,.13-.62-.02-1.2,.11-1.73,.39-.56,.18-1.04,.49-1.45,.93-.44,.41-.75,.89-.93,1.45-.28,.54-.41,1.11-.39,1.73l.16,1.2c.21,.76,.6,1.42,1.16,1.99l.91,.7c.7,.41,1.46,.61,2.27,.61h0Z"/><path class="c" d="M43.05,85.64c.26-.22,.52-.43,.78-.64,.56-.46-.83,.58,.2-.14,.49-.34,.97-.68,1.48-1,1.05-.66,2.14-1.26,3.26-1.78,0,0,1.07-.45,.53-.24s.44-.16,.54-.2c.6-.22,1.21-.42,1.82-.6,1.17-.34,2.35-.56,3.54-.8,.67-.13-.75,.07-.07,0,.32-.03,.63-.07,.94-.09,.63-.05,1.26-.08,1.89-.09,1.21-.02,2.4,.07,3.6,.19,.7,.07-1.07-.2,.12,.03,.25,.05,.5,.09,.75,.14,.62,.12,1.24,.27,1.86,.44s1.23,.36,1.83,.57c.24,.09,.48,.18,.72,.27,1.2,.45-.82-.38,.35,.15l1.07-8.22-11.93,4.43c-1.51,.56-2.7,1.53-3.14,3.14-.41,1.49-.01,3.31,1.16,4.38,4.15,3.8,9.75,4.13,14.74,1.84,4.44-2.05,7.56-6.27,10.15-10.25,.6-.93,1.18-1.88,1.78-2.81,.15-.23,.3-.46,.45-.69,.09-.14,.52-.65,.02-.06,.13-.15,.26-.3,.4-.44,.28-.28,.67-.45,.16-.17,.94-.51,1.95-.88,2.88-1.41,1.24-.7,2.41-1.61,3.42-2.6,.9-.88,1.68-1.91,2.4-2.94,.16-.22,.3-.46,.47-.68,.42-.56-.29,.57,.08-.02,.26-.42-.38,.11,.07-.02,.3-.09,.61-.31,.9-.45-.76,.37-.05,.03,.1-.03,.29-.12,.58-.24,.87-.35,.58-.23,1.17-.47,1.75-.69,1.24-.48,2.49-.92,3.76-1.31,1.19-.36,2.39-.57,3.59-.86,.73-.18-.59,.04,.16-.03,.3-.03,.61-.06,.91-.08,.69-.04,1.37-.05,2.06-.02,.59,.03,1.18,.08,1.76,.16-.84-.1,.86,.15,1.02,.17,1.5,.25,3,.49,4.51,.66,2.91,.32,5.8-.03,8.47-1.26,2.09-.96,3.77-2.54,5.75-3.67,.49-.28,1-.54,1.51-.78,.81-.38,.26-.1,.09-.04,.26-.1,.52-.2,.79-.29,1.12-.38,2.27-.68,3.43-.9,.27-.05,.55-.1,.82-.15,.12-.02,.99-.14,.44-.07s.32-.03,.45-.04c.28-.03,.56-.06,.84-.08,1.19-.1,2.38-.16,3.58-.19,2.22-.07,4.48-.16,6.7,.05,.14,.01,.96,.15,.39,.04s.24,.06,.38,.09c.51,.11,1.01,.31,1.52,.42,.64,.14-.55-.33,.02,0,.17,.1,.36,.18,.53,.27,.24,.13,.46,.28,.69,.42,1.03,.65-.51-.56,.24,.21,.38,.39,.77,.75,1.12,1.16,.16,.18,.31,.37,.47,.56,.34,.4-.41-.58,.08,.12,.64,.92,1.28,1.85,1.93,2.76,1.66,2.35,3.42,4.38,5.83,5.99,1.71,1.14,3.63,1.9,5.47,2.8,.91,.45,1.77,.95,2.61,1.51,.67,.45-.02,0-.12-.09,.24,.24,.5,.44,.74,.68,.16,.16,.3,.34,.46,.51-.51-.55-.13-.15,.11,.24,1.25,1.99,4.07,2.96,6.16,1.61s2.95-4.02,1.61-6.16c-2.44-3.89-6.17-5.58-10.11-7.53-.82-.4-1.62-.83-2.38-1.34-.19-.13-.37-.26-.56-.39,.77,.53,.27,.21,.11,.06-.44-.42-.87-.83-1.27-1.29-.16-.18-.31-.38-.47-.56,.11,.13,.52,.71,.03,.03-.25-.35-.51-.71-.76-1.07-.61-.87-1.19-1.75-1.82-2.6-1.57-2.12-3.27-4.1-5.61-5.41s-4.92-1.84-7.58-2.06c-4.72-.39-9.74-.08-14.4,.71-2.6,.44-5.09,1.27-7.46,2.42-2.13,1.04-3.88,2.66-5.94,3.81-.09,.05-.88,.43-.42,.24s-.38,.11-.49,.14c-.25,.07-1.54,.26-.71,.19-.57,.05-1.15,.06-1.73,.04-.29-.01-.58-.03-.87-.05-.05,0-1.44-.17-.56-.05-2.68-.37-5.35-1-8.07-1.02-5.4-.04-10.52,1.92-15.43,3.95-1.53,.63-2.84,1.21-4.12,2.3-.62,.53-1.07,1.13-1.56,1.79-.12,.16-.24,.33-.36,.5-.03,.05-.8,1.14-.26,.43-.32,.43-.7,.83-1.09,1.2-.19,.19-.39,.36-.59,.54-.16,.14-.67,.42-.02,.03-.97,.6-1.94,1.08-2.97,1.56-2.83,1.32-4.42,3.92-6.02,6.46-.67,1.06-1.34,2.11-2.05,3.13-.16,.23-.32,.45-.48,.67-.05,.06-.87,1.08-.29,.39-.39,.46-.77,.93-1.19,1.38s-.83,.86-1.27,1.26c-.2,.18-.4,.34-.6,.51,.69-.61-.21,.13-.33,.21-.46,.3-.95,.54-1.44,.8-.57,.3,.69-.18,.06-.04-.29,.06-.57,.19-.86,.26-.23,.06-.47,.09-.7,.15,.56-.14,.53-.05-.03-.02-.23,.01-.47,.01-.7,0-1.03-.03-.01,.04-.01,.04-.1,.35-2.04-1.01-.9-.2-.18-.13-.43-.24-.62-.35-.8-.45,.52,.49-.24-.2l-1.99,7.52,11.93-4.43c1.72-.64,2.97-1.85,3.22-3.74,.22-1.62-.53-3.76-2.15-4.48-5.93-2.65-12.13-3.53-18.56-2.57s-11.76,3.78-16.49,7.76c-1.81,1.52-1.69,4.82,0,6.36,1.92,1.77,4.43,1.62,6.36,0h0Z"/><path class="c" d="M164.26,50.53c-.2-.2-.4-.39-.59-.6-.12-.12-.23-.25-.34-.38l.28,.37c-.2-.15-.3-.51-.44-.71-.31-.45,.26,.82,.06,.04,.13,.52-.08,.95-.07,1.43-.13,.28-.14,.32,0,.1,.18-.27,.12-.19-.2,.25,.49-.68,1.07-1.28,1.44-2.04,.73-1.52,1.07-3.11,1.1-4.8,0-.6-.05-1.2-.08-1.8-.02-.54,.11-.69-.07-.12l-.7,1.16c-2.31,.51-2.95,.81-1.91,.89l-2.27-.61,.25,.11c2.09,.89,4.32,.76,5.81-1.16,1.3-1.68,1.33-4.41-.35-5.91l-1.7-1.52-5.45,7.07c.14,.08,.27,.17,.41,.26,.27,.19,.18,.12-.28-.22,.16,0,.48,.45,.57,.55,.6,.63-.03,.18,.01-.05-.01,.07,.49,.73,.53,.81,.17,.28,.32,.57,.47,.86,.07,.14,.39,1,.17,.36s.08,.25,.12,.38c.11,.31,.2,.62,.29,.93,.81,2.78,1.24,5.62,2.37,8.3s4.33,4.29,7.16,2.82c1.94-1.01,2.69-3.18,3.05-5.2,.59-3.33,.46-6.77-.73-9.96-.64-1.72-1.85-2.97-3.74-3.22-1.66-.22-3.71,.54-4.48,2.15-1.28,2.64-2.06,5.5-1.94,8.46s.93,6.58,3.84,8.14c3.42,1.83,6.88,.18,9.06-2.65,.43-.56,.82-1.13,1.23-1.7,.11-.16,.66-.86,.07-.13,.15-.19,.31-.39,.47-.58,.8-.95,1.68-1.82,2.61-2.64l-7.07-5.45c-1.9,2.96-3.37,6.19-4.45,9.54-.75,2.35,.89,4.87,3.14,5.54,.95,.28,1.98,.39,2.96,.32,.64-.05,1.28-.16,1.92-.26,.24-.04,.48-.08,.72-.13,.46-.08,.48-.08,.06-.02-.4,.05-.39,.06,.02,.03,.41,.02,.41,0,.02-.05-.39-.07-.39-.06,0,.02-.29-.08-.54-.22-.75-.43-.48-.4-.57-.81-.77-1.34-.03-.38-.03-.36,0,.07,0,.23,.01,.45,0,.68l4.5-4.5c-1.95,.2-3.57,.62-5.32,1.53-2.1,1.08-2.88,4.19-1.61,6.16,1.38,2.14,3.91,2.77,6.16,1.61,.46-.22,.42-.22-.1,0,.17-.06,.34-.12,.51-.17,.27-.08,1.54-.26,.38-.14,2.42-.25,4.5-1.86,4.5-4.5,0-3.4-1.49-6.59-4.96-7.61-1.46-.43-2.88-.35-4.36-.13-.33,.05-1.08,.33-1.38,.23,.53-.06,.63-.08,.29-.05-.12,.01-.24,.02-.36,.01-.26,0-.24,0,.07,.04,.36,.07,.33,.04-.1-.06l3.14,5.54c.24-.75,.51-1.48,.78-2.21,.3-.8-.15,.29,.07-.19,.16-.36,.32-.71,.49-1.07,.65-1.35,1.39-2.66,2.2-3.92,1.21-1.89,.54-4.49-1.16-5.81-1.84-1.42-4.2-1.15-5.91,.35-1.51,1.33-2.8,2.82-4.01,4.42-.37,.49-.74,1.38-1.23,1.73,.38-.47,.41-.52,.09-.14-.14,.16-.29,.31-.45,.45l.42-.33c.38-.19,.78-.28,1.21-.26,.85,.01,1.8,.58,2.26,1.29-.45-.71,.24,.94-.05-.13-.04-.14-.07-.28-.1-.42-.09-.52-.09-.49,0,.08-.11-.21-.06-.89-.06-1.13,0-.44,.04-.88,.06-1.31,.03-.34,.02-.25-.04,.26,.04-.25,.09-.49,.15-.74,.08-.37,.18-.73,.3-1.09,.08-.24,.16-.47,.25-.71-.21,.5-.21,.51,0,.05l-8.22-1.07c.27,.72,.49,1.46,.65,2.21,.04,.19,.07,.38,.1,.57,.05,.33,.04,.25-.04-.24,.11,.21,.06,.92,.06,1.15,0,.39-.03,.77-.03,1.15,0,.96,.19-.69-.02,.33-.07,.31-.12,.63-.2,.94-.04,.19-.09,.37-.15,.56-.17,.55-.15,.49,.06-.19l1.61-1.61-.24,.13,2.27-.61-.25-.03,2.27,.61-.22-.15,1.61,1.61c-.5-.66,.18,.78-.14-.12-.15-.42-.29-.84-.42-1.27-.22-.74-.4-1.48-.57-2.23-.35-1.5-.66-3.02-1.16-4.48-1.17-3.38-3.03-6.4-6.14-8.31-1.92-1.18-4.47-.56-5.81,1.16s-1.33,4.41,.35,5.91l1.7,1.52,5.45-7.07c-1.9-.82-3.7-1.05-5.59-.01-1.39,.76-2.34,2.02-2.87,3.49-.45,1.24-.38,2.5-.31,3.79,.01,.28,.17,1.17,0,1.4,.1-.62,.11-.67,.02-.17-.04,.17-.08,.33-.14,.49-.11,.32-.07,.22,.12-.29-.27,.42-.23,.4,.12-.08-.44,.56-.92,1.1-1.3,1.71-.8,1.31-1.07,2.87-.87,4.37,.33,2.46,1.73,4.44,3.46,6.15s4.71,1.8,6.36,0,1.79-4.6,0-6.36h0Z"/><path class="c" d="M149.35,80.53c-4.26,3.71-5.87,9.37-6.25,14.8-.3,4.31,.73,8.6,.17,12.92l.32-2.39c-.04,.31-.1,.61-.16,.92-.44,2.31-.42,4.87,.91,6.94,1.08,1.67,2.46,2.91,4.3,3.68,4.16,1.75,8.86,.16,11.24-3.68s2.41-8.22,1.3-12.34c-.61-2.26-1.64-4.4-1.96-6.74l.32,2.39c-.06-.56-.07-1.11-.02-1.68l-.32,2.39c.07-.46,.18-.9,.34-1.34l-.91,2.15c.07-.18,.15-.35,.25-.52,2.07-4.02,1.33-8.79-2.32-11.61s-8.44-2.32-11.82,.7c-4.3,3.84-4.87,9.4-5.58,14.74l.32-2.39c-.6,4.31-2.09,8.37-3.77,12.36l.91-2.15c-2.05,4.84-4.36,9.6-5.89,14.64-.84,2.77-1.29,5.61-1.6,8.48-.22,2.08-.19,4.17-.45,6.24l.32-2.39c-.14,1-.36,1.97-.72,2.92l.91-2.15c-.26,.59-.56,1.13-.95,1.65l1.41-1.82c-.28,.33-.58,.63-.91,.91l1.82-1.41-.27,.2c-1.95,1.46-3.46,2.94-4.14,5.38-.59,2.15-.33,5.02,.91,6.94s3.08,3.61,5.38,4.14c2.46,.56,4.66,.2,6.94-.91,4.73-2.3,8.67-6.11,11.52-10.49,2.61-4.01,3.74-8.76,5.58-13.13l-.91,2.15c.64-1.46,1.37-2.85,2.31-4.13l-1.41,1.82c1.19-1.54,2.63-2.8,4.16-3.99l-1.82,1.41c4.12-3.17,8.44-5.99,11.14-10.57,3.08-5.24,2.88-11.16,3.63-16.97l-.32,2.39c1.17-8.38,4.55-16.47,4-25.06-.15-2.29-.88-4.75-2.64-6.36-1.85-1.7-3.87-2.41-6.36-2.64-5.35-.48-11.1,1.05-15.61,3.93l13.22,5.38c-.61-2.91-1.47-5.88-3.2-8.34-2.16-3.08-5.1-5.26-8.33-7.12-5.61-3.24-11.74-5.25-18.25-5.38-5.94-.12-12.04,1.09-17.82,2.37-5.01,1.11-9.94,2.57-14.75,4.35-3.31,1.22-6.58,2.59-9.8,4.05-2.68,1.22-5.26,2.66-7.98,3.82l2.15-.91c-1.24,.5-2.49,.9-3.81,1.11l2.39-.32c-.29,.04-.59,.07-.88,.09l6.36,15.36c1.43-1.71,3.05-3.21,4.8-4.57l-1.82,1.41c3.23-2.46,6.79-4.42,10.35-6.35l-9.08-15.54c-6.84,5.22-13.44,11.17-21.43,14.56l2.15-.91c-9,3.78-17.58,7.98-25.57,13.64l13.22,5.38c-.15-.56-.26-1.11-.33-1.68l.32,2.39c-.08-.86-.08-1.71,.01-2.57l-.32,2.39c.1-.72,.26-1.4,.48-2.09l-17.68-2.39c-.02,3.89,.13,7.78,.44,11.66l15.36-6.36c-.28-.23-.51-.46-.74-.73l1.41,1.82c-.21-.29-.38-.57-.54-.9l.91,2.15c-.18-.44-.3-.87-.37-1.34l.32,2.39c-.03-.36-.03-.69,0-1.05l-.32,2.39c.06-.36,.14-.67,.26-1.01l-15.04,3.97c1.17,1.09,2.25,2.27,3.23,3.54l-1.41-1.82c1.45,1.93,2.64,4,3.59,6.21l-.91-2.15c.97,2.35,1.63,4.79,1.97,7.31l-.32-2.39c.08,.66,.14,1.32,.18,1.99l11.39-8.68c-.17-.02-.34-.05-.5-.11l2.15,.91c-.25-.11-.43-.22-.65-.38l1.82,1.41c-.13-.11-.25-.23-.35-.36l1.41,1.82c-.16-.22-.28-.42-.39-.66l.91,2.15c-.1-.25-.16-.48-.22-.75l.32,2.39c-.03-.27-.04-.5-.02-.77l-.32,2.39c.04-.26,.1-.48,.19-.73l-.91,2.15c.07-.15,.15-.3,.26-.43l-1.41,1.82c.11-.14,.23-.26,.36-.36l-15.04-8.76c-.39,2.29-.84,4.64-.71,6.97,.19,3.42,1.19,6.45,3.28,9.17,1.16,1.5,2.54,2.72,3.84,4.1,1.12,1.19,2.16,2.46,3.16,3.75l-1.41-1.82c4.32,5.64,8.06,12.04,13.75,16.44,1.63,1.26,3.05,2.19,5.17,2.48,1.92,.26,4.06,.01,5.74-1.07,1.3-.84,2.39-1.93,3.23-3.23,1.11-1.72,1.68-4.98,.91-6.94-2.01-5.07-4.18-10.09-6.57-15-2.06-4.24-4.49-8.31-6.34-12.65l.91,2.15c-1.29-3.12-2.07-6.36-2.54-9.7l.32,2.39c-.41-3.2-.58-6.42-.72-9.63l-17.68,2.39c2.26,6.81,4.31,13.69,6.15,20.63,1.15,4.34,5.53,7.03,9.87,6.45s8.04-4.35,7.8-8.84c-.31-5.95-2.1-11.59-2.96-17.44l.32,2.39c-.28-2.1-.39-4.18-.13-6.29l-.32,2.39c.16-1.12,.43-2.2,.8-3.27l-13.22,5.38,8.41,5.04c3.17,1.9,6.37,4.1,9.99,5.06,4.34,1.15,8.81,.57,13.1-.48,3.28-.8,6.54-1.66,9.8-2.49,4.35-1.11,7.03-5.56,6.45-9.87-.25-1.89-1.03-3.84-2.48-5.17-1.65-1.52-4.03-2.88-6.36-2.64-4.14,.43-8.14,1.15-12,2.74-1.45,.6-2.84,1.18-3.97,2.31-1.41,1.41-2.21,3.22-2.48,5.17-.45,3.33,1.09,7.4,4.3,8.97,2.71,1.33,5.44,2.14,8.5,2.13,2.41,0,4.89-.48,7.21-1.14,3.6-1.01,7.06-2.19,10.79-2.72l-2.39,.32c3.88-.51,7.77-.52,11.65-.04l-2.39-.32c1.29,.18,2.62,.33,3.86,.74l-2.15-.91c.23,.09,.45,.2,.65,.35l-1.82-1.41,.27,.25-1.41-1.82c.13,.14,.22,.3,.28,.49l-.91-2.15,.07,.28-.32-2.39c.03,.19,.02,.37-.02,.55l.32-2.39-.09,.25,.91-2.15-.15,.21,3.23-3.23-.21,.16,6.94-.91c-1.64-.61-3.29-1.18-4.91-1.83l2.15,.91-.32-.18,1.82,1.41-.24-.26,2.31,3.97-.13-.35,.32,2.39v-.38l-.33,2.39c.12-.84,.37-1.63,.7-2.42l-.91,2.15c.39-.86,.88-1.66,1.45-2.41l-1.41,1.82c.91-1.14,1.96-2.13,3.12-3.03l-1.82,1.41c2.95-2.21,6.32-3.62,9.57-5.31,4.48-2.33,8.27-5.38,11.16-9.54,.82-1.19,1.23-3.12,1.23-4.54,0-2-.72-3.89-1.93-5.45-2.32-3.01-5.81-3.91-9.46-3.23-3.2,.6-5.42,3.06-8.31,4.34l2.15-.91c-3.81,1.58-7.95,1.97-11.97,2.74-4.48,.86-8.91,1.94-13.32,3.08-8.73,2.24-17.43,4.66-26.38,5.87l2.39-.32c-3.05,.4-6.1,.66-9.17,.73l4.54,16.77c5.32-2.99,10.65-5.96,16.27-8.36l-2.15,.91c3.38-1.42,6.84-2.64,10.41-3.48,3.75-.88,7.56-1.42,11.32-2.25,7.42-1.65,14.56-4.32,21.93-6.16,4.57-1.14,7.76-6.52,6.29-11.07s-6.17-7.51-11.07-6.29c-8.22,2.05-16.18,5.08-24.51,6.7-4.13,.8-8.28,1.45-12.3,2.68-4.44,1.36-8.75,3.2-12.93,5.21s-8.26,4.29-12.32,6.57c-3.33,1.87-5.34,6.45-4.14,10.16s4.61,6.7,8.68,6.61c9.88-.22,19.64-2.25,29.18-4.66,8.92-2.25,17.76-4.59,26.83-6.17,2.32-.4,4.64-.88,6.84-1.75,1.6-.63,3.25-1.28,4.71-2.2,.99-.63,1.86-1.43,2.9-1.97l-2.15,.91c.37-.15,.68-.25,1.07-.32l-10.16-13.22c-.14,.21-.29,.42-.44,.62l1.41-1.82c-.86,1.09-1.84,2.04-2.93,2.89l1.82-1.41c-3.68,2.77-8.08,4.24-11.97,6.64-5.24,3.24-10.19,8.07-11.49,14.33-.93,4.48,.36,9.04,4.46,11.54,1.63,.99,3.74,1.57,5.55,2.25,1.04,.39,1.9,.69,3.02,.84,2.78,.37,5.82-.51,7.77-2.64,2.5-2.72,3.55-6.45,2.51-10.05s-3.96-6.23-7.49-7.37c-1.25-.4-2.57-.56-3.86-.74-3.44-.48-6.85-.81-10.32-.63-3.74,.19-7.53,.72-11.15,1.67-2.98,.77-5.85,1.97-8.9,2.42l2.39-.32c-.97,.12-1.91,.15-2.88,.06l2.39,.32c-.68-.1-1.32-.25-1.97-.49l2.15,.91c-.26-.1-.51-.22-.76-.35l-2.15,16.45c2.66-1.09,5.41-1.85,8.26-2.26l-2.39,.32c.45-.06,.9-.11,1.35-.16l-2.39-17.68c-4.38,1.12-8.8,2.55-13.28,3.18l2.39-.32c-1.24,.14-2.46,.18-3.7,.03l2.39,.32c-.9-.15-1.73-.39-2.57-.73l2.15,.91c-2.53-1.13-4.87-2.74-7.24-4.16l-7.57-4.53c-2.47-1.48-5.41-1.55-8.01-.45s-4.25,3.11-5.21,5.83c-3.15,8.96,.51,17.9,1.73,26.81l-.32-2.39c.11,.86,.19,1.72,.23,2.59l17.68-2.39c-1.83-6.94-3.88-13.82-6.15-20.63-1.42-4.28-5.32-7.06-9.87-6.45-4.23,.57-8.01,4.35-7.8,8.84s.52,8.63,1.17,12.94,2.06,8.25,3.86,12.2c1.54,3.37,3.4,6.59,5.05,9.9s3.29,6.87,4.77,10.38l-.91-2.15c.55,1.32,1.1,2.64,1.62,3.97l15.04-8.76c-2.59-2-4.74-4.43-6.73-7.01l1.41,1.82c-2.15-2.81-4.15-5.72-6.32-8.52-1.16-1.5-2.31-2.98-3.6-4.38-1.1-1.19-2.36-2.23-3.4-3.47l1.41,1.82c-.32-.43-.58-.87-.81-1.36l.91,2.15c-.25-.64-.4-1.27-.5-1.95l.32,2.39c-.1-1.12-.04-2.22,.09-3.33l-.32,2.39c.08-.55,.16-1.11,.26-1.66,.35-2.07,.38-3.88-.45-5.86-.73-1.73-1.98-3.4-3.68-4.3-3.71-1.96-7.78-1.33-10.91,1.41s-4.1,7.52-3.01,11.43,4.31,7.55,8.31,8.17c2.96,.45,5.41,.27,7.85-1.61,2.12-1.64,3.71-4.27,3.55-7.07-.57-9.59-4.52-18.82-11.61-25.42-2.37-2.21-5.57-3.19-8.76-2.31s-5.22,3.26-6.29,6.29c-1.61,4.57-.05,10.67,3.71,13.79,1.19,.99,2.45,1.9,3.97,2.31,1.96,.54,4.01,.33,5.86-.45,3.07-1.3,5.82-4.69,5.53-8.22-.31-3.88-.46-7.77-.44-11.66,.02-4.49-3.44-8.25-7.8-8.84s-8.51,2.13-9.87,6.45c-1.13,3.58-1.11,7.51-.16,11.13,.71,2.71,2.68,4.77,5.21,5.83s5.72,1.17,8.01-.45c6.51-4.62,13.48-8.52,20.82-11.65l-2.15,.91c2.87-1.21,5.81-2.31,8.58-3.76,2.04-1.07,3.93-2.39,5.77-3.76,3.98-2.97,7.89-6.02,11.83-9.03,1.95-1.49,3.46-2.92,4.14-5.38,.59-2.15,.33-5.02-.91-6.94-2.71-4.21-7.88-5.63-12.31-3.23-6.12,3.31-12.44,6.92-16.97,12.33-2.38,2.85-3.37,6.26-1.86,9.83,1.29,3.07,4.69,5.82,8.22,5.53,2.12-.17,4.25-.46,6.26-1.19s3.79-1.55,5.62-2.46c2.66-1.33,5.33-2.62,8.07-3.79l-2.15,.91c9.2-3.87,18.9-6.59,28.8-7.93l-2.39,.32c3.05-.39,6.11-.57,9.17-.21l-2.39-.32c2.38,.33,4.65,1.01,6.86,1.94l-2.15-.91c2.53,1.11,5.02,2.47,7.24,4.12l-1.82-1.41c.67,.54,1.28,1.1,1.82,1.77l-1.41-1.82c.41,.57,.74,1.15,1.04,1.78l-.91-2.15c.6,1.42,.94,2.91,1.26,4.41,1.17,5.58,8.53,8.37,13.22,5.38,.82-.52,1.66-.98,2.55-1.37l-2.15,.91c1.42-.59,2.86-1,4.38-1.24l-2.39,.32c1.38-.18,2.75-.21,4.14-.09l-9-9c.12,1.95,.03,3.88-.21,5.81l.32-2.39c-.56,4.12-1.72,8.12-2.62,12.17-1.02,4.59-1.24,9.22-1.82,13.87l.32-2.39c-.21,1.52-.54,2.99-1.13,4.42l.91-2.15c-.41,.9-.91,1.73-1.51,2.52l1.41-1.82c-1.12,1.39-2.45,2.55-3.85,3.64l1.82-1.41c-2.04,1.57-4.15,3.06-6.13,4.71s-3.5,3.49-4.89,5.56c-2.67,3.96-3.78,8.78-5.61,13.14l.91-2.15c-.73,1.69-1.61,3.27-2.71,4.74l1.41-1.82c-1.11,1.43-2.37,2.69-3.8,3.8l1.82-1.41c-1.13,.85-2.33,1.58-3.61,2.2l9.08,15.54c2.04-1.53,3.9-3.08,5.09-5.41,.82-1.61,1.52-3.35,1.82-5.14,.54-3.25,.52-6.49,.92-9.75l-.32,2.39c.59-4.3,2.09-8.36,3.76-12.34l-.91,2.15c1.69-3.98,3.52-7.91,4.99-11.97s2.1-8.14,2.67-12.43l-.32,2.39c.19-1.35,.43-2.67,.91-3.94l-.91,2.15c.28-.66,.61-1.25,1.05-1.82l-1.41,1.82c.24-.28,.48-.52,.75-.76l-14.14-10.91c-2.03,3.94-2.26,8.1-1.09,12.35,.61,2.2,1.6,4.29,1.91,6.57l-.32-2.39c.06,.55,.07,1.09,.01,1.65l.32-2.39c-.07,.45-.18,.88-.35,1.3l.91-2.15c-.12,.26-.25,.5-.4,.74l16.45,6.94c.64-3.39,.75-6.62,.5-10.04-.18-2.44-.37-4.86-.08-7.29l-.32,2.39c.18-1.34,.49-2.63,1.01-3.89l-.91,2.15c.34-.77,.75-1.47,1.25-2.15l-1.41,1.82c.38-.47,.79-.89,1.24-1.29,1.67-1.45,2.64-4.22,2.64-6.36s-.98-4.84-2.64-6.36-3.97-2.74-6.36-2.64-4.49,1-6.36,2.64h0Z"/><path class="c" d="M140.57,67.12c.76-.29,1.54-.48,2.35-.59l-1.99,.27c.92-.11,1.84-.1,2.77,.01l-1.99-.27c1.04,.14,2.04,.42,3.01,.83l-1.79-.76c.85,.37,1.65,.84,2.39,1.4l-1.52-1.17c.68,.54,1.29,1.15,1.83,1.84,.68,.73,1.48,1.25,2.41,1.55,.89,.47,1.86,.68,2.89,.65,1.84,0,4.04-.82,5.3-2.2s2.29-3.31,2.2-5.3l-.27-1.99c-.36-1.27-1-2.37-1.93-3.31-1.09-1.41-2.57-2.55-4.05-3.51s-3.18-1.67-4.86-2.15c-.86-.24-1.73-.35-2.61-.47s-1.81-.25-2.73-.22c-1.19,.03-2.38,.22-3.54,.42-.63,.11-1.24,.29-1.84,.51-.98,.23-1.83,.68-2.55,1.34-.82,.53-1.46,1.23-1.93,2.1-.94,1.61-1.34,3.98-.76,5.78s1.71,3.57,3.45,4.48,3.91,1.46,5.78,.76h0Z"/><path class="h" d="M41.2,98.21c-10.56,4.67-16.37,17.98-12.75,28.92,.11,.33,.19,.76,.36,1.05,.6,1.1-.21-.87,.53-.8-.42-.04-1.74,1.26-1.99,1.47-1.12,.95-2.06,2.1-2.86,3.32-1.62,2.48-2.48,5.44-2.64,8.38-.34,6.26,3.45,12.89,9.72,14.61,3.93,1.08,7.91-.35,10.81-3.07s4.5-6.82,5.87-10.62l-2.89,2.2c9.14,.49,14.92-7.4,19.17-14.33,2.03-3.3-3.16-6.32-5.18-3.03-3.12,5.07-7.17,11.72-13.99,11.36-1.39-.07-2.46,1-2.89,2.2-.93,2.58-1.87,5.4-3.78,7.43-.74,.79-1.64,1.51-2.59,1.89-1.07,.43-1.97,.45-2.93,.18-2-.55-3.64-2.24-4.57-4.23-.68-1.46-.94-3.84-.67-5.44,.36-2.16,1.19-4.04,2.48-5.46,.91-1.01,1.49-1.28,2.57-2.13,1.61-1.27,2.16-3.15,1.71-5.14-.27-1.2-.77-2.33-1.02-3.54-.23-1.09-.29-1.84-.29-3.19,0-2.3,.34-4.1,1.18-6.43,.34-.96,.83-2,1.47-3.09,.71-1.21,1.24-1.96,2.1-2.91,1.8-2.01,3.58-3.3,6.11-4.42,1.48-.66,1.83-2.82,1.08-4.1-.89-1.53-2.62-1.73-4.1-1.08h0Z"/><path class="h" d="M177.57,90.9c5.7,4.96,8.46,12.77,6.97,19.99-.35,1.68,.48,3.11,2.1,3.69,7.8,2.81,13.9,10.77,14.61,18.93,.09,1.07,.19,2.23,0,3.29-.17,.96-.52,1.52-1.25,2.16-.54,.47-1.29,.82-2.16,1.04-.74,.19-1.67,.25-2.67,.03-5.15-1.1-8.43-5.86-11.96-9.35-1.25-1.24-2.61-2.36-4.35-2.81-1.32-.34-2.68-.08-3.93-.56-1.91-.73-3.57-3-4.87-4.82-.94-1.32-2.62-1.95-4.1-1.08-1.31,.76-2.02,2.78-1.08,4.1,1.73,2.44,3.57,4.88,6.14,6.5,1.37,.86,2.91,1.35,4.52,1.52,.56,.06,1.2-.02,1.73,.12,.59,.16,.94,.53,1.39,.96,4.56,4.38,8.67,10.11,15.33,11.28,2.98,.52,6.11,.17,8.7-1.5,2.89-1.87,4.41-4.71,4.63-8.12,.36-5.53-1.6-11.41-4.61-15.99-3.49-5.3-8.49-9.33-14.46-11.49l2.1,3.69c1.94-9.37-1.24-19.51-8.51-25.83-1.22-1.06-3.04-1.2-4.24,0-1.09,1.09-1.23,3.18,0,4.24h0Z"/><path class="h" d="M44.12,88.02c-3.44,3.49-4.94,8.98-3.25,13.67s5.68,8.11,10.5,8.77l-2.1-3.69c-1.11,5.43-1.75,11.3,.87,16.42,2.17,4.23,6.86,7.62,11.77,7.09l-2.89-3.8c-.87,4.29-.79,9.05,2.2,12.54,2.68,3.13,7.06,4.19,10.77,2.4l-4.41-1.79c1.53,4.22,3.63,8.3,7.24,11.1,3.41,2.64,8.26,3.87,12.39,2.26,4.54-1.77,7-6.14,7.51-10.82s-1.02-9.58-2.83-13.83-4.77-8.45-8.97-10.95l1.08,4.1c4.45-8.88,1.66-19.92-6.32-25.76l1.38,3.39c.86-3.07,.43-6.32-1.23-9.04-2-3.29-7.19-.28-5.18,3.03,.85,1.4,1.07,2.84,.62,4.42-.39,1.39,.29,2.59,1.38,3.39,5.23,3.82,7.01,11.89,4.17,17.55-.73,1.46-.39,3.23,1.08,4.1,2.58,1.53,4.38,3.86,5.77,6.53,1.51,2.91,2.66,6.34,3.05,9.61,.34,2.85-.07,6.33-2.52,8.12-1.99,1.45-4.8,1-6.97-.31-3.01-1.81-4.71-5.3-5.87-8.49-.7-1.92-2.57-2.68-4.41-1.79-.08,.04-.48,.12-.68,.12-.3,0-.54,0-1.13-.24-.39-.15-1.33-.87-1.62-1.28-1.35-1.94-1.17-4.57-.73-6.77,.35-1.71-.82-4.02-2.89-3.8-1.61,.17-2.73-.08-4.13-1.11-1.04-.76-2.02-2.01-2.61-3.34-1.51-3.39-.86-7.81-.11-11.47,.29-1.42-.41-3.46-2.1-3.69-2.84-.39-5.33-2.03-6.31-4.58-1.04-2.71-.35-5.75,1.71-7.84,2.72-2.75-1.52-7-4.24-4.24h0Z"/><path class="h" d="M143.21,82.58c-3.99,1.75-6.9,5.68-7.92,9.87-1.2,4.94,0,10.07,2.42,14.45l.47-3.64c-5.28,4.74-9.27,10.73-11.79,17.35-1.24,3.25-2.04,6.64-2.45,10.1-.46,3.82,.76,8.87,5.28,9.56l-1.79-4.41c-3.15,4.3-6.07,9.23-4.67,14.78,1.32,5.22,6.4,7.81,11.5,7.26,9.22-.98,17.43-8.1,21.83-15.95,2.57-4.59,4.04-9.71,4.25-14.97l-2.2,2.89c5.95-.96,11.43-4.46,15.14-9.16,4.15-5.26,6.21-11.78,6.28-18.46,.02-1.59-.1-3.17-.3-4.75-.11-.84-.23-1.67-.39-2.51-.09-.46-.38-1.3-.29-1.65,.13-.53,.79-1.17,1.09-1.61,.42-.61,.8-1.24,1.14-1.89,.69-1.3,1.27-2.69,1.72-4.1,1.86-5.81,1.39-12.23-1.06-17.79-2.77-6.3-9.26-12.3-16.62-10.49-3.75,.92-2.16,6.71,1.6,5.79,1.96-.48,4.14,.46,5.81,1.94,1.78,1.58,3.12,3.55,4.03,5.79,1.72,4.23,1.83,9.1,.34,13.52-.32,.94-.66,1.71-1.18,2.64-.68,1.22-1.63,2.27-2.23,3.52-1.38,2.87,.04,6,.25,8.99,.39,5.56-.7,11.2-3.81,15.89s-7.75,7.67-13.13,8.54c-1.32,.21-2.15,1.68-2.2,2.89-.27,6.94-3.48,13.72-8.59,18.63-2.46,2.36-5.55,4.46-8.7,5.56-1.77,.62-3.3,.96-5.12,.77,.18,.02-.59-.12-.74-.16-.45-.12-.38-.08-.71-.25-.64-.33-1.08-.69-1.47-1.33-.87-1.45-.72-3.33-.17-4.99,.76-2.33,2.36-4.36,3.79-6.31,1.06-1.45,.02-4.13-1.79-4.41-.13-.02-.73-.24-.55-.13,.25,.14-.2-.31-.15-.16-.09-.26-.29-.62-.32-1.18-.08-1.36,.19-2.74,.45-4.07,.52-2.69,1.31-5.35,2.39-7.87,2.23-5.19,5.59-9.79,9.79-13.56,1-.9,1.09-2.51,.47-3.64-3.09-5.59-3-13.33,3.35-16.11,1.48-.65,1.83-2.82,1.08-4.1-.89-1.53-2.62-1.73-4.1-1.08h0Z"/><path class="d" d="M85.59,58.33c3.86,0,3.87-6,0-6s-3.87,6,0,6h0Z"/><path class="h" d="M87.17,58c4.66-2.62,10.07-3.65,15.38-3.04,2.42,.28,4.87,.95,7.09,1.95,1.81,.81,3.49,1.49,5.42,.56,1.3-.62,2.34-1.74,3.51-2.57,8.72-6.13,20.08-7.55,29.89-3.46,5.05,2.1,9.7,5.64,12.97,10.06,.96,1.3,2.6,1.96,4.1,1.08,1.28-.75,2.05-2.79,1.08-4.1-7-9.46-18.14-15.44-30-15.38-6.12,.03-12.21,1.61-17.6,4.49-1.32,.71-2.6,1.5-3.81,2.38-.65,.47-1.28,.96-1.91,1.46-.17,.14-.49,.34-.63,.52,.14,.02,.04,.09-.3,.2,.78-.01,1-.09,.67-.24-.28-.43-1.82-.81-2.21-.96-.63-.25-1.27-.49-1.91-.7-1.42-.46-2.88-.79-4.36-1.02-7.03-1.08-14.21,.1-20.42,3.6-3.37,1.89-.34,7.08,3.03,5.18h0Z"/><path class="h" d="M85.21,113.43c7.87,2.27,16.34,2.33,24.25,.22,1.92-.51,3.79-1.17,5.62-1.94,1.02-.43,2.04-.88,3.03-1.38,.24-.12,.99-.4,1.16-.6,.41-.07,.18-.09-.69-.07,.19,.13,.37,.26,.55,.4,3.36,2.45,7.58,3.65,11.73,3.29,1.61-.14,3-1.28,3-3,0-1.51-1.38-3.14-3-3-1.86,.16-3.61,0-5.38-.62s-3.12-2.13-4.88-2.72c-2.33-.78-4.26,.54-6.28,1.51-1.68,.8-3.43,1.45-5.22,1.99-7.27,2.18-15,2.23-22.29,.13-3.72-1.07-5.3,4.72-1.6,5.79h0Z"/><path class="h" d="M157.91,45.13c-.59-2.54-1.44-5.72-.4-8.17,.69-1.61,2.09-2.83,3.66-2.26,1.29,.47,2.53,1.47,3.65,2.23,1.05,.71,2.04,1.48,2.93,2.39,1.65,1.7,2.65,3.89,1.92,6.1-1.05,3.19,3.99,5.39,5.48,2.31,.49-1.02,1.15-1.8,2.14-2.17,.86-.32,1.54-.19,2.33,.41,.15,.11,.46,.48,.61,.82,.09,.19,.05,.04,.1,.4-.06-.41-.09,.49,0,.1-.15,.65-.17,.71-.53,1.05-.3,.29-.09,.14-.48,.33,.33-.15-.54,.04-.11,0v6c.46-.06,.93-.11,1.4-.05-.3-.04,.58,.16,.58,.16,.45,.14,1.03,.5,1.37,.83,.84,.81,1.09,1.89,.89,2.88-.23,1.13-.84,2.05-2.03,2.6-1.55,.71-3.3,.76-4.97,.82s-3,1.33-3,3c0,1.58,1.37,3.06,3,3,2.84-.11,5.79-.39,8.31-1.83s4.18-3.89,4.59-6.69-.37-5.78-2.42-7.9c-1.94-2.01-4.92-3.17-7.7-2.82-1.61,.2-3,1.23-3,3,0,1.54,1.37,3.11,3,3,6.38-.43,9.34-8.18,4.82-12.75s-11.52-2.49-14.08,2.78l5.48,2.31c1.37-4.16-.33-8.54-3.18-11.64-1.29-1.4-2.86-2.56-4.43-3.63-1.72-1.17-3.55-2.46-5.6-2.96-3.97-.98-7.89,1.4-9.76,4.86-2.21,4.08-1.35,8.79-.35,13.08,.37,1.58,2.17,2.51,3.69,2.1,1.62-.44,2.46-2.11,2.1-3.69h0Z"/><path class="h" d="M43.68,87.86c-.49,.43,.46-.25-.06,.05-.05,.03-.53,.27-.55,.31,.37-.14,.44-.18,.23-.1-.1,.04-.2,.07-.3,.1-.1,.03-.57,.2-.61,.15l.38-.05c-.14,.02-.28,.03-.42,.03-.18,0-.35-.02-.53,0-.23-.02-.14,0,.27,.05-.1-.02-.21-.04-.31-.06-.17-.04-.34-.1-.51-.14-.61-.15,.44,.27-.06-.03-.2-.12-.4-.24-.6-.37-.63-.41,.43,.4-.13-.11-.17-.16-.35-.31-.52-.47-.31-.29-.62-.6-.91-.91-.16-.17-.32-.35-.47-.53-.06-.07-.53-.67-.28-.34s-.13-.2-.18-.26c-.13-.19-.26-.39-.39-.59-.25-.4-.46-.81-.67-1.23-.28-.56,.15,.51-.06-.14-.07-.22-.16-.44-.23-.66-.13-.42-.21-.83-.29-1.26-.07-.36,.02,.56,0-.02,0-.24-.03-.47-.03-.71s.02-.47,.03-.7c.03-.76-.15,.61,.02-.13,.08-.37,.13-1.04,.38-1.34l-.12,.29c.05-.11,.1-.21,.15-.31,.12-.24,.26-.47,.41-.7h-5.18l.19,.44c.63,1.44,2.85,1.88,4.1,1.08,1.5-.96,1.75-2.56,1.08-4.1l-.19-.44c-.41-.94-1.63-1.49-2.59-1.49-1.09,0-2.01,.59-2.59,1.49-1.56,2.42-1.92,5.34-1.47,8.14,.42,2.58,1.75,4.87,3.36,6.88s3.6,3.84,6.04,4.43c2.82,.68,5.67-.1,7.83-2,1.18-1.04,1.14-3.19,0-4.24-1.26-1.16-2.98-1.11-4.24,0h0Z"/><path class="b" d="M65.85,30.25v-2.16c.04-1.03-.18-2-.65-2.89-.3-.93-.82-1.73-1.55-2.41-.68-.73-1.48-1.25-2.41-1.55-.89-.47-1.86-.68-2.89-.65l-1.99,.27c-1.27,.36-2.37,1-3.31,1.93l-1.17,1.52c-.68,1.17-1.02,2.43-1.02,3.79v2.16c-.04,1.03,.18,2,.65,2.89,.3,.93,.82,1.73,1.55,2.41,.68,.73,1.48,1.25,2.41,1.55,.89,.47,1.86,.68,2.89,.65l1.99-.27c1.27-.36,2.37-1,3.31-1.93l1.17-1.52c.68-1.17,1.02-2.43,1.02-3.79h0Z"/><path class="c" d="M69,28.05c-.86-4.18-4.8-7.55-8.92-8.24-4.84-.81-9.37,.84-12.74,4.42-2.96,3.14-5.55,7.05-5.88,11.44-.38,5.05,3.28,9.52,8,10.89,7.47,2.16,15.53-2.52,19.07-9.09,1.07-1.99,2.03-4.35,1.99-6.65-.06-3.43-1.78-6.79-4.84-8.51-3.78-2.12-8.5-2.31-12.52-.76-3.62,1.39-7,3.62-9.63,6.5-3.46,3.79-5.29,9.48-2.33,14.17,5.33,8.42,17.42,4.45,23.09-1.4,2.86-2.95,5.22-6.98,5.19-11.19-.04-5.26-4.53-9.57-9.49-10.53-8.37-1.63-15.74,2.94-20.85,9.22-1.66,2.04-3.46,4.06-4.13,6.68-.85,3.36,.13,6.99,2.67,9.36,3.51,3.27,8.69,3.43,13.01,1.92,7.17-2.5,13.4-7.48,16.99-14.23,1.56-2.94,1.26-6.69-1.17-9.09-3.21-3.16-7.6-3.49-11.54-1.57-2.07,1.01-3.29,3.31-3.58,5.48-.34,2.5,.49,4.4,2.06,6.3,3.03,3.66,9.06,3.27,12.2,.07,1.3-1.32,2.28-3.42,2.2-5.3-.09-2.09-.86-3.7-2.2-5.3l-5.84-7c-1.91-2.29-3.78-4.83-6.58-6.09-2.57-1.16-5.03-1.52-7.82-.97-2.11,.42-3.85,1.57-5.49,2.89-1.27,1.03-2.38,2.41-3.15,3.85-.84,1.57-1.2,3.15-1.75,4.8l.76-1.79c-.35,.7-.15,.5,.6-.6,1.14-.79,1.39-1,.74-.64l1.79-.76c-.52,.22-1.04,.33-1.59,.41l1.99-.27c-2.95,.33-5.9,.52-8.71,1.56-3.38,1.25-6.35,2.88-9.08,5.25-2.92,2.54-4.72,6.18-4.89,10.04-.14,3.27,1.58,5.9,2.06,9.01l-.27-1.99c.11,.91,.11,1.81,.01,2.72l.27-1.99c-.14,1.03-.4,2.01-.78,2.97l.76-1.79c-.23,.53-.47,1.04-.77,1.53-.15,.24-.32,.47-.47,.72-.4,.64,1.32-1.51,.43-.58-.35,.37-.72,.72-1.09,1.08-.63,.59,1.58-1.04,.57-.45-.3,.17-.58,.36-.88,.52-2.79,1.53-4.44,5.4-3.45,8.47,.4,1.24,1.05,2.35,1.93,3.31,1.13,1.23,3.6,2.4,5.3,2.2,1.41-.16,2.7-.29,4.01-.78,1.95-.74,3.2-1.48,4.81-2.81,2-1.65,3.35-3.9,4.22-6.32,1.82-5.06,.06-11.33-3.87-14.92-2.26-2.06-5.32-2.76-8.19-1.55s-4.46,3.81-4.61,6.85c-.03,.66-.09,1.32-.17,1.98l.27-1.99c-.31,2.25-.9,4.42-1.78,6.51l.76-1.79c-.72,1.65-1.58,3.22-2.63,4.68s1.02-1.15,.08-.1c-.27,.3-.52,.61-.79,.9-.61,.66-1.29,1.24-1.91,1.89-3.71,3.96-3.55,10.45,1.32,13.46,1.95,1.21,4.27,1.59,6.5,.94,3.21-.92,5.81-4.1,5.7-7.52-.18-5.83-6.43-10.22-11.8-7.08-4.35,2.54-4.75,8.25-2.35,12.28,1.61,2.69,4.36,4.56,7.3,5.5,1.87,.6,3.87,.59,5.72,1.29l-1.79-.76,.39,.17,1.79-13.71-5.29,.77c-1.66,.24-3.73,2.02-4.48,3.45-.8,1.51-1.12,3.08-.89,4.78,.47,3.51,3.62,6.7,7.37,6.5,1.72-.09,3.41,0,5.12,.21l-1.99-.27c4.69,.67,9.34,2.21,13.73,3.96l-1.79-.76c.4,.17,.94,.6,1.35,.69-.99-.83-1.21-.98-.66-.46-.76-1.1-.97-1.34-.63-.72l-.76-1.79c.12,.3,.19,.56,.25,.87l-.27-1.99c.03,.2,.03,.4,.01,.6l.27-1.99c-.04,.31-.1,.55-.22,.84l.76-1.79c.5-.77,1.14-1.4,1.92-1.88-2.56,1.65-3.99,4.41-3.58,7.47,.37,2.75,2.48,5.67,5.37,6.24,3.29,.65,6.12-.05,8.63-2.25,.33-.29,.63-.6,.94-.92,.23-.25,1.02-.9-.03-.11s-.18,.19,.12,.05l-1.79,.76c.35-.12,.67-.19,1.03-.24l-1.99,.27c.49-.03,.96-.01,1.45,.05l-1.99-.27c.79,.14,1.52,.4,2.26,.69l-1.79-.76c2.63,1.11,4.79,2.06,7.64,2.37,1.9,.21,3.94-.04,5.75-.66,2.35-.8,4.45-2,6.24-3.73,.82-.8,1.53-1.77,2.17-2.71,.22-.32,.44-.66,.61-1,.31-.49,.11-.25-.59,.71-1.07,.71-1.28,.89-.63,.53l-1.79,.76c.21-.09,.43-.16,.66-.2l-1.99,.27c.37-.04,.69-.05,1.06-.02l-1.99-.27c.5,.08,.96,.21,1.43,.38l-1.79-.76c1.31,.58,2.36,1.54,3.57,2.29,1.96,1.21,4.26,1.94,6.57,1.99,4.86,.12,8.99-2.66,11.74-6.45,2.29-3.14,2.99-7.42,2.93-11.22-.05-3.32-.72-6.6-.31-9.93l-.27,1.99c.36-2.32,1.27-4.46,2.12-6.63,1.02-2.61,1.77-5.35,1.78-8.18,0-3.31-1.06-6.29-2.29-9.3l-3.13-7.65c-1.33-3.25-2.51-6.26-4.78-8.98-2.07-2.48-4.99-3.96-7.97-5.07-2.08-.77-4.3-1.19-6.47-1.63-2.85-.57-5.76-1.05-8.66-1.22-6.44-.38-12.45,1.46-17.37,5.66-2.2,1.88-3.97,4.31-5.64,6.65-1.49,2.08-2.82,4.26-4.06,6.5-2.49,4.49-4.71,9.18-6.78,13.88-2.57,5.84-5.15,12.73-3.41,19.2,.83,3.09,3.27,5.65,6.35,6.57,2.72,.81,5.29,.27,7.8-.87,2.79-1.26,5.26-4.07,6.65-6.77,3.04-5.92,3.2-13.21-.36-18.96-1.79-2.9-5.17-4.26-8.47-3.45-7.45,1.83-8.79,9.83-9.56,16.26s.5,12.11,4.6,16.88c2.28,2.64,6.23,2.56,9.09,1.17,4.67-2.27,8.46-5.92,11.44-10.12s4.55-9.31,5.16-14.49c.27-2.27-1.27-4.58-2.96-5.89-1.8-1.39-4.29-2.09-6.54-1.34-6.9,2.28-11.18,8.03-13.29,14.78-.4,1.29-.71,2.6-.99,3.92-.37,1.73-.84,3.56-.75,5.32,.16,3.04,1.64,5.43,3.88,7.38l3.53,3.08c2.69,2.34,5.91,2.74,9.09,1.17,5.89-2.91,10.16-8.25,12.39-14.34,1.27-3.45,1.65-7.76,.29-11.24-1.58-4.06-4.77-7.76-9.26-8.62-2.42-.46-5.63-.23-7.3,1.93-1.91,2.47-3.24,4.64-4.37,7.57-.84,2.18-1.19,4.46-1.42,6.78-.47,4.72,.74,9.54,2.9,13.71,.74,1.42,2.16,2.47,3.59,3.07,1.68,.71,3.07,.64,4.88,.38,7.83-1.12,16.54-3.79,20.38-11.44,1.98-3.94,2.61-8.52,1.19-12.77s-4.1-7.83-7.99-9.97c-2.24-1.23-5.36-1.51-7.57,0-3.98,2.72-7.74,5.66-10.41,9.73-1.41,2.15-2.21,4.57-2.55,7.1-.4,2.98,.35,5.77,.82,8.69l-.27-1.99c.07,.58,.11,1.14,.09,1.72-.11,3.99,3.53,7.59,7.5,7.5l9.04-.21c1.74-.04,3.57,0,5.27-.43,2.24-.56,4.33-1.89,5.82-3.65,1.16-1.37,2.2-2.87,3.27-4.31,1.14-1.52,2.12-2.89,2.65-4.77,1.25-4.43-1.57-8.17-3.75-11.72-1.15-1.88-2.38-3.67-4.29-4.86-2.48-1.53-5.63-1.59-8.35-.78-3.3,.99-6.71,2.44-9.17,4.92-3.13,3.14-4.67,7.76-3.49,12.1,.92,3.38,3.48,6.23,6.59,7.78,1.51,.75,3.14,1.39,4.8,1.72,2.21,.45,4.69,.88,6.92,.25,4.59-1.29,6.91-5.79,8.93-9.74,1.24-2.42,1.41-5.16,0-7.57-1.24-2.12-3.91-3.95-6.48-3.71-1.69,.16-3.3,.42-4.78,1.34-1.31,.82-2.42,1.94-3.24,3.24-1.49,2.36-1.88,5.37-1.26,8.06,1.12,4.83,5.5,7.63,9.98,8.88l-5.51-7.23c0,2.61,.68,5.18,2.05,7.41,1.25,2.03,3.14,3.27,5.48,3.58,2.16,.29,4.84-.26,6.3-2.06,3.36-4.13,5.42-8.89,5.48-14.29,.02-2.41-.41-4.88-1.18-7.16-.64-1.91-1.41-3.76-1.73-5.77l.27,1.99c-.5-4.21,.69-8.43-.81-12.56-.91-2.5-2.29-4.54-4.15-6.44-.55-.56-1.13-1.1-1.66-1.68-.61-.68-.33-.94,.36,.52-.17-.37-.43-.69-.59-1.07l.76,1.79c-.11-.3-.18-.57-.24-.88l.27,1.99c-.03-.21-.05-.42-.04-.63-.11-3.92-3.37-7.68-7.5-7.5s-7.62,3.3-7.5,7.5c.1,3.52,1.56,6.33,3.89,8.88,.61,.67,1.27,1.27,1.9,1.92,.16,.16,.31,.33,.46,.49,.49,.57,.31,.32-.54-.75,.24,.43,.52,.81,.74,1.25l-.76-1.79c.31,.74,.5,1.48,.63,2.28l-.27-1.99c.17,1.5,.09,3,.02,4.51-.11,2.09-.02,4.06,.32,6.14,.51,3.09,2.07,5.89,2.52,8.99l-.27-1.99c.15,1.3,.14,2.59-.04,3.89l.27-1.99c-.19,1.16-.49,2.28-.92,3.38l.76-1.79c-.25,.6-.53,1.19-.86,1.75s-1.69,2.27-.17,.4l11.78,1.52c-.23-.37-.41-.73-.59-1.13l.76,1.79c-.2-.54-.33-1.07-.41-1.65l.27,1.99c-.03-.28-.04-.57-.03-.85,0-3.3-2.33-6.35-5.51-7.23-.58-.16-1.15-.34-1.72-.56l1.79,.76c-.22-.1-.44-.19-.65-.3-.3-.15-1.18-.8-.13,.02,1.24,.97-.35-.64,.59,.63,.78,1.05,.18,.21,.05-.06l.76,1.79c-.1-.28-.17-.53-.21-.82l.27,1.99c-.02-.3-.01-.56,.02-.85l-.27,1.99c.06-.29,.13-.54,.24-.81l-.76,1.79c.35-.65,.1-.37-.74,.84,.52-.51,.22-.28-.91,.7l-1.79,.76c.16-.08,.32-.13,.5-.16l-1.99,.27,.27-.03-6.48-11.29c-.54,1.05-1.1,2.08-1.7,3.1-.28,.47-.57,.94-.86,1.4-.15,.23-.3,.46-.45,.69,.41-.72,.97-1.29,1.67-1.73l1.79-.76-.41,.13,1.99-.27c-.56,.06-1.07,.03-1.63-.04l1.99,.27c-1.33-.18-2.62-.48-3.86-.98l1.79,.76c-.3-.13-.59-.26-.88-.42s-1.47-1.01-.28-.1c1.49,1.14-.66-1.01,.49,.51,.89,1.17,.12,.09-.03-.23l.76,1.79c-.15-.39-.25-.76-.32-1.17l.27,1.99c-.03-.4-.02-.75,.03-1.15l-.27,1.99c.08-.39,.18-.73,.32-1.11l-.76,1.79c.14-.3,.5-.71,.57-1.03-.79,.98-.93,1.18-.41,.61,.43-.39,.38-.37-.15,.06-1.07,.81,.19-.08,.44-.23,.43-.24,.87-.45,1.32-.65l-1.79,.76c1.24-.52,2.55-1.06,3.88-1.27l-1.99,.27c.25-.03,.5-.02,.75,.02l-1.99-.27,.35,.1-1.79-.76-.89-.77-.69-.92c.08,0,.51,.82,.58,.93l1.12,1.82c.69,1.12,1.49,2.23,2.02,3.44l-.76-1.79,.1,.36-.27-1.99c.05,.24,.05,.49,0,.73l.27-1.99-.1,.34,.76-1.79c-.56,1.25-1.56,2.33-2.38,3.42l-.59,.79c-1,1.34,.31-.11,.25-.3,.03,.08-.46,.52-.52,.59-.43,.39-.37,.36,.17-.09,.57-.41,.6-.47,.1-.18l1.79-.76c-.38,.14-.72,.22-1.13,.29l1.99-.27c-3.94,.36-7.98,.22-11.93,.32l7.5,7.5c.07-2.42-.64-4.77-1.01-7.14l.27,1.99c-.09-.77-.11-1.51-.04-2.28l-.27,1.99c.11-.81,.31-1.56,.6-2.32l-.76,1.79c.37-.87,.83-1.65,1.35-2.43,.57-.85-.41,.64-.52,.67,.12-.03,.39-.45,.47-.55,.37-.41,.76-.81,1.16-1.19,.36-.34,.73-.68,1.11-1,.27-.23,1.63-1.3,.56-.48s.31-.21,.59-.42c.45-.32,.9-.63,1.36-.94h-7.57c.2,.11,.39,.23,.59,.34,.84,.46-.6-.46-.69-.58,.26,.38,.79,.7,1.1,1.05,.99,1.11-.94-1.42-.16-.16,.27,.43,.5,.89,.71,1.35l-.76-1.79c.35,.85,.59,1.7,.73,2.61l-.27-1.99c.09,.79,.1,1.56,.02,2.36l.27-1.99c-.12,.81-.33,1.57-.64,2.33l.76-1.79c-.31,.68-.7,1.26-1.08,1.89,1.03-1.71,.73-.91,.24-.4-.25,.27-.52,.51-.79,.77-.93,.88,1.51-1,.36-.26-.31,.2-.61,.42-.93,.61-.66,.4-1.34,.73-2.05,1.04l1.79-.76c-2.94,1.2-6.06,1.7-9.19,2.15l8.47,3.45c-.23-.45-.45-.91-.65-1.37l.76,1.79c-.57-1.42-.96-2.87-1.17-4.38l.27,1.99c-.2-1.65-.18-3.28,.03-4.92l-.27,1.99c.23-1.51,.63-2.96,1.2-4.38l-.76,1.79c.28-.64,.57-1.26,.92-1.87,.33-.57,1.74-2.51,.2-.52l-7.3,1.93c.34,.07,.65,.15,.98,.27l-1.79-.76c.11,.05,.79,.48,.9,.47-.1,0-1.68-1.24-.61-.4,.48,.37-.95-1.6-.43-.57,.16,.31,.34,.6,.48,.92l-.76-1.79c.25,.63,.4,1.26,.5,1.94l-.27-1.99c.07,.74,.06,1.46-.02,2.2l.27-1.99c-.19,1.39-.58,2.7-1.12,3.99l.76-1.79c-.4,.91-.86,1.79-1.41,2.63-.14,.21-.28,.41-.42,.62-.45,.62-.29,.41,.5-.62-.35,.34-.65,.77-.99,1.12s-.7,.71-1.08,1.04c-1.45,1.29,1.11-.71,.06,0-.84,.56-1.67,1.08-2.57,1.52l9.09,1.17-2.6-2.27c-.37-.32-.74-.65-1.11-.97-.23-.2-.45-.39-.67-.59-.54-.56-.39-.37,.45,.57l.76,1.79-.1-.37,.27,1.99c-.04-.26-.04-.52-.01-.78l-.27,1.99c.41-2.89,1.14-5.86,2.24-8.57l-.76,1.79c.33-.76,.68-1.5,1.11-2.21,.19-.32,.44-.63,.62-.95-.94,1.66-.71,.88-.23,.33,.25-.28,.52-.55,.79-.81l.28-.25c.59-.49,.38-.33-.64,.48,.67-.27,1.28-.79,1.96-1.08l-1.79,.76c.23-.09,.47-.18,.71-.25l-9.49-7.23-.04,.37,.27-1.99c-.28,2.08-.84,4.08-1.65,6.02l.76-1.79c-.55,1.24-1.18,2.43-1.92,3.57-.17,.26-.34,.51-.52,.76-.75,1.06,.13-.36,.4-.49-.45,.21-.98,1.16-1.33,1.53-.42,.45-.86,.88-1.32,1.29-.23,.21-.47,.4-.69,.6-1.05,.94,1.52-1.06,.36-.27s-2.25,1.48-3.47,2.07l9.09,1.17c-.5-.58-.33-.37,.49,.65-.14-.2-.27-.4-.39-.61-.24-.41-.44-.84-.63-1.28l.76,1.79c-.4-1.02-.64-2.06-.79-3.15l.27,1.99c-.23-2.02-.11-4.04,.14-6.06l-.27,1.99c.27-1.99,.54-4.05,1.27-5.94l-.76,1.79c.17-.4,1.06-1.75,.19-.63-.98,1.26,.57-.28-.72,.69-1.08,.81-.31,.26,0,.11l-1.79,.76c.19-.08,.39-.14,.59-.18l-8.47-3.45c.3,.49,.56,.98,.79,1.5l-.76-1.79c.39,.95,.64,1.92,.79,2.94l-.27-1.99c.11,1.02,.11,2.04-.01,3.06l.27-1.99c-.15,1.02-.41,2-.78,2.96l.76-1.79c-.2,.47-.42,.93-.67,1.37-.11,.2-.23,.39-.36,.58-.36,.55-.93,.84,.47-.56-.32,.32-.61,.67-.94,.99-.83,.82,1.34-.82,.57-.45-.26,.12-.5,.27-.77,.39l1.79-.76c-.33,.11-.62,.19-.97,.25l1.99-.27c-.21,.02-.42,.02-.62,0l1.99,.27c-.2-.03-.39-.09-.57-.18l1.79,.76c1.84,2.29,2.46,2.87,1.83,1.74l.76,1.79c-.12-.34-.19-.65-.25-1.01l.27,1.99c-.13-1.33-.09-2.65,.07-3.98l-.27,1.99c.39-2.75,1.28-5.35,2.35-7.9l-.76,1.79c2.29-5.34,4.81-10.67,7.7-15.72,.71-1.24,1.45-2.46,2.24-3.65,.37-.57,.75-1.12,1.14-1.68,.22-.31,.44-.61,.66-.91,.78-1.1-.83,1.02-.26,.32,.85-1.03,1.71-2.04,2.71-2.93,.22-.19,1.22-.99,.21-.21s.1-.03,.26-.14c.58-.37,1.19-.68,1.81-.96l-1.79,.76c1.38-.58,2.79-.94,4.27-1.14l-1.99,.27c2.35-.27,4.69-.15,7.03,.16l-1.99-.27c3.65,.51,7.52,1.15,10.96,2.52l-1.79-.76c.64,.27,1.26,.57,1.84,.93,1.22,.76-.49-.26-.46-.41,0,.01,.78,.74,.82,.77,.89,.89-.72-1.14-.29-.39,.17,.3,.37,.58,.53,.88,.4,.72,.74,1.48,1.06,2.25l-.76-1.79c1.07,2.57,2.12,5.16,3.17,7.74s2.25,5.06,2.67,7.78l-.27-1.99c.09,.85,.1,1.67,.01,2.52l.27-1.99c-.54,3.99-2.86,7.44-3.52,11.4-.48,2.83-.49,5.5-.24,8.35,.19,2.2,.37,4.38,.11,6.58l.27-1.99c-.15,.99-.38,1.92-.73,2.85l.76-1.79c-.21,.48-.46,.92-.72,1.38-.61,1.08,1.24-1.3,.27-.4-.12,.13-.25,.25-.39,.37-.44,.38-.16,.18,.82-.62-.42,.17-.82,.49-1.24,.68l1.79-.76c-.44,.17-.87,.3-1.33,.39l1.99-.27c-.46,.06-.9,.07-1.37,.03l1.99,.27c-.5-.08-.95-.21-1.41-.39l1.79,.76c-1.42-.67-2.55-1.77-3.92-2.51-2.73-1.48-6.05-2.27-9.11-1.4s-5.15,3-6.86,5.73c-.82,1.31,.85-.88,.33-.38-.23,.23-1.23,1.07-.12,.24s.03-.05-.24,.11c-.35,.21-.72,.38-1.09,.53l1.79-.76c-.66,.25-1.31,.42-2.01,.53l1.99-.27c-.7,.07-1.37,.07-2.07-.01l1.99,.27c-.94-.16-1.8-.47-2.68-.84l1.79,.76c-1.48-.64-2.95-1.4-4.51-1.8-2.11-.55-4.04-.58-6.15-.2-1.98,.36-3.77,1.36-5.25,2.7-.33,.3-.62,.62-.93,.94-1.24,1.29,1.25-.67,.31-.21l1.79-.76-.27,.07,1.99-.27h-.28l1.99,.28-.29-.06,1.79,13.71c4.53-2.92,6.02-8.78,3.35-13.51-2.07-3.66-5.84-5.07-9.57-6.4-5.9-2.09-12.11-3.89-18.44-3.55l1.99,14.73,5.29-.77c1.13-.16,2.52-1.14,3.31-1.93,1.17-1.17,1.84-2.68,2.06-4.31,.36-2.7-.89-6.27-3.58-7.47-1.62-.73-3.1-1.31-4.84-1.59-1.15-.19-2.3-.34-3.39-.75l1.79,.76c-.22-.1-.44-.19-.65-.31-.28-.15-1.2-.82-.13-.02,1.25,.94-.36-.66,.61,.6,.78,1.02,.21,.2,.07-.1l.76,1.79c-.08-.21-.14-.42-.17-.64l.27,1.99c-.03-.23-.03-.45,0-.68l-2.2,5.3,.14-.11-5.3,2.2h.15l-3.79-1.02-2.35-2.28-1.02-3.79,.02,.19,.27-1.99-.05,.17,1.93-3.31-.14,.12,3.31-1.93-.26,.05h3.99l-.25-.07,1.79,.76-.22-.17,2.69,2.69-.17-.23,.76,1.79-.1-.27,.27,1.99v-.29l-.28,1.99,.09-.32-.76,1.79c-.89,1.02-1.08,1.26-.55,.71,.18-.17,.36-.34,.55-.51,.29-.28,.57-.56,.85-.84,.99-1.04,1.86-2.18,2.73-3.33,1.04-1.38,1.97-2.83,2.73-4.39,2.06-4.27,3.22-8.63,3.46-13.37l-12.8,5.3c.18,.16,.36,.33,.52,.51,.5,.58,.33,.36-.5-.66,.11,.41,.5,.88,.67,1.29l-.76-1.79c.21,.58,.36,1.15,.45,1.76l-.27-1.99c.06,.61,.06,1.2-.01,1.81l.27-1.99c-.1,.6-.26,1.15-.49,1.71l.76-1.79c-.15,.32-.33,.61-.5,.91-.61,1.13,1.32-1.43,.18-.31s1.08-.66,.43-.3c-.36,.2-.7,.41-1.07,.58l1.79-.76c-.55,.22-1.09,.37-1.67,.47l1.99-.27-.35,.04,3.79,13.98c4.33-2.37,7.58-6.69,8.84-11.45,.73-2.77,.74-5.42,.28-8.22-.34-2.06-1.37-3.9-1.74-5.94l.27,1.99c-.07-.57-.07-1.1,0-1.67l-.27,1.99c.08-.38,.18-.72,.31-1.09l-.76,1.79c.16-.36,.33-.67,.52-1.01,.6-1.06-.97,1.04-.35,.44,.24-.23,.45-.48,.69-.7,.14-.13,.29-.26,.44-.39,.44-.37,.19-.18-.75,.57,.61-.26,1.19-.82,1.78-1.15,.74-.42,1.5-.79,2.28-1.13l-1.79,.76c1.58-.64,3.21-1.09,4.89-1.35l-1.99,.27c2.87-.38,5.69-.32,8.27-1.84,1.59-.93,2.92-2.36,3.76-4,.73-1.43,.92-2.87,1.51-4.31l-.76,1.79c.16-.34,.33-.64,.51-.97,.32-.46,.27-.41-.16,.17-.45,.56-.49,.62-.12,.2l.26-.25c.58-.5,.35-.33-.68,.51,.3-.08,.63-.36,.92-.48l-1.79,.76c.33-.12,.63-.21,.98-.27l-1.99,.27c.35-.04,.66-.05,1.01-.03l-1.99-.27c.37,.05,.68,.13,1.03,.25l-1.79-.76c.22,.1,.43,.21,.65,.31,.47,.31,.42,.25-.16-.17-.51-.41-.62-.49-.33-.24,.34,.36,.71,.69,1.04,1.06,.91,1.03,1.77,2.11,2.65,3.17l5.52,6.62v-10.61l1.1-.86,1.79-.76-.26,.05,1.99-.27h-.27l1.99,.26-.26-.08,1.79,.76,1.13,.83-1.52,11.78,.3-.15-1.79,.76,.32-.09-1.99,.27c.22-.04,.45-.04,.67,0l-1.99-.27,.33,.08-1.79-.76c.68,.32,.45,.12-.69-.62l-1.17-9.09c-.29,.55-.6,1.1-.94,1.63-.36,.57-1.73,2.16-.13,.32-.78,.9-1.54,1.8-2.43,2.61-.42,.38-.86,.73-1.29,1.1,1.85-1.6,.25-.22-.32,.14-1.06,.68-2.17,1.26-3.31,1.76l1.79-.76c-1.19,.5-2.43,.97-3.72,1.16l1.99-.27c-.62,.07-1.22,.07-1.84-.01l1.99,.27c-.29-.06-.56-.12-.84-.22l1.79,.76c-.35-.15-1.01-.64,.06,.19,.41,.25,.74,.58,.98,.99,.44,.65,.55,.76,.31,.33l.76,1.79c-.07-.17-.12-.35-.14-.53l.27,1.99c-.03-.25-.02-.5,.03-.74l-.27,1.99,.1-.36-.76,1.79c.2-.47,.58-.88,.77-1.34-.76,.98-.89,1.15-.4,.52,.18-.23,.36-.46,.55-.68,.69-.85,1.4-1.68,2.16-2.46,.35-.37,.72-.72,1.09-1.06,.21-.2,.43-.39,.65-.57,.61-.49,.45-.37-.49,.37,.44-.11,1.01-.68,1.42-.91,.49-.28,.99-.51,1.51-.73l-1.79,.76c.92-.36,1.83-.62,2.81-.77l-1.99,.27c.83-.1,1.64-.11,2.47-.03l-1.99-.27c.63,.09,1.22,.23,1.82,.45l-1.79-.76c.76,.34,1.56,1.23-.03-.27,.53,.54,.36,.28-.52-.76,.12,.19,.22,.38,.29,.59l-.76-1.79c.08,.21,.13,.43,.15,.65l-.27-1.99c.02,.26,.02,.52-.03,.78l.27-1.99c-.08,.4-.19,.75-.33,1.13l.76-1.79c-.32,.74-.69,1.45-1.14,2.12-.93,1.39,1.11-1.18,.17-.21-.25,.26-.49,.54-.75,.8s-.56,.48-.82,.74c1.52-1.51,.88-.66,.34-.3-.72,.48-1.47,.87-2.26,1.21l1.79-.76c-1.03,.41-2.08,.71-3.17,.87l1.99-.27c-.65,.08-1.26,.11-1.91,.03l1.99,.27c-.25-.04-.49-.11-.73-.22l1.79,.76c.54,.34,.98,.78,1.32,1.31,.42,.62,.5,.7,.23,.25l.76,1.79c-.13-.31-.21-.59-.27-.92l.27,1.99c-.03-.34-.03-.64,0-.98l-.27,1.99c.06-.36,.15-.66,.28-1l-.76,1.79c.16-.35,.4-.66,.57-1-.76,.94-.94,1.19-.56,.76,.13-.15,.26-.29,.4-.43,.52-.53,1.07-1.03,1.64-1.51,.97-.82-.13-.11-.36,.26,.14-.22,.83-.57,1.05-.71,.71-.44,1.44-.82,2.21-1.15l-1.79,.76c.75-.3,1.51-.52,2.31-.66l-1.99,.27c.79-.11,1.55-.12,2.35-.02l-1.99-.27c.51,.09,1,.21,1.48,.39l-1.79-.76c.21,.08,.41,.18,.6,.3-.74-.44-1.33-1.03-1.79-1.76l-.76-1.79c.11,.23,.18,.47,.21,.72l-.27-1.99c.02,.25,.02,.51-.02,.76l.27-1.99c-.1,.51-.26,.99-.45,1.47l.76-1.79c-.3,.69-.66,1.33-1.06,1.97-.64,1.04,.98-1.12,.39-.47-.25,.28-.49,.56-.76,.83-.21,.21-.51,.4-.69,.63,.99-.74,1.25-.94,.78-.6-.15,.11-.3,.22-.46,.32-.63,.41-1.29,.75-1.98,1.04l1.79-.76c-.58,.22-1.15,.36-1.76,.46l1.99-.27c-.62,.07-1.22,.07-1.84,0l1.99,.27c-.49-.07-.95-.19-1.41-.37l1.79,.76c-.77-.35-1.31-1.12,.36,.44-.77-.72,1.06,1.88,.42,.39l.76,1.79c-.08-.22-.14-.44-.18-.67l.27,1.99c-.04-.42-.03-.76,.02-1.18l-.27,1.99c.09-.41,.2-.77,.35-1.16l-.76,1.79c.32-.7,.7-1.35,1.14-1.99,.18-.27,.38-.54,.57-.81,.82-1.21-1.19,1.36-.21,.27,.44-.49,.89-.95,1.34-1.42,.44-.37,.39-.34-.16,.1-.56,.42-.61,.47-.14,.14,.34-.17,.67-.37,1.02-.53l-1.79,.76c.42-.16,.82-.27,1.26-.35l-1.99,.27c.42-.04,.83-.04,1.25,0l-1.99-.27c.52,.07,1.01,.2,1.5,.4l-1.79-.76c.73,.35,1.43,1.2-.27-.35,.5,.54,.29,.26-.63-.84,.1,.17,.18,.34,.25,.52l-.76-1.79c.07,.19,.12,.38,.15,.58,.79,3.85,5.55,6.43,9.23,5.24,4.07-1.32,6.09-5.1,5.24-9.23h0Z"/><path class="c" d="M33.73,30.67l.57-.88,.29-.44c.05-.07,.09-.14,.14-.21,.36-.55,.62-1.16,.78-1.82,.31-1,.36-1.99,.13-2.99-.07-.5-.03-.72-.16-1.07,.11,.3-.46-1.39-.83-1.92l-1.17-1.52s-.02-.03-.03-.04c-.02-.02-.03-.04-.05-.05-1.24-1.14-1.97-1.54-3.56-2.08-.05-.02-.09-.03-.14-.04-.68-.13-1.42-.31-2.14-.28-1.63,.07-2.63,.32-4.06,1.1-.87,.47-1.58,1.12-2.1,1.93-.66,.72-1.11,1.57-1.34,2.55-.31,1-.36,1.99-.13,2.99,.05,1,.34,1.93,.89,2.79l1.17,1.52c.94,.93,2.04,1.57,3.31,1.93l1.99,.27c1.35,0,2.62-.35,3.79-1.02,.02-.01,.04-.02,.07-.03l-1.79,.76c.05-.02,.11-.03,.16-.04l-1.99,.27c.06,0,.11,0,.17,0l-1.99-.27c.06,0,.13,.03,.19,.05l-1.79-.76c.06,.03,.12,.06,.17,.1l-1.52-1.17c.05,.04,.1,.08,.14,.14l-1.17-1.52s.05,.08,.07,.12l-.76-1.79s.02,.05,.02,.07l.76-5.78-1.01,1.56c-.55,.86-.84,1.79-.89,2.79-.22,1-.18,1.99,.13,2.99,.23,.98,.68,1.83,1.34,2.55,.53,.82,1.23,1.46,2.1,1.93l1.79,.76c1.33,.36,2.66,.36,3.99,0l1.79-.76c1.13-.67,2.02-1.56,2.69-2.69h0Z"/><path class="g" d="M34.47,48.66l-4.68,1.02c-.63,.14-1.18,.58-1.56,1.08s-.67,1.16-.64,1.82c.06,1.31,.89,2.56,2.2,2.89,2.06,.53,4.3,.99,6.4,.35s4.05-2.26,4.57-4.49c.16-.67,.12-1.32-.15-1.95-.23-.55-.66-1.17-1.23-1.43-1.05-.49-1.95-.73-3.1-.85-.84-.09-1.73,.03-2.55,.22s-1.6,.52-2.3,.94-1.43,1-1.95,1.67-.88,1.25-.88,2.12c0,.74,.33,1.61,.88,2.12s1.32,.91,2.12,.88c.74-.03,1.65-.27,2.12-.88,.25-.32,.53-.6,.85-.85l-.61,.47c.37-.29,.78-.52,1.21-.71l-.72,.3c.44-.18,.89-.3,1.36-.37l-.8,.11c.47-.06,.93-.06,1.4,0l-.8-.11c.43,.06,.85,.17,1.26,.34l-.72-.3c.06,.03,.12,.05,.18,.08l-1.38-3.39c-.04,.17-.09,.33-.15,.49l.3-.72c-.1,.22-.22,.42-.36,.61l.47-.61c-.19,.24-.41,.45-.66,.64l.61-.47c-.28,.21-.59,.38-.91,.52l.72-.3c-.37,.15-.75,.25-1.14,.3l.8-.11c-.59,.07-1.18,.05-1.77-.02l.8,.11c-.77-.11-1.53-.29-2.29-.48v5.79l4.68-1.02c.71-.16,1.43-.76,1.79-1.38s.54-1.59,.3-2.31c-.52-1.62-2.05-2.45-3.69-2.1h0Z"/><path class="g" d="M56.71,45.2c-.29,2.6-.52,5.35,.36,7.87,.46,1.33,1.1,2.47,2,3.55s2.12,1.8,3.43,2.35c.67,.28,1.72,.04,2.31-.3s1.22-1.08,1.38-1.79c.17-.77,.14-1.63-.3-2.31s-1.03-1.06-1.79-1.38c.91,.38,.21,.07,.01-.04-.09-.05-.18-.11-.26-.17-.25-.18-.17-.12,.23,.19-.12-.16-.32-.28-.46-.43-.07-.08-.14-.15-.21-.23-.2-.24-.14-.16,.17,.24-.2-.37-.47-.7-.66-1.09-.36-.72,.15,.47-.01-.02-.07-.2-.14-.4-.2-.61-.06-.22-.11-.44-.16-.66-.03-.13-.05-.27-.07-.4,.06,.46,.07,.52,.03,.19-.04-.55-.07-1.09-.06-1.64,.02-1.1,.14-2.2,.26-3.29,.08-.71-.39-1.63-.88-2.12-.52-.52-1.37-.91-2.12-.88s-1.58,.29-2.12,.88c-.57,.62-.79,1.29-.88,2.12h0Z"/><path class="h" d="M52.75,30.91c-1.31,4.75-2.88,12.05,2.68,14.8l-1.38-3.39c-1.7,4.19-2.83,9.01-1.02,13.36,1.58,3.79,5.22,6.84,9.49,6.63,1.62-.08,3-1.32,3-3,0-1.56-1.37-3.08-3-3-1.88,.09-3.56-1.39-4.15-3.43-.87-2.99,.35-6.21,1.47-8.96,.46-1.14-.3-2.85-1.38-3.39-.35-.17-.6-.31-.74-.59-.36-.7-.29-1.6-.23-2.35,.14-1.71,.6-3.43,1.05-5.08,1.03-3.73-4.76-5.32-5.79-1.6h0Z"/><path class="h" d="M61.45,62.53c3.88,.01,7.8-1.53,10.48-4.37,1.39-1.48,2.4-3.19,3.1-5.09,.38-1.02,.58-2.07,.71-3.15,.05-.4,.09-.8,.11-1.21,0-.27,0-.54,0-.81,.02-.55-.04-.54-.19,.04l-1.08,1.08c.23-.17,.64-.34,1.25-.64,.47-.23,.88-.52,1.3-.83,1.07-.81,1.95-1.73,2.7-2.85,1.33-1.97,2.03-4.54,1.76-6.91-.6-5.32-4.81-9.16-10.04-9.76-1.61-.18-3,1.51-3,3,0,1.77,1.38,2.82,3,3-.28-.03,.59,.16,.72,.2,.33,.1,.41,.15,.55,.22,.69,.36,.99,.59,1.46,1.07,.44,.45,.63,.71,.95,1.34,.22,.43,.09,.12,.22,.55-.01-.04,.23,.98,.17,.55,.2,1.36-.08,2.29-.78,3.42-.56,.91-1.6,1.63-2.42,2-1.1,.5-2.03,1.28-2.41,2.48-.3,.94-.12,1.89-.15,2.85-.05,1.44-.52,2.82-1.28,4.05-1.53,2.48-4.34,3.79-7.12,3.78-3.86-.01-3.87,5.99,0,6h0Z"/><path class="h" d="M30.77,12.32c-3.58,.14-7.21,.88-10.38,2.59-1.65,.89-3.12,2.07-4.16,3.64s-1.84,3.33-2.47,5.11c-2.43,6.82-1.85,14.77,.9,21.4l2.1-3.69c.31-.08,.61-.07,.91,.01,.46,.23,.56,.26,.29,.11,.41,.21,.32,.12,.54,.53-.15-.28-.18-.54,.05,.21-.09-.31-.07-.16,.03,.45,0-.77-.26-.18-.77,1.77l-1.32,.77c-.96,.23-1.75,.05-2.36-.54,.11,.09,.2,.2,.3,.3,.14,.23,.24,.32,.54,.78l1.08-4.1c.43-.19-.44,.1-.44,.1-.07,.02-.82,.17-.51,.12s-.46,.05-.53,.05c-.31,.03-.62,.04-.94,.06-1.22,.08-2.47,.14-3.65,.46-2.96,.78-4.72,3.03-5.69,5.82-1.76,5.07-.51,11.43,3.27,15.27,2.71,2.76,6.96-1.49,4.24-4.24-1.19-1.21-1.82-2.68-2.16-4.59-.27-1.55-.16-3.45,.54-5.15-.11,.28,.06-.11,.09-.18,.1-.2,.2-.41,.33-.59-.16,.23,.19-.2,.25-.26,.38-.32-.31,.19,.1-.06,.35-.22,1.14-.37,1.59-.4,2.28-.18,4.41-.31,6.54-1.23,1.44-.63,1.88-2.87,1.08-4.1-.86-1.32-1.9-2.89-3.53-3.32-2.07-.54-4.02,1.07-4.04,3.17-.03,3.05,2.92,5.15,5.77,4.56,1.45-.3,2.69-2.26,2.1-3.69-2.26-5.46-2.94-11.49-1.25-17.13,.41-1.36,.91-2.54,1.63-3.79s1.33-1.77,2.6-2.45c2.28-1.23,4.96-1.68,7.35-1.77,1.62-.07,3-1.33,3-3,0-1.57-1.37-3.07-3-3h0Z"/><path class="h" d="M8.24,62.37c.29,5.17,3.47,8.96,8.36,10.52,4.09,1.3,8.84,1.07,12.91-.16l-3.69-2.1c1.17,5.21,7.06,6.97,11.77,6.77,1.62-.07,3-1.33,3-3,0-1.57-1.37-3.07-3-3-.74,.03-1.47,0-2.21-.06-.21-.02-.4-.07-.08,0-.2-.03-.39-.07-.59-.11-.44-.09-.87-.22-1.29-.36-.05-.02-.57-.23-.32-.12s-.25-.14-.29-.16c-.16-.1-.33-.19-.48-.3-.39-.26,.28,.27-.05-.04-.13-.13-.27-.25-.39-.39-.3-.34,.21,.34-.02-.06-.03-.05-.26-.53-.16-.28,.11,.29-.11-.5-.1-.48-.35-1.56-2.19-2.55-3.69-2.1-.75,.23-1.51,.41-2.27,.55-.21,.04-.43,.07-.64,.11,.44-.07,.16-.02-.12,0-.4,.04-.8,.08-1.21,.1-.91,.05-1.82,.04-2.73-.04-.18-.01-.36-.03-.54-.05-.86-.08,.34,.07-.14-.02-.44-.08-.88-.16-1.31-.27-.38-.1-.76-.21-1.13-.34-.07-.03-.73-.29-.36-.13s-.34-.17-.33-.17c-.33-.17-.65-.37-.97-.57-.24-.16-.39-.32-.08-.05-.15-.14-.31-.27-.45-.41-.18-.17-.74-.92-.41-.42-.23-.36-.45-.71-.63-1.09,.19,.39,.04,.1-.03-.14-.07-.22-.13-.44-.19-.66-.04-.18-.08-.37-.11-.56,.1,.59-.01-.36-.02-.4-.09-1.62-1.31-3-3-3-1.55,0-3.09,1.37-3,3h0Z"/><path class="h" d="M86.91,28.2c.09,.17,.18,.35,.27,.52,.03,.06,.24,.54,.1,.19-.17-.39,.1,.26,.12,.33,.06,.16,.11,.32,.17,.48,.26,.8,.44,1.62,.59,2.44,.02,.12,.09,.75,.03,.15,.02,.18,.04,.36,.05,.55,.03,.41,.05,.83,.06,1.24s0,.83-.03,1.24c-.01,.23-.03,.46-.05,.68-.04,.49,.14-.69-.02,.15-.15,.79-.35,1.55-.6,2.32-.09,.27-.11,.26,0,0-.09,.19-.18,.38-.28,.57-.18,.33-.38,.65-.59,.96,.34-.49,.03-.03-.08,.07-.14,.15-.28,.3-.43,.45-.12,.12-.25,.22-.37,.33,.33-.27,.12-.09-.11,.04-.18,.1-1.1,.53-.56,.33-.44,.16-.88,.28-1.34,.37-2.56,.52-2.88,4.27-.72,5.48,2.33,1.31,6.31,1.42,7.2-1.78,.49-1.75-.58-3.57-2.31-4.07-1.38-.4-2.84-.08-4.17,.36-2.43,.81-2.99,4.09-.72,5.48s3.16,3.99,2.8,6.68c-.22,1.61,1.53,3,3,3,1.8,0,2.78-1.39,3-3,.63-4.69-1.78-9.42-5.77-11.86l-.72,5.48c.3-.1,.6-.19,.9-.27,.21-.06,.47-.24,.3-.08-.22,.03-.2,.03,.06,.01l-.46-.08c1.16,1.09-2.25-3.54-.83-4.57,.13-.1,.7-.37,.61-.35-.33,.09,.76-.05,.21-.04l.39,.06-.22-.05c-.27-.09-.3-.1-.11-.02,.21,.09,.16,.06-.13-.09l-.72,5.48c9.77-2,10.52-14.98,6.65-22.25-.76-1.43-2.75-1.87-4.1-1.08-1.45,.85-1.84,2.67-1.08,4.1h0Z"/><path class="h" d="M34.54,15.81c.76-2.16,2.54-3.84,4.29-5.25,1.9-1.53,4.09-2.89,6.4-3.7,4.31-1.5,9.14-1.21,12.3,2.25,1.13,1.24,3.09,1.05,4.24,0,1.77-1.6,5.16-1.29,7.64-1.09,3.01,.25,6.09,.98,8.76,2.44,4.91,2.68,8.1,8.1,6.36,13.31-.51,1.54,.59,3.28,2.1,3.69,1.64,.45,3.17-.55,3.69-2.1,2.64-7.89-2.18-16.3-9.11-20.08-3.69-2.02-7.82-2.96-11.99-3.27s-8.47-.05-11.68,2.86h4.24C57.24-.1,49.78-1.07,43.64,1.07s-12.64,6.8-14.88,13.14c-.54,1.53,.61,3.28,2.1,3.69,1.66,.46,3.15-.56,3.69-2.1h0Z"/><path class="h" d="M27.51,36.68c-.86,1.12-1.14,2.94-.24,4.1,.62,.8,1.82,1.13,2.71,.58,.63-.39,1.01-1.05,1.14-1.76,.12-.66,.19-1.33,.17-2-.01-.38-.06-.75-.11-1.12-.06-.46-.17-.93-.53-1.26-.98-.9-2.27-.38-2.93,.59-.38,.56-.48,1.23-.56,1.89-.08,.69-.04,1.36,.07,2.04s.27,1.34,.75,1.84c.77,.81,1.96,.78,2.78,.05,.51-.45,.82-1.1,.99-1.74,.35-1.32,.35-2.69,.12-4.02-.14-.83-.55-1.55-1.35-1.89-.73-.31-1.6-.23-2.26,.23-1.31,.93-1.64,2.7-1.72,4.2-.04,.69-.04,1.42,.19,2.07,.31,.88,.95,1.67,1.9,1.9,.76,.18,1.66-.24,1.85-1.05,.17-.77-.23-1.65-1.05-1.85-.23-.05,.11,.06,.13,.07-.2-.1,.08,.07,.1,.1,0,0-.11-.11-.12-.12,.04,0,.19,.31,.09,.1-.02-.04-.06-.12-.08-.15,.03,.03,.1,.34,.05,.1-.01-.06-.03-.12-.05-.18-.01-.06-.07-.33-.02-.07s0-.1,0-.17c0-.12,0-.25,0-.37,0-.28,.02-.56,.05-.84,.04-.39-.05,.28,.01-.1,.02-.13,.05-.26,.08-.39s.07-.26,.11-.38c.02-.05,.03-.09,.05-.14,.02-.05,.03-.09,.05-.14,.04-.11,.02-.06-.06,.14,.06-.04,.12-.23,.16-.3,.09-.16,.05,.06-.08,.1,.01,0,.12-.12,.12-.12,0,.01-.26,.17-.14,.11,.06-.03,.23-.11,0,0-.31,.14,.18,0-.16,.05-.15,.02-.17,.02-.05,.02l-.25-.04c.22,.04-.14-.07-.16-.08-.15-.08-.23-.2-.32-.33,.14,.2-.06-.1-.05-.13,0,.01,.04,.16,.04,.16,.03,.13,.05,.26,.07,.39,.03,.21,.05-.02-.01-.09,.04,.04,.02,.21,.03,.26,.02,.26,.03,.52,.03,.78,0,.14,0,.28-.02,.42,0,.07-.01,.14-.02,.21,0,.05-.06,.35-.01,.11,.04-.23,0,0-.01,.06-.01,.07-.02,.14-.04,.21-.02,.12-.05,.25-.08,.37-.03,.1-.06,.2-.09,.29-.08,.23,.03-.1,.05-.12-.02,.02-.12,.2-.13,.22,0-.04,.25-.26,.08-.1-.11,.1-.11,.05,.11-.07s.55-.18,.8-.09c-.05-.02,.61,.39,.48,.27s.21,.29,.11,.14c-.04-.05-.1-.22,0,.02s.03,.08,.02,.01c-.02-.08-.04-.15-.06-.23-.01-.07-.03-.13-.04-.2,0-.03-.05-.36-.02-.1,.03,.23,0,0,0-.06,0-.09-.02-.17-.02-.26-.02-.31-.01-.62,.02-.92,0-.01,0-.18,.02-.2-.03,.21-.04,.26-.02,.14,0-.04,.01-.08,.02-.13,.02-.12,.06-.23,.09-.34,.05-.18-.15,.3-.06,.14,0-.02,.09-.17,.09-.16,.02,.03-.27,.28-.09,.14l-.19,.14c.23-.13,.07-.09-.47,.12l-.76-.2,.05,.03-.54-.54s-.09-.36-.07-.17c0,.07,.02,.14,.04,.2,.04,.21-.02-.01-.01-.09,0,.08,.02,.18,.03,.26,.02,.28,.03,.55,.02,.83,0,.16-.01,.31-.03,.47,0,.06-.03,.14-.02,.21,0-.08,.05-.3,.01-.09-.02,.12-.04,.23-.07,.35-.01,.05-.03,.1-.04,.15-.07,.24,.14-.26,.05-.12s.23-.25,.11-.13c-.05,.05-.03,.04,.07-.05,.06-.06,.13-.1,.21-.12,.29-.13,.64-.11,.89,.09,.07,.04,.12,.09,.15,.16,.07,.1,.08,.12,.04,.05-.08-.14,.06,.27,.05,.11-.01-.04-.02-.09-.03-.13l.03,.22s0-.13,0-.18c0-.06,.02-.12,.01-.18,0,.06-.06,.33-.01,.13,.03-.12,.06-.23,.1-.35,.08-.25-.12,.22-.03,.07,.03-.05,.05-.11,.08-.16,.07-.12,.14-.23,.23-.34,.22-.29,.24-.83,.15-1.16-.1-.35-.36-.73-.69-.9-.35-.18-.77-.28-1.16-.15s-.65,.36-.9,.69h0Z"/><path class="h" d="M11.09,50.02c1.93,0,1.93-3,0-3s-1.93,3,0,3h0Z"/><path class="h" d="M10.18,49.76l.31,.27,1.46-2.51c-1.22-.21-2.85-.12-3.41,1.2s.59,2.41,1.67,2.96,2.52,.8,3.47-.07,.76-2.22,.05-3.17c-1.25-1.67-3.39-2.51-5.18-3.45-1.97-1.03-4.29-1.69-6.14-.03-.83,.75-1.24,1.93-.98,3.02,.23,.94,.93,1.69,1.76,2.15s1.81,.72,2.73,1c1.01,.31,2.02,.67,3.08,.75,1.15,.08,2.49-.36,3.08-1.41,.69-1.21-.06-2.42-.92-3.29-1.34-1.33-3.13-2.32-5-2.63-1.77-.3-5.27-.38-5.26,2.23,0,1.97,1.84,3.66,3.52,4.39,2.07,.91,4.31,.8,6.49,.4,1.2-.22,2.35-.85,2.44-2.2,.07-1.05-.57-2.06-1.27-2.79-1.51-1.59-3.7-2.08-5.8-2.28-1.08-.1-2.25-.22-3.33-.01-1.23,.23-2.1,1.21-2.19,2.46-.14,2.03,1.56,3.72,3.27,4.53,1.89,.89,4.11,1.1,6.17,.9,.97-.09,1.98-.36,2.63-1.14,.8-.95,.79-2.27,.08-3.27-1.15-1.64-3.48-2.66-5.39-3.03-1.04-.2-2.14-.26-3.15,.09-1.19,.41-2.39,1.44-2.04,2.84,.27,1.07,1.33,1.79,2.27,2.24s1.94,.72,3,.79c.93,.06,1.89-.07,2.78-.36,1.04-.34,1.51-1.69,.66-2.51-1.19-1.14-2.7-1.97-4.33-2.25-.77-.14-1.72-.29-2.49-.05-1.2,.37-1.49,1.62-1.14,2.7,.54,1.69,1.99,2.83,3.62,3.39,.81,.28,1.68,.39,2.53,.46s1.75,.02,2.5-.42c1.81-1.06,1.64-3.47,.38-4.87-1.14-1.27-2.88-1.96-4.42-2.6s-3.36-1.45-5.09-.9S-.39,45.51,.11,47.38c.47,1.77,2.17,3.36,3.66,4.32,1.65,1.07,3.76,1.5,5.65,.89,.77-.25,1.27-1.04,1.05-1.85-.21-.76-1.07-1.3-1.85-1.05-1.51,.49-3.04-.19-4.18-1.24-.52-.48-1.22-1.13-1.42-1.78,0-.03-.03-.29-.04-.16,0-.06,.11-.24,.02-.05,.04-.08,.12-.1,.05-.09,.06-.01,0,0,.14-.1,.02-.02,.25-.13,.06-.05,.09-.04,.2-.06,.29-.09,.05-.01,.29-.04,.05-.02,.1,0,.2,0,.31,0,.18,0,.33,.03,.51,.07,.5,.11,.99,.3,1.46,.49,.84,.33,1.67,.67,2.47,1.09,.4,.21,.8,.44,1.17,.7,.17,.12,.49,.43,.54,.53-.02-.04,.05,.42,.05,.2,0-.14,.12-.07-.01,.07,.02-.02,.01-.09,.05-.11,.12-.04,.22-.11,0-.06-.04,0-.28,.03-.07,.01-.11,0-.22,0-.32,0-.87-.01-1.82-.13-2.61-.53-.44-.22-.63-.36-.94-.74-.11-.14-.03-.05-.02-.03-.08-.11-.15-.23-.2-.36-.08-.17-.01-.05,0-.02-.03-.08-.05-.16-.07-.24-.06-.31-.09-.1-.09,.61l-.54,.54c-.48,.09-.55,.12-.23,.1,.12,0,.24,0,.36,0,.18,0,.36,.02,.54,.04,.22,.03,.77,.18,1.1,.3,.66,.23,1.34,.68,1.86,1.18l.66-2.51c-1.04,.34-1.91,.37-2.94,.06-.49-.14-.8-.29-1.28-.61-.03-.02-.32-.21-.18-.13l-.06-.06c-.31-.33-.32,.02-.03,1.05-.13,.01,.2-.08,.1-.05,.06-.02,.34-.11,.48-.13,.26-.04,.79,0,1.14,.07,.55,.11,1.14,.28,1.63,.49,.57,.25,1.15,.57,1.64,.95,.04,.03,.32,.29,.36,.34h-.01c.1,.15,.12,.18,.05,.08-.05-.14-.03-.26,.04-.36,.03-.06,.06-.1,.12-.14-.22,.28,.12-.04-.06,.05-.2,.11,.31-.05-.1,.04-.1,.02-.19,.05-.29,.07-.45,.11,.15,0-.12,.01-.69,.05-1.38,.05-2.07,.01-1.15-.06-2.23-.32-3.15-.9-.3-.19-.72-.55-.9-.83-.05-.08-.11-.17-.15-.26,.1,.21-.02-.08-.03-.14-.06-.21-.05,.27-.02-.11,.03-.33,0,.03-.04,.1-.1,.19-.27,.15,.02,.15,.31,0,.63,0,.94,0,.74,.02,1.48,.05,2.21,.16,.51,.07,1.05,.2,1.54,.37,.23,.08,.44,.17,.65,.29s.51,.32,.59,.39c.19,.16,.38,.34,.52,.54-.11-.15,.08,.14,.1,.18l.04,.07c.09,.17,.1,.2,.05,.1-.07,0,.39-.74,.39-.76l.09-.02c-.1,.03-.19,.06-.29,.08-.31,.08-.64,.13-.96,.17-1.18,.18-2.42,.21-3.56-.17-.77-.25-1.56-.79-1.97-1.48-.04-.07-.12-.32-.19-.36,.01,0,.04,.09,.01,.1,.38-.13-.3,.67-.39,.64,.03,.01,.27-.06,.28-.06-.18,.03,.09-.01,.11-.01,.17-.02,.34-.03,.51-.03,.28,0,.57,0,.85,.03-.2-.02,.15,.02,.19,.03,.14,.03,.28,.05,.42,.09,.28,.07,.55,.15,.82,.24,.41,.15,.87,.38,1.33,.68,.41,.26,.65,.46,1.03,.84,.08,.08,.25,.34,.35,.37-.01,0-.02-.06-.01-.05l.16-.73s.03-.05,.05-.06c0,0-.27,.05-.31,.05-.46,.02-.96-.16-1.45-.31-.68-.21-1.35-.42-2.02-.63-.3-.09-.62-.18-.91-.31,.07,.03,.18,.1-.06-.04-.13-.07-.26-.14-.38-.22,.23,.16-.11-.11-.13-.13,.19,.22-.15-.18,.04,.07-.12-.16-.02-.17-.02-.05,0,.3,.06-.19-.01,.04,.09-.3,.51-.42,.7-.41,.59,0,1.17,.25,1.74,.54,1.28,.65,2.62,1.28,3.81,2.08,.21,.14,.34,.24,.56,.48,.15,.16,.15,.16,.1,.09,.06,.09,.12,.18,.17,.27-.15-.22-.04-.43,.34-.63l.38-.56c-.19,0-.23,0-.12,0-.03,0-.37-.12-.3-.09-.1-.05-.21-.11-.31-.18-.16-.1-.2-.13-.12-.09-.21-.21-.19-.14,.04,.19v.8l-.61,.64c.08-.07,.15-.08,.21-.05,.06,.02,.16,0,.22,0,.67,.11,1.34-.08,1.69-.69,.32-.54,.27-1.39-.23-1.82l-.31-.27c-.61-.53-1.52-.6-2.12,0-.54,.54-.62,1.59,0,2.12h0Z"/><path class="h" d="M8.47,48.2s-.06,0-.1,0l.4,.05s-.06-.01-.09-.03l.36,.15s-.06-.03-.09-.06l.3,.23s-.09-.08-.13-.13l.23,.3c-.07-.09-.12-.18-.17-.28-.03-.05-.06-.1-.09-.15-.09-.12-.18-.24-.28-.36-.02-.02-.04-.05-.07-.07-.02-.02-.04-.04-.06-.06-.11-.09-.23-.19-.36-.27-.02-.01-.05-.03-.07-.04-.11-.05-.26-.12-.38-.16-.01,0-.03,0-.04-.01h-.03c-.07-.02-.14-.03-.22-.04-.07-.01-.14-.02-.21-.03-.02,0-.05,0-.07,0-.13,.01-.32,.02-.46,.07-.11,.04-.27,.1-.37,.16-.02,0-.03,.02-.04,.03-.17,.09-.32,.22-.42,.39-.13,.14-.22,.31-.27,.51-.06,.2-.07,.4-.03,.6,0,.2,.07,.39,.18,.56l.23,.3c.19,.19,.41,.31,.66,.39l.4,.05c.27,0,.52-.07,.76-.2,.02-.01,.04-.02,.06-.03l-.36,.15s.04-.01,.06-.02l-.4,.05s.05,0,.08,0l-.4-.05s.06,.01,.09,.03l-.36-.15s.09,.05,.14,.08l-.3-.23c.05,.04,.1,.09,.15,.15l-.23-.3c.06,.08,.1,.16,.15,.25,.11,.19,.24,.36,.38,.53s.31,.3,.49,.4c.14,.08,.3,.15,.46,.19,.14,.03,.34,.08,.51,.06,.21,0,.4-.04,.58-.13,.19-.06,.35-.16,.48-.31,.15-.14,.25-.3,.31-.48,.09-.18,.14-.37,.13-.58l-.05-.4c-.07-.25-.2-.47-.39-.66l-.3-.23c-.23-.14-.49-.2-.76-.2h0Z"/><path class="h" d="M6.57,47.08c-.53-.07-1.13,.33-1.39,.77-.29,.5-.28,1.14,0,1.65,.22,.38,.6,.73,.93,1.02,.65,.58,1.37,1.12,2.1,1.61,.76,.52,1.62,.89,2.56,.94s1.97-.31,2.57-1.04c.26-.32,.44-.64,.44-1.06,0-.37-.16-.81-.44-1.06-.55-.51-1.59-.65-2.12,0-.03,.04-.07,.08-.11,.12-.12,.15,.06-.05,.12-.08-.04,.02-.1,.06-.14,.09-.22,.15,.24-.07,.1-.03-.11,.03-.21,.06-.32,.08-.17,.04,.32-.01,.15-.02-.05,0-.11,0-.17,0s-.11,0-.17,0c-.18,0,.36,.08,.11,.01-.12-.03-.24-.07-.36-.11-.2-.06,.04,0,.09,.04-.04-.04-.12-.06-.17-.09-.13-.07-.26-.14-.38-.22-.46-.29-.89-.65-1.33-.96,.07,.05,.21,.17,.06,.05-.05-.04-.11-.08-.16-.13-.1-.09-.21-.17-.31-.26-.11-.1-.22-.21-.33-.31-.05-.05-.09-.1-.14-.15-.21-.23,0-.16,.14,.33v.8l.02-.05-.69,.9,.04-.03-.76,.2h.05c.35,.05,.82-.19,1.06-.43,.26-.26,.46-.69,.44-1.06s-.14-.79-.44-1.06c-.31-.29-.64-.39-1.06-.44h0Z"/><path class="h" d="M6.29,54.62c.7,2.82,1.99,5.66,4.27,7.55,.6,.5,1.54,.64,2.12,0,.51-.55,.65-1.59,0-2.12-.5-.41-.93-.88-1.35-1.37-.12-.14,.16,.23,0,0-.04-.06-.09-.12-.13-.18-.1-.13-.19-.27-.28-.41-.18-.28-.35-.56-.5-.86-.15-.28-.28-.56-.41-.85-.02-.04-.15-.33-.06-.13,.09,.19-.01-.04-.03-.08-.06-.15-.12-.31-.18-.47-.22-.62-.41-1.25-.57-1.89-.19-.76-1.09-1.29-1.85-1.05s-1.25,1.03-1.05,1.85h0Z"/><path class="h" d="M12.07,62.25c.34-.11,.07,0,0-.02,.16,.05,.32,.1,.48,.16,.32,.12,.63,.25,.96,.36,.62,.21,1.26,.37,1.91,.48,1.41,.25,2.99,.45,4.36-.09s2.33-1.55,2.77-2.92c.49-1.52,.02-3.08-.93-4.3-.48-.62-1.62-.55-2.12,0-.61,.66-.52,1.46,0,2.12-.14-.18,.21,.5,.13,.26,.04,.12,.07,.24,.1,.37,.05,.24,0-.31,.01,.13,0,.1,0,.2,0,.3,0-.23-.01,.06-.03,.12-.03,.11-.06,.22-.1,.33,.08-.2,0-.02-.05,.07s-.12,.2-.18,.29c.09-.12,.05-.07-.03,.01-.02,.02-.34,.31-.11,.13-.07,.06-.15,.1-.23,.15-.35,.21-.69,.26-1.09,.27-1.08,.03-1.88-.12-2.96-.42-1.19-.33-2.41-1.12-3.68-.7-.74,.25-1.31,1.05-1.05,1.85,.24,.74,1.05,1.31,1.85,1.05h0Z"/></svg>