<?xml version="1.0" encoding="UTF-8"?><svg id="a" xmlns="http://www.w3.org/2000/svg" viewBox="0 0 175.48 75.57"><defs><style>.b{fill:#fabaae;}</style></defs><path class="b" d="M22.1,57.5c-4.2-2.52-9.67-3.96-14.52-2.69-2.5,.66-4.86,2.16-6.25,4.38-1.73,2.76-1.81,6.53-.08,9.32,1.63,2.64,4.27,4.48,7.32,5.11,2.43,.51,4.96,.59,7.43,.78l14.35,1.14c1.4,.11,3.31-.74,4.24-1.76,1.12-1.22,1.64-2.58,1.76-4.24,.3-4.3,.21-8.6-.31-12.88-.32-2.64-.66-5.1-1.95-7.48s-3.66-4.3-6.29-4.99c-3.06-.8-6.4-.07-8.67,2.21-2.03,2.04-2.69,4.8-2.86,7.57-.27,4.59,1.07,9.37,3.47,13.26,1.65,2.67,5.44,3.94,8.21,2.15s3.92-5.35,2.15-8.21c-.37-.6-.69-1.22-1.01-1.84-.62-1.21,.25,.82,.03,.07-.1-.34-.24-.66-.34-1-.2-.67-.35-1.36-.49-2.05-.28-1.4,.06,1.35,0-.08-.01-.28-.04-.56-.05-.84-.02-.67,.09-1.35,.06-2.02-.15,.97-.18,1.22-.08,.75,.03-.17,.07-.33,.13-.5,.04,.19-.66,1.21-.2,.52-.48,.72-1.21,1.39-2.1,1.57-.17,.04-1.48,.05-.66,.09-1-.18-1.26-.21-.79-.09,.44,.13,.22,.02-.66-.32,.88,.49-.71-.8-.25-.28,.68,.78-.14-.28-.16-.26,0,0,.71,1.35,.19,.28-.42-.88,0,.17,.05,.35,.08,.31,.14,.62,.2,.93s.08,.63,.15,.94l-.1-.75c.03,.24,.06,.47,.08,.71,.09,.79,.16,1.58,.22,2.38,.24,3.26,.23,6.53,0,9.79l6-6-10.76-.86-5.5-.44c-.76-.06-1.51-.13-2.27-.18-1.33-.09,1.13,.28-.06-.02-.15-.04-1.07-.37-1.19-.33l.68,.27c-.41-.26-.41-.23,.02,.08,.41,.34,.43,.34,.06,.01,.5,.73,.63,.9,.39,.52-.33-.64,.35,1.34,.12,.33,.16,.46,.18,.93,.07,1.4-.1,.57-.1,.64,.01,.21-.1,.52-.33,.96-.69,1.32-.38,.45-.42,.51-.12,.19,.64-.69-1.01,.74-.43,.34,1-.68-.88,.22-.35,.12,.24-.05,.5-.13,.74-.2,1.04-.32-1.45,.04-.37,.05,.3,0,.6-.02,.9,0,.21,0,1.44,.08,.44,.01s.21,.05,.43,.1c.41,.09,.81,.19,1.21,.31,.19,.06,1,.44,1.18,.4l-.67-.29c.25,.11,.5,.23,.75,.36,.37,.19,.73,.4,1.09,.61,2.69,1.62,6.71,.69,8.21-2.15s.72-6.48-2.15-8.21h0Z"/><path class="b" d="M87.94,18.19c-2.54-3.77-5.91-6.43-10.14-8.07-2.24-.87-4.68-1.22-7.05-.76-2.99,.57-5.3,2.92-6.24,5.75-1.42,4.27,.63,8.85,3.61,11.9,2.15,2.2,4.89,3.7,7.68,4.93,1.48,.65,2.97,1.26,4.42,1.96,.69,.34,1.38,.69,2.04,1.09,.33,.19,.65,.4,.97,.61,.13,.09,.26,.2,.4,.28,.58,.35-1.21-.98-.32-.24,1.52,1.26,3.04,1.92,5.04,1.65,1.75-.24,3.55-1.21,4.38-2.86,3.62-7.19,6.51-14.97,7.86-22.93,.39-2.31,.39-4.51-.54-6.7C98.87,1.98,96.24-.08,93.08,0c-4.83,.12-8.55,5.19-10.55,9.14s-3.22,8.72-2.96,13.34c.17,3.13,2.64,6.15,6,6,3.1-.14,6.19-2.64,6-6-.05-.92-.05-1.84,.02-2.76,.04-.53,.45-1.46-.03,.03,.11-.35,.14-.8,.22-1.16,.18-.84,.42-1.66,.71-2.47,.52-1.45-.47,.87,.06-.21,.18-.35,.34-.71,.52-1.06,.37-.7,.78-1.37,1.23-2.02,.15-.22,.3-.43,.46-.64-.5,.64-.61,.79-.33,.44,.31-.34,.6-.7,.92-1.03,.34-.36,1.24-.86-.07-.11-2.06,1.18-4.95,.1-6.13-1.8,.53,.85-.48-1.43-.2-.47,.29,1.03-.06-1.65-.06-.3s.29-1.3,.09-.39c-.11,.52-.2,1.04-.31,1.56-.19,.89-.39,1.78-.6,2.66-.47,1.92-1.01,3.82-1.62,5.69s-1.31,3.72-2.04,5.56c-.47,1.17,.46-1.01-.1,.24-.19,.42-.37,.83-.56,1.25-.44,.97-.91,1.92-1.38,2.87l9.42-1.21c-2.59-2.14-5.34-3.59-8.41-4.91-1.31-.57-2.63-1.13-3.9-1.78-.61-.32-1.22-.66-1.8-1.03-.3-.19-.59-.45-.9-.62l.73,.56c-.16-.13-.31-.27-.47-.4-.23-.21-.45-.43-.65-.65-.75-.81,.01-.22,.16,.25-.07-.24-.42-.75-.59-.94-.22-.41-.13-.17,.27,.72-.08-.2-.14-.41-.2-.61-.4-1.03,.08,1.41,.04,.32-.04-1.14-.34,1.39-.04,.39-.33,1.09-1.01,1.95-2.07,2.4-.38,.21-.8,.31-1.25,.29,.66,.03,.5-.01-.47-.12,.13,.16,.92,.21,1.11,.26,.32,.09,.76,.32,1.08,.36-.84-.37-.97-.42-.38-.16l.34,.17c.45,.23,.89,.49,1.32,.76l.32,.21c.52,.37,.42,.29-.3-.25,.22,.27,.6,.52,.85,.76,.27,.26,.52,.56,.79,.83,.41,.49,.33,.38-.22-.32,.15,.2,.3,.41,.43,.63,1.75,2.6,5.37,3.99,8.21,2.15,2.59-1.67,4.03-5.43,2.15-8.21h0Z"/><path class="b" d="M149.46,41.66c4.6-2.39,7.06-8.03,6.51-13.07-.34-3.1-1.29-5.76-2.59-8.58-.95-2.06-1.99-4.15-3.66-5.74-2.56-2.42-6.2-3.4-9.52-2-2.71,1.15-4.67,3.58-5.29,6.47-.56,2.62-.31,4.92,.1,7.54,.37,2.36,.81,4.7,1.3,7.04s1.05,4.65,1.67,6.96c.83,3.08,1.54,6.32,4.5,8.09,3.63,2.17,7.43-.16,10.76-1.71l7.02-3.27c3.96-1.84,8.24-3.53,11.32-6.75,2.14-2.24,3.67-5.06,3.87-8.19,.25-3.87-2.13-7.35-5.75-8.63-5.78-2.04-11.22,2.5-15.44,5.82-3.88,3.06-7.37,6.57-10.42,10.45-1.03,1.3-1.76,2.51-1.76,4.24,0,1.47,.65,3.23,1.76,4.24,2.16,1.99,6.41,2.63,8.49,0s4.26-5.01,6.67-7.25c1.15-1.07,2.36-2.08,3.58-3.07,1.14-.93-1.05,.76,.14-.11,.35-.25,.69-.51,1.04-.76,.7-.5,1.4-.99,2.12-1.46,.29-.18,.59-.34,.87-.51,1.04-.64-1.34,.36-.15,.05,.24-.06,.79-.13,.99-.26-.08,.06-1.57,.12-.64,.14l-1-.14c.59,.18,.39,.08-.63-.28-1.17-.65-1.85-1.89-1.86-3.21,.01,1.29,.39-1.41,.04-.14-.29,1.08,.69-1.06,.03-.08-.11,.17-.56,.72-.58,.91l.49-.65c-.16,.18-.32,.36-.49,.53-.09,.09-.8,.63-.8,.73,0-.08,1.23-.86,.34-.27-1.25,.84-2.55,1.56-3.9,2.22-3.34,1.61-6.71,3.13-10.07,4.7l-2.72,1.27-1.13,.53c-3.34,1.56,4.83-2.27,5.87,3.15-.34-1.8-1.03-3.59-1.49-5.37-.9-3.55-1.65-7.13-2.26-10.73-.08-.47-.16-.94-.23-1.41l-.07-.47c-.12-.8-.1-.63,.07,.53,.04-.5-.03-1.07-.04-1.57-.01-1.18-.38,1.47-.06,.36,.08-.27,.2-.58,.25-.85-.21,1.16-1.24,2.06-2.36,2.37-.99,.28-1.95,.09-2.83-.41,.89,.51-.97-1.1-.07-.05,.51,.6-.81-1.31-.19-.27,.24,.4,.49,.79,.7,1.2,.4,.77,.76,1.56,1.13,2.34,.66,1.38-.4-1.21,.1,.23,.2,.57,.41,1.13,.57,1.71,.07,.25,.39,1.06,.3,1.31l-.09-.71c.03,.26,.04,.53,.05,.79,0,.29-.11,.77-.04,1.04,.16-1.02,.17-1.21,.06-.56-.05,.23-.1,.45-.17,.67-.04,.13-.22,.5-.22,.65,.4-.9,.45-1.07,.17-.5-.11,.2-.23,.39-.35,.58l.53-.68c-.14,.17-.3,.33-.46,.48-.47,.41-.33,.3,.43-.32-.19,.12-.39,.23-.59,.33-2.79,1.45-3.85,5.58-2.15,8.21,1.83,2.84,5.23,3.7,8.21,2.15h0Z"/></svg>