<?xml version="1.0" encoding="UTF-8"?><svg xmlns="http://www.w3.org/2000/svg" viewBox="0 0 225.94 165.3"><defs><style>.c{fill:#9fb3e0;}.d{stroke-width:3px;}.d,.e{fill:none;stroke:#9fb3e0;stroke-miterlimit:10;}.e{stroke-width:12px;}</style></defs><g id="a"/><g id="b"><path class="e" d="M215.34,71.99c-8.87-26.99-27.59-43.89-41.81-37.76-.07,.03-.13,.06-.19,.09-.39-15.72-10.64-28.33-23.25-28.33-8.64,0-16.16,5.93-20.18,14.7-3.76-8.78-10.8-14.7-18.88-14.7-7.5,0-14.11,5.09-18.03,12.84-3.92-7.75-10.53-12.84-18.03-12.84-11.7,0-21.22,12.4-21.73,27.95-.27-.14-.55-.28-.83-.4-14.22-6.14-32.94,10.77-41.81,37.76-8.87,26.99-4.54,53.84,9.68,59.98,7.83,3.38,17.02-.24,25.19-8.67,7.12,21.63,22.36,36.58,40.02,36.58,10.96,0,20.98-5.77,28.72-15.31,7.75,9.61,17.81,15.43,28.81,15.43,17.02,0,31.79-13.89,39.21-34.27,7.71,7.18,16.15,10.07,23.42,6.94,14.22-6.14,18.55-32.99,9.68-59.98Z"/><g><ellipse class="c" cx="75.43" cy="96.32" rx="4.52" ry="7.53"/><ellipse class="c" cx="152.2" cy="94.82" rx="4.52" ry="7.53"/><ellipse class="c" cx="113.06" cy="103.85" rx="7.53" ry="4.52"/></g><rect class="d" x="112.31" y="104.6" width="1.51" height="9.03" rx=".5" ry=".5"/></g></svg>