<?xml version="1.0" encoding="UTF-8"?><svg xmlns="http://www.w3.org/2000/svg" viewBox="0 0 232.95 170.32"><defs><style>.c{fill:none;stroke-width:3px;}.c,.d{stroke:#514425;stroke-miterlimit:10;}.e{fill:#514425;}.d{fill:#fff;stroke-width:12px;}</style></defs><g id="a"/><g id="b"><path class="d" d="M222.19,74.15c-9.16-27.87-28.5-45.33-43.18-38.99-.07,.03-.13,.07-.2,.1-.41-16.24-10.99-29.26-24.01-29.26-8.92,0-16.69,6.12-20.84,15.19-3.88-9.07-11.15-15.19-19.5-15.19-7.74,0-14.57,5.26-18.62,13.26-4.05-8-10.87-13.26-18.62-13.26-12.08,0-21.91,12.81-22.44,28.86-.28-.14-.56-.29-.86-.42-14.69-6.34-34.02,11.12-43.18,38.99-9.16,27.87-4.69,55.61,10,61.94,8.09,3.49,17.58-.25,26.01-8.96,7.36,22.34,23.1,37.77,41.33,37.77,11.32,0,21.67-5.96,29.66-15.81,8,9.93,18.39,15.94,29.76,15.94,17.58,0,32.83-14.35,40.49-35.39,7.96,7.41,16.68,10.4,24.19,7.16,14.69-6.34,19.16-34.07,10-61.94Z"/><g><ellipse class="e" cx="77.7" cy="99.28" rx="4.66" ry="7.77"/><ellipse class="e" cx="156.99" cy="97.72" rx="4.66" ry="7.77"/><ellipse class="e" cx="116.57" cy="107.05" rx="7.77" ry="4.66"/></g><rect class="c" x="115.79" y="107.83" width="1.55" height="9.33" rx=".5" ry=".5"/></g></svg>