<?xml version="1.0" encoding="UTF-8"?><svg id="a" xmlns="http://www.w3.org/2000/svg" viewBox="0 0 1922 1081.5"><defs><style>.b{fill:#fabaae;}</style></defs><path class="b" d="M1889.82,674.53c-8.02,2.16-15.42,4.3-23.32,8.97-7.35,4.35-13.64,7.67-21,12-8.98,5.28-16.6,12.58-21.29,16.84-9.41,8.53-16.33,18.25-22.85,30.93-6.44,12.54-9.5,22.78-14.06,36.09-4.85,14.17-10.8,25.41-15.82,39.52-3.62,10.19-9.87,26.87-10.55,29.21-1.72,6.01-4.56,15.35-10.55,24.06-4.67,6.79-12.68,14.92-24.61,22.34-8.48,5.27-19.52,10.04-33.4,13.75-13.19,3.52-23.68,3.52-36.91,6.87-11.94,3.02-21.44,3.27-33.47,5.89-18.21,3.96-28.89,5.4-47.38,7.86-15.67,2.08-28.1,5.66-38.67,10.31-8.8,3.88-17.12,9.01-22.26,12.6-10.52,7.35-24.09,16.89-30.47,21.77-17.49,13.38-36.41,26.32-51.56,33.22-19.17,8.74-31.2,12.84-48.04,20.62-10.93,5.05-31.85,16.46-49.8,23.49-13.53,5.29-25.98,9.21-38.67,12.03-12.59,2.79-24.2,4.49-35.15,5.16-17.24,1.04-30.24-1.4-47.46,0-13.35,1.09-25.57,3.41-36.91,6.87-5.76,1.76-11.3,3.8-16.64,6.08h762v-406.61c-12.46-1.09-21.2-2.55-31.18,.14Z"/></svg>