<svg id="Layer_2" data-name="Layer 2" xmlns="http://www.w3.org/2000/svg" viewBox="0 0 1920 1088"><defs><style>.cls-1{fill:#fff;}</style></defs><path class="cls-1" d="M1619.6,105A164.56,164.56,0,0,0,1522.36,73H446.64a164.47,164.47,0,0,0-96.18,31.17L989,647.19Z"/><path class="cls-1" d="M446.64,1014.1H1522.36c47.18,0,91.54-20.14,124.9-56.73s51.74-85.22,51.74-137V266.73c0-43.48-13-84.77-36.92-118.55L989.15,726.75,307.61,147.22c-24.38,34-37.61,75.62-37.61,119.51V820.41c0,51.74,18.37,100.38,51.74,137S399.46,1014.1,446.64,1014.1Z"/></svg>