<?xml version="1.0" encoding="UTF-8"?><svg id="a" xmlns="http://www.w3.org/2000/svg" viewBox="0 0 1922 1081.5"><defs><style>.b{fill:#d6e2d5;fill-rule:evenodd;stroke:#d6e2d5;stroke-miterlimit:10;}</style></defs><path class="b" d="M1921.5,.5h-571.18c7.56,9.16,14.26,17.39,24.29,25.72,10.24,8.5,22.57,16.34,38.53,23.71,17.72,8.18,55.71,17,94.83,20.74,14.46,1.38,27.43,2.02,40.01,1.48,25.43-1.1,48.97-6.73,60.75-11.85,15.55-6.76,24.39-16.02,38.53-23.71,24.87-13.51,53.69-21.33,81.5-19.26,11.73,.87,36.08,7.42,59.27,19.26,21.14,10.8,31.81,20.79,54.83,25.19,8.94,1.71,26.63,1.18,43.47,0,16.46-1.15,27.57-2.59,35.18-7.09V.5Z"/></svg>