<?xml version="1.0" encoding="UTF-8"?><svg xmlns="http://www.w3.org/2000/svg" viewBox="0 0 1922 1081.5"><defs><style>.d{fill:#fabaae;stroke:#fabaae;}.d,.e,.f{fill-rule:evenodd;stroke-miterlimit:10;}.e{fill:#d6e2d5;stroke:#d6e2d5;}.f{fill:#9fb3e0;stroke:#9fb3e0;}</style></defs><g id="a"><path class="e" d="M1921.5,.5h-571.18c7.56,9.16,14.26,17.39,24.29,25.72,10.24,8.5,22.57,16.34,38.53,23.71,17.72,8.18,55.71,17,94.83,20.74,14.46,1.38,27.43,2.02,40.01,1.48,25.43-1.1,48.97-6.73,60.75-11.85,15.55-6.76,24.39-16.02,38.53-23.71,24.87-13.51,53.69-21.33,81.5-19.26,11.73,.87,36.08,7.42,59.27,19.26,21.14,10.8,31.81,20.79,54.83,25.19,8.94,1.71,26.63,1.18,43.47,0,16.46-1.15,27.57-2.59,35.18-7.09V.5Z"/></g><g id="b"><path class="d" d="M1921,674.39c-12.46-1.09-21.2-2.55-31.18,.14-8.02,2.16-13.19,5.64-21.09,10.31-7.35,4.35-14.32,7.7-21.68,12.03-8.98,5.28-18.15,11.21-22.85,15.47-9.41,8.53-16.33,18.25-22.85,30.93-6.44,12.54-9.5,22.78-14.06,36.09-4.85,14.17-10.8,25.41-15.82,39.52-3.62,10.19-9.87,26.87-10.55,29.21-1.72,6.01-4.56,15.35-10.55,24.06-4.67,6.79-12.68,14.92-24.61,22.34-8.48,5.27-19.52,10.04-33.4,13.75-13.19,3.52-23.68,3.52-36.91,6.87-11.94,3.02-19.6,7.69-31.64,10.31-18.21,3.96-30.73,.98-49.21,3.44-15.67,2.08-28.1,5.66-38.67,10.31-8.8,3.88-17.12,9.01-22.26,12.6-10.52,7.35-24.09,16.89-30.47,21.77-17.49,13.38-34.66,24.45-51.56,33.22-16.45,8.54-31.2,12.84-48.04,20.62-10.93,5.05-31.85,16.46-49.8,23.49-13.53,5.29-25.98,9.21-38.67,12.03-12.59,2.79-24.2,4.49-35.15,5.16-17.24,1.04-30.24-1.4-47.46,0-13.35,1.09-25.57,3.41-36.91,6.87-5.76,1.76-11.3,3.8-16.64,6.08h762v-406.61Z"/></g><g id="c"><path class="f" d="M831.93,1060.28c-7.04-10.26-11.76-22.14-14.27-35.75-10.41-24.3-23.28-47.38-38.58-69.05-14.03-19.89-34.97-43.22-59.35-66.12-26.68-25.05-54.41-46.55-83.09-64.65-23.36-14.74-53.59-29.97-86.06-44.08-23.19-10.08-54.86-21.8-84.58-32.32-29.12-10.32-64.71-23.63-86.06-30.85-21.13-7.15-71.33-26.58-111.29-58.77-17.16-13.83-32.58-29.16-46-45.55-11.58-14.15-26.59-38.9-40.06-63.18-11.48-20.69-23.74-44.07-29.68-58.77-8.63-21.37-15.54-44.32-20.77-69.06-3.43-16.24-6.62-42.41-8.9-66.12-1.95-20.2-3.15-39.63-5.94-58.77-1.85-12.72-4.47-26.98-7.42-41.14-6.37-30.52-13.92-59.54-22.26-83.75-9.18-26.66-20.84-47.21-31.16-73.46-7.24-18.41-16.1-31.7-23.74-49.95-1.42-3.4-12.18-21.78-23.47-34.27C6.41,11.53,3.54,8.63,1,6.58v1.13c0,.13,.01,.26,.02,.39,.18,1.54,.18,3.12,.03,4.63,0,.09-.01,.19-.02,.29,0,.15-.02,.3-.02,.45v10.76c.04,1.99,.1,3.97,.19,5.95,.03,.62-.05,1.16-.19,1.66v.87c.07,.42,.06,.84,0,1.27v47.4s0,.03,0,.04v999.58H847.76c-2.72-5.53-9.5-11.51-15.83-20.72Z"/></g></svg>