<?xml version="1.0" encoding="UTF-8"?><svg xmlns="http://www.w3.org/2000/svg" viewBox="0 0 1922 1081.5"><defs><style>.e{fill:#fabaae;stroke:#fabaae;}.e,.f,.g,.h{fill-rule:evenodd;}.e,.g,.h{stroke-miterlimit:10;}.f{fill:none;}.g{fill:#d6e2d5;stroke:#d6e2d5;}.h{fill:#9fb3e0;stroke:#9fb3e0;}</style></defs><g id="a"><path class="f" d="M759.28,408.35c2.74,3.06,5.35,7.55,5.69,8.38,1.85,4.47,4,7.72,5.76,12.22,2.5,6.42,5.33,11.45,7.55,17.97,2.02,5.92,3.85,13.02,5.4,20.49,.72,3.46,1.35,6.95,1.8,10.07,.68,4.68,.97,9.44,1.44,14.38,.55,5.8,1.33,12.2,2.16,16.18,1.27,6.05,2.94,11.67,5.04,16.9,1.44,3.6,4.41,9.32,7.19,14.38,3.26,5.94,6.9,12,9.71,15.46,3.25,4.01,6.99,7.76,11.15,11.14,9.69,7.88,21.86,12.63,26.98,14.38,5.18,1.77,13.8,5.03,20.86,7.55,7.2,2.58,14.88,5.44,20.5,7.91,7.87,3.45,15.2,7.18,20.86,10.78,6.95,4.43,13.68,9.69,20.14,15.82,5.91,5.6,10.99,11.31,14.39,16.18,3.71,5.3,6.83,10.95,9.35,16.9,.61,3.33,1.75,6.24,3.46,8.75,2.16,3.18,4.54,4.78,4.08,6.72-.58,2.44-5.19,3.41-8.4,3.84-11.87,1.59-26.84,2.57-33.12,1.2-6.37-1.39-37.76-3.3-54.48-4.32-8.26-.5-24.93-.45-37.92-.72-12.5-.26-29.15-.81-36.72-.72-9.95,.12-24.66-.36-26.88,0-5.43,.88-9.82,2.09-13.2-.48-7.34-5.59-.69-22.06,1.68-46.56,.59-6.06,.77-14.7,.72-22.8-.06-9.58-.97-17.35,0-26.88,.38-3.76,2.25-12.37,2.16-19.44-.12-9.33-2.85-15.15-3.12-24.48-.22-7.72,1.51-13.16,1.68-20.88,.16-6.99-.74-13.95-.96-19.92-.21-5.91,.45-10.66,0-16.56-.65-8.64-2.06-13.77,0-21.36,.79-2.91,1.71-5.17,2.16-8.16,.65-4.3,.25-7.18,0-11.52-.18-3.18-.14-7.77,0-12,.07-2.07,.18-3.78,0-5.76-.06-.7-1.55-7.23-.72-7.68,.66-.36,2.15,1.03,3.6,2.64Z"/></g><g id="b"><path class="g" d="M1921.5,.5h-571.18c7.56,9.16,14.26,17.39,24.29,25.72,10.24,8.5,22.57,16.34,38.53,23.71,17.72,8.18,55.71,17,94.83,20.74,14.46,1.38,27.43,2.02,40.01,1.48,25.43-1.1,48.97-6.73,60.75-11.85,15.55-6.76,24.39-16.02,38.53-23.71,24.87-13.51,53.69-21.33,81.5-19.26,11.73,.87,36.08,7.42,59.27,19.26,21.14,10.8,31.81,20.79,54.83,25.19,8.94,1.71,26.63,1.18,43.47,0,16.46-1.15,27.57-2.59,35.18-7.09V.5Z"/></g><g id="c"><path class="e" d="M1921,730.11c-10.51-.94-17.89-2.2-26.3,.12-6.77,1.87-11.13,4.86-17.8,8.9-6.2,3.75-12.08,6.65-18.29,10.38-7.58,4.56-15.32,9.68-19.28,13.35-7.94,7.36-13.78,15.75-19.28,26.69-5.44,10.83-8.02,19.65-11.86,31.14-4.09,12.23-9.11,21.93-13.35,34.11-3.06,8.8-8.33,23.19-8.9,25.21-1.45,5.18-3.85,13.25-8.9,20.76-3.94,5.86-10.7,12.88-20.76,19.28-7.15,4.55-16.47,8.66-28.18,11.86-11.13,3.04-19.98,3.04-31.14,5.93-10.07,2.61-16.54,6.64-26.69,8.9-15.37,3.42-25.92,.85-41.52,2.97-13.22,1.8-23.71,4.88-32.62,8.9-7.42,3.34-14.44,7.77-18.78,10.87-8.87,6.34-20.32,14.58-25.7,18.78-14.76,11.54-29.24,21.1-43.5,28.67-13.88,7.37-26.33,11.08-40.53,17.8-9.22,4.36-26.88,14.21-42.02,20.27-11.41,4.57-21.92,7.95-32.62,10.38-10.62,2.41-20.42,3.88-29.66,4.45-14.55,.9-25.51-1.21-40.04,0-11.26,.94-21.57,2.94-31.14,5.93-4.86,1.52-9.53,3.28-14.04,5.24h642.91v-350.89Z"/></g><g id="d"><path class="h" d="M831.93,1060.28c-7.04-10.26-11.76-22.14-14.27-35.75-10.41-24.3-23.28-47.38-38.58-69.05-14.03-19.89-34.97-43.22-59.35-66.12-26.68-25.05-54.41-46.55-83.09-64.65-23.36-14.74-53.59-29.97-86.06-44.08-23.19-10.08-54.86-21.8-84.58-32.32-29.12-10.32-64.71-23.63-86.06-30.85-21.13-7.15-71.33-26.58-111.29-58.77-17.16-13.83-32.58-29.16-46-45.55-11.58-14.15-26.59-38.9-40.06-63.18-11.48-20.69-23.74-44.07-29.68-58.77-8.63-21.37-15.54-44.32-20.77-69.06-3.43-16.24-6.62-42.41-8.9-66.12-1.95-20.2-3.15-39.63-5.94-58.77-1.85-12.72-4.47-26.98-7.42-41.14-6.37-30.52-13.92-59.54-22.26-83.75-9.18-26.66-20.84-47.21-31.16-73.46-7.24-18.41-16.1-31.7-23.74-49.95-1.42-3.4-12.18-21.78-23.47-34.27C6.41,11.53,3.54,8.63,1,6.58v1.13c0,.13,.01,.26,.02,.39,.18,1.54,.18,3.12,.03,4.63,0,.09-.01,.19-.02,.29,0,.15-.02,.3-.02,.45v10.76c.04,1.99,.1,3.97,.19,5.95,.03,.62-.05,1.16-.19,1.66v.87c.07,.42,.06,.84,0,1.27v47.4s0,.03,0,.04v999.58H847.76c-2.72-5.53-9.5-11.51-15.83-20.72Z"/></g></svg>